G04*
G04 #@! TF.GenerationSoftware,Altium Limited,Altium Designer,20.0.12 (288)*
G04*
G04 Layer_Physical_Order=1*
G04 Layer_Color=255*
%FSLAX24Y24*%
%MOIN*%
G70*
G01*
G75*
%ADD14C,0.0100*%
%ADD45R,0.0354X0.0413*%
%ADD46R,0.0358X0.0480*%
%ADD47R,0.0276X0.0354*%
G04:AMPARAMS|DCode=48|XSize=17.7mil|YSize=53.1mil|CornerRadius=1.9mil|HoleSize=0mil|Usage=FLASHONLY|Rotation=0.000|XOffset=0mil|YOffset=0mil|HoleType=Round|Shape=RoundedRectangle|*
%AMROUNDEDRECTD48*
21,1,0.0177,0.0493,0,0,0.0*
21,1,0.0138,0.0531,0,0,0.0*
1,1,0.0039,0.0069,-0.0246*
1,1,0.0039,-0.0069,-0.0246*
1,1,0.0039,-0.0069,0.0246*
1,1,0.0039,0.0069,0.0246*
%
%ADD48ROUNDEDRECTD48*%
%ADD49R,0.0433X0.0492*%
%ADD50R,0.0335X0.0295*%
%ADD51R,0.0354X0.0394*%
%ADD52R,0.0492X0.0433*%
%ADD53R,0.0335X0.0335*%
G04:AMPARAMS|DCode=54|XSize=21.7mil|YSize=31.5mil|CornerRadius=1.9mil|HoleSize=0mil|Usage=FLASHONLY|Rotation=180.000|XOffset=0mil|YOffset=0mil|HoleType=Round|Shape=RoundedRectangle|*
%AMROUNDEDRECTD54*
21,1,0.0217,0.0276,0,0,180.0*
21,1,0.0178,0.0315,0,0,180.0*
1,1,0.0039,-0.0089,0.0138*
1,1,0.0039,0.0089,0.0138*
1,1,0.0039,0.0089,-0.0138*
1,1,0.0039,-0.0089,-0.0138*
%
%ADD54ROUNDEDRECTD54*%
%ADD55R,0.0295X0.0335*%
%ADD56R,0.0512X0.0354*%
%ADD57R,0.0315X0.0394*%
%ADD58R,0.0236X0.0315*%
%ADD59C,0.0200*%
%ADD60C,0.0500*%
%ADD61C,0.0630*%
%ADD62R,0.0630X0.0630*%
%ADD63R,0.0500X0.1000*%
%ADD64O,0.0500X0.1000*%
%ADD65R,0.0610X0.0610*%
%ADD66C,0.0610*%
%ADD67C,0.5100*%
%ADD68C,0.0594*%
%ADD69R,0.0594X0.0594*%
%ADD70O,0.0949X0.1898*%
%ADD71C,0.0902*%
%ADD72C,0.0512*%
%ADD73C,0.0591*%
%ADD74R,0.0591X0.0591*%
G36*
X41500Y8850D02*
X0D01*
Y50350D01*
X41500D01*
Y8850D01*
D02*
G37*
%LPC*%
G36*
X19650Y48153D02*
X19559Y48141D01*
X19473Y48106D01*
X19400Y48050D01*
X19344Y47977D01*
X19309Y47891D01*
X19297Y47800D01*
Y47300D01*
X19309Y47209D01*
X19344Y47123D01*
X19400Y47050D01*
X19473Y46994D01*
X19559Y46959D01*
X19650Y46947D01*
X19741Y46959D01*
X19827Y46994D01*
X19900Y47050D01*
X19956Y47123D01*
X19991Y47209D01*
X20003Y47300D01*
Y47800D01*
X19991Y47891D01*
X19956Y47977D01*
X19900Y48050D01*
X19827Y48106D01*
X19741Y48141D01*
X19650Y48153D01*
D02*
G37*
G36*
X18650D02*
X18559Y48141D01*
X18473Y48106D01*
X18400Y48050D01*
X18344Y47977D01*
X18309Y47891D01*
X18297Y47800D01*
Y47300D01*
X18309Y47209D01*
X18344Y47123D01*
X18400Y47050D01*
X18473Y46994D01*
X18559Y46959D01*
X18650Y46947D01*
X18741Y46959D01*
X18827Y46994D01*
X18900Y47050D01*
X18956Y47123D01*
X18991Y47209D01*
X19003Y47300D01*
Y47800D01*
X18991Y47891D01*
X18956Y47977D01*
X18900Y48050D01*
X18827Y48106D01*
X18741Y48141D01*
X18650Y48153D01*
D02*
G37*
G36*
X17650D02*
X17559Y48141D01*
X17473Y48106D01*
X17400Y48050D01*
X17344Y47977D01*
X17309Y47891D01*
X17297Y47800D01*
Y47437D01*
X17265Y47431D01*
X17198Y47387D01*
X16806Y46994D01*
X16762Y46928D01*
X16746Y46850D01*
Y32200D01*
X16762Y32122D01*
X16806Y32056D01*
X17282Y31580D01*
X17282Y31580D01*
X17348Y31536D01*
X17426Y31520D01*
X17562D01*
Y31284D01*
X17578Y31206D01*
X17596Y31178D01*
Y31086D01*
X17546Y31061D01*
X17500Y31097D01*
X17404Y31137D01*
X17300Y31150D01*
X17196Y31137D01*
X17100Y31097D01*
X17017Y31033D01*
X16953Y30950D01*
X16913Y30854D01*
X16900Y30750D01*
X16913Y30646D01*
X16953Y30550D01*
X17017Y30467D01*
X17100Y30403D01*
X17196Y30363D01*
X17300Y30350D01*
X17404Y30363D01*
X17500Y30403D01*
X17547Y30439D01*
X17602Y30419D01*
X17612Y30372D01*
X17656Y30306D01*
X18106Y29856D01*
X18172Y29812D01*
X18250Y29796D01*
X20966D01*
X21096Y29666D01*
Y28094D01*
X21017Y28033D01*
X20953Y27950D01*
X20913Y27854D01*
X20900Y27750D01*
X20913Y27646D01*
X20953Y27550D01*
X21017Y27467D01*
X21096Y27406D01*
Y27334D01*
X19969Y26207D01*
X19832D01*
Y26135D01*
X16055D01*
X15977Y26119D01*
X15911Y26075D01*
X15547Y25712D01*
X15487D01*
X15441Y25703D01*
X15401Y25676D01*
X15375Y25637D01*
X15365Y25590D01*
Y25530D01*
X15216Y25380D01*
X15067D01*
Y25444D01*
X14821D01*
X13609Y26656D01*
Y27403D01*
X13662D01*
Y27997D01*
X13396D01*
X12499Y28894D01*
X12433Y28938D01*
X12355Y28954D01*
X1742D01*
X1682Y29032D01*
X1599Y29095D01*
X1503Y29135D01*
X1400Y29149D01*
X1297Y29135D01*
X1201Y29095D01*
X1118Y29032D01*
X1055Y28949D01*
X1015Y28853D01*
X1001Y28750D01*
X1015Y28647D01*
X1055Y28551D01*
X1118Y28468D01*
X1201Y28405D01*
X1297Y28365D01*
X1400Y28351D01*
X1503Y28365D01*
X1599Y28405D01*
X1682Y28468D01*
X1742Y28546D01*
X12270D01*
X13147Y27669D01*
Y27403D01*
X13201D01*
Y26572D01*
X13216Y26494D01*
X13261Y26427D01*
X14533Y25155D01*
Y24909D01*
Y24774D01*
X14800D01*
X15067D01*
Y24972D01*
X15300D01*
X15378Y24988D01*
X15445Y25032D01*
X15605Y25192D01*
X15665D01*
X15711Y25201D01*
X15751Y25228D01*
X15777Y25267D01*
X15787Y25314D01*
Y25374D01*
X16090Y25677D01*
X16129Y25646D01*
X16123Y25637D01*
X16113Y25590D01*
Y25314D01*
X16123Y25267D01*
X16149Y25228D01*
X16189Y25201D01*
X16235Y25192D01*
X16368D01*
X16501Y25058D01*
X16551Y25025D01*
X16609Y25014D01*
X16894D01*
Y24783D01*
X17250D01*
X17606D01*
Y24889D01*
Y25444D01*
X16894D01*
Y25319D01*
X16673D01*
X16535Y25458D01*
Y25590D01*
X16525Y25637D01*
X16499Y25676D01*
X16498Y25677D01*
X16513Y25727D01*
X19066D01*
X19635Y25158D01*
Y24783D01*
X20600D01*
Y25100D01*
Y25417D01*
X19953D01*
X19689Y25681D01*
X19708Y25727D01*
X19832D01*
Y25693D01*
X20268D01*
Y25923D01*
X20296Y25946D01*
X20344Y25925D01*
Y25693D01*
X20780D01*
Y25880D01*
X21944Y27044D01*
X21988Y27110D01*
X22004Y27188D01*
X22004Y27188D01*
Y27414D01*
X22054Y27439D01*
X22100Y27403D01*
X22196Y27363D01*
X22250Y27356D01*
Y27750D01*
Y28144D01*
X22196Y28137D01*
X22100Y28097D01*
X22054Y28061D01*
X22004Y28086D01*
Y29166D01*
X23201Y30363D01*
X23300Y30350D01*
X23404Y30363D01*
X23500Y30403D01*
X23583Y30467D01*
X23647Y30550D01*
X23687Y30646D01*
X23700Y30750D01*
X23687Y30854D01*
X23647Y30950D01*
X23583Y31033D01*
X23500Y31097D01*
X23404Y31137D01*
X23300Y31150D01*
X23196Y31137D01*
X23100Y31097D01*
X23017Y31033D01*
X22953Y30950D01*
X22913Y30854D01*
X22900Y30750D01*
X22913Y30651D01*
X21656Y29394D01*
X21612Y29328D01*
X21596Y29250D01*
Y28086D01*
X21546Y28061D01*
X21504Y28094D01*
Y29666D01*
X21941Y30103D01*
X21985Y30169D01*
X22001Y30247D01*
Y30416D01*
X22051Y30441D01*
X22100Y30403D01*
X22196Y30363D01*
X22300Y30350D01*
X22404Y30363D01*
X22500Y30403D01*
X22583Y30467D01*
X22647Y30550D01*
X22687Y30646D01*
X22700Y30750D01*
X22687Y30854D01*
X22647Y30950D01*
X22583Y31033D01*
X22504Y31094D01*
Y31743D01*
X22593D01*
Y31846D01*
X22777D01*
Y31710D01*
X23335D01*
Y32390D01*
X22777D01*
Y32254D01*
X22593D01*
Y32357D01*
X21507D01*
Y31743D01*
X21580D01*
Y31092D01*
X21535Y31070D01*
X21500Y31097D01*
X21404Y31137D01*
X21350Y31144D01*
Y30750D01*
Y30356D01*
X21404Y30363D01*
X21500Y30403D01*
X21543Y30436D01*
X21593Y30412D01*
Y30331D01*
X21300Y30038D01*
X21194Y30144D01*
X21128Y30188D01*
X21050Y30204D01*
X18334D01*
X18230Y30309D01*
X18253Y30356D01*
X18300Y30350D01*
X18404Y30363D01*
X18500Y30403D01*
X18583Y30467D01*
X18647Y30550D01*
X18687Y30646D01*
X18700Y30750D01*
X18687Y30854D01*
X18647Y30950D01*
X18611Y30996D01*
X18636Y31046D01*
X18964D01*
X18989Y30996D01*
X18953Y30950D01*
X18913Y30854D01*
X18900Y30750D01*
X18913Y30646D01*
X18953Y30550D01*
X19017Y30467D01*
X19100Y30403D01*
X19196Y30363D01*
X19300Y30350D01*
X19404Y30363D01*
X19500Y30403D01*
X19583Y30467D01*
X19647Y30550D01*
X19687Y30646D01*
X19700Y30750D01*
X19687Y30854D01*
X19647Y30950D01*
X19611Y30996D01*
X19636Y31046D01*
X19716D01*
X19913Y30849D01*
X19900Y30750D01*
X19913Y30646D01*
X19953Y30550D01*
X20017Y30467D01*
X20100Y30403D01*
X20196Y30363D01*
X20300Y30350D01*
X20404Y30363D01*
X20500Y30403D01*
X20583Y30467D01*
X20647Y30550D01*
X20687Y30646D01*
X20700Y30750D01*
X20687Y30854D01*
X20647Y30950D01*
X20583Y31033D01*
X20500Y31097D01*
X20404Y31137D01*
X20300Y31150D01*
X20201Y31137D01*
X19944Y31394D01*
X19878Y31438D01*
X19800Y31454D01*
X18744D01*
X18725Y31478D01*
Y31674D01*
X18534D01*
Y31724D01*
X18500D01*
X18488Y31780D01*
X18484Y31787D01*
Y32092D01*
X18465D01*
X18418Y32083D01*
X18406Y32075D01*
X18394Y32083D01*
X18347Y32092D01*
X18209D01*
X18162Y32083D01*
X18150Y32075D01*
X18138Y32083D01*
X18091Y32092D01*
X18072D01*
Y31724D01*
X17972D01*
Y32092D01*
X17953D01*
X17906Y32083D01*
X17894Y32075D01*
X17882Y32083D01*
X17835Y32092D01*
X17697D01*
X17650Y32083D01*
X17611Y32056D01*
X17584Y32017D01*
X17575Y31970D01*
Y31928D01*
X17510D01*
X17154Y32284D01*
Y33729D01*
X17204Y33750D01*
X17542Y33411D01*
X17545Y33398D01*
X17575Y33353D01*
Y33230D01*
X17584Y33183D01*
X17611Y33144D01*
X17650Y33117D01*
X17697Y33108D01*
X17835D01*
X17882Y33117D01*
X17894Y33125D01*
X17906Y33117D01*
X17953Y33108D01*
X18091D01*
X18138Y33117D01*
X18150Y33125D01*
X18162Y33117D01*
X18209Y33108D01*
X18347D01*
X18394Y33117D01*
X18406Y33125D01*
X18418Y33117D01*
X18465Y33108D01*
X18603D01*
X18650Y33117D01*
X18689Y33144D01*
X18716Y33183D01*
X18725Y33230D01*
Y33272D01*
X19267D01*
X19271Y33273D01*
X19543D01*
Y33827D01*
X19067D01*
Y33680D01*
X18725D01*
Y33722D01*
X18716Y33769D01*
X18689Y33808D01*
X18650Y33835D01*
X18603Y33844D01*
X18582D01*
X18550Y33883D01*
X18553Y33897D01*
Y34103D01*
X18677D01*
Y34697D01*
X17611D01*
Y34103D01*
X17735D01*
Y33909D01*
X17695Y33875D01*
X17658Y33873D01*
X17504Y34027D01*
Y43866D01*
X17588Y43950D01*
X18000D01*
Y45150D01*
X17300D01*
Y44238D01*
X17204Y44142D01*
X17154Y44163D01*
Y46766D01*
X17422Y47034D01*
X17473Y46994D01*
X17559Y46959D01*
X17650Y46947D01*
X17741Y46959D01*
X17827Y46994D01*
X17900Y47050D01*
X17956Y47123D01*
X17991Y47209D01*
X18003Y47300D01*
Y47800D01*
X17991Y47891D01*
X17981Y47916D01*
X17977Y47935D01*
X17966Y47952D01*
X17956Y47977D01*
X17900Y48050D01*
X17827Y48106D01*
X17741Y48141D01*
X17650Y48153D01*
D02*
G37*
G36*
X20650D02*
X20559Y48141D01*
X20473Y48106D01*
X20400Y48050D01*
X20344Y47977D01*
X20309Y47891D01*
X20297Y47800D01*
Y47300D01*
X20309Y47209D01*
X20344Y47123D01*
X20400Y47050D01*
X20473Y46994D01*
X20559Y46959D01*
X20650Y46947D01*
X20741Y46959D01*
X20827Y46994D01*
X20878Y47034D01*
X20996Y46916D01*
Y45004D01*
X20946Y44989D01*
X20900Y45050D01*
X20827Y45106D01*
X20741Y45141D01*
X20700Y45146D01*
Y44550D01*
Y43954D01*
X20741Y43959D01*
X20827Y43994D01*
X20900Y44050D01*
X20946Y44111D01*
X20996Y44096D01*
Y34219D01*
X20608Y33831D01*
X20233D01*
Y33689D01*
X20133D01*
Y33827D01*
X19657D01*
Y33273D01*
X20133D01*
Y33281D01*
X20233D01*
Y33139D01*
Y32865D01*
X20550D01*
X20867D01*
Y33139D01*
Y33513D01*
X21344Y33990D01*
X21344Y33990D01*
X21388Y34057D01*
X21404Y34135D01*
X21404Y34135D01*
Y47000D01*
X21388Y47078D01*
X21344Y47144D01*
X21102Y47387D01*
X21035Y47431D01*
X21003Y47437D01*
Y47800D01*
X20991Y47891D01*
X20956Y47977D01*
X20900Y48050D01*
X20827Y48106D01*
X20741Y48141D01*
X20650Y48153D01*
D02*
G37*
G36*
X20600Y45146D02*
X20559Y45141D01*
X20473Y45106D01*
X20400Y45050D01*
X20344Y44977D01*
X20309Y44891D01*
X20297Y44800D01*
Y44600D01*
X20600D01*
Y45146D01*
D02*
G37*
G36*
Y44500D02*
X20297D01*
Y44300D01*
X20309Y44209D01*
X20344Y44123D01*
X20400Y44050D01*
X20473Y43994D01*
X20559Y43959D01*
X20600Y43954D01*
Y44500D01*
D02*
G37*
G36*
X19650Y45153D02*
X19559Y45141D01*
X19473Y45106D01*
X19400Y45050D01*
X19344Y44977D01*
X19309Y44891D01*
X19297Y44800D01*
Y44300D01*
X19309Y44209D01*
X19344Y44123D01*
X19400Y44050D01*
X19473Y43994D01*
X19559Y43959D01*
X19650Y43947D01*
X19741Y43959D01*
X19827Y43994D01*
X19900Y44050D01*
X19956Y44123D01*
X19991Y44209D01*
X20003Y44300D01*
Y44800D01*
X19991Y44891D01*
X19956Y44977D01*
X19900Y45050D01*
X19827Y45106D01*
X19741Y45141D01*
X19650Y45153D01*
D02*
G37*
G36*
X18650D02*
X18559Y45141D01*
X18473Y45106D01*
X18400Y45050D01*
X18344Y44977D01*
X18309Y44891D01*
X18297Y44800D01*
Y44300D01*
X18309Y44209D01*
X18344Y44123D01*
X18400Y44050D01*
X18473Y43994D01*
X18559Y43959D01*
X18650Y43947D01*
X18741Y43959D01*
X18827Y43994D01*
X18900Y44050D01*
X18956Y44123D01*
X18991Y44209D01*
X19003Y44300D01*
Y44800D01*
X18991Y44891D01*
X18956Y44977D01*
X18900Y45050D01*
X18827Y45106D01*
X18741Y45141D01*
X18650Y45153D01*
D02*
G37*
G36*
X30255Y42205D02*
X29445D01*
Y41395D01*
X30255D01*
Y42205D01*
D02*
G37*
G36*
X12105D02*
X11295D01*
Y41395D01*
X12105D01*
Y42205D01*
D02*
G37*
G36*
X29850Y41209D02*
X29744Y41195D01*
X29646Y41154D01*
X29561Y41089D01*
X29496Y41004D01*
X29455Y40906D01*
X29441Y40800D01*
X29455Y40694D01*
X29496Y40596D01*
X29561Y40511D01*
X29646Y40446D01*
X29744Y40405D01*
X29850Y40391D01*
X29956Y40405D01*
X30054Y40446D01*
X30139Y40511D01*
X30204Y40596D01*
X30245Y40694D01*
X30259Y40800D01*
X30245Y40906D01*
X30204Y41004D01*
X30139Y41089D01*
X30054Y41154D01*
X29956Y41195D01*
X29850Y41209D01*
D02*
G37*
G36*
X11700D02*
X11594Y41195D01*
X11496Y41154D01*
X11411Y41089D01*
X11346Y41004D01*
X11305Y40906D01*
X11291Y40800D01*
X11305Y40694D01*
X11346Y40596D01*
X11411Y40511D01*
X11496Y40446D01*
X11594Y40405D01*
X11700Y40391D01*
X11806Y40405D01*
X11904Y40446D01*
X11989Y40511D01*
X12054Y40596D01*
X12095Y40694D01*
X12109Y40800D01*
X12095Y40906D01*
X12054Y41004D01*
X11989Y41089D01*
X11904Y41154D01*
X11806Y41195D01*
X11700Y41209D01*
D02*
G37*
G36*
X37150Y40954D02*
X36853Y40937D01*
X36559Y40888D01*
X36273Y40805D01*
X35998Y40691D01*
X35738Y40547D01*
X35495Y40375D01*
X35273Y40177D01*
X35075Y39955D01*
X34903Y39712D01*
X34759Y39452D01*
X34645Y39177D01*
X34562Y38891D01*
X34513Y38597D01*
X34496Y38300D01*
X34513Y38003D01*
X34562Y37709D01*
X34645Y37423D01*
X34759Y37148D01*
X34903Y36888D01*
X35075Y36645D01*
X35273Y36423D01*
X35495Y36225D01*
X35738Y36053D01*
X35998Y35909D01*
X36273Y35795D01*
X36559Y35712D01*
X36853Y35663D01*
X37150Y35646D01*
X37447Y35663D01*
X37741Y35712D01*
X38027Y35795D01*
X38302Y35909D01*
X38562Y36053D01*
X38805Y36225D01*
X39027Y36423D01*
X39225Y36645D01*
X39397Y36888D01*
X39541Y37148D01*
X39655Y37423D01*
X39738Y37709D01*
X39787Y38003D01*
X39804Y38300D01*
X39787Y38597D01*
X39738Y38891D01*
X39655Y39177D01*
X39541Y39452D01*
X39397Y39712D01*
X39225Y39955D01*
X39027Y40177D01*
X38805Y40375D01*
X38562Y40547D01*
X38302Y40691D01*
X38027Y40805D01*
X37741Y40888D01*
X37447Y40937D01*
X37150Y40954D01*
D02*
G37*
G36*
X4350D02*
X4053Y40937D01*
X3759Y40888D01*
X3473Y40805D01*
X3198Y40691D01*
X2938Y40547D01*
X2695Y40375D01*
X2473Y40177D01*
X2275Y39955D01*
X2103Y39712D01*
X1959Y39452D01*
X1845Y39177D01*
X1762Y38891D01*
X1713Y38597D01*
X1696Y38300D01*
X1713Y38003D01*
X1762Y37709D01*
X1845Y37423D01*
X1959Y37148D01*
X2103Y36888D01*
X2275Y36645D01*
X2473Y36423D01*
X2695Y36225D01*
X2938Y36053D01*
X3198Y35909D01*
X3473Y35795D01*
X3759Y35712D01*
X4053Y35663D01*
X4350Y35646D01*
X4647Y35663D01*
X4941Y35712D01*
X5227Y35795D01*
X5502Y35909D01*
X5762Y36053D01*
X6005Y36225D01*
X6227Y36423D01*
X6425Y36645D01*
X6597Y36888D01*
X6741Y37148D01*
X6855Y37423D01*
X6938Y37709D01*
X6987Y38003D01*
X7004Y38300D01*
X6987Y38597D01*
X6938Y38891D01*
X6855Y39177D01*
X6741Y39452D01*
X6597Y39712D01*
X6425Y39955D01*
X6227Y40177D01*
X6005Y40375D01*
X5762Y40547D01*
X5502Y40691D01*
X5227Y40805D01*
X4941Y40888D01*
X4647Y40937D01*
X4350Y40954D01*
D02*
G37*
G36*
X20867Y32765D02*
X20600D01*
Y32469D01*
X20867D01*
Y32765D01*
D02*
G37*
G36*
X20500D02*
X20233D01*
Y32469D01*
X20500D01*
Y32765D01*
D02*
G37*
G36*
X24623Y32390D02*
X24394D01*
Y32100D01*
X24623D01*
Y32390D01*
D02*
G37*
G36*
X24294D02*
X24065D01*
Y32100D01*
X24294D01*
Y32390D01*
D02*
G37*
G36*
X30600Y32854D02*
X27200D01*
X27122Y32838D01*
X27056Y32794D01*
X25399Y31137D01*
X25300Y31150D01*
X25196Y31137D01*
X25100Y31097D01*
X25017Y31033D01*
X24953Y30950D01*
X24913Y30854D01*
X24900Y30750D01*
X24913Y30646D01*
X24953Y30550D01*
X25017Y30467D01*
X25100Y30403D01*
X25196Y30363D01*
X25300Y30350D01*
X25404Y30363D01*
X25500Y30403D01*
X25583Y30467D01*
X25647Y30550D01*
X25687Y30646D01*
X25700Y30750D01*
X25687Y30849D01*
X27284Y32446D01*
X30516D01*
X30706Y32256D01*
X30772Y32212D01*
X30850Y32196D01*
X32685D01*
X32688Y32191D01*
X32754Y32104D01*
X32841Y32038D01*
X32942Y31996D01*
X33050Y31981D01*
X33158Y31996D01*
X33259Y32038D01*
X33346Y32104D01*
X33412Y32191D01*
X33454Y32292D01*
X33469Y32400D01*
X33454Y32508D01*
X33412Y32609D01*
X33346Y32696D01*
X33259Y32762D01*
X33158Y32804D01*
X33050Y32819D01*
X32942Y32804D01*
X32841Y32762D01*
X32754Y32696D01*
X32688Y32609D01*
X32685Y32604D01*
X30934D01*
X30744Y32794D01*
X30678Y32838D01*
X30600Y32854D01*
D02*
G37*
G36*
X18603Y32092D02*
X18584D01*
Y31774D01*
X18725D01*
Y31970D01*
X18716Y32017D01*
X18689Y32056D01*
X18650Y32083D01*
X18603Y32092D01*
D02*
G37*
G36*
X24623Y32000D02*
X24394D01*
Y31710D01*
X24623D01*
Y32000D01*
D02*
G37*
G36*
X24294D02*
X24065D01*
Y31710D01*
X24294D01*
Y32000D01*
D02*
G37*
G36*
X27650Y32254D02*
X27572Y32238D01*
X27506Y32194D01*
X26435Y31124D01*
X26404Y31137D01*
X26300Y31150D01*
X26196Y31137D01*
X26100Y31097D01*
X26017Y31033D01*
X25953Y30950D01*
X25913Y30854D01*
X25900Y30750D01*
X25913Y30646D01*
X25953Y30550D01*
X26017Y30467D01*
X26100Y30403D01*
X26196Y30363D01*
X26300Y30350D01*
X26404Y30363D01*
X26500Y30403D01*
X26583Y30467D01*
X26647Y30550D01*
X26687Y30646D01*
X26700Y30750D01*
X26693Y30805D01*
X27734Y31846D01*
X30166D01*
X30756Y31256D01*
X30822Y31212D01*
X30900Y31196D01*
X32685D01*
X32688Y31191D01*
X32754Y31104D01*
X32841Y31038D01*
X32942Y30996D01*
X33050Y30981D01*
X33158Y30996D01*
X33259Y31038D01*
X33346Y31104D01*
X33412Y31191D01*
X33454Y31292D01*
X33469Y31400D01*
X33454Y31508D01*
X33412Y31609D01*
X33346Y31696D01*
X33259Y31762D01*
X33158Y31804D01*
X33050Y31819D01*
X32942Y31804D01*
X32841Y31762D01*
X32754Y31696D01*
X32688Y31609D01*
X32685Y31604D01*
X30984D01*
X30394Y32194D01*
X30328Y32238D01*
X30250Y32254D01*
X27650D01*
X27650Y32254D01*
D02*
G37*
G36*
X15300Y31150D02*
X15196Y31137D01*
X15100Y31097D01*
X15017Y31033D01*
X14956Y30954D01*
X1742D01*
X1682Y31032D01*
X1599Y31095D01*
X1503Y31135D01*
X1400Y31149D01*
X1297Y31135D01*
X1201Y31095D01*
X1118Y31032D01*
X1055Y30949D01*
X1015Y30853D01*
X1001Y30750D01*
X1015Y30647D01*
X1055Y30551D01*
X1118Y30468D01*
X1201Y30405D01*
X1297Y30365D01*
X1400Y30351D01*
X1503Y30365D01*
X1599Y30405D01*
X1682Y30468D01*
X1742Y30546D01*
X14956D01*
X15017Y30467D01*
X15100Y30403D01*
X15196Y30363D01*
X15300Y30350D01*
X15404Y30363D01*
X15500Y30403D01*
X15583Y30467D01*
X15647Y30550D01*
X15687Y30646D01*
X15700Y30750D01*
X15687Y30854D01*
X15647Y30950D01*
X15583Y31033D01*
X15500Y31097D01*
X15404Y31137D01*
X15300Y31150D01*
D02*
G37*
G36*
X21250Y31144D02*
X21196Y31137D01*
X21100Y31097D01*
X21017Y31033D01*
X20953Y30950D01*
X20913Y30854D01*
X20906Y30800D01*
X21250D01*
Y31144D01*
D02*
G37*
G36*
Y30700D02*
X20906D01*
X20913Y30646D01*
X20953Y30550D01*
X21017Y30467D01*
X21100Y30403D01*
X21196Y30363D01*
X21250Y30356D01*
Y30700D01*
D02*
G37*
G36*
X24300Y31150D02*
X24196Y31137D01*
X24100Y31097D01*
X24017Y31033D01*
X23953Y30950D01*
X23913Y30854D01*
X23900Y30750D01*
X23913Y30646D01*
X23953Y30550D01*
X24017Y30467D01*
X24100Y30403D01*
X24196Y30363D01*
X24300Y30350D01*
X24404Y30363D01*
X24500Y30403D01*
X24583Y30467D01*
X24647Y30550D01*
X24687Y30646D01*
X24700Y30750D01*
X24687Y30854D01*
X24647Y30950D01*
X24583Y31033D01*
X24500Y31097D01*
X24404Y31137D01*
X24300Y31150D01*
D02*
G37*
G36*
X16300D02*
X16196Y31137D01*
X16100Y31097D01*
X16017Y31033D01*
X15953Y30950D01*
X15913Y30854D01*
X15900Y30750D01*
X15913Y30651D01*
X15216Y29954D01*
X1742D01*
X1682Y30032D01*
X1599Y30095D01*
X1503Y30135D01*
X1400Y30149D01*
X1297Y30135D01*
X1201Y30095D01*
X1118Y30032D01*
X1055Y29949D01*
X1015Y29853D01*
X1001Y29750D01*
X1015Y29647D01*
X1055Y29551D01*
X1118Y29468D01*
X1201Y29405D01*
X1297Y29365D01*
X1400Y29351D01*
X1503Y29365D01*
X1599Y29405D01*
X1682Y29468D01*
X1742Y29546D01*
X15300D01*
X15378Y29562D01*
X15444Y29606D01*
X16201Y30363D01*
X16300Y30350D01*
X16404Y30363D01*
X16500Y30403D01*
X16583Y30467D01*
X16647Y30550D01*
X16687Y30646D01*
X16700Y30750D01*
X16687Y30854D01*
X16647Y30950D01*
X16583Y31033D01*
X16500Y31097D01*
X16404Y31137D01*
X16300Y31150D01*
D02*
G37*
G36*
X29850Y31704D02*
X28050D01*
X27972Y31688D01*
X27906Y31644D01*
X27399Y31137D01*
X27300Y31150D01*
X27196Y31137D01*
X27100Y31097D01*
X27017Y31033D01*
X26953Y30950D01*
X26913Y30854D01*
X26900Y30750D01*
X26913Y30646D01*
X26953Y30550D01*
X27017Y30467D01*
X27100Y30403D01*
X27196Y30363D01*
X27300Y30350D01*
X27404Y30363D01*
X27500Y30403D01*
X27583Y30467D01*
X27647Y30550D01*
X27687Y30646D01*
X27700Y30750D01*
X27687Y30849D01*
X28134Y31296D01*
X29766D01*
X30806Y30256D01*
X30872Y30212D01*
X30950Y30196D01*
X32685D01*
X32688Y30191D01*
X32754Y30104D01*
X32841Y30038D01*
X32942Y29996D01*
X33050Y29981D01*
X33158Y29996D01*
X33259Y30038D01*
X33346Y30104D01*
X33412Y30191D01*
X33454Y30292D01*
X33469Y30400D01*
X33454Y30508D01*
X33412Y30609D01*
X33346Y30696D01*
X33259Y30762D01*
X33158Y30804D01*
X33050Y30819D01*
X32942Y30804D01*
X32841Y30762D01*
X32754Y30696D01*
X32688Y30609D01*
X32685Y30604D01*
X31034D01*
X29994Y31644D01*
X29928Y31688D01*
X29850Y31704D01*
D02*
G37*
G36*
X28300Y31150D02*
X28196Y31137D01*
X28100Y31097D01*
X28017Y31033D01*
X27953Y30950D01*
X27913Y30854D01*
X27900Y30750D01*
X27913Y30646D01*
X27953Y30550D01*
X28017Y30467D01*
X28100Y30403D01*
X28196Y30363D01*
X28300Y30350D01*
X28404Y30363D01*
X28500Y30403D01*
X28583Y30467D01*
X28605Y30496D01*
X29566D01*
X30806Y29256D01*
X30872Y29212D01*
X30950Y29196D01*
X30950Y29196D01*
X32685D01*
X32688Y29191D01*
X32754Y29104D01*
X32841Y29038D01*
X32942Y28996D01*
X33050Y28981D01*
X33158Y28996D01*
X33259Y29038D01*
X33346Y29104D01*
X33412Y29191D01*
X33454Y29292D01*
X33469Y29400D01*
X33454Y29508D01*
X33412Y29609D01*
X33346Y29696D01*
X33259Y29762D01*
X33158Y29804D01*
X33050Y29819D01*
X32942Y29804D01*
X32841Y29762D01*
X32754Y29696D01*
X32688Y29609D01*
X32685Y29604D01*
X31034D01*
X29794Y30844D01*
X29728Y30888D01*
X29650Y30904D01*
X28666D01*
X28647Y30950D01*
X28583Y31033D01*
X28500Y31097D01*
X28404Y31137D01*
X28300Y31150D01*
D02*
G37*
G36*
X28950Y28454D02*
X27800D01*
X27722Y28438D01*
X27656Y28394D01*
X27399Y28137D01*
X27300Y28150D01*
X27196Y28137D01*
X27100Y28097D01*
X27017Y28033D01*
X26953Y27950D01*
X26913Y27854D01*
X26900Y27750D01*
X26913Y27646D01*
X26953Y27550D01*
X27017Y27467D01*
X27100Y27403D01*
X27196Y27363D01*
X27300Y27350D01*
X27404Y27363D01*
X27500Y27403D01*
X27583Y27467D01*
X27647Y27550D01*
X27687Y27646D01*
X27700Y27750D01*
X27687Y27849D01*
X27884Y28046D01*
X27964D01*
X27989Y27996D01*
X27953Y27950D01*
X27913Y27854D01*
X27900Y27750D01*
X27913Y27646D01*
X27953Y27550D01*
X28017Y27467D01*
X28100Y27403D01*
X28196Y27363D01*
X28300Y27350D01*
X28404Y27363D01*
X28471Y27391D01*
X30606Y25256D01*
X30672Y25212D01*
X30750Y25196D01*
X32635D01*
Y24985D01*
X33465D01*
Y25815D01*
X32635D01*
Y25604D01*
X30834D01*
X28699Y27739D01*
X28700Y27750D01*
X28687Y27854D01*
X28647Y27950D01*
X28611Y27996D01*
X28636Y28046D01*
X28866D01*
X30656Y26256D01*
X30722Y26212D01*
X30800Y26196D01*
X32685D01*
X32688Y26191D01*
X32754Y26104D01*
X32841Y26038D01*
X32942Y25996D01*
X33050Y25981D01*
X33158Y25996D01*
X33259Y26038D01*
X33346Y26104D01*
X33412Y26191D01*
X33454Y26292D01*
X33469Y26400D01*
X33454Y26508D01*
X33412Y26609D01*
X33346Y26696D01*
X33259Y26762D01*
X33158Y26804D01*
X33050Y26819D01*
X32942Y26804D01*
X32841Y26762D01*
X32754Y26696D01*
X32688Y26609D01*
X32685Y26604D01*
X30884D01*
X29094Y28394D01*
X29028Y28438D01*
X28950Y28454D01*
D02*
G37*
G36*
X29950Y29504D02*
X26850D01*
X26772Y29488D01*
X26706Y29444D01*
X25399Y28137D01*
X25300Y28150D01*
X25196Y28137D01*
X25100Y28097D01*
X25017Y28033D01*
X24953Y27950D01*
X24913Y27854D01*
X24900Y27750D01*
X24913Y27646D01*
X24953Y27550D01*
X25017Y27467D01*
X25100Y27403D01*
X25196Y27363D01*
X25300Y27350D01*
X25404Y27363D01*
X25500Y27403D01*
X25583Y27467D01*
X25647Y27550D01*
X25687Y27646D01*
X25700Y27750D01*
X25687Y27849D01*
X26934Y29096D01*
X29866D01*
X30756Y28206D01*
X30822Y28162D01*
X30900Y28146D01*
X32722D01*
X32754Y28104D01*
X32841Y28038D01*
X32942Y27996D01*
X33050Y27981D01*
X33158Y27996D01*
X33259Y28038D01*
X33346Y28104D01*
X33412Y28191D01*
X33454Y28292D01*
X33469Y28400D01*
X33454Y28508D01*
X33412Y28609D01*
X33346Y28696D01*
X33259Y28762D01*
X33158Y28804D01*
X33050Y28819D01*
X32942Y28804D01*
X32841Y28762D01*
X32754Y28696D01*
X32688Y28609D01*
X32665Y28554D01*
X30984D01*
X30094Y29444D01*
X30028Y29488D01*
X29950Y29504D01*
D02*
G37*
G36*
X15697Y28147D02*
X14903D01*
Y27904D01*
X14253D01*
Y27997D01*
X13738D01*
Y27403D01*
X14253D01*
Y27496D01*
X14903D01*
Y27353D01*
X15697D01*
Y28147D01*
D02*
G37*
G36*
X22350Y28144D02*
Y27800D01*
X22694D01*
X22687Y27854D01*
X22647Y27950D01*
X22583Y28033D01*
X22500Y28097D01*
X22404Y28137D01*
X22350Y28144D01*
D02*
G37*
G36*
X1795Y28145D02*
X1450D01*
Y27800D01*
X1795D01*
Y28145D01*
D02*
G37*
G36*
X1350D02*
X1005D01*
Y27800D01*
X1350D01*
Y28145D01*
D02*
G37*
G36*
X22694Y27700D02*
X22350D01*
Y27356D01*
X22404Y27363D01*
X22500Y27403D01*
X22583Y27467D01*
X22647Y27550D01*
X22687Y27646D01*
X22694Y27700D01*
D02*
G37*
G36*
X1795D02*
X1450D01*
Y27355D01*
X1795D01*
Y27700D01*
D02*
G37*
G36*
X1350D02*
X1005D01*
Y27355D01*
X1350D01*
Y27700D01*
D02*
G37*
G36*
X20300Y28150D02*
X20196Y28137D01*
X20100Y28097D01*
X20017Y28033D01*
X19953Y27950D01*
X19913Y27854D01*
X19900Y27750D01*
X19913Y27646D01*
X19953Y27550D01*
X20017Y27467D01*
X20100Y27403D01*
X20196Y27363D01*
X20300Y27350D01*
X20404Y27363D01*
X20500Y27403D01*
X20583Y27467D01*
X20647Y27550D01*
X20687Y27646D01*
X20700Y27750D01*
X20687Y27854D01*
X20647Y27950D01*
X20583Y28033D01*
X20500Y28097D01*
X20404Y28137D01*
X20300Y28150D01*
D02*
G37*
G36*
X19300D02*
X19196Y28137D01*
X19100Y28097D01*
X19017Y28033D01*
X18953Y27950D01*
X18913Y27854D01*
X18900Y27750D01*
X18913Y27646D01*
X18953Y27550D01*
X19017Y27467D01*
X19100Y27403D01*
X19196Y27363D01*
X19300Y27350D01*
X19404Y27363D01*
X19500Y27403D01*
X19583Y27467D01*
X19647Y27550D01*
X19687Y27646D01*
X19700Y27750D01*
X19687Y27854D01*
X19647Y27950D01*
X19583Y28033D01*
X19500Y28097D01*
X19404Y28137D01*
X19300Y28150D01*
D02*
G37*
G36*
X18300D02*
X18196Y28137D01*
X18100Y28097D01*
X18017Y28033D01*
X17953Y27950D01*
X17913Y27854D01*
X17900Y27750D01*
X17913Y27646D01*
X17953Y27550D01*
X18017Y27467D01*
X18100Y27403D01*
X18196Y27363D01*
X18300Y27350D01*
X18404Y27363D01*
X18500Y27403D01*
X18583Y27467D01*
X18647Y27550D01*
X18687Y27646D01*
X18700Y27750D01*
X18687Y27854D01*
X18647Y27950D01*
X18583Y28033D01*
X18500Y28097D01*
X18404Y28137D01*
X18300Y28150D01*
D02*
G37*
G36*
X17300D02*
X17196Y28137D01*
X17100Y28097D01*
X17017Y28033D01*
X16953Y27950D01*
X16913Y27854D01*
X16900Y27750D01*
X16913Y27646D01*
X16953Y27550D01*
X17017Y27467D01*
X17100Y27403D01*
X17196Y27363D01*
X17300Y27350D01*
X17404Y27363D01*
X17500Y27403D01*
X17583Y27467D01*
X17647Y27550D01*
X17687Y27646D01*
X17700Y27750D01*
X17687Y27854D01*
X17647Y27950D01*
X17583Y28033D01*
X17500Y28097D01*
X17404Y28137D01*
X17300Y28150D01*
D02*
G37*
G36*
X16300D02*
X16196Y28137D01*
X16100Y28097D01*
X16017Y28033D01*
X15953Y27950D01*
X15913Y27854D01*
X15900Y27750D01*
X15913Y27646D01*
X15953Y27550D01*
X16017Y27467D01*
X16100Y27403D01*
X16196Y27363D01*
X16300Y27350D01*
X16404Y27363D01*
X16500Y27403D01*
X16583Y27467D01*
X16647Y27550D01*
X16687Y27646D01*
X16700Y27750D01*
X16687Y27854D01*
X16647Y27950D01*
X16583Y28033D01*
X16500Y28097D01*
X16404Y28137D01*
X16300Y28150D01*
D02*
G37*
G36*
X27357Y28954D02*
X27279Y28938D01*
X27213Y28894D01*
X27213Y28894D01*
X26440Y28121D01*
X26404Y28137D01*
X26300Y28150D01*
X26196Y28137D01*
X26100Y28097D01*
X26017Y28033D01*
X25953Y27950D01*
X25913Y27854D01*
X25900Y27750D01*
X25913Y27646D01*
X25953Y27550D01*
X26017Y27467D01*
X26100Y27403D01*
X26196Y27363D01*
X26300Y27350D01*
X26404Y27363D01*
X26500Y27403D01*
X26583Y27467D01*
X26647Y27550D01*
X26687Y27646D01*
X26700Y27750D01*
X26694Y27798D01*
X27442Y28546D01*
X29416D01*
X30706Y27256D01*
X30772Y27212D01*
X30850Y27196D01*
X32685D01*
X32688Y27191D01*
X32754Y27104D01*
X32841Y27038D01*
X32942Y26996D01*
X33050Y26981D01*
X33158Y26996D01*
X33259Y27038D01*
X33346Y27104D01*
X33412Y27191D01*
X33454Y27292D01*
X33469Y27400D01*
X33454Y27508D01*
X33412Y27609D01*
X33346Y27696D01*
X33259Y27762D01*
X33158Y27804D01*
X33050Y27819D01*
X32942Y27804D01*
X32841Y27762D01*
X32754Y27696D01*
X32688Y27609D01*
X32685Y27604D01*
X30934D01*
X29644Y28894D01*
X29578Y28938D01*
X29500Y28954D01*
X27357D01*
X27357Y28954D01*
D02*
G37*
G36*
X20996Y25417D02*
X20700D01*
Y25150D01*
X20996D01*
Y25417D01*
D02*
G37*
G36*
Y25050D02*
X20700D01*
Y24783D01*
X20996D01*
Y25050D01*
D02*
G37*
G36*
X17606Y24683D02*
X17300D01*
Y24456D01*
X17606D01*
Y24683D01*
D02*
G37*
G36*
X17200D02*
X16894D01*
Y24456D01*
X17200D01*
Y24683D01*
D02*
G37*
G36*
X15067Y24674D02*
X14850D01*
Y24456D01*
X15067D01*
Y24674D01*
D02*
G37*
G36*
X14750D02*
X14533D01*
Y24456D01*
X14750D01*
Y24674D01*
D02*
G37*
G36*
X23300Y28150D02*
X23196Y28137D01*
X23100Y28097D01*
X23017Y28033D01*
X22953Y27950D01*
X22913Y27854D01*
X22900Y27750D01*
X22913Y27646D01*
X22953Y27550D01*
X23017Y27467D01*
X23086Y27414D01*
Y25792D01*
X23036Y25754D01*
X22979Y25679D01*
X22943Y25593D01*
X22931Y25500D01*
X22943Y25407D01*
X22951Y25387D01*
X22946Y25360D01*
Y24644D01*
X22883D01*
Y24148D01*
Y23954D01*
X23150D01*
X23417D01*
Y24148D01*
Y24644D01*
X23354D01*
Y25149D01*
X23383Y25153D01*
X23469Y25189D01*
X23544Y25246D01*
X23601Y25321D01*
X23637Y25407D01*
X23649Y25500D01*
X23637Y25593D01*
X23601Y25679D01*
X23544Y25754D01*
X23494Y25792D01*
Y27401D01*
X23500Y27403D01*
X23583Y27467D01*
X23647Y27550D01*
X23687Y27646D01*
X23700Y27750D01*
X23687Y27854D01*
X23647Y27950D01*
X23583Y28033D01*
X23500Y28097D01*
X23404Y28137D01*
X23300Y28150D01*
D02*
G37*
G36*
X24300D02*
X24196Y28137D01*
X24100Y28097D01*
X24017Y28033D01*
X23953Y27950D01*
X23913Y27854D01*
X23900Y27750D01*
X23913Y27646D01*
X23953Y27550D01*
X24017Y27467D01*
X24100Y27403D01*
X24196Y27363D01*
X24300Y27350D01*
X24306Y27344D01*
Y25792D01*
X24256Y25754D01*
X24199Y25679D01*
X24163Y25593D01*
X24151Y25500D01*
X24163Y25407D01*
X24199Y25321D01*
X24256Y25246D01*
X24331Y25189D01*
X24417Y25153D01*
X24496Y25143D01*
Y24644D01*
X24433D01*
Y24148D01*
Y23954D01*
X24700D01*
X24967D01*
Y24148D01*
Y24644D01*
X24904D01*
Y25310D01*
X24888Y25388D01*
X24860Y25431D01*
X24869Y25500D01*
X24857Y25593D01*
X24821Y25679D01*
X24764Y25754D01*
X24714Y25792D01*
Y27540D01*
X24699Y27618D01*
X24684Y27640D01*
X24687Y27646D01*
X24700Y27750D01*
X24687Y27854D01*
X24647Y27950D01*
X24583Y28033D01*
X24500Y28097D01*
X24404Y28137D01*
X24300Y28150D01*
D02*
G37*
G36*
X24967Y23854D02*
X24750D01*
Y23656D01*
X24967D01*
Y23854D01*
D02*
G37*
G36*
X24650D02*
X24433D01*
Y23656D01*
X24650D01*
Y23854D01*
D02*
G37*
G36*
X23417D02*
X23200D01*
Y23656D01*
X23417D01*
Y23854D01*
D02*
G37*
G36*
X23100D02*
X22883D01*
Y23656D01*
X23100D01*
Y23854D01*
D02*
G37*
G36*
X15904Y23817D02*
X15706D01*
Y23600D01*
X15904D01*
Y23817D01*
D02*
G37*
G36*
Y23500D02*
X15706D01*
Y23283D01*
X15904D01*
Y23500D01*
D02*
G37*
G36*
X27050Y21356D02*
X26906Y21337D01*
X26772Y21281D01*
X26657Y21193D01*
X26569Y21078D01*
X26513Y20944D01*
X26494Y20800D01*
X26513Y20656D01*
X26569Y20522D01*
X26657Y20407D01*
X26772Y20319D01*
X26906Y20263D01*
X27050Y20244D01*
X27194Y20263D01*
X27328Y20319D01*
X27443Y20407D01*
X27531Y20522D01*
X27587Y20656D01*
X27606Y20800D01*
X27587Y20944D01*
X27531Y21078D01*
X27443Y21193D01*
X27328Y21281D01*
X27194Y21337D01*
X27050Y21356D01*
D02*
G37*
G36*
X16471D02*
X16327Y21337D01*
X16193Y21281D01*
X16078Y21193D01*
X15990Y21078D01*
X15935Y20944D01*
X15916Y20800D01*
X15935Y20656D01*
X15990Y20522D01*
X16078Y20407D01*
X16193Y20319D01*
X16327Y20263D01*
X16471Y20244D01*
X16615Y20263D01*
X16749Y20319D01*
X16864Y20407D01*
X16952Y20522D01*
X17008Y20656D01*
X17027Y20800D01*
X17008Y20944D01*
X16952Y21078D01*
X16864Y21193D01*
X16749Y21281D01*
X16615Y21337D01*
X16471Y21356D01*
D02*
G37*
G36*
X16194Y25009D02*
X15756D01*
X15677Y24994D01*
X15611Y24950D01*
X15498Y24836D01*
X15453Y24770D01*
X15439Y24697D01*
X15401Y24672D01*
X15375Y24633D01*
X15365Y24586D01*
Y24310D01*
X15375Y24263D01*
X15401Y24224D01*
X15441Y24197D01*
X15487Y24188D01*
X15665D01*
X15711Y24197D01*
X15726Y24207D01*
X15763Y24220D01*
X15800Y24207D01*
X15815Y24197D01*
X15861Y24188D01*
X15900D01*
Y24448D01*
X16000D01*
Y24188D01*
X16039D01*
X16085Y24197D01*
X16125Y24224D01*
X16149D01*
X16189Y24197D01*
X16235Y24188D01*
X16242D01*
Y23830D01*
X16225Y23817D01*
X16004D01*
Y23550D01*
Y23283D01*
X16220D01*
X20818Y18684D01*
X20891Y18628D01*
X20976Y18593D01*
X21068Y18581D01*
X31439D01*
Y18459D01*
X31459Y18310D01*
X31517Y18170D01*
X31609Y18050D01*
X31729Y17958D01*
X31869Y17900D01*
X32018Y17880D01*
X32168Y17900D01*
X32308Y17958D01*
X32428Y18050D01*
X32520Y18170D01*
X32578Y18310D01*
X32598Y18459D01*
Y19408D01*
X32578Y19558D01*
X32520Y19698D01*
X32428Y19818D01*
X32308Y19910D01*
X32168Y19968D01*
X32018Y19988D01*
X31869Y19968D01*
X31729Y19910D01*
X31609Y19818D01*
X31517Y19698D01*
X31459Y19558D01*
X31439Y19408D01*
Y19287D01*
X21214D01*
X16701Y23800D01*
X16694Y23805D01*
Y23817D01*
X16678D01*
X16650Y23839D01*
Y24326D01*
X16634Y24404D01*
X16590Y24470D01*
X16535Y24526D01*
Y24586D01*
X16525Y24633D01*
X16499Y24672D01*
X16462Y24697D01*
Y24735D01*
X16447Y24813D01*
X16402Y24879D01*
X16357Y24925D01*
X16344Y24944D01*
X16339Y24950D01*
X16273Y24994D01*
X16194Y25009D01*
D02*
G37*
G36*
X37150Y22754D02*
X36853Y22737D01*
X36559Y22688D01*
X36273Y22605D01*
X35998Y22491D01*
X35738Y22347D01*
X35495Y22175D01*
X35273Y21977D01*
X35075Y21755D01*
X34903Y21512D01*
X34759Y21252D01*
X34645Y20977D01*
X34562Y20691D01*
X34513Y20397D01*
X34496Y20100D01*
X34513Y19803D01*
X34562Y19509D01*
X34645Y19223D01*
X34759Y18948D01*
X34903Y18688D01*
X35075Y18445D01*
X35273Y18223D01*
X35495Y18025D01*
X35738Y17853D01*
X35998Y17709D01*
X36273Y17595D01*
X36559Y17512D01*
X36853Y17463D01*
X37150Y17446D01*
X37447Y17463D01*
X37741Y17512D01*
X38027Y17595D01*
X38302Y17709D01*
X38562Y17853D01*
X38805Y18025D01*
X39027Y18223D01*
X39225Y18445D01*
X39397Y18688D01*
X39541Y18948D01*
X39655Y19223D01*
X39738Y19509D01*
X39787Y19803D01*
X39804Y20100D01*
X39787Y20397D01*
X39738Y20691D01*
X39655Y20977D01*
X39541Y21252D01*
X39397Y21512D01*
X39225Y21755D01*
X39027Y21977D01*
X38805Y22175D01*
X38562Y22347D01*
X38302Y22491D01*
X38027Y22605D01*
X37741Y22688D01*
X37447Y22737D01*
X37150Y22754D01*
D02*
G37*
G36*
X4350D02*
X4053Y22737D01*
X3759Y22688D01*
X3473Y22605D01*
X3198Y22491D01*
X2938Y22347D01*
X2695Y22175D01*
X2473Y21977D01*
X2275Y21755D01*
X2103Y21512D01*
X1959Y21252D01*
X1845Y20977D01*
X1762Y20691D01*
X1713Y20397D01*
X1696Y20100D01*
X1713Y19803D01*
X1762Y19509D01*
X1845Y19223D01*
X1959Y18948D01*
X2103Y18688D01*
X2275Y18445D01*
X2473Y18223D01*
X2695Y18025D01*
X2938Y17853D01*
X3198Y17709D01*
X3473Y17595D01*
X3759Y17512D01*
X4053Y17463D01*
X4350Y17446D01*
X4647Y17463D01*
X4941Y17512D01*
X5227Y17595D01*
X5502Y17709D01*
X5762Y17853D01*
X6005Y18025D01*
X6227Y18223D01*
X6425Y18445D01*
X6597Y18688D01*
X6741Y18948D01*
X6855Y19223D01*
X6938Y19509D01*
X6987Y19803D01*
X7004Y20100D01*
X6987Y20397D01*
X6938Y20691D01*
X6855Y20977D01*
X6741Y21252D01*
X6597Y21512D01*
X6425Y21755D01*
X6227Y21977D01*
X6005Y22175D01*
X5762Y22347D01*
X5502Y22491D01*
X5227Y22605D01*
X4941Y22688D01*
X4647Y22737D01*
X4350Y22754D01*
D02*
G37*
G36*
X32069Y14883D02*
Y13885D01*
X32598D01*
Y14310D01*
X32578Y14460D01*
X32520Y14600D01*
X32428Y14720D01*
X32308Y14812D01*
X32168Y14869D01*
X32069Y14883D01*
D02*
G37*
G36*
X31969D02*
X31869Y14869D01*
X31729Y14812D01*
X31609Y14720D01*
X31517Y14600D01*
X31459Y14460D01*
X31439Y14310D01*
Y13885D01*
X31969D01*
Y14883D01*
D02*
G37*
G36*
X32598Y13785D02*
X32069D01*
Y12788D01*
X32168Y12801D01*
X32308Y12859D01*
X32428Y12951D01*
X32520Y13071D01*
X32578Y13211D01*
X32598Y13361D01*
Y13785D01*
D02*
G37*
G36*
X31969D02*
X31439D01*
Y13361D01*
X31459Y13211D01*
X31517Y13071D01*
X31609Y12951D01*
X31729Y12859D01*
X31869Y12801D01*
X31969Y12788D01*
Y13785D01*
D02*
G37*
G36*
X21739Y12497D02*
X21595Y12478D01*
X21461Y12423D01*
X21346Y12335D01*
X21258Y12220D01*
X21202Y12086D01*
X21183Y11942D01*
X21202Y11798D01*
X21258Y11664D01*
X21346Y11549D01*
X21461Y11461D01*
X21595Y11405D01*
X21739Y11386D01*
X21883Y11405D01*
X22017Y11461D01*
X22132Y11549D01*
X22220Y11664D01*
X22276Y11798D01*
X22295Y11942D01*
X22276Y12086D01*
X22220Y12220D01*
X22132Y12335D01*
X22017Y12423D01*
X21883Y12478D01*
X21739Y12497D01*
D02*
G37*
%LPD*%
D14*
X18278Y33476D02*
Y33674D01*
X18295Y33692D01*
Y33792D01*
X18005Y33493D02*
X18022Y33476D01*
X17888Y33909D02*
Y34400D01*
X18005Y33493D02*
Y33792D01*
X17888Y33909D02*
X18005Y33792D01*
X18400Y33897D02*
Y34400D01*
X18295Y33792D02*
X18400Y33897D01*
X15576Y24448D02*
Y24540D01*
X16324Y25452D02*
X16609Y25167D01*
X17250D01*
D45*
X21784Y32050D02*
D03*
X22316D02*
D03*
D46*
X24344D02*
D03*
X23056D02*
D03*
D47*
X19895Y33550D02*
D03*
X19305D02*
D03*
D48*
X17766Y31724D02*
D03*
X18022D02*
D03*
X18278D02*
D03*
X17766Y33476D02*
D03*
X18022D02*
D03*
X18278D02*
D03*
X18534D02*
D03*
Y31724D02*
D03*
D49*
X20550Y32815D02*
D03*
Y33485D02*
D03*
D50*
X24700Y24396D02*
D03*
Y23904D02*
D03*
X23150Y24396D02*
D03*
Y23904D02*
D03*
D51*
X18400Y34400D02*
D03*
X17888D02*
D03*
D52*
X19981Y25100D02*
D03*
X20650D02*
D03*
D53*
X14800Y25176D02*
D03*
Y24724D02*
D03*
D54*
X15576Y24448D02*
D03*
X15950D02*
D03*
X16324D02*
D03*
Y25452D02*
D03*
X15576D02*
D03*
D55*
X15954Y23550D02*
D03*
X16446D02*
D03*
D56*
X17250Y25167D02*
D03*
Y24733D02*
D03*
D57*
X13405Y27700D02*
D03*
X13995D02*
D03*
D58*
X20562Y25950D02*
D03*
X20050D02*
D03*
D59*
X25300Y27750D02*
X26850Y29300D01*
X29950D01*
X30900Y28350D01*
X27200Y32650D02*
X30600D01*
X30850Y32400D01*
X33050D01*
X27650Y32050D02*
X30250D01*
X30900Y31400D02*
X33050D01*
X30250Y32050D02*
X30900Y31400D01*
X28050Y31500D02*
X29850D01*
X30950Y30400D01*
X33050D01*
X28350Y30700D02*
X29650D01*
X30950Y29400D01*
X33050D01*
X33000Y28350D02*
X33050Y28400D01*
X30900Y28350D02*
X33000D01*
X27357Y28750D02*
X29500D01*
X30850Y27400D01*
X33050D01*
X28300Y27750D02*
X28400D01*
X30750Y25400D01*
X33050D01*
X25300Y30750D02*
X27200Y32650D01*
X26300Y30750D02*
X26350D01*
X27650Y32050D01*
X27300Y30750D02*
X28050Y31500D01*
X28300Y30750D02*
X28350Y30700D01*
X26357Y27750D02*
X27357Y28750D01*
X26300Y27750D02*
X26357D01*
X27300D02*
X27800Y28250D01*
X28950D02*
X30800Y26400D01*
X27800Y28250D02*
X28950D01*
X30800Y26400D02*
X33050D01*
X21784Y30968D02*
Y32050D01*
Y30968D02*
X21797Y30956D01*
Y30247D02*
Y30956D01*
X21300Y29750D02*
X21797Y30247D01*
X22316Y32050D02*
X23056D01*
X22300Y30750D02*
Y32034D01*
X22316Y32050D01*
X16950Y32200D02*
Y46850D01*
X17300Y43950D02*
X17650Y44300D01*
X17511Y47243D02*
X17650Y47381D01*
X16950Y46850D02*
X17343Y47243D01*
X17511D01*
X17650Y47550D02*
Y47719D01*
X17789Y47857D01*
X21200Y34135D02*
Y47000D01*
X1400Y30750D02*
X15300D01*
X18250Y30000D02*
X21050D01*
X21300Y29750D01*
X17800Y30450D02*
X18250Y30000D01*
X17800Y30450D02*
Y31250D01*
X17766Y31284D02*
X17800Y31250D01*
X17766Y31284D02*
Y31724D01*
X19800Y31250D02*
X20300Y30750D01*
X18450Y31250D02*
X19800D01*
X18300Y31400D02*
X18450Y31250D01*
X18278Y31724D02*
X18300Y31702D01*
Y31400D02*
Y31702D01*
X17426Y31724D02*
X17733D01*
X16950Y32200D02*
X17426Y31724D01*
X17650Y47381D02*
Y47550D01*
X17300Y33942D02*
X17733Y33509D01*
X17300Y33942D02*
Y43950D01*
X17650Y44300D02*
Y44550D01*
X20650Y47381D02*
Y47550D01*
Y47381D02*
X20789Y47243D01*
X20957D01*
X21200Y47000D01*
X20550Y33485D02*
Y33514D01*
X20667Y33631D01*
X20696D01*
X21200Y34135D01*
X19895Y33522D02*
Y33550D01*
Y33522D02*
X19933Y33485D01*
X20550D01*
X18534Y33476D02*
X19267D01*
X19305Y33514D01*
Y33550D01*
X17733Y33476D02*
Y33509D01*
X15300Y29750D02*
X16300Y30750D01*
X1400Y29750D02*
X15300D01*
X15250Y27700D02*
X15300Y27750D01*
X13995Y27700D02*
X15250D01*
X14800Y25176D02*
X15300D01*
X24300Y27750D02*
X24510Y27540D01*
Y25500D02*
Y27540D01*
X23290Y27740D02*
X23300Y27750D01*
X23290Y25500D02*
Y27740D01*
X24510Y25500D02*
X24700Y25310D01*
Y24396D02*
Y25310D01*
X23150Y25360D02*
X23290Y25500D01*
X23150Y24396D02*
Y25360D01*
X21800Y29250D02*
X23300Y30750D01*
X21800Y27188D02*
Y29250D01*
X20562Y25950D02*
X21800Y27188D01*
X21300Y27750D02*
Y29750D01*
Y27250D02*
Y27750D01*
X20050Y26000D02*
X21300Y27250D01*
X20050Y25950D02*
Y26000D01*
X16055Y25931D02*
X19150D01*
X15576Y25452D02*
X16055Y25931D01*
X19150D02*
X19981Y25100D01*
X20031Y25931D02*
X20050Y25950D01*
X19150Y25931D02*
X20031D01*
X15300Y25176D02*
X15576Y25452D01*
X13405Y26572D02*
X14800Y25176D01*
X13405Y26572D02*
Y27700D01*
X12355Y28750D02*
X13405Y27700D01*
X1400Y28750D02*
X12355D01*
X15576Y24448D02*
X15642Y24514D01*
Y24692D01*
X15756Y24806D01*
X16194D01*
X16200Y24800D01*
Y24793D02*
Y24800D01*
Y24793D02*
X16258Y24735D01*
Y24514D02*
Y24735D01*
Y24514D02*
X16324Y24448D01*
X16446Y24326D01*
Y23550D02*
Y24326D01*
D60*
X21068Y18934D02*
X32018D01*
X16452Y23550D02*
X21068Y18934D01*
D61*
X33050Y32400D02*
D03*
Y31400D02*
D03*
Y29400D02*
D03*
Y27400D02*
D03*
Y26400D02*
D03*
Y28400D02*
D03*
Y30400D02*
D03*
D62*
Y25400D02*
D03*
D63*
X17650Y44550D02*
D03*
D64*
X18650D02*
D03*
X19650D02*
D03*
X20650D02*
D03*
X17650Y47550D02*
D03*
X18650D02*
D03*
X19650D02*
D03*
X20650D02*
D03*
D65*
X29850Y41800D02*
D03*
X11700D02*
D03*
D66*
X29850Y40800D02*
D03*
X11700D02*
D03*
D67*
X37150Y38300D02*
D03*
Y20100D02*
D03*
X4350Y38300D02*
D03*
Y20100D02*
D03*
D68*
X22300Y30750D02*
D03*
Y27750D02*
D03*
X21300D02*
D03*
X20300D02*
D03*
X19300D02*
D03*
X18300D02*
D03*
X17300D02*
D03*
X23300D02*
D03*
X24300D02*
D03*
X25300D02*
D03*
X26300D02*
D03*
X23300Y30750D02*
D03*
X24300D02*
D03*
X25300D02*
D03*
X26300D02*
D03*
X21300D02*
D03*
X20300D02*
D03*
X19300D02*
D03*
X18300D02*
D03*
X17300D02*
D03*
X16300Y27750D02*
D03*
Y30750D02*
D03*
X15300D02*
D03*
X27300Y27750D02*
D03*
Y30750D02*
D03*
X28300Y27750D02*
D03*
Y30750D02*
D03*
D69*
X15300Y27750D02*
D03*
D70*
X32018Y18934D02*
D03*
Y13835D02*
D03*
D71*
X27050Y20800D02*
D03*
X16471D02*
D03*
X21739Y11942D02*
D03*
D72*
X23290Y25500D02*
D03*
X24510D02*
D03*
D73*
X1400Y30750D02*
D03*
Y29750D02*
D03*
Y28750D02*
D03*
D74*
Y27750D02*
D03*
M02*
