G04*
G04 #@! TF.GenerationSoftware,Altium Limited,Altium Designer,20.0.12 (288)*
G04*
G04 Layer_Physical_Order=2*
G04 Layer_Color=16711680*
%FSLAX24Y24*%
%MOIN*%
G70*
G01*
G75*
%ADD61C,0.0630*%
%ADD62R,0.0630X0.0630*%
%ADD63R,0.0500X0.1000*%
%ADD64O,0.0500X0.1000*%
%ADD65R,0.0610X0.0610*%
%ADD66C,0.0610*%
%ADD67C,0.5100*%
%ADD68C,0.0594*%
%ADD69R,0.0594X0.0594*%
%ADD70O,0.0949X0.1898*%
%ADD71C,0.0902*%
%ADD72C,0.0512*%
%ADD73C,0.0591*%
%ADD74R,0.0591X0.0591*%
G36*
X12200Y22800D02*
X6400Y17000D01*
X1900D01*
X0Y18900D01*
Y35350D01*
X6800D01*
X8400Y36950D01*
Y38400D01*
X11200Y41200D01*
X11476D01*
X11490Y41167D01*
X11491Y41150D01*
X11411Y41089D01*
X11346Y41004D01*
X11305Y40906D01*
X11305Y40900D01*
X11700D01*
X12095D01*
X12095Y40906D01*
X12054Y41004D01*
X11989Y41089D01*
X11909Y41150D01*
X11910Y41167D01*
X11924Y41200D01*
X12200D01*
Y22800D01*
D02*
G37*
G36*
X12150Y42217D02*
X12105Y42205D01*
Y42205D01*
X11800D01*
Y41800D01*
X11700D01*
Y41700D01*
X11295D01*
Y41400D01*
X11200D01*
X8200Y38400D01*
Y37000D01*
X6700Y35500D01*
X0D01*
Y50350D01*
X12150D01*
Y42217D01*
D02*
G37*
G36*
X33100Y38400D02*
Y36950D01*
X34700Y35350D01*
X34790D01*
X34800Y35348D01*
X41500D01*
Y18900D01*
X39600Y17000D01*
X35100D01*
X32584Y19516D01*
X32578Y19558D01*
X32520Y19698D01*
X32428Y19818D01*
X32308Y19910D01*
X32168Y19968D01*
X32127Y19973D01*
X29350Y22750D01*
Y41200D01*
X29626D01*
X29640Y41167D01*
X29641Y41150D01*
X29561Y41089D01*
X29496Y41004D01*
X29455Y40906D01*
X29455Y40900D01*
X29850D01*
X30245D01*
X30245Y40906D01*
X30204Y41004D01*
X30139Y41089D01*
X30059Y41150D01*
X30060Y41167D01*
X30074Y41200D01*
X30300D01*
X33100Y38400D01*
D02*
G37*
G36*
X41500Y35450D02*
X34800D01*
X33300Y36950D01*
Y38350D01*
X30255Y41395D01*
Y41700D01*
X29850D01*
X29445D01*
Y41400D01*
X29350D01*
Y50350D01*
X41500D01*
Y35450D01*
D02*
G37*
%LPC*%
G36*
X12095Y40700D02*
X11800D01*
Y40405D01*
X11806Y40405D01*
X11904Y40446D01*
X11989Y40511D01*
X12054Y40596D01*
X12095Y40694D01*
X12095Y40700D01*
D02*
G37*
G36*
X11600D02*
X11305D01*
X11305Y40694D01*
X11346Y40596D01*
X11411Y40511D01*
X11496Y40446D01*
X11594Y40405D01*
X11600Y40405D01*
Y40700D01*
D02*
G37*
G36*
X1400Y31149D02*
X1297Y31135D01*
X1201Y31095D01*
X1118Y31032D01*
X1055Y30949D01*
X1015Y30853D01*
X1001Y30750D01*
X1015Y30647D01*
X1055Y30551D01*
X1118Y30468D01*
X1201Y30405D01*
X1297Y30365D01*
X1400Y30351D01*
X1503Y30365D01*
X1599Y30405D01*
X1682Y30468D01*
X1745Y30551D01*
X1785Y30647D01*
X1799Y30750D01*
X1785Y30853D01*
X1745Y30949D01*
X1682Y31032D01*
X1599Y31095D01*
X1503Y31135D01*
X1400Y31149D01*
D02*
G37*
G36*
Y30149D02*
X1297Y30135D01*
X1201Y30095D01*
X1118Y30032D01*
X1055Y29949D01*
X1015Y29853D01*
X1001Y29750D01*
X1015Y29647D01*
X1055Y29551D01*
X1118Y29468D01*
X1201Y29405D01*
X1297Y29365D01*
X1400Y29351D01*
X1503Y29365D01*
X1599Y29405D01*
X1682Y29468D01*
X1745Y29551D01*
X1785Y29647D01*
X1799Y29750D01*
X1785Y29853D01*
X1745Y29949D01*
X1682Y30032D01*
X1599Y30095D01*
X1503Y30135D01*
X1400Y30149D01*
D02*
G37*
G36*
Y29149D02*
X1297Y29135D01*
X1201Y29095D01*
X1118Y29032D01*
X1055Y28949D01*
X1015Y28853D01*
X1001Y28750D01*
X1015Y28647D01*
X1055Y28551D01*
X1118Y28468D01*
X1201Y28405D01*
X1297Y28365D01*
X1400Y28351D01*
X1503Y28365D01*
X1599Y28405D01*
X1682Y28468D01*
X1745Y28551D01*
X1785Y28647D01*
X1799Y28750D01*
X1785Y28853D01*
X1745Y28949D01*
X1682Y29032D01*
X1599Y29095D01*
X1503Y29135D01*
X1400Y29149D01*
D02*
G37*
G36*
X1795Y28145D02*
X1005D01*
Y27355D01*
X1795D01*
Y28145D01*
D02*
G37*
G36*
X4450Y22749D02*
Y20200D01*
X6999D01*
X6987Y20397D01*
X6938Y20691D01*
X6855Y20977D01*
X6741Y21252D01*
X6597Y21512D01*
X6425Y21755D01*
X6227Y21977D01*
X6005Y22175D01*
X5762Y22347D01*
X5502Y22491D01*
X5227Y22605D01*
X4941Y22688D01*
X4647Y22737D01*
X4450Y22749D01*
D02*
G37*
G36*
X4250D02*
X4053Y22737D01*
X3759Y22688D01*
X3473Y22605D01*
X3198Y22491D01*
X2938Y22347D01*
X2695Y22175D01*
X2473Y21977D01*
X2275Y21755D01*
X2103Y21512D01*
X1959Y21252D01*
X1845Y20977D01*
X1762Y20691D01*
X1713Y20397D01*
X1701Y20200D01*
X4250D01*
Y22749D01*
D02*
G37*
G36*
X6999Y20000D02*
X4450D01*
Y17451D01*
X4647Y17463D01*
X4941Y17512D01*
X5227Y17595D01*
X5502Y17709D01*
X5762Y17853D01*
X6005Y18025D01*
X6227Y18223D01*
X6425Y18445D01*
X6597Y18688D01*
X6741Y18948D01*
X6855Y19223D01*
X6938Y19509D01*
X6987Y19803D01*
X6999Y20000D01*
D02*
G37*
G36*
X4250D02*
X1701D01*
X1713Y19803D01*
X1762Y19509D01*
X1845Y19223D01*
X1959Y18948D01*
X2103Y18688D01*
X2275Y18445D01*
X2473Y18223D01*
X2695Y18025D01*
X2938Y17853D01*
X3198Y17709D01*
X3473Y17595D01*
X3759Y17512D01*
X4053Y17463D01*
X4250Y17451D01*
Y20000D01*
D02*
G37*
G36*
X11600Y42205D02*
X11295D01*
Y41900D01*
X11600D01*
Y42205D01*
D02*
G37*
G36*
X4450Y40949D02*
Y38400D01*
X6999D01*
X6987Y38597D01*
X6938Y38891D01*
X6855Y39177D01*
X6741Y39452D01*
X6597Y39712D01*
X6425Y39955D01*
X6227Y40177D01*
X6005Y40375D01*
X5762Y40547D01*
X5502Y40691D01*
X5227Y40805D01*
X4941Y40888D01*
X4647Y40937D01*
X4450Y40949D01*
D02*
G37*
G36*
X4250D02*
X4053Y40937D01*
X3759Y40888D01*
X3473Y40805D01*
X3198Y40691D01*
X2938Y40547D01*
X2695Y40375D01*
X2473Y40177D01*
X2275Y39955D01*
X2103Y39712D01*
X1959Y39452D01*
X1845Y39177D01*
X1762Y38891D01*
X1713Y38597D01*
X1701Y38400D01*
X4250D01*
Y40949D01*
D02*
G37*
G36*
X6999Y38200D02*
X4450D01*
Y35651D01*
X4647Y35663D01*
X4941Y35712D01*
X5227Y35795D01*
X5502Y35909D01*
X5762Y36053D01*
X6005Y36225D01*
X6227Y36423D01*
X6425Y36645D01*
X6597Y36888D01*
X6741Y37148D01*
X6855Y37423D01*
X6938Y37709D01*
X6987Y38003D01*
X6999Y38200D01*
D02*
G37*
G36*
X4250D02*
X1701D01*
X1713Y38003D01*
X1762Y37709D01*
X1845Y37423D01*
X1959Y37148D01*
X2103Y36888D01*
X2275Y36645D01*
X2473Y36423D01*
X2695Y36225D01*
X2938Y36053D01*
X3198Y35909D01*
X3473Y35795D01*
X3759Y35712D01*
X4053Y35663D01*
X4250Y35651D01*
Y38200D01*
D02*
G37*
G36*
X30245Y40700D02*
X29950D01*
Y40405D01*
X29956Y40405D01*
X30054Y40446D01*
X30139Y40511D01*
X30204Y40596D01*
X30245Y40694D01*
X30245Y40700D01*
D02*
G37*
G36*
X29750D02*
X29455D01*
X29455Y40694D01*
X29496Y40596D01*
X29561Y40511D01*
X29646Y40446D01*
X29744Y40405D01*
X29750Y40405D01*
Y40700D01*
D02*
G37*
G36*
X33050Y32819D02*
X32942Y32804D01*
X32841Y32762D01*
X32754Y32696D01*
X32688Y32609D01*
X32646Y32508D01*
X32631Y32400D01*
X32646Y32292D01*
X32688Y32191D01*
X32754Y32104D01*
X32841Y32038D01*
X32942Y31996D01*
X33050Y31981D01*
X33158Y31996D01*
X33259Y32038D01*
X33346Y32104D01*
X33412Y32191D01*
X33454Y32292D01*
X33469Y32400D01*
X33454Y32508D01*
X33412Y32609D01*
X33346Y32696D01*
X33259Y32762D01*
X33158Y32804D01*
X33050Y32819D01*
D02*
G37*
G36*
Y31819D02*
X32942Y31804D01*
X32841Y31762D01*
X32754Y31696D01*
X32688Y31609D01*
X32646Y31508D01*
X32631Y31400D01*
X32646Y31292D01*
X32688Y31191D01*
X32754Y31104D01*
X32841Y31038D01*
X32942Y30996D01*
X33050Y30981D01*
X33158Y30996D01*
X33259Y31038D01*
X33346Y31104D01*
X33412Y31191D01*
X33454Y31292D01*
X33469Y31400D01*
X33454Y31508D01*
X33412Y31609D01*
X33346Y31696D01*
X33259Y31762D01*
X33158Y31804D01*
X33050Y31819D01*
D02*
G37*
G36*
Y30819D02*
X32942Y30804D01*
X32841Y30762D01*
X32754Y30696D01*
X32688Y30609D01*
X32646Y30508D01*
X32631Y30400D01*
X32646Y30292D01*
X32688Y30191D01*
X32754Y30104D01*
X32841Y30038D01*
X32942Y29996D01*
X33050Y29981D01*
X33158Y29996D01*
X33259Y30038D01*
X33346Y30104D01*
X33412Y30191D01*
X33454Y30292D01*
X33469Y30400D01*
X33454Y30508D01*
X33412Y30609D01*
X33346Y30696D01*
X33259Y30762D01*
X33158Y30804D01*
X33050Y30819D01*
D02*
G37*
G36*
Y29819D02*
X32942Y29804D01*
X32841Y29762D01*
X32754Y29696D01*
X32688Y29609D01*
X32646Y29508D01*
X32631Y29400D01*
X32646Y29292D01*
X32688Y29191D01*
X32754Y29104D01*
X32841Y29038D01*
X32942Y28996D01*
X33050Y28981D01*
X33158Y28996D01*
X33259Y29038D01*
X33346Y29104D01*
X33412Y29191D01*
X33454Y29292D01*
X33469Y29400D01*
X33454Y29508D01*
X33412Y29609D01*
X33346Y29696D01*
X33259Y29762D01*
X33158Y29804D01*
X33050Y29819D01*
D02*
G37*
G36*
Y28819D02*
X32942Y28804D01*
X32841Y28762D01*
X32754Y28696D01*
X32688Y28609D01*
X32646Y28508D01*
X32631Y28400D01*
X32646Y28292D01*
X32688Y28191D01*
X32754Y28104D01*
X32841Y28038D01*
X32942Y27996D01*
X33050Y27981D01*
X33158Y27996D01*
X33259Y28038D01*
X33346Y28104D01*
X33412Y28191D01*
X33454Y28292D01*
X33469Y28400D01*
X33454Y28508D01*
X33412Y28609D01*
X33346Y28696D01*
X33259Y28762D01*
X33158Y28804D01*
X33050Y28819D01*
D02*
G37*
G36*
Y27819D02*
X32942Y27804D01*
X32841Y27762D01*
X32754Y27696D01*
X32688Y27609D01*
X32646Y27508D01*
X32631Y27400D01*
X32646Y27292D01*
X32688Y27191D01*
X32754Y27104D01*
X32841Y27038D01*
X32942Y26996D01*
X33050Y26981D01*
X33158Y26996D01*
X33259Y27038D01*
X33346Y27104D01*
X33412Y27191D01*
X33454Y27292D01*
X33469Y27400D01*
X33454Y27508D01*
X33412Y27609D01*
X33346Y27696D01*
X33259Y27762D01*
X33158Y27804D01*
X33050Y27819D01*
D02*
G37*
G36*
Y26819D02*
X32942Y26804D01*
X32841Y26762D01*
X32754Y26696D01*
X32688Y26609D01*
X32646Y26508D01*
X32631Y26400D01*
X32646Y26292D01*
X32688Y26191D01*
X32754Y26104D01*
X32841Y26038D01*
X32942Y25996D01*
X33050Y25981D01*
X33158Y25996D01*
X33259Y26038D01*
X33346Y26104D01*
X33412Y26191D01*
X33454Y26292D01*
X33469Y26400D01*
X33454Y26508D01*
X33412Y26609D01*
X33346Y26696D01*
X33259Y26762D01*
X33158Y26804D01*
X33050Y26819D01*
D02*
G37*
G36*
X33465Y25815D02*
X32635D01*
Y24985D01*
X33465D01*
Y25815D01*
D02*
G37*
G36*
X37250Y22749D02*
Y20200D01*
X39799D01*
X39787Y20397D01*
X39738Y20691D01*
X39655Y20977D01*
X39541Y21252D01*
X39397Y21512D01*
X39225Y21755D01*
X39027Y21977D01*
X38805Y22175D01*
X38562Y22347D01*
X38302Y22491D01*
X38027Y22605D01*
X37741Y22688D01*
X37447Y22737D01*
X37250Y22749D01*
D02*
G37*
G36*
X37050D02*
X36853Y22737D01*
X36559Y22688D01*
X36273Y22605D01*
X35998Y22491D01*
X35738Y22347D01*
X35495Y22175D01*
X35273Y21977D01*
X35075Y21755D01*
X34903Y21512D01*
X34759Y21252D01*
X34645Y20977D01*
X34562Y20691D01*
X34513Y20397D01*
X34501Y20200D01*
X37050D01*
Y22749D01*
D02*
G37*
G36*
X39799Y20000D02*
X37250D01*
Y17451D01*
X37447Y17463D01*
X37741Y17512D01*
X38027Y17595D01*
X38302Y17709D01*
X38562Y17853D01*
X38805Y18025D01*
X39027Y18223D01*
X39225Y18445D01*
X39397Y18688D01*
X39541Y18948D01*
X39655Y19223D01*
X39738Y19509D01*
X39787Y19803D01*
X39799Y20000D01*
D02*
G37*
G36*
X37050D02*
X34501D01*
X34513Y19803D01*
X34562Y19509D01*
X34645Y19223D01*
X34759Y18948D01*
X34903Y18688D01*
X35075Y18445D01*
X35273Y18223D01*
X35495Y18025D01*
X35738Y17853D01*
X35998Y17709D01*
X36273Y17595D01*
X36559Y17512D01*
X36853Y17463D01*
X37050Y17451D01*
Y20000D01*
D02*
G37*
G36*
X30255Y42205D02*
X29950D01*
Y41900D01*
X30255D01*
Y42205D01*
D02*
G37*
G36*
X29750D02*
X29445D01*
Y41900D01*
X29750D01*
Y42205D01*
D02*
G37*
G36*
X37250Y40949D02*
Y38400D01*
X39799D01*
X39787Y38597D01*
X39738Y38891D01*
X39655Y39177D01*
X39541Y39452D01*
X39397Y39712D01*
X39225Y39955D01*
X39027Y40177D01*
X38805Y40375D01*
X38562Y40547D01*
X38302Y40691D01*
X38027Y40805D01*
X37741Y40888D01*
X37447Y40937D01*
X37250Y40949D01*
D02*
G37*
G36*
X37050D02*
X36853Y40937D01*
X36559Y40888D01*
X36273Y40805D01*
X35998Y40691D01*
X35738Y40547D01*
X35495Y40375D01*
X35273Y40177D01*
X35075Y39955D01*
X34903Y39712D01*
X34759Y39452D01*
X34645Y39177D01*
X34562Y38891D01*
X34513Y38597D01*
X34501Y38400D01*
X37050D01*
Y40949D01*
D02*
G37*
G36*
X39799Y38200D02*
X37250D01*
Y35651D01*
X37447Y35663D01*
X37741Y35712D01*
X38027Y35795D01*
X38302Y35909D01*
X38562Y36053D01*
X38805Y36225D01*
X39027Y36423D01*
X39225Y36645D01*
X39397Y36888D01*
X39541Y37148D01*
X39655Y37423D01*
X39738Y37709D01*
X39787Y38003D01*
X39799Y38200D01*
D02*
G37*
G36*
X37050D02*
X34501D01*
X34513Y38003D01*
X34562Y37709D01*
X34645Y37423D01*
X34759Y37148D01*
X34903Y36888D01*
X35075Y36645D01*
X35273Y36423D01*
X35495Y36225D01*
X35738Y36053D01*
X35998Y35909D01*
X36273Y35795D01*
X36559Y35712D01*
X36853Y35663D01*
X37050Y35651D01*
Y38200D01*
D02*
G37*
%LPD*%
D61*
X33050Y32400D02*
D03*
Y31400D02*
D03*
Y29400D02*
D03*
Y27400D02*
D03*
Y26400D02*
D03*
Y28400D02*
D03*
Y30400D02*
D03*
D62*
Y25400D02*
D03*
D63*
X17650Y44550D02*
D03*
D64*
X18650D02*
D03*
X19650D02*
D03*
X20650D02*
D03*
X17650Y47550D02*
D03*
X18650D02*
D03*
X19650D02*
D03*
X20650D02*
D03*
D65*
X29850Y41800D02*
D03*
X11700D02*
D03*
D66*
X29850Y40800D02*
D03*
X11700D02*
D03*
D67*
X37150Y38300D02*
D03*
Y20100D02*
D03*
X4350Y38300D02*
D03*
Y20100D02*
D03*
D68*
X22300Y30750D02*
D03*
Y27750D02*
D03*
X21300D02*
D03*
X20300D02*
D03*
X19300D02*
D03*
X18300D02*
D03*
X17300D02*
D03*
X23300D02*
D03*
X24300D02*
D03*
X25300D02*
D03*
X26300D02*
D03*
X23300Y30750D02*
D03*
X24300D02*
D03*
X25300D02*
D03*
X26300D02*
D03*
X21300D02*
D03*
X20300D02*
D03*
X19300D02*
D03*
X18300D02*
D03*
X17300D02*
D03*
X16300Y27750D02*
D03*
Y30750D02*
D03*
X15300D02*
D03*
X27300Y27750D02*
D03*
Y30750D02*
D03*
X28300Y27750D02*
D03*
Y30750D02*
D03*
D69*
X15300Y27750D02*
D03*
D70*
X32018Y18934D02*
D03*
Y13835D02*
D03*
D71*
X27050Y20800D02*
D03*
X16471D02*
D03*
X21739Y11942D02*
D03*
D72*
X23290Y25500D02*
D03*
X24510D02*
D03*
D73*
X1400Y30750D02*
D03*
Y29750D02*
D03*
Y28750D02*
D03*
D74*
Y27750D02*
D03*
M02*
