G04*
G04 #@! TF.GenerationSoftware,Altium Limited,Altium Designer,20.0.12 (288)*
G04*
G04 Layer_Color=32896*
%FSLAX24Y24*%
%MOIN*%
G70*
G01*
G75*
%ADD12C,0.0020*%
%ADD75C,0.0030*%
D12*
X37040Y31660D02*
X37060D01*
X37100D02*
X37160D01*
X37180D02*
X37220D01*
X37240D02*
X37280D01*
X36980Y31640D02*
X37000D01*
X37040D02*
X37080D01*
X37100D02*
X37120D01*
X37180D02*
X37280D01*
X37300D02*
X37320D01*
X36820Y31620D02*
X36840D01*
X36860D02*
X36900D01*
X36960D02*
X37040D01*
X37260D02*
X37280D01*
X37300D02*
X37320D01*
X37360D02*
X37380D01*
X37400D02*
X37460D01*
X37480D02*
X37500D01*
X36800Y31600D02*
X36920D01*
X37020D02*
X37040D01*
X37280D02*
X37300D01*
X37360D02*
X37460D01*
X37480D02*
X37520D01*
X36740Y31580D02*
X36760D01*
X36780D02*
X36800D01*
X37000D02*
X37020D01*
X37040D02*
X37060D01*
X37500D02*
X37520D01*
X37540D02*
X37560D01*
X36680Y31560D02*
X36700D01*
X36720D02*
X36780D01*
X36800D02*
X36820D01*
X37000D02*
X37060D01*
X37280D02*
X37300D01*
X37480D02*
X37500D01*
X37520D02*
X37580D01*
X37600D02*
X37620D01*
X36620Y31540D02*
X36700D01*
X36760D02*
X36780D01*
X36800D02*
X36820D01*
X37000D02*
X37060D01*
X37280D02*
X37300D01*
X37480D02*
X37500D01*
X37520D02*
X37540D01*
X37560D02*
X37620D01*
X37660D02*
X37680D01*
X36560Y31520D02*
X36620D01*
X36640D02*
X36660D01*
X36780D02*
X36820D01*
X37000D02*
X37060D01*
X37280D02*
X37300D01*
X37480D02*
X37500D01*
X37620D02*
X37720D01*
X37740D02*
X37760D01*
X36520Y31500D02*
X36560D01*
X36780D02*
X36800D01*
X37000D02*
X37060D01*
X37240D02*
X37260D01*
X37280D02*
X37300D01*
X37480D02*
X37500D01*
X37700D02*
X37760D01*
X37780D02*
X37820D01*
X36460Y31480D02*
X36480D01*
X36500D02*
X36520D01*
X36800D02*
X36820D01*
X37000D02*
X37060D01*
X37240D02*
X37260D01*
X37280D02*
X37300D01*
X37480D02*
X37500D01*
X37760D02*
X37780D01*
X37800D02*
X37880D01*
X36380Y31460D02*
X36400D01*
X36420D02*
X36460D01*
X36780D02*
X36820D01*
X37000D02*
X37060D01*
X37240D02*
X37300D01*
X37480D02*
X37500D01*
X37820D02*
X37920D01*
X36360Y31440D02*
X36380D01*
X36400D02*
X36420D01*
X36780D02*
X36800D01*
X37000D02*
X37060D01*
X37240D02*
X37300D01*
X37480D02*
X37500D01*
X37860D02*
X37900D01*
X37920D02*
X37940D01*
X36320Y31420D02*
X36360D01*
X36780D02*
X36820D01*
X37000D02*
X37060D01*
X37240D02*
X37300D01*
X37480D02*
X37520D01*
X37940D02*
X38000D01*
X36300Y31400D02*
X36320D01*
X36780D02*
X36820D01*
X37000D02*
X37060D01*
X37240D02*
X37260D01*
X37280D02*
X37300D01*
X37480D02*
X37520D01*
X37960D02*
X38020D01*
X36260Y31380D02*
X36300D01*
X36780D02*
X36800D01*
X37000D02*
X37060D01*
X37240D02*
X37260D01*
X37280D02*
X37300D01*
X37480D02*
X37520D01*
X38000D02*
X38020D01*
X38060D02*
X38080D01*
X36200Y31360D02*
X36240D01*
X37000D02*
X37060D01*
X37240D02*
X37260D01*
X37280D02*
X37300D01*
X37480D02*
X37520D01*
X38020D02*
X38060D01*
X38080D02*
X38120D01*
X36200Y31340D02*
X36220D01*
X36800D02*
X36820D01*
X37000D02*
X37060D01*
X37240D02*
X37260D01*
X37280D02*
X37300D01*
X37480D02*
X37520D01*
X38060D02*
X38080D01*
X38120D02*
X38140D01*
X36160Y31320D02*
X36200D01*
X36780D02*
X36820D01*
X37000D02*
X37060D01*
X37240D02*
X37260D01*
X37280D02*
X37300D01*
X37480D02*
X37520D01*
X38100D02*
X38120D01*
X38140D02*
X38180D01*
X36100Y31300D02*
X36120D01*
X36140D02*
X36160D01*
X36800D02*
X36820D01*
X37000D02*
X37060D01*
X37240D02*
X37260D01*
X37280D02*
X37300D01*
X37480D02*
X37520D01*
X38160D02*
X38180D01*
X36080Y31280D02*
X36120D01*
X37000D02*
X37060D01*
X37240D02*
X37260D01*
X37280D02*
X37300D01*
X37480D02*
X37520D01*
X38180D02*
X38240D01*
X36040Y31260D02*
X36080D01*
X36780D02*
X36820D01*
X37000D02*
X37060D01*
X37240D02*
X37260D01*
X37280D02*
X37300D01*
X37480D02*
X37520D01*
X38220D02*
X38260D01*
X36020Y31240D02*
X36060D01*
X36780D02*
X36820D01*
X37000D02*
X37060D01*
X37260D02*
X37280D01*
X37480D02*
X37520D01*
X38220D02*
X38300D01*
X36000Y31220D02*
X36020D01*
X36780D02*
X36820D01*
X37000D02*
X37060D01*
X37260D02*
X37280D01*
X37480D02*
X37520D01*
X38280D02*
X38300D01*
X35960Y31200D02*
X36000D01*
X36780D02*
X36800D01*
X37000D02*
X37060D01*
X37240D02*
X37280D01*
X37480D02*
X37520D01*
X38300D02*
X38320D01*
X36780Y31180D02*
X36800D01*
X37000D02*
X37060D01*
X37240D02*
X37300D01*
X37480D02*
X37500D01*
X38300D02*
X38340D01*
X35940Y31160D02*
X35960D01*
X36780D02*
X36800D01*
X37000D02*
X37060D01*
X37260D02*
X37300D01*
X37480D02*
X37500D01*
X38320D02*
X38380D01*
X35920Y31140D02*
X35940D01*
X36780D02*
X36800D01*
X37000D02*
X37060D01*
X37260D02*
X37300D01*
X37480D02*
X37520D01*
X38380D02*
X38400D01*
X35880Y31120D02*
X35900D01*
X36780D02*
X36820D01*
X37000D02*
X37060D01*
X37260D02*
X37300D01*
X37480D02*
X37500D01*
X38380D02*
X38440D01*
X35860Y31100D02*
X35900D01*
X36780D02*
X36820D01*
X37000D02*
X37060D01*
X37260D02*
X37300D01*
X37480D02*
X37500D01*
X38420D02*
X38460D01*
X35840Y31080D02*
X35860D01*
X36800D02*
X36820D01*
X37000D02*
X37060D01*
X37240D02*
X37280D01*
X37480D02*
X37500D01*
X38420D02*
X38460D01*
X35820Y31060D02*
X35840D01*
X36800D02*
X36820D01*
X37000D02*
X37060D01*
X37260D02*
X37280D01*
X37480D02*
X37500D01*
X38440D02*
X38480D01*
X35800Y31040D02*
X35840D01*
X36800D02*
X36820D01*
X37000D02*
X37060D01*
X37260D02*
X37280D01*
X37480D02*
X37500D01*
X38460D02*
X38520D01*
X35780Y31020D02*
X35800D01*
X36800D02*
X36820D01*
X37000D02*
X37060D01*
X37240D02*
X37280D01*
X37480D02*
X37500D01*
X38480D02*
X38500D01*
X38520D02*
X38540D01*
X35780Y31000D02*
X35800D01*
X36780D02*
X36820D01*
X37000D02*
X37060D01*
X37240D02*
X37280D01*
X37480D02*
X37500D01*
X38500D02*
X38520D01*
X38540D02*
X38560D01*
X35740Y30980D02*
X35780D01*
X36780D02*
X36820D01*
X37000D02*
X37060D01*
X37260D02*
X37280D01*
X37480D02*
X37520D01*
X38500D02*
X38560D01*
X35740Y30960D02*
X35760D01*
X36780D02*
X36820D01*
X37000D02*
X37060D01*
X37260D02*
X37300D01*
X37480D02*
X37520D01*
X38540D02*
X38560D01*
X35720Y30940D02*
X35740D01*
X36780D02*
X36820D01*
X37000D02*
X37060D01*
X37260D02*
X37300D01*
X37500D02*
X37520D01*
X38560D02*
X38600D01*
X35700Y30920D02*
X35740D01*
X36780D02*
X36820D01*
X37000D02*
X37060D01*
X37260D02*
X37280D01*
X37480D02*
X37520D01*
X38560D02*
X38620D01*
X35680Y30900D02*
X35720D01*
X36780D02*
X36820D01*
X37000D02*
X37060D01*
X37260D02*
X37280D01*
X37480D02*
X37520D01*
X38580D02*
X38640D01*
X35660Y30880D02*
X35680D01*
X36780D02*
X36820D01*
X37000D02*
X37040D01*
X37260D02*
X37280D01*
X37480D02*
X37520D01*
X38600D02*
X38620D01*
X36780Y30860D02*
X36820D01*
X37000D02*
X37040D01*
X37260D02*
X37300D01*
X37480D02*
X37520D01*
X38620D02*
X38660D01*
X35660Y30840D02*
X35680D01*
X36780D02*
X36820D01*
X37000D02*
X37040D01*
X37260D02*
X37300D01*
X37480D02*
X37520D01*
X38660D02*
X38680D01*
X35620Y30820D02*
X35660D01*
X36780D02*
X36820D01*
X37000D02*
X37060D01*
X37260D02*
X37300D01*
X37480D02*
X37520D01*
X38640D02*
X38660D01*
X35620Y30800D02*
X35640D01*
X36780D02*
X36820D01*
X37000D02*
X37020D01*
X37040D02*
X37060D01*
X37260D02*
X37300D01*
X37480D02*
X37520D01*
X38640D02*
X38700D01*
X35600Y30780D02*
X35620D01*
X36780D02*
X36820D01*
X37000D02*
X37020D01*
X37040D02*
X37060D01*
X37260D02*
X37280D01*
X37500D02*
X37520D01*
X38700D02*
X38720D01*
X35580Y30760D02*
X35620D01*
X36800D02*
X36820D01*
X37000D02*
X37040D01*
X37260D02*
X37300D01*
X37480D02*
X37520D01*
X35580Y30740D02*
X35600D01*
X36800D02*
X36820D01*
X37000D02*
X37040D01*
X37260D02*
X37300D01*
X37480D02*
X37520D01*
X35560Y30720D02*
X35600D01*
X36780D02*
X36820D01*
X37000D02*
X37020D01*
X37260D02*
X37300D01*
X37480D02*
X37520D01*
X38700D02*
X38740D01*
X36780Y30700D02*
X36820D01*
X37000D02*
X37020D01*
X37480D02*
X37520D01*
X38700D02*
X38720D01*
X35560Y30680D02*
X35580D01*
X36780D02*
X36800D01*
X37000D02*
X37040D01*
X37260D02*
X37280D01*
X37480D02*
X37500D01*
X38720D02*
X38760D01*
X35540Y30660D02*
X35560D01*
X36780D02*
X36800D01*
X37000D02*
X37040D01*
X37260D02*
X37280D01*
X37480D02*
X37500D01*
X38740D02*
X38760D01*
X35540Y30640D02*
X35560D01*
X36780D02*
X36800D01*
X37000D02*
X37040D01*
X37260D02*
X37300D01*
X37480D02*
X37500D01*
X38760D02*
X38780D01*
X35520Y30620D02*
X35540D01*
X36780D02*
X36820D01*
X37000D02*
X37040D01*
X37260D02*
X37300D01*
X37520D02*
X37540D01*
X38740D02*
X38760D01*
X38780D02*
X38800D01*
X35500Y30600D02*
X35540D01*
X36780D02*
X36820D01*
X37000D02*
X37040D01*
X37480D02*
X37500D01*
X37520D02*
X37540D01*
X38760D02*
X38800D01*
X36780Y30580D02*
X36820D01*
X37000D02*
X37040D01*
X37260D02*
X37300D01*
X37520D02*
X37540D01*
X38760D02*
X38800D01*
X35480Y30560D02*
X35520D01*
X36760D02*
X36820D01*
X37000D02*
X37040D01*
X37260D02*
X37300D01*
X37500D02*
X37540D01*
X38800D02*
X38820D01*
X36760Y30540D02*
X36780D01*
X37000D02*
X37040D01*
X37260D02*
X37300D01*
X37500D02*
X37540D01*
X38800D02*
X38820D01*
X35480Y30520D02*
X35500D01*
X36760D02*
X36820D01*
X37000D02*
X37040D01*
X37260D02*
X37300D01*
X37500D02*
X37520D01*
X38800D02*
X38840D01*
X35460Y30500D02*
X35480D01*
X36760D02*
X36780D01*
X36800D02*
X36820D01*
X37000D02*
X37020D01*
X37260D02*
X37300D01*
X37500D02*
X37520D01*
X38800D02*
X38840D01*
X36760Y30480D02*
X36780D01*
X36800D02*
X36820D01*
X37000D02*
X37020D01*
X37260D02*
X37280D01*
X37500D02*
X37540D01*
X38820D02*
X38860D01*
X35440Y30460D02*
X35460D01*
X36760D02*
X36820D01*
X37000D02*
X37020D01*
X37260D02*
X37280D01*
X37520D02*
X37540D01*
X35440Y30440D02*
X35460D01*
X36760D02*
X36780D01*
X36800D02*
X36820D01*
X37000D02*
X37040D01*
X37260D02*
X37280D01*
X37500D02*
X37520D01*
X38860D02*
X38880D01*
X35420Y30420D02*
X35460D01*
X36760D02*
X36820D01*
X37000D02*
X37040D01*
X37260D02*
X37280D01*
X37500D02*
X37540D01*
X38840D02*
X38860D01*
X35420Y30400D02*
X35440D01*
X36760D02*
X36800D01*
X37000D02*
X37040D01*
X37260D02*
X37280D01*
X37500D02*
X37540D01*
X38860D02*
X38900D01*
X36780Y30380D02*
X36800D01*
X37000D02*
X37040D01*
X37260D02*
X37280D01*
X37520D02*
X37540D01*
X38860D02*
X38900D01*
X35400Y30360D02*
X35440D01*
X36780D02*
X36800D01*
X37000D02*
X37040D01*
X37260D02*
X37280D01*
X37520D02*
X37540D01*
X38860D02*
X38880D01*
X36780Y30340D02*
X36800D01*
X37000D02*
X37040D01*
X37260D02*
X37280D01*
X37500D02*
X37540D01*
X38880D02*
X38900D01*
X35400Y30320D02*
X35420D01*
X36760D02*
X36800D01*
X37000D02*
X37040D01*
X37260D02*
X37280D01*
X37500D02*
X37540D01*
X38880D02*
X38920D01*
X35380Y30300D02*
X35400D01*
X36760D02*
X36780D01*
X37000D02*
X37040D01*
X37260D02*
X37280D01*
X37500D02*
X37540D01*
X38880D02*
X38900D01*
X35380Y30280D02*
X35400D01*
X36760D02*
X36800D01*
X37000D02*
X37040D01*
X37260D02*
X37300D01*
X37500D02*
X37540D01*
X38900D02*
X38920D01*
X36760Y30260D02*
X36780D01*
X37000D02*
X37040D01*
X37260D02*
X37300D01*
X37500D02*
X37540D01*
X38900D02*
X38940D01*
X35360Y30240D02*
X35400D01*
X36760D02*
X36780D01*
X37000D02*
X37040D01*
X37260D02*
X37300D01*
X37500D02*
X37520D01*
X38900D02*
X38940D01*
X35360Y30220D02*
X35380D01*
X36760D02*
X36800D01*
X37000D02*
X37040D01*
X37260D02*
X37280D01*
X37500D02*
X37540D01*
X38900D02*
X38960D01*
X36780Y30200D02*
X36800D01*
X37000D02*
X37040D01*
X37260D02*
X37280D01*
X37500D02*
X37540D01*
X38920D02*
X38960D01*
X35340Y30180D02*
X35360D01*
X36780D02*
X36800D01*
X37000D02*
X37040D01*
X37260D02*
X37280D01*
X37500D02*
X37540D01*
X35220Y30160D02*
X35240D01*
X35340D02*
X35360D01*
X36760D02*
X36780D01*
X37000D02*
X37040D01*
X37260D02*
X37280D01*
X37500D02*
X37540D01*
X38920D02*
X38980D01*
X39060D02*
X39080D01*
X35200Y30140D02*
X35360D01*
X36760D02*
X36780D01*
X37000D02*
X37040D01*
X37260D02*
X37280D01*
X37500D02*
X37540D01*
X38940D02*
X38960D01*
X38980D02*
X39040D01*
X39060D02*
X39080D01*
X39100D02*
X39120D01*
X35180Y30120D02*
X35220D01*
X35320D02*
X35340D01*
X36780D02*
X36800D01*
X37000D02*
X37020D01*
X37260D02*
X37300D01*
X37500D02*
X37520D01*
X38940D02*
X38960D01*
X39060D02*
X39120D01*
X35200Y30100D02*
X35220D01*
X35340D02*
X35360D01*
X36760D02*
X36800D01*
X37000D02*
X37040D01*
X37260D02*
X37280D01*
X37500D02*
X37540D01*
X38940D02*
X38960D01*
X39100D02*
X39120D01*
X35160Y30080D02*
X35200D01*
X35220D02*
X35240D01*
X35340D02*
X35360D01*
X35400D02*
X35420D01*
X36780D02*
X36800D01*
X37020D02*
X37040D01*
X37260D02*
X37280D01*
X37500D02*
X37540D01*
X38880D02*
X38900D01*
X38940D02*
X38960D01*
X39060D02*
X39100D01*
X39120D02*
X39140D01*
X35160Y30060D02*
X35180D01*
X35220D02*
X35240D01*
X35340D02*
X35360D01*
X35380D02*
X35420D01*
X35440D02*
X35480D01*
X36780D02*
X36800D01*
X37000D02*
X37020D01*
X37260D02*
X37280D01*
X37520D02*
X37540D01*
X38800D02*
X38860D01*
X38900D02*
X38940D01*
X35160Y30040D02*
X35180D01*
X35220D02*
X35240D01*
X35340D02*
X35380D01*
X35420D02*
X35440D01*
X35460D02*
X35580D01*
X36760D02*
X36800D01*
X37000D02*
X37020D01*
X37040D02*
X37300D01*
X37520D02*
X37540D01*
X38700D02*
X38820D01*
X38840D02*
X38880D01*
X38940D02*
X38960D01*
X39060D02*
X39080D01*
X39120D02*
X39140D01*
X35360Y30020D02*
X35380D01*
X35500D02*
X35520D01*
X35560D02*
X35600D01*
X35620D02*
X35700D01*
X35720D02*
X35800D01*
X36780D02*
X36800D01*
X37020D02*
X37040D01*
X37060D02*
X37240D01*
X37500D02*
X37540D01*
X38520D02*
X38600D01*
X38620D02*
X38700D01*
X38720D02*
X38780D01*
X38940D02*
X38960D01*
X39060D02*
X39080D01*
X39120D02*
X39140D01*
X35220Y30000D02*
X35240D01*
X35380D02*
X35400D01*
X35620D02*
X35640D01*
X35660D02*
X35680D01*
X35700D02*
X35740D01*
X35780D02*
X35960D01*
X35980D02*
X36040D01*
X36780D02*
X36800D01*
X37500D02*
X37540D01*
X38300D02*
X38340D01*
X38380D02*
X38480D01*
X38500D02*
X38560D01*
X38600D02*
X38640D01*
X38900D02*
X38920D01*
X35160Y29980D02*
X35180D01*
X35380D02*
X35400D01*
X35880D02*
X36520D01*
X36760D02*
X36780D01*
X37500D02*
X37540D01*
X37780D02*
X37820D01*
X37840D02*
X38100D01*
X38120D02*
X38420D01*
X38920D02*
X38960D01*
X39060D02*
X39080D01*
X39120D02*
X39160D01*
X35140Y29960D02*
X35160D01*
X35180D02*
X35200D01*
X35360D02*
X35380D01*
X35420D02*
X35440D01*
X36220D02*
X36320D01*
X36360D02*
X36440D01*
X36460D02*
X36580D01*
X36600D02*
X36760D01*
X36780D02*
X36800D01*
X37500D02*
X37520D01*
X37540D02*
X37920D01*
X37940D02*
X38000D01*
X38020D02*
X38060D01*
X38880D02*
X38900D01*
X38920D02*
X38960D01*
X39040D02*
X39080D01*
X39100D02*
X39160D01*
X35220Y29940D02*
X35260D01*
X35380D02*
X35420D01*
X35440D02*
X35460D01*
X35480D02*
X35520D01*
X38780D02*
X38800D01*
X38820D02*
X38840D01*
X38860D02*
X38880D01*
X38900D02*
X38920D01*
X39040D02*
X39060D01*
X39080D02*
X39100D01*
X35100Y29920D02*
X35140D01*
X35220D02*
X35260D01*
X35380D02*
X35400D01*
X35520D02*
X35620D01*
X38640D02*
X38680D01*
X38700D02*
X38820D01*
X38900D02*
X38960D01*
X39180D02*
X39200D01*
X35100Y29900D02*
X35120D01*
X35240D02*
X35260D01*
X35360D02*
X35420D01*
X35560D02*
X35600D01*
X35620D02*
X35680D01*
X35700D02*
X35760D01*
X35780D02*
X35800D01*
X38480D02*
X38500D01*
X38520D02*
X38560D01*
X38580D02*
X38640D01*
X38660D02*
X38720D01*
X38880D02*
X38900D01*
X38920D02*
X38960D01*
X39060D02*
X39100D01*
X39160D02*
X39200D01*
X35220Y29880D02*
X35240D01*
X35360D02*
X35380D01*
X35400D02*
X35420D01*
X35740D02*
X35780D01*
X35800D02*
X35840D01*
X35860D02*
X35900D01*
X35940D02*
X36020D01*
X36060D02*
X36120D01*
X38180D02*
X38220D01*
X38300D02*
X38560D01*
X38940D02*
X38960D01*
X39040D02*
X39080D01*
X39160D02*
X39200D01*
X35120Y29860D02*
X35140D01*
X35400D02*
X35420D01*
X36000D02*
X36080D01*
X36100D02*
X36160D01*
X36180D02*
X36220D01*
X36240D02*
X36560D01*
X36580D02*
X36680D01*
X37660D02*
X37740D01*
X37780D02*
X37920D01*
X37960D02*
X38040D01*
X38060D02*
X38180D01*
X38200D02*
X38300D01*
X38880D02*
X38920D01*
X38940D02*
X38960D01*
X39040D02*
X39060D01*
X39080D02*
X39100D01*
X39160D02*
X39180D01*
X35100Y29840D02*
X35160D01*
X35200D02*
X35260D01*
X35360D02*
X35420D01*
X36340D02*
X36500D01*
X36520D02*
X36600D01*
X36620D02*
X36800D01*
X36820D02*
X36860D01*
X37440D02*
X37500D01*
X37520D02*
X37580D01*
X37600D02*
X37700D01*
X37720D02*
X37840D01*
X37860D02*
X37880D01*
X37920D02*
X37960D01*
X38880D02*
X38900D01*
X38920D02*
X38940D01*
X39060D02*
X39080D01*
X39180D02*
X39200D01*
X35080Y29820D02*
X35100D01*
X35140D02*
X35160D01*
X35220D02*
X35240D01*
X35340D02*
X35360D01*
X35380D02*
X35400D01*
X36840D02*
X36880D01*
X38900D02*
X38960D01*
X39040D02*
X39060D01*
X39080D02*
X39100D01*
X39140D02*
X39160D01*
X39200D02*
X39220D01*
X35080Y29800D02*
X35100D01*
X35140D02*
X35160D01*
X35220D02*
X35260D01*
X35280D02*
X35320D01*
X35340D02*
X35380D01*
X35400D02*
X35420D01*
X36860D02*
X36980D01*
X37320D02*
X37400D01*
X38900D02*
X38940D01*
X38960D02*
X38980D01*
X39000D02*
X39080D01*
X39140D02*
X39160D01*
X35240Y29780D02*
X35280D01*
X35320D02*
X35360D01*
X35400D02*
X35420D01*
X36900D02*
X37100D01*
X37120D02*
X37220D01*
X37240D02*
X37380D01*
X38880D02*
X38980D01*
X39020D02*
X39040D01*
X39080D02*
X39100D01*
X39120D02*
X39160D01*
X39200D02*
X39220D01*
X35080Y29760D02*
X35100D01*
X35160D02*
X35200D01*
X35220D02*
X35260D01*
X35360D02*
X35400D01*
X38880D02*
X38900D01*
X38920D02*
X38960D01*
X39040D02*
X39100D01*
X39140D02*
X39160D01*
X39200D02*
X39220D01*
X35080Y29740D02*
X35100D01*
X35140D02*
X35180D01*
X35200D02*
X35240D01*
X35320D02*
X35340D01*
X38940D02*
X38960D01*
X39020D02*
X39060D01*
X39120D02*
X39160D01*
X35140Y29720D02*
X35160D01*
X35200D02*
X35220D01*
X35260D02*
X35280D01*
X35340D02*
X35400D01*
X38900D02*
X38920D01*
X38940D02*
X38980D01*
X39060D02*
X39160D01*
X39220D02*
X39240D01*
X35140Y29700D02*
X35160D01*
X35180D02*
X35200D01*
X35240D02*
X35280D01*
X35340D02*
X35360D01*
X35380D02*
X35420D01*
X35520D02*
X35540D01*
X35560D02*
X35580D01*
X38700D02*
X38720D01*
X38740D02*
X38780D01*
X38900D02*
X38920D01*
X38940D02*
X38980D01*
X39020D02*
X39040D01*
X39060D02*
X39080D01*
X39100D02*
X39120D01*
X39140D02*
X39160D01*
X39200D02*
X39240D01*
X35180Y29680D02*
X35200D01*
X35240D02*
X35260D01*
X35280D02*
X35320D01*
X35340D02*
X35360D01*
X35400D02*
X35420D01*
X35540D02*
X35580D01*
X35600D02*
X35640D01*
X35660D02*
X35760D01*
X38560D02*
X38660D01*
X38680D02*
X38700D01*
X38920D02*
X38940D01*
X38960D02*
X39020D01*
X39040D02*
X39080D01*
X39100D02*
X39160D01*
X39200D02*
X39220D01*
X35080Y29660D02*
X35100D01*
X35140D02*
X35160D01*
X35200D02*
X35240D01*
X35320D02*
X35340D01*
X35360D02*
X35420D01*
X35520D02*
X35540D01*
X35600D02*
X35620D01*
X35680D02*
X35720D01*
X35740D02*
X35820D01*
X35840D02*
X35900D01*
X38400D02*
X38500D01*
X38520D02*
X38600D01*
X38700D02*
X38720D01*
X38760D02*
X38780D01*
X38880D02*
X38900D01*
X38920D02*
X38980D01*
X39080D02*
X39100D01*
X39120D02*
X39140D01*
X39220D02*
X39240D01*
X35060Y29640D02*
X35100D01*
X35140D02*
X35180D01*
X35200D02*
X35240D01*
X35320D02*
X35380D01*
X35600D02*
X35620D01*
X35820D02*
X35860D01*
X35880D02*
X35920D01*
X35940D02*
X36100D01*
X38180D02*
X38220D01*
X38240D02*
X38380D01*
X38400D02*
X38460D01*
X38680D02*
X38720D01*
X38760D02*
X38780D01*
X38900D02*
X38980D01*
X39040D02*
X39060D01*
X39080D02*
X39100D01*
X39120D02*
X39160D01*
X39200D02*
X39220D01*
X35060Y29620D02*
X35100D01*
X35140D02*
X35180D01*
X35200D02*
X35220D01*
X35360D02*
X35380D01*
X35520D02*
X35540D01*
X35580D02*
X35620D01*
X36020D02*
X36160D01*
X36180D02*
X36240D01*
X36260D02*
X36400D01*
X36420D02*
X36480D01*
X36520D02*
X36600D01*
X37680D02*
X37780D01*
X37820D02*
X37860D01*
X37880D02*
X37940D01*
X37980D02*
X38000D01*
X38040D02*
X38180D01*
X38220D02*
X38260D01*
X38900D02*
X38920D01*
X38940D02*
X38980D01*
X39040D02*
X39160D01*
X39220D02*
X39240D01*
X35060Y29600D02*
X35080D01*
X35140D02*
X35180D01*
X35200D02*
X35220D01*
X35340D02*
X35420D01*
X35520D02*
X35540D01*
X35580D02*
X35620D01*
X36360D02*
X36440D01*
X36480D02*
X36640D01*
X36660D02*
X36720D01*
X36760D02*
X36840D01*
X36880D02*
X37140D01*
X37160D02*
X37440D01*
X37480D02*
X37700D01*
X37720D02*
X37920D01*
X38680D02*
X38720D01*
X38760D02*
X38780D01*
X38900D02*
X38980D01*
X39040D02*
X39140D01*
X39220D02*
X39240D01*
X35140Y29580D02*
X35200D01*
X35240D02*
X35260D01*
X35340D02*
X35380D01*
X35400D02*
X35420D01*
X35580D02*
X35620D01*
X36980D02*
X37040D01*
X37080D02*
X37320D01*
X38680D02*
X38720D01*
X38880D02*
X38920D01*
X38940D02*
X38980D01*
X39040D02*
X39100D01*
X39120D02*
X39140D01*
X39220D02*
X39240D01*
X35060Y29560D02*
X35080D01*
X35140D02*
X35200D01*
X35220D02*
X35260D01*
X35340D02*
X35360D01*
X35400D02*
X35420D01*
X35580D02*
X35600D01*
X38700D02*
X38720D01*
X38880D02*
X38900D01*
X38940D02*
X38980D01*
X39080D02*
X39160D01*
X39200D02*
X39240D01*
X35060Y29540D02*
X35080D01*
X35140D02*
X35200D01*
X35220D02*
X35260D01*
X35320D02*
X35360D01*
X35380D02*
X35420D01*
X35520D02*
X35540D01*
X35580D02*
X35620D01*
X38680D02*
X38720D01*
X38880D02*
X38980D01*
X39040D02*
X39160D01*
X39220D02*
X39240D01*
X35140Y29520D02*
X35200D01*
X35220D02*
X35240D01*
X35320D02*
X35360D01*
X35380D02*
X35420D01*
X35520D02*
X35540D01*
X35600D02*
X35620D01*
X38680D02*
X38700D01*
X38880D02*
X38980D01*
X39040D02*
X39120D01*
X39140D02*
X39160D01*
X39220D02*
X39240D01*
X35140Y29500D02*
X35160D01*
X35180D02*
X35200D01*
X35220D02*
X35240D01*
X35380D02*
X35400D01*
X35520D02*
X35540D01*
X35580D02*
X35620D01*
X38700D02*
X38720D01*
X38760D02*
X38780D01*
X38920D02*
X38960D01*
X39060D02*
X39160D01*
X35140Y29480D02*
X35180D01*
X35220D02*
X35240D01*
X35340D02*
X35360D01*
X35400D02*
X35420D01*
X35520D02*
X35600D01*
X38700D02*
X38780D01*
X38880D02*
X38900D01*
X38920D02*
X38940D01*
X38960D02*
X38980D01*
X39040D02*
X39080D01*
X39100D02*
X39120D01*
X39140D02*
X39160D01*
X35060Y29460D02*
X35080D01*
X35140D02*
X35200D01*
X35320D02*
X35340D01*
X35380D02*
X35420D01*
X35600D02*
X35620D01*
X35640D02*
X35680D01*
X38640D02*
X38700D01*
X38880D02*
X38900D01*
X38920D02*
X38940D01*
X38960D02*
X38980D01*
X39100D02*
X39120D01*
X39140D02*
X39160D01*
X39220D02*
X39240D01*
X35060Y29440D02*
X35080D01*
X35160D02*
X35240D01*
X35320D02*
X35340D01*
X35380D02*
X35400D01*
X35660D02*
X35680D01*
X35700D02*
X35760D01*
X38560D02*
X38600D01*
X38620D02*
X38640D01*
X38880D02*
X38900D01*
X38920D02*
X38940D01*
X38960D02*
X38980D01*
X39060D02*
X39100D01*
X39120D02*
X39140D01*
X39220D02*
X39240D01*
X35140Y29420D02*
X35200D01*
X35320D02*
X35400D01*
X35760D02*
X35800D01*
X35820D02*
X35840D01*
X38480D02*
X38560D01*
X38880D02*
X38900D01*
X38920D02*
X38980D01*
X39040D02*
X39100D01*
X39120D02*
X39140D01*
X35060Y29400D02*
X35080D01*
X35140D02*
X35180D01*
X35240D02*
X35260D01*
X35320D02*
X35340D01*
X35380D02*
X35420D01*
X35780D02*
X35860D01*
X35900D02*
X35920D01*
X38380D02*
X38500D01*
X38880D02*
X38900D01*
X38920D02*
X38980D01*
X39080D02*
X39160D01*
X39220D02*
X39240D01*
X35060Y29380D02*
X35080D01*
X35140D02*
X35160D01*
X35180D02*
X35240D01*
X35340D02*
X35420D01*
X35860D02*
X36000D01*
X38320D02*
X38360D01*
X38380D02*
X38420D01*
X38880D02*
X38900D01*
X38920D02*
X38980D01*
X39040D02*
X39120D01*
X39140D02*
X39160D01*
X39220D02*
X39240D01*
X35140Y29360D02*
X35160D01*
X35180D02*
X35200D01*
X35340D02*
X35400D01*
X35960D02*
X36080D01*
X38220D02*
X38240D01*
X38260D02*
X38300D01*
X38320D02*
X38340D01*
X38880D02*
X38980D01*
X39060D02*
X39080D01*
X39120D02*
X39140D01*
X35140Y29340D02*
X35160D01*
X35180D02*
X35200D01*
X35220D02*
X35240D01*
X35320D02*
X35340D01*
X35380D02*
X35420D01*
X36040D02*
X36060D01*
X36080D02*
X36120D01*
X36140D02*
X36160D01*
X38160D02*
X38260D01*
X38880D02*
X38900D01*
X38920D02*
X38960D01*
X39040D02*
X39120D01*
X39140D02*
X39160D01*
X39220D02*
X39240D01*
X35140Y29320D02*
X35160D01*
X35180D02*
X35280D01*
X35360D02*
X35420D01*
X36120D02*
X36260D01*
X38060D02*
X38080D01*
X38100D02*
X38140D01*
X38160D02*
X38180D01*
X38900D02*
X38920D01*
X38940D02*
X39000D01*
X39020D02*
X39100D01*
X39120D02*
X39140D01*
X39220D02*
X39240D01*
X35060Y29300D02*
X35080D01*
X35140D02*
X35200D01*
X35220D02*
X35260D01*
X35280D02*
X35300D01*
X35320D02*
X35340D01*
X35380D02*
X35400D01*
X36200D02*
X36240D01*
X36280D02*
X36320D01*
X37980D02*
X38000D01*
X38060D02*
X38100D01*
X38900D02*
X38940D01*
X38960D02*
X38980D01*
X39000D02*
X39020D01*
X39040D02*
X39080D01*
X39100D02*
X39120D01*
X39140D02*
X39160D01*
X39220D02*
X39240D01*
X35140Y29280D02*
X35180D01*
X35200D02*
X35240D01*
X35300D02*
X35320D01*
X35340D02*
X35380D01*
X35400D02*
X35420D01*
X36300D02*
X36400D01*
X37900D02*
X38020D01*
X38880D02*
X38900D01*
X38920D02*
X38980D01*
X39080D02*
X39100D01*
X39120D02*
X39160D01*
X39220D02*
X39240D01*
X35060Y29260D02*
X35080D01*
X35140D02*
X35160D01*
X35180D02*
X35200D01*
X35300D02*
X35340D01*
X35400D02*
X35420D01*
X36360D02*
X36400D01*
X36420D02*
X36480D01*
X37880D02*
X37920D01*
X38920D02*
X38940D01*
X38960D02*
X38980D01*
X39060D02*
X39100D01*
X39120D02*
X39180D01*
X39220D02*
X39240D01*
X35060Y29240D02*
X35080D01*
X35160D02*
X35180D01*
X35200D02*
X35220D01*
X35300D02*
X35320D01*
X36460D02*
X36480D01*
X36520D02*
X36560D01*
X37740D02*
X37860D01*
X38880D02*
X38940D01*
X38960D02*
X39000D01*
X39060D02*
X39160D01*
X35140Y29220D02*
X35160D01*
X35300D02*
X35320D01*
X35380D02*
X35420D01*
X36520D02*
X36560D01*
X36580D02*
X36640D01*
X37660D02*
X37680D01*
X37700D02*
X37720D01*
X37740D02*
X37760D01*
X38880D02*
X38900D01*
X38920D02*
X38940D01*
X38960D02*
X38980D01*
X39080D02*
X39120D01*
X39140D02*
X39180D01*
X35160Y29200D02*
X35180D01*
X35200D02*
X35220D01*
X35300D02*
X35320D01*
X35360D02*
X35400D01*
X35440D02*
X35480D01*
X36620D02*
X36680D01*
X36700D02*
X36740D01*
X37580D02*
X37680D01*
X38840D02*
X38880D01*
X38920D02*
X38960D01*
X38980D02*
X39000D01*
X39080D02*
X39120D01*
X39140D02*
X39160D01*
X39220D02*
X39240D01*
X35060Y29180D02*
X35080D01*
X35140D02*
X35160D01*
X35180D02*
X35200D01*
X35380D02*
X35440D01*
X35460D02*
X35540D01*
X36680D02*
X36800D01*
X37520D02*
X37600D01*
X38780D02*
X38820D01*
X38860D02*
X38920D01*
X39080D02*
X39100D01*
X39120D02*
X39160D01*
X39220D02*
X39240D01*
X35140Y29160D02*
X35180D01*
X35360D02*
X35380D01*
X35420D02*
X35440D01*
X35460D02*
X35520D01*
X35560D02*
X35580D01*
X36760D02*
X36800D01*
X38720D02*
X38800D01*
X38840D02*
X38880D01*
X38920D02*
X38960D01*
X39100D02*
X39160D01*
X39220D02*
X39240D01*
X35080Y29140D02*
X35100D01*
X35120D02*
X35140D01*
X35160D02*
X35180D01*
X35280D02*
X35320D01*
X35380D02*
X35420D01*
X35440D02*
X35460D01*
X35540D02*
X35580D01*
X36780D02*
X36800D01*
X37500D02*
X37540D01*
X38680D02*
X38720D01*
X38740D02*
X38760D01*
X38880D02*
X38920D01*
X38960D02*
X38980D01*
X39000D02*
X39020D01*
X39100D02*
X39140D01*
X39180D02*
X39220D01*
X35080Y29120D02*
X35160D01*
X35180D02*
X35200D01*
X35280D02*
X35300D01*
X35320D02*
X35340D01*
X35360D02*
X35380D01*
X35420D02*
X35460D01*
X35600D02*
X35640D01*
X35660D02*
X35680D01*
X36760D02*
X36800D01*
X37500D02*
X37540D01*
X38640D02*
X38660D01*
X38680D02*
X38700D01*
X38860D02*
X38880D01*
X38920D02*
X38960D01*
X39000D02*
X39040D01*
X39100D02*
X39120D01*
X39140D02*
X39160D01*
X39180D02*
X39220D01*
X35100Y29100D02*
X35120D01*
X35140D02*
X35160D01*
X35180D02*
X35240D01*
X35260D02*
X35280D01*
X35360D02*
X35400D01*
X35620D02*
X35680D01*
X36760D02*
X36780D01*
X37500D02*
X37540D01*
X38620D02*
X38680D01*
X38840D02*
X38860D01*
X38900D02*
X38920D01*
X39020D02*
X39060D01*
X39080D02*
X39100D01*
X39120D02*
X39140D01*
X39160D02*
X39180D01*
X35120Y29080D02*
X35140D01*
X35180D02*
X35200D01*
X35380D02*
X35400D01*
X35440D02*
X35480D01*
X35680D02*
X35720D01*
X36760D02*
X36800D01*
X37520D02*
X37540D01*
X38580D02*
X38640D01*
X38820D02*
X38860D01*
X38900D02*
X38920D01*
X39080D02*
X39100D01*
X39180D02*
X39200D01*
X35180Y29060D02*
X35200D01*
X35360D02*
X35380D01*
X35720D02*
X35760D01*
X36760D02*
X36800D01*
X37520D02*
X37540D01*
X38540D02*
X38600D01*
X38820D02*
X38840D01*
X38920D02*
X38940D01*
X39080D02*
X39120D01*
X35100Y29040D02*
X35120D01*
X35180D02*
X35220D01*
X35380D02*
X35400D01*
X35460D02*
X35500D01*
X35740D02*
X35760D01*
X37500D02*
X37540D01*
X38520D02*
X38540D01*
X38820D02*
X38840D01*
X39080D02*
X39100D01*
X35100Y29020D02*
X35120D01*
X35380D02*
X35400D01*
X35480D02*
X35500D01*
X35760D02*
X35780D01*
X36760D02*
X36800D01*
X37500D02*
X37540D01*
X38500D02*
X38520D01*
X38800D02*
X38820D01*
X38920D02*
X38940D01*
X39100D02*
X39120D01*
X39180D02*
X39200D01*
X35200Y29000D02*
X35220D01*
X35360D02*
X35380D01*
X35480D02*
X35500D01*
X35780D02*
X35800D01*
X36760D02*
X36780D01*
X37520D02*
X37540D01*
X38480D02*
X38520D01*
X38920D02*
X38940D01*
X39080D02*
X39120D01*
X39180D02*
X39200D01*
X35100Y28980D02*
X35120D01*
X35180D02*
X35200D01*
X35380D02*
X35400D01*
X35480D02*
X35500D01*
X35820D02*
X35840D01*
X36760D02*
X36800D01*
X37520D02*
X37540D01*
X38460D02*
X38480D01*
X38800D02*
X38820D01*
X38900D02*
X38940D01*
X39080D02*
X39100D01*
X39180D02*
X39200D01*
X35180Y28960D02*
X35200D01*
X35380D02*
X35400D01*
X35500D02*
X35520D01*
X35860D02*
X35880D01*
X36760D02*
X36800D01*
X37500D02*
X37540D01*
X38440D02*
X38460D01*
X38780D02*
X38800D01*
X38900D02*
X38940D01*
X39080D02*
X39100D01*
X39180D02*
X39200D01*
X35100Y28940D02*
X35120D01*
X35180D02*
X35220D01*
X35380D02*
X35400D01*
X35500D02*
X35540D01*
X35840D02*
X35860D01*
X35880D02*
X35900D01*
X36780D02*
X36800D01*
X37500D02*
X37520D01*
X38400D02*
X38440D01*
X38780D02*
X38800D01*
X38900D02*
X38920D01*
X39080D02*
X39120D01*
X35100Y28920D02*
X35120D01*
X35360D02*
X35400D01*
X35520D02*
X35540D01*
X35860D02*
X35920D01*
X36780D02*
X36800D01*
X37500D02*
X37540D01*
X38380D02*
X38400D01*
X38760D02*
X38780D01*
X38900D02*
X38920D01*
X39180D02*
X39220D01*
X35120Y28900D02*
X35200D01*
X35380D02*
X35400D01*
X35920D02*
X35940D01*
X36780D02*
X36800D01*
X37500D02*
X37540D01*
X38760D02*
X38780D01*
X38900D02*
X38940D01*
X39100D02*
X39120D01*
X39140D02*
X39180D01*
X39200D02*
X39220D01*
X35100Y28880D02*
X35120D01*
X35160D02*
X35180D01*
X35380D02*
X35400D01*
X35540D02*
X35560D01*
X36780D02*
X36800D01*
X37500D02*
X37520D01*
X38360D02*
X38380D01*
X38920D02*
X38940D01*
X39080D02*
X39120D01*
X39180D02*
X39200D01*
X35940Y28860D02*
X35960D01*
X36780D02*
X36800D01*
X37500D02*
X37520D01*
X38340D02*
X38360D01*
X38740D02*
X38760D01*
X38920D02*
X38940D01*
X39080D02*
X39120D01*
X39180D02*
X39220D01*
X35180Y28840D02*
X35200D01*
X35360D02*
X35380D01*
X35540D02*
X35560D01*
X35940D02*
X35960D01*
X35980D02*
X36000D01*
X36780D02*
X36800D01*
X38740D02*
X38760D01*
X38900D02*
X38940D01*
X39100D02*
X39120D01*
X39180D02*
X39200D01*
X35100Y28820D02*
X35120D01*
X35180D02*
X35200D01*
X35540D02*
X35580D01*
X35980D02*
X36020D01*
X36780D02*
X36800D01*
X37500D02*
X37520D01*
X38320D02*
X38340D01*
X38720D02*
X38740D01*
X38900D02*
X38940D01*
X39200D02*
X39220D01*
X35100Y28800D02*
X35120D01*
X35180D02*
X35200D01*
X35360D02*
X35400D01*
X36000D02*
X36020D01*
X36780D02*
X36800D01*
X38280D02*
X38320D01*
X38720D02*
X38740D01*
X38900D02*
X38940D01*
X39100D02*
X39120D01*
X39180D02*
X39200D01*
X35100Y28780D02*
X35120D01*
X35180D02*
X35200D01*
X35360D02*
X35380D01*
X35560D02*
X35600D01*
X36020D02*
X36060D01*
X36780D02*
X36800D01*
X38260D02*
X38280D01*
X38900D02*
X38940D01*
X39120D02*
X39140D01*
X39160D02*
X39220D01*
X35100Y28760D02*
X35200D01*
X36060D02*
X36080D01*
X36780D02*
X36820D01*
X37500D02*
X37520D01*
X38240D02*
X38280D01*
X38700D02*
X38720D01*
X38920D02*
X38940D01*
X39100D02*
X39120D01*
X39180D02*
X39200D01*
X35120Y28740D02*
X35180D01*
X35200D02*
X35220D01*
X35380D02*
X35400D01*
X36780D02*
X36820D01*
X37500D02*
X37520D01*
X38220D02*
X38240D01*
X38700D02*
X38720D01*
X38900D02*
X38920D01*
X39080D02*
X39180D01*
X35140Y28720D02*
X35160D01*
X35180D02*
X35260D01*
X35360D02*
X35380D01*
X35580D02*
X35620D01*
X36040D02*
X36060D01*
X36080D02*
X36100D01*
X36780D02*
X36800D01*
X38240D02*
X38260D01*
X38700D02*
X38720D01*
X38900D02*
X38920D01*
X39040D02*
X39100D01*
X39120D02*
X39140D01*
X35160Y28700D02*
X35200D01*
X35240D02*
X35260D01*
X35280D02*
X35300D01*
X35360D02*
X35380D01*
X35600D02*
X35620D01*
X36060D02*
X36080D01*
X36100D02*
X36120D01*
X36800D02*
X36820D01*
X37480D02*
X37500D01*
X38680D02*
X38700D01*
X38900D02*
X38960D01*
X39020D02*
X39040D01*
X39080D02*
X39100D01*
X39120D02*
X39140D01*
X35180Y28680D02*
X35200D01*
X35260D02*
X35300D01*
X35360D02*
X35380D01*
X35600D02*
X35620D01*
X36080D02*
X36120D01*
X36780D02*
X36820D01*
X37480D02*
X37520D01*
X38200D02*
X38220D01*
X38680D02*
X38700D01*
X38900D02*
X38940D01*
X39000D02*
X39040D01*
X39100D02*
X39140D01*
X35140Y28660D02*
X35160D01*
X35180D02*
X35200D01*
X35240D02*
X35260D01*
X35620D02*
X35640D01*
X36080D02*
X36100D01*
X36120D02*
X36140D01*
X36780D02*
X36800D01*
X37480D02*
X37520D01*
X38200D02*
X38220D01*
X38660D02*
X38680D01*
X38900D02*
X38920D01*
X38940D02*
X38960D01*
X39000D02*
X39020D01*
X39040D02*
X39080D01*
X39100D02*
X39120D01*
X39140D02*
X39180D01*
X35120Y28640D02*
X35180D01*
X35200D02*
X35240D01*
X35260D02*
X35300D01*
X35620D02*
X35640D01*
X36100D02*
X36140D01*
X36780D02*
X36800D01*
X37480D02*
X37500D01*
X38160D02*
X38200D01*
X38660D02*
X38680D01*
X38940D02*
X38960D01*
X39020D02*
X39040D01*
X39060D02*
X39080D01*
X39120D02*
X39140D01*
X39160D02*
X39180D01*
X35640Y28620D02*
X35660D01*
X36140D02*
X36160D01*
X36780D02*
X36800D01*
X37500D02*
X37520D01*
X38140D02*
X38160D01*
X38920D02*
X38940D01*
X39000D02*
X39020D01*
X39140D02*
X39160D01*
X35120Y28600D02*
X35160D01*
X35280D02*
X35300D01*
X35640D02*
X35660D01*
X36120D02*
X36140D01*
X36780D02*
X36820D01*
X37480D02*
X37520D01*
X38120D02*
X38140D01*
X38640D02*
X38660D01*
X38920D02*
X38960D01*
X39140D02*
X39180D01*
X35280Y28580D02*
X35300D01*
X35640D02*
X35660D01*
X36140D02*
X36200D01*
X36780D02*
X36800D01*
X37480D02*
X37520D01*
X38120D02*
X38160D01*
X38640D02*
X38660D01*
X38920D02*
X38960D01*
X39160D02*
X39180D01*
X35120Y28560D02*
X35140D01*
X35360D02*
X35380D01*
X35660D02*
X35680D01*
X36180D02*
X36200D01*
X36780D02*
X36800D01*
X38620D02*
X38640D01*
X38920D02*
X38940D01*
X39140D02*
X39180D01*
X35140Y28540D02*
X35160D01*
X35280D02*
X35300D01*
X36160D02*
X36180D01*
X36200D02*
X36220D01*
X36780D02*
X36800D01*
X37480D02*
X37520D01*
X38100D02*
X38120D01*
X38620D02*
X38640D01*
X38920D02*
X38960D01*
X39160D02*
X39180D01*
X35120Y28520D02*
X35160D01*
X35360D02*
X35380D01*
X35660D02*
X35680D01*
X36200D02*
X36220D01*
X36780D02*
X36820D01*
X37500D02*
X37520D01*
X38080D02*
X38100D01*
X38620D02*
X38640D01*
X38920D02*
X38960D01*
X39000D02*
X39020D01*
X39140D02*
X39180D01*
X35120Y28500D02*
X35160D01*
X35340D02*
X35360D01*
X35680D02*
X35700D01*
X36200D02*
X36220D01*
X36780D02*
X36820D01*
X37500D02*
X37520D01*
X38920D02*
X38960D01*
X39000D02*
X39040D01*
X39140D02*
X39180D01*
X35120Y28480D02*
X35140D01*
X35340D02*
X35360D01*
X35680D02*
X35700D01*
X36200D02*
X36240D01*
X36780D02*
X36800D01*
X37480D02*
X37520D01*
X38080D02*
X38100D01*
X38600D02*
X38620D01*
X38920D02*
X38960D01*
X39020D02*
X39040D01*
X39140D02*
X39160D01*
X35120Y28460D02*
X35140D01*
X35360D02*
X35380D01*
X35700D02*
X35720D01*
X36240D02*
X36260D01*
X36780D02*
X36800D01*
X37480D02*
X37520D01*
X38040D02*
X38080D01*
X38580D02*
X38600D01*
X38940D02*
X38960D01*
X39020D02*
X39040D01*
X39140D02*
X39160D01*
X35120Y28440D02*
X35140D01*
X35280D02*
X35300D01*
X35340D02*
X35380D01*
X36240D02*
X36280D01*
X36780D02*
X36800D01*
X37480D02*
X37520D01*
X38940D02*
X38960D01*
X39000D02*
X39040D01*
X39140D02*
X39160D01*
X35120Y28420D02*
X35160D01*
X35340D02*
X35360D01*
X35720D02*
X35740D01*
X36260D02*
X36280D01*
X36780D02*
X36820D01*
X37480D02*
X37520D01*
X38040D02*
X38060D01*
X38920D02*
X38960D01*
X39020D02*
X39040D01*
X39140D02*
X39180D01*
X35120Y28400D02*
X35160D01*
X35340D02*
X35360D01*
X35720D02*
X35740D01*
X36240D02*
X36260D01*
X36280D02*
X36300D01*
X36780D02*
X36820D01*
X37480D02*
X37520D01*
X38020D02*
X38040D01*
X38560D02*
X38580D01*
X38920D02*
X38940D01*
X39020D02*
X39040D01*
X39140D02*
X39160D01*
X35120Y28380D02*
X35160D01*
X35280D02*
X35300D01*
X35340D02*
X35360D01*
X35720D02*
X35760D01*
X36260D02*
X36280D01*
X36800D02*
X36820D01*
X37480D02*
X37520D01*
X38000D02*
X38040D01*
X38540D02*
X38560D01*
X38940D02*
X38960D01*
X39000D02*
X39040D01*
X39140D02*
X39160D01*
X35120Y28360D02*
X35140D01*
X35280D02*
X35300D01*
X35340D02*
X35360D01*
X35720D02*
X35740D01*
X35760D02*
X35780D01*
X35800D02*
X35820D01*
X36260D02*
X36280D01*
X36300D02*
X36320D01*
X36780D02*
X36800D01*
X37480D02*
X37500D01*
X38000D02*
X38040D01*
X38480D02*
X38520D01*
X38560D02*
X38580D01*
X38920D02*
X38960D01*
X39000D02*
X39040D01*
X39140D02*
X39180D01*
X35280Y28340D02*
X35300D01*
X35340D02*
X35380D01*
X35780D02*
X35800D01*
X35820D02*
X35860D01*
X36300D02*
X36320D01*
X36780D02*
X36820D01*
X37480D02*
X37520D01*
X38000D02*
X38020D01*
X38440D02*
X38500D01*
X38580D02*
X38600D01*
X38940D02*
X38960D01*
X39020D02*
X39040D01*
X35140Y28320D02*
X35160D01*
X35260D02*
X35280D01*
X35340D02*
X35380D01*
X35700D02*
X35720D01*
X35880D02*
X35900D01*
X36280D02*
X36340D01*
X36800D02*
X36820D01*
X37500D02*
X37520D01*
X37980D02*
X38000D01*
X38400D02*
X38460D01*
X38580D02*
X38600D01*
X38920D02*
X38960D01*
X39000D02*
X39040D01*
X39140D02*
X39160D01*
X35140Y28300D02*
X35160D01*
X35260D02*
X35300D01*
X35340D02*
X35360D01*
X35900D02*
X35920D01*
X37500D02*
X37520D01*
X37960D02*
X38000D01*
X38360D02*
X38400D01*
X38920D02*
X38960D01*
X39000D02*
X39040D01*
X39140D02*
X39180D01*
X35140Y28280D02*
X35160D01*
X35260D02*
X35300D01*
X35340D02*
X35360D01*
X35700D02*
X35720D01*
X35920D02*
X35960D01*
X35980D02*
X36000D01*
X36300D02*
X36320D01*
X37480D02*
X37500D01*
X37960D02*
X37980D01*
X38340D02*
X38360D01*
X38580D02*
X38600D01*
X38920D02*
X38940D01*
X39020D02*
X39040D01*
X35140Y28260D02*
X35160D01*
X35280D02*
X35300D01*
X35340D02*
X35380D01*
X35700D02*
X35720D01*
X35960D02*
X35980D01*
X36000D02*
X36020D01*
X36320D02*
X36360D01*
X36800D02*
X36820D01*
X37480D02*
X37500D01*
X37940D02*
X37960D01*
X38280D02*
X38340D01*
X38580D02*
X38600D01*
X38920D02*
X38960D01*
X39020D02*
X39040D01*
X39140D02*
X39160D01*
X35260Y28240D02*
X35280D01*
X35340D02*
X35360D01*
X35680D02*
X35700D01*
X36020D02*
X36060D01*
X36320D02*
X36340D01*
X37480D02*
X37500D01*
X37940D02*
X37980D01*
X38280D02*
X38300D01*
X38580D02*
X38620D01*
X38920D02*
X38960D01*
X39000D02*
X39040D01*
X39140D02*
X39160D01*
X35260Y28220D02*
X35280D01*
X35340D02*
X35360D01*
X35680D02*
X35700D01*
X36020D02*
X36080D01*
X36340D02*
X36360D01*
X36820D02*
X36840D01*
X37480D02*
X37500D01*
X37920D02*
X37960D01*
X38240D02*
X38280D01*
X38600D02*
X38620D01*
X38920D02*
X38940D01*
X39000D02*
X39040D01*
X39140D02*
X39160D01*
X35140Y28200D02*
X35160D01*
X35340D02*
X35380D01*
X35680D02*
X35700D01*
X36040D02*
X36060D01*
X36080D02*
X36100D01*
X36360D02*
X36380D01*
X36800D02*
X36820D01*
X37460D02*
X37480D01*
X37940D02*
X37960D01*
X38220D02*
X38240D01*
X38600D02*
X38620D01*
X38920D02*
X38960D01*
X39020D02*
X39040D01*
X39140D02*
X39160D01*
X35260Y28180D02*
X35300D01*
X35340D02*
X35380D01*
X35680D02*
X35700D01*
X36100D02*
X36120D01*
X36340D02*
X36380D01*
X36800D02*
X36820D01*
X37460D02*
X37480D01*
X37920D02*
X37940D01*
X38200D02*
X38220D01*
X38600D02*
X38620D01*
X38920D02*
X38960D01*
X35260Y28160D02*
X35280D01*
X35340D02*
X35360D01*
X35660D02*
X35700D01*
X36080D02*
X36100D01*
X36120D02*
X36140D01*
X36360D02*
X36400D01*
X36800D02*
X36820D01*
X37460D02*
X37500D01*
X37900D02*
X37920D01*
X38180D02*
X38200D01*
X38600D02*
X38620D01*
X38920D02*
X38960D01*
X39020D02*
X39040D01*
X39140D02*
X39160D01*
X35340Y28140D02*
X35360D01*
X35660D02*
X35680D01*
X36100D02*
X36120D01*
X36140D02*
X36160D01*
X36380D02*
X36400D01*
X36800D02*
X36840D01*
X37480D02*
X37500D01*
X37900D02*
X37940D01*
X38620D02*
X38640D01*
X38920D02*
X38960D01*
X39020D02*
X39040D01*
X39140D02*
X39160D01*
X35140Y28120D02*
X35160D01*
X35340D02*
X35380D01*
X35660D02*
X35680D01*
X36120D02*
X36160D01*
X36360D02*
X36380D01*
X36800D02*
X36840D01*
X37480D02*
X37500D01*
X37900D02*
X37920D01*
X38140D02*
X38180D01*
X38620D02*
X38640D01*
X38920D02*
X38960D01*
X39020D02*
X39040D01*
X39120D02*
X39160D01*
X35140Y28100D02*
X35160D01*
X35340D02*
X35360D01*
X35660D02*
X35680D01*
X36160D02*
X36180D01*
X36380D02*
X36420D01*
X36800D02*
X36820D01*
X37460D02*
X37500D01*
X37880D02*
X37920D01*
X38120D02*
X38160D01*
X38620D02*
X38660D01*
X38920D02*
X38960D01*
X39020D02*
X39040D01*
X39120D02*
X39160D01*
X35140Y28080D02*
X35160D01*
X35260D02*
X35280D01*
X35340D02*
X35360D01*
X35660D02*
X35680D01*
X36180D02*
X36200D01*
X36380D02*
X36400D01*
X36820D02*
X36840D01*
X37460D02*
X37500D01*
X38120D02*
X38140D01*
X39020D02*
X39040D01*
X39120D02*
X39160D01*
X35140Y28060D02*
X35180D01*
X35340D02*
X35360D01*
X36200D02*
X36220D01*
X36400D02*
X36440D01*
X36820D02*
X36840D01*
X37460D02*
X37500D01*
X37860D02*
X37880D01*
X38100D02*
X38120D01*
X38640D02*
X38660D01*
X39020D02*
X39040D01*
X35140Y28040D02*
X35160D01*
X35340D02*
X35360D01*
X36200D02*
X36220D01*
X36400D02*
X36420D01*
X36820D02*
X36840D01*
X37480D02*
X37500D01*
X38640D02*
X38680D01*
X38940D02*
X38960D01*
X39140D02*
X39160D01*
X35140Y28020D02*
X35180D01*
X35260D02*
X35280D01*
X35340D02*
X35360D01*
X35640D02*
X35660D01*
X36200D02*
X36240D01*
X36420D02*
X36440D01*
X37460D02*
X37500D01*
X38640D02*
X38660D01*
X38940D02*
X38960D01*
X39120D02*
X39160D01*
X35260Y28000D02*
X35280D01*
X35340D02*
X35360D01*
X35620D02*
X35660D01*
X36240D02*
X36260D01*
X36440D02*
X36460D01*
X37460D02*
X37480D01*
X37860D02*
X37880D01*
X38060D02*
X38080D01*
X38640D02*
X38680D01*
X38940D02*
X38960D01*
X39120D02*
X39160D01*
X35340Y27980D02*
X35360D01*
X36220D02*
X36240D01*
X36420D02*
X36460D01*
X36800D02*
X36840D01*
X37460D02*
X37500D01*
X37840D02*
X37880D01*
X38040D02*
X38060D01*
X38660D02*
X38680D01*
X38940D02*
X38980D01*
X39020D02*
X39040D01*
X39140D02*
X39160D01*
X35140Y27960D02*
X35160D01*
X35340D02*
X35360D01*
X36240D02*
X36280D01*
X36440D02*
X36460D01*
X36820D02*
X36840D01*
X37480D02*
X37500D01*
X38040D02*
X38060D01*
X38680D02*
X38700D01*
X38940D02*
X38980D01*
X39020D02*
X39040D01*
X39140D02*
X39160D01*
X35140Y27940D02*
X35160D01*
X35320D02*
X35360D01*
X35620D02*
X35640D01*
X36260D02*
X36280D01*
X36460D02*
X36480D01*
X36820D02*
X36840D01*
X37460D02*
X37500D01*
X37840D02*
X37860D01*
X38020D02*
X38040D01*
X38660D02*
X38700D01*
X38960D02*
X38980D01*
X39020D02*
X39040D01*
X39140D02*
X39160D01*
X35260Y27920D02*
X35280D01*
X35340D02*
X35360D01*
X35600D02*
X35620D01*
X36460D02*
X36480D01*
X36820D02*
X36840D01*
X37460D02*
X37480D01*
X37820D02*
X37860D01*
X38000D02*
X38020D01*
X38940D02*
X38980D01*
X39020D02*
X39040D01*
X39120D02*
X39160D01*
X35160Y27900D02*
X35180D01*
X35260D02*
X35280D01*
X35320D02*
X35360D01*
X35600D02*
X35620D01*
X36300D02*
X36320D01*
X36440D02*
X36480D01*
X37460D02*
X37480D01*
X37840D02*
X37860D01*
X38940D02*
X38980D01*
X39020D02*
X39040D01*
X39120D02*
X39160D01*
X35260Y27880D02*
X35280D01*
X35340D02*
X35360D01*
X35600D02*
X35620D01*
X36280D02*
X36320D01*
X36820D02*
X36840D01*
X37820D02*
X37840D01*
X37980D02*
X38020D01*
X38680D02*
X38720D01*
X38940D02*
X38980D01*
X39020D02*
X39040D01*
X39140D02*
X39160D01*
X35160Y27860D02*
X35180D01*
X35260D02*
X35280D01*
X35320D02*
X35360D01*
X35600D02*
X35620D01*
X36480D02*
X36500D01*
X36820D02*
X36840D01*
X37820D02*
X37840D01*
X38680D02*
X38720D01*
X38960D02*
X38980D01*
X39020D02*
X39040D01*
X39140D02*
X39160D01*
X35160Y27840D02*
X35180D01*
X35260D02*
X35280D01*
X35320D02*
X35360D01*
X35580D02*
X35600D01*
X36300D02*
X36340D01*
X36460D02*
X36500D01*
X36840D02*
X36860D01*
X37800D02*
X37840D01*
X37980D02*
X38000D01*
X38700D02*
X38720D01*
X38960D02*
X38980D01*
X39020D02*
X39040D01*
X39120D02*
X39160D01*
X35160Y27820D02*
X35180D01*
X35320D02*
X35340D01*
X36320D02*
X36340D01*
X36480D02*
X36500D01*
X36820D02*
X36860D01*
X37800D02*
X37820D01*
X37960D02*
X37980D01*
X38700D02*
X38720D01*
X38960D02*
X38980D01*
X39120D02*
X39160D01*
X35320Y27800D02*
X35360D01*
X36340D02*
X36360D01*
X36500D02*
X36520D01*
X36820D02*
X36860D01*
X37960D02*
X37980D01*
X38700D02*
X38740D01*
X38960D02*
X38980D01*
X39040D02*
X39060D01*
X39140D02*
X39160D01*
X35260Y27780D02*
X35280D01*
X35320D02*
X35360D01*
X35580D02*
X35600D01*
X36480D02*
X36520D01*
X36820D02*
X36860D01*
X37460D02*
X37480D01*
X37780D02*
X37800D01*
X37940D02*
X37960D01*
X38700D02*
X38720D01*
X38940D02*
X38980D01*
X39020D02*
X39040D01*
X39120D02*
X39140D01*
X35260Y27760D02*
X35280D01*
X35340D02*
X35360D01*
X35560D02*
X35580D01*
X36340D02*
X36360D01*
X36480D02*
X36500D01*
X36820D02*
X36860D01*
X37440D02*
X37480D01*
X37780D02*
X37820D01*
X38720D02*
X38740D01*
X38940D02*
X38980D01*
X39020D02*
X39040D01*
X39120D02*
X39140D01*
X35160Y27740D02*
X35180D01*
X35260D02*
X35280D01*
X35320D02*
X35360D01*
X35560D02*
X35580D01*
X36340D02*
X36360D01*
X36500D02*
X36520D01*
X36840D02*
X36860D01*
X37440D02*
X37460D01*
X37780D02*
X37800D01*
X37920D02*
X37960D01*
X38720D02*
X38740D01*
X38960D02*
X38980D01*
X39020D02*
X39060D01*
X39120D02*
X39140D01*
X35260Y27720D02*
X35280D01*
X35320D02*
X35360D01*
X36340D02*
X36380D01*
X36500D02*
X36520D01*
X36820D02*
X36860D01*
X37780D02*
X37800D01*
X37920D02*
X37940D01*
X38720D02*
X38760D01*
X38940D02*
X38980D01*
X39120D02*
X39140D01*
X35160Y27700D02*
X35180D01*
X35260D02*
X35280D01*
X35320D02*
X35360D01*
X35540D02*
X35580D01*
X36360D02*
X36400D01*
X36500D02*
X36540D01*
X36820D02*
X36860D01*
X37920D02*
X37940D01*
X38720D02*
X38740D01*
X38940D02*
X38980D01*
X39020D02*
X39060D01*
X39100D02*
X39140D01*
X35160Y27680D02*
X35200D01*
X35260D02*
X35280D01*
X35320D02*
X35360D01*
X36360D02*
X36400D01*
X36500D02*
X36540D01*
X36820D02*
X36860D01*
X37460D02*
X37480D01*
X37760D02*
X37780D01*
X37900D02*
X37920D01*
X38720D02*
X38760D01*
X38940D02*
X38980D01*
X39020D02*
X39060D01*
X39100D02*
X39120D01*
X35160Y27660D02*
X35200D01*
X35240D02*
X35280D01*
X35320D02*
X35340D01*
X35540D02*
X35560D01*
X36380D02*
X36400D01*
X36500D02*
X36520D01*
X36840D02*
X36860D01*
X37460D02*
X37480D01*
X37780D02*
X37800D01*
X37900D02*
X37920D01*
X38740D02*
X38760D01*
X38960D02*
X38980D01*
X39100D02*
X39120D01*
X35160Y27640D02*
X35180D01*
X35240D02*
X35280D01*
X35320D02*
X35360D01*
X35540D02*
X35560D01*
X36400D02*
X36420D01*
X36500D02*
X36540D01*
X36820D02*
X36860D01*
X37440D02*
X37460D01*
X37780D02*
X37800D01*
X38760D02*
X38780D01*
X38960D02*
X38980D01*
X39020D02*
X39060D01*
X39120D02*
X39140D01*
X35320Y27620D02*
X35360D01*
X35520D02*
X35540D01*
X36520D02*
X36560D01*
X36820D02*
X36860D01*
X37440D02*
X37460D01*
X37780D02*
X37800D01*
X37880D02*
X37920D01*
X38740D02*
X38780D01*
X38940D02*
X38980D01*
X39020D02*
X39060D01*
X39120D02*
X39140D01*
X35180Y27600D02*
X35200D01*
X35260D02*
X35280D01*
X35320D02*
X35360D01*
X36400D02*
X36420D01*
X36540D02*
X36560D01*
X36820D02*
X36860D01*
X37460D02*
X37480D01*
X37740D02*
X37760D01*
X37880D02*
X37900D01*
X38760D02*
X38780D01*
X38940D02*
X38980D01*
X39020D02*
X39060D01*
X39120D02*
X39140D01*
X35180Y27580D02*
X35200D01*
X35240D02*
X35280D01*
X35320D02*
X35360D01*
X36400D02*
X36420D01*
X36520D02*
X36540D01*
X36820D02*
X36860D01*
X37460D02*
X37480D01*
X37740D02*
X37780D01*
X37880D02*
X37900D01*
X38960D02*
X38980D01*
X39020D02*
X39060D01*
X39100D02*
X39120D01*
X35160Y27560D02*
X35180D01*
X35240D02*
X35280D01*
X35340D02*
X35360D01*
X35520D02*
X35540D01*
X36400D02*
X36420D01*
X36520D02*
X36540D01*
X36820D02*
X36840D01*
X37460D02*
X37480D01*
X37740D02*
X37780D01*
X38780D02*
X38800D01*
X38960D02*
X38980D01*
X39020D02*
X39040D01*
X39120D02*
X39140D01*
X35180Y27540D02*
X35200D01*
X35320D02*
X35340D01*
X35500D02*
X35520D01*
X36400D02*
X36420D01*
X36520D02*
X36540D01*
X36840D02*
X36860D01*
X37740D02*
X37780D01*
X37860D02*
X37900D01*
X38760D02*
X38800D01*
X39040D02*
X39060D01*
X39120D02*
X39140D01*
X35160Y27520D02*
X35180D01*
X35240D02*
X35260D01*
X35320D02*
X35340D01*
X35500D02*
X35520D01*
X36420D02*
X36440D01*
X36520D02*
X36540D01*
X36840D02*
X36880D01*
X37740D02*
X37780D01*
X37860D02*
X37880D01*
X38760D02*
X38800D01*
X39100D02*
X39140D01*
X35160Y27500D02*
X35180D01*
X35500D02*
X35520D01*
X36520D02*
X36560D01*
X36860D02*
X36880D01*
X37420D02*
X37440D01*
X37740D02*
X37780D01*
X37860D02*
X37880D01*
X38780D02*
X38800D01*
X38960D02*
X38980D01*
X39120D02*
X39140D01*
X35180Y27480D02*
X35200D01*
X35240D02*
X35260D01*
X35500D02*
X35520D01*
X36440D02*
X36460D01*
X36540D02*
X36580D01*
X36860D02*
X36880D01*
X37420D02*
X37440D01*
X37740D02*
X37760D01*
X38780D02*
X38800D01*
X38960D02*
X39000D01*
X39040D02*
X39060D01*
X39080D02*
X39120D01*
X35180Y27460D02*
X35200D01*
X35220D02*
X35240D01*
X35320D02*
X35340D01*
X35480D02*
X35500D01*
X36420D02*
X36460D01*
X36540D02*
X36580D01*
X36840D02*
X36880D01*
X37420D02*
X37440D01*
X37720D02*
X37740D01*
X37840D02*
X37880D01*
X38780D02*
X38820D01*
X38960D02*
X39000D01*
X39040D02*
X39060D01*
X39080D02*
X39100D01*
X35220Y27440D02*
X35260D01*
X35320D02*
X35340D01*
X35480D02*
X35500D01*
X36420D02*
X36440D01*
X36840D02*
X36860D01*
X37420D02*
X37460D01*
X37720D02*
X37760D01*
X37840D02*
X37880D01*
X38800D02*
X38820D01*
X38960D02*
X38980D01*
X39040D02*
X39100D01*
X35220Y27420D02*
X35240D01*
X35320D02*
X35340D01*
X35480D02*
X35500D01*
X36440D02*
X36460D01*
X36560D02*
X36580D01*
X36840D02*
X36880D01*
X37420D02*
X37440D01*
X37740D02*
X37760D01*
X37860D02*
X37880D01*
X38960D02*
X39000D01*
X39060D02*
X39080D01*
X35240Y27400D02*
X35260D01*
X35320D02*
X35340D01*
X36560D02*
X36580D01*
X36840D02*
X36880D01*
X37440D02*
X37460D01*
X37720D02*
X37740D01*
X38800D02*
X38840D01*
X38960D02*
X39000D01*
X35320Y27380D02*
X35340D01*
X35480D02*
X35500D01*
X36560D02*
X36580D01*
X36860D02*
X36880D01*
X37420D02*
X37440D01*
X37720D02*
X37760D01*
X37840D02*
X37860D01*
X38800D02*
X38820D01*
X39000D02*
X39020D01*
X39040D02*
X39060D01*
X35260Y27360D02*
X35320D01*
X36460D02*
X36480D01*
X36560D02*
X36580D01*
X36860D02*
X36880D01*
X37420D02*
X37440D01*
X37720D02*
X37760D01*
X37840D02*
X37860D01*
X38820D02*
X38840D01*
X38960D02*
X39000D01*
X35300Y27340D02*
X35320D01*
X35340D02*
X35360D01*
X35460D02*
X35480D01*
X36540D02*
X36600D01*
X36840D02*
X36880D01*
X37420D02*
X37440D01*
X37740D02*
X37760D01*
X37820D02*
X37840D01*
X35320Y27320D02*
X35360D01*
X35440D02*
X35480D01*
X36440D02*
X36460D01*
X36580D02*
X36600D01*
X36840D02*
X36880D01*
X37420D02*
X37460D01*
X37700D02*
X37740D01*
X37820D02*
X37860D01*
X38820D02*
X38860D01*
X38900D02*
X38920D01*
X38940D02*
X38960D01*
X35360Y27300D02*
X35400D01*
X35420D02*
X35440D01*
X35460D02*
X35480D01*
X36460D02*
X36480D01*
X36560D02*
X36600D01*
X36840D02*
X36880D01*
X37420D02*
X37440D01*
X37720D02*
X37740D01*
X37820D02*
X37840D01*
X38840D02*
X38920D01*
X35480Y27280D02*
X35500D01*
X36460D02*
X36480D01*
X36560D02*
X36600D01*
X36840D02*
X36880D01*
X37420D02*
X37440D01*
X37700D02*
X37740D01*
X37820D02*
X37840D01*
X38820D02*
X38840D01*
X35480Y27260D02*
X35500D01*
X36580D02*
X36600D01*
X37420D02*
X37440D01*
X37700D02*
X37740D01*
X38800D02*
X38820D01*
X35500Y27240D02*
X35540D01*
X36460D02*
X36480D01*
X36560D02*
X36580D01*
X36840D02*
X36860D01*
X37700D02*
X37740D01*
X37800D02*
X37820D01*
X35520Y27220D02*
X35540D01*
X36480D02*
X36500D01*
X36580D02*
X36600D01*
X36840D02*
X36880D01*
X37420D02*
X37460D01*
X37720D02*
X37740D01*
X37800D02*
X37820D01*
X35540Y27200D02*
X35580D01*
X36480D02*
X36500D01*
X36560D02*
X36600D01*
X36840D02*
X36880D01*
X37420D02*
X37460D01*
X37700D02*
X37740D01*
X37800D02*
X37840D01*
X38740D02*
X38760D01*
X35560Y27180D02*
X35600D01*
X36480D02*
X36500D01*
X36560D02*
X36580D01*
X36840D02*
X36880D01*
X37420D02*
X37460D01*
X37700D02*
X37720D01*
X37820D02*
X37840D01*
X38700D02*
X38740D01*
X35580Y27160D02*
X35620D01*
X36840D02*
X36880D01*
X37420D02*
X37460D01*
X37800D02*
X37820D01*
X38680D02*
X38700D01*
X35600Y27140D02*
X35640D01*
X36580D02*
X36600D01*
X36840D02*
X36880D01*
X37700D02*
X37720D01*
X37800D02*
X37820D01*
X38660D02*
X38680D01*
X35640Y27120D02*
X35680D01*
X36480D02*
X36500D01*
X36580D02*
X36600D01*
X36840D02*
X36880D01*
X37420D02*
X37460D01*
X37700D02*
X37720D01*
X37780D02*
X37820D01*
X38640D02*
X38660D01*
X35660Y27100D02*
X35700D01*
X36480D02*
X36520D01*
X36580D02*
X36620D01*
X36840D02*
X36880D01*
X37420D02*
X37440D01*
X37680D02*
X37700D01*
X37800D02*
X37820D01*
X38600D02*
X38640D01*
X35720Y27080D02*
X35740D01*
X36580D02*
X36620D01*
X36840D02*
X36860D01*
X37440D02*
X37460D01*
X37700D02*
X37720D01*
X37780D02*
X37820D01*
X38580D02*
X38620D01*
X35740Y27060D02*
X35760D01*
X36500D02*
X36520D01*
X36580D02*
X36620D01*
X36840D02*
X36860D01*
X37420D02*
X37460D01*
X37680D02*
X37720D01*
X37800D02*
X37820D01*
X38560D02*
X38580D01*
X35760Y27040D02*
X35800D01*
X36500D02*
X36520D01*
X36580D02*
X36620D01*
X36860D02*
X36880D01*
X37420D02*
X37440D01*
X37680D02*
X37720D01*
X38500D02*
X38540D01*
X35780Y27020D02*
X35800D01*
X35820D02*
X35840D01*
X36580D02*
X36600D01*
X37420D02*
X37440D01*
X37680D02*
X37720D01*
X37780D02*
X37800D01*
X38460D02*
X38500D01*
X35820Y27000D02*
X35840D01*
X35860D02*
X35880D01*
X36500D02*
X36540D01*
X36580D02*
X36600D01*
X37420D02*
X37460D01*
X37680D02*
X37700D01*
X37780D02*
X37800D01*
X38420D02*
X38460D01*
X35860Y26980D02*
X35900D01*
X36500D02*
X36540D01*
X36600D02*
X36620D01*
X36860D02*
X36880D01*
X37420D02*
X37440D01*
X37680D02*
X37700D01*
X37780D02*
X37800D01*
X38420D02*
X38440D01*
X35900Y26960D02*
X35920D01*
X35940D02*
X35960D01*
X36520D02*
X36540D01*
X36600D02*
X36620D01*
X36860D02*
X36880D01*
X37420D02*
X37440D01*
X37680D02*
X37700D01*
X37760D02*
X37780D01*
X38340D02*
X38360D01*
X38380D02*
X38400D01*
X35960Y26940D02*
X36000D01*
X36520D02*
X36540D01*
X36620D02*
X36640D01*
X36880D02*
X36900D01*
X37400D02*
X37440D01*
X37760D02*
X37780D01*
X38300D02*
X38320D01*
X35980Y26920D02*
X36020D01*
X36520D02*
X36540D01*
X36600D02*
X36620D01*
X36860D02*
X36900D01*
X37420D02*
X37440D01*
X37660D02*
X37700D01*
X38280D02*
X38300D01*
X36020Y26900D02*
X36040D01*
X36520D02*
X36540D01*
X36600D02*
X36640D01*
X36880D02*
X36900D01*
X37420D02*
X37440D01*
X37660D02*
X37700D01*
X37760D02*
X37780D01*
X38240D02*
X38280D01*
X36040Y26880D02*
X36080D01*
X36520D02*
X36540D01*
X36620D02*
X36640D01*
X36860D02*
X36900D01*
X37400D02*
X37440D01*
X37660D02*
X37680D01*
X37740D02*
X37780D01*
X38180D02*
X38220D01*
X38240D02*
X38260D01*
X36080Y26860D02*
X36160D01*
X36520D02*
X36540D01*
X36860D02*
X36880D01*
X37400D02*
X37420D01*
X37660D02*
X37700D01*
X37740D02*
X37760D01*
X38160D02*
X38180D01*
X38200D02*
X38220D01*
X36140Y26840D02*
X36160D01*
X36520D02*
X36560D01*
X36600D02*
X36640D01*
X36880D02*
X36920D01*
X36940D02*
X37040D01*
X37060D02*
X37400D01*
X37420D02*
X37440D01*
X37660D02*
X37700D01*
X37740D02*
X37780D01*
X38120D02*
X38160D01*
X36160Y26820D02*
X36240D01*
X36540D02*
X36560D01*
X36620D02*
X36640D01*
X36900D02*
X36980D01*
X37000D02*
X37120D01*
X37200D02*
X37220D01*
X37260D02*
X37400D01*
X37420D02*
X37440D01*
X37680D02*
X37700D01*
X38100D02*
X38120D01*
X36200Y26800D02*
X36220D01*
X36240D02*
X36260D01*
X36620D02*
X36640D01*
X36820D02*
X36840D01*
X37420D02*
X37440D01*
X37460D02*
X37480D01*
X37680D02*
X37700D01*
X37740D02*
X37760D01*
X38060D02*
X38080D01*
X36260Y26780D02*
X36280D01*
X36300D02*
X36320D01*
X36540D02*
X36560D01*
X36820D02*
X36840D01*
X37440D02*
X37480D01*
X37660D02*
X37680D01*
X37740D02*
X37760D01*
X38000D02*
X38040D01*
X36300Y26760D02*
X36360D01*
X36560D02*
X36580D01*
X37480D02*
X37500D01*
X37660D02*
X37680D01*
X37740D02*
X37760D01*
X37940D02*
X37960D01*
X37980D02*
X38000D01*
X36320Y26740D02*
X36340D01*
X36360D02*
X36400D01*
X36540D02*
X36560D01*
X36620D02*
X36640D01*
X36780D02*
X36800D01*
X37480D02*
X37500D01*
X37520D02*
X37540D01*
X37720D02*
X37740D01*
X37900D02*
X37920D01*
X36400Y26720D02*
X36460D01*
X36560D02*
X36580D01*
X36620D02*
X36660D01*
X36740D02*
X36780D01*
X37500D02*
X37560D01*
X37660D02*
X37680D01*
X37720D02*
X37760D01*
X37860D02*
X37880D01*
X37900D02*
X37920D01*
X36440Y26700D02*
X36500D01*
X36520D02*
X36540D01*
X36560D02*
X36580D01*
X36640D02*
X36660D01*
X37540D02*
X37580D01*
X37720D02*
X37740D01*
X37800D02*
X37860D01*
X36500Y26680D02*
X36580D01*
X36600D02*
X36640D01*
X36720D02*
X36740D01*
X37540D02*
X37560D01*
X37580D02*
X37600D01*
X37640D02*
X37680D01*
X37700D02*
X37720D01*
X37740D02*
X37800D01*
X36580Y26660D02*
X36640D01*
X36700D02*
X36720D01*
X37560D02*
X37580D01*
X37600D02*
X37620D01*
X37660D02*
X37700D01*
X37720D02*
X37740D01*
X36580Y26640D02*
X36680D01*
X37580D02*
X37600D01*
X37620D02*
X37660D01*
X37680D02*
X37720D01*
X36620Y26620D02*
X36660D01*
X37600D02*
X37620D01*
X37640D02*
X37700D01*
X36620Y26600D02*
X36660D01*
X37620D02*
X37660D01*
D75*
X6300Y31010D02*
X6600D01*
X7500D02*
X7560D01*
X6180Y30980D02*
X6720D01*
X7440D02*
X7590D01*
X6120Y30950D02*
X6300D01*
X6600D02*
X6780D01*
X7350D02*
X7500D01*
X7530D02*
X7590D01*
X6060Y30920D02*
X6210D01*
X6690D02*
X6810D01*
X7290D02*
X7440D01*
X7530D02*
X7590D01*
X6030Y30890D02*
X6120D01*
X6750D02*
X6900D01*
X7170D02*
X7350D01*
X7410D02*
X7440D01*
X7500D02*
X7590D01*
X6000Y30860D02*
X6090D01*
X6810D02*
X6960D01*
X7050D02*
X7290D01*
X7320D02*
X7440D01*
X7500D02*
X7560D01*
X5970Y30830D02*
X6030D01*
X6900D02*
X7170D01*
X7230D02*
X7380D01*
X7470D02*
X7530D01*
X5940Y30800D02*
X6000D01*
X6930D02*
X7050D01*
X7170D02*
X7320D01*
X7440D02*
X7530D01*
X5910Y30770D02*
X5970D01*
X6960D02*
X7020D01*
X7080D02*
X7230D01*
X7440D02*
X7500D01*
X4830Y30740D02*
X5010D01*
X5880D02*
X5940D01*
X6960D02*
X7140D01*
X7410D02*
X7470D01*
X4800Y30710D02*
X5340D01*
X5850D02*
X5940D01*
X6990D02*
X7080D01*
X7410D02*
X7470D01*
X4800Y30680D02*
X4860D01*
X5070D02*
X5520D01*
X5820D02*
X5910D01*
X6990D02*
X7050D01*
X7410D02*
X7470D01*
X4830Y30650D02*
X4890D01*
X4980D02*
X5130D01*
X5340D02*
X5880D01*
X7020D02*
X7050D01*
X7380D02*
X7440D01*
X4830Y30620D02*
X4890D01*
X5010D02*
X5280D01*
X5550D02*
X5850D01*
X7020D02*
X7080D01*
X7380D02*
X7440D01*
X4860Y30590D02*
X4920D01*
X5160D02*
X5400D01*
X7020D02*
X7080D01*
X7380D02*
X7440D01*
X4860Y30560D02*
X4920D01*
X5310D02*
X5520D01*
X7050D02*
X7110D01*
X7350D02*
X7410D01*
X4890Y30530D02*
X4950D01*
X5430D02*
X5580D01*
X7050D02*
X7110D01*
X7350D02*
X7410D01*
X4890Y30500D02*
X4980D01*
X5520D02*
X5670D01*
X7050D02*
X7110D01*
X7320D02*
X7410D01*
X4920Y30470D02*
X4980D01*
X5610D02*
X5730D01*
X7050D02*
X7110D01*
X7320D02*
X7380D01*
X4950Y30440D02*
X5010D01*
X5670D02*
X5790D01*
X7050D02*
X7110D01*
X7290D02*
X7350D01*
X4950Y30410D02*
X5040D01*
X5730D02*
X5820D01*
X7050D02*
X7110D01*
X7260D02*
X7350D01*
X4980Y30380D02*
X5040D01*
X5760D02*
X5820D01*
X7050D02*
X7110D01*
X7230D02*
X7320D01*
X5010Y30350D02*
X5070D01*
X5790D02*
X5850D01*
X7050D02*
X7110D01*
X7170D02*
X7260D01*
X5010Y30320D02*
X5100D01*
X5820D02*
X5880D01*
X7050D02*
X7230D01*
X5040Y30290D02*
X5130D01*
X5190D02*
X5250D01*
X5850D02*
X5910D01*
X7050D02*
X7170D01*
X5100Y30260D02*
X5310D01*
X5850D02*
X5940D01*
X7020D02*
X7110D01*
X5130Y30230D02*
X5220D01*
X5250D02*
X5430D01*
X5880D02*
X5970D01*
X6990D02*
X7290D01*
X5160Y30200D02*
X5280D01*
X5340D02*
X5580D01*
X5940D02*
X6000D01*
X6960D02*
X7320D01*
X5220Y30170D02*
X5400D01*
X5460D02*
X5970D01*
X6930D02*
X6990D01*
X7260D02*
X7320D01*
X5280Y30140D02*
X5550D01*
X5640D02*
X5940D01*
X6900D02*
X6960D01*
X7290D02*
X7350D01*
X5400Y30110D02*
X5730D01*
X6870D02*
X6930D01*
X7290D02*
X7350D01*
X5490Y30080D02*
X5550D01*
X5610D02*
X5850D01*
X6810D02*
X6900D01*
X7290D02*
X7350D01*
X5490Y30050D02*
X5550D01*
X5760D02*
X5970D01*
X6630D02*
X6870D01*
X7320D02*
X7380D01*
X5460Y30020D02*
X5520D01*
X5880D02*
X6090D01*
X6480D02*
X6810D01*
X7320D02*
X7380D01*
X5460Y29990D02*
X5520D01*
X5970D02*
X6210D01*
X6420D02*
X6600D01*
X7320D02*
X7380D01*
X5460Y29960D02*
X5520D01*
X6120D02*
X6330D01*
X6420D02*
X6480D01*
X7350D02*
X7410D01*
X5430Y29930D02*
X5490D01*
X6210D02*
X6480D01*
X7350D02*
X7410D01*
X5430Y29900D02*
X5490D01*
X6360D02*
X6480D01*
X7350D02*
X7410D01*
X5430Y29870D02*
X5490D01*
X6420D02*
X6480D01*
X7380D02*
X7440D01*
X5430Y29840D02*
X5490D01*
X6420D02*
X6480D01*
X7380D02*
X7440D01*
X5430Y29810D02*
X5490D01*
X6420D02*
X6480D01*
X7380D02*
X7440D01*
X5430Y29780D02*
X5490D01*
X6450D02*
X6480D01*
X7380D02*
X7440D01*
X5430Y29750D02*
X5520D01*
X6450D02*
X6510D01*
X7380D02*
X7440D01*
X5460Y29720D02*
X5520D01*
X6450D02*
X6510D01*
X7350D02*
X7440D01*
X5460Y29690D02*
X5520D01*
X6450D02*
X6510D01*
X7320D02*
X7470D01*
X5460Y29660D02*
X5550D01*
X6450D02*
X6510D01*
X7290D02*
X7380D01*
X7410D02*
X7500D01*
X5460Y29630D02*
X5580D01*
X6450D02*
X6510D01*
X7260D02*
X7350D01*
X7440D02*
X7530D01*
X5430Y29600D02*
X5490D01*
X5550D02*
X5640D01*
X6480D02*
X6510D01*
X7230D02*
X7320D01*
X7470D02*
X7560D01*
X5430Y29570D02*
X5490D01*
X5580D02*
X5700D01*
X6480D02*
X6540D01*
X7170D02*
X7260D01*
X7500D02*
X7560D01*
X5430Y29540D02*
X5490D01*
X5640D02*
X5760D01*
X6480D02*
X6540D01*
X7110D02*
X7230D01*
X7530D02*
X7590D01*
X5430Y29510D02*
X5490D01*
X5700D02*
X5850D01*
X6480D02*
X6540D01*
X7050D02*
X7170D01*
X7530D02*
X7620D01*
X5400Y29480D02*
X5460D01*
X5760D02*
X5940D01*
X6510D02*
X6570D01*
X6960D02*
X7110D01*
X7560D02*
X7620D01*
X5400Y29450D02*
X5460D01*
X5850D02*
X6060D01*
X6510D02*
X6570D01*
X6840D02*
X7020D01*
X7590D02*
X7650D01*
X5370Y29420D02*
X5430D01*
X5970D02*
X6270D01*
X6510D02*
X6570D01*
X6750D02*
X6930D01*
X7590D02*
X7680D01*
X5370Y29390D02*
X5640D01*
X6090D02*
X6600D01*
X6690D02*
X6840D01*
X7620D02*
X7740D01*
X5340Y29360D02*
X5730D01*
X6330D02*
X6750D01*
X7620D02*
X7770D01*
X5310Y29330D02*
X5400D01*
X5670D02*
X5790D01*
X5970D02*
X6030D01*
X6600D02*
X6660D01*
X7590D02*
X7680D01*
X7740D02*
X7800D01*
X5280Y29300D02*
X5370D01*
X5730D02*
X5820D01*
X5970D02*
X6030D01*
X7050D02*
X7110D01*
X7530D02*
X7620D01*
X7740D02*
X7830D01*
X5250Y29270D02*
X5340D01*
X5790D02*
X5850D01*
X5940D02*
X6000D01*
X7050D02*
X7110D01*
X7500D02*
X7590D01*
X7770D02*
X7830D01*
X5250Y29240D02*
X5310D01*
X5820D02*
X5880D01*
X5940D02*
X6000D01*
X7050D02*
X7110D01*
X7440D02*
X7530D01*
X7770D02*
X7830D01*
X5250Y29210D02*
X5310D01*
X5850D02*
X5910D01*
X5940D02*
X6000D01*
X7050D02*
X7110D01*
X7380D02*
X7500D01*
X7800D02*
X7860D01*
X5250Y29180D02*
X5310D01*
X5850D02*
X5910D01*
X5940D02*
X5970D01*
X7050D02*
X7110D01*
X7320D02*
X7440D01*
X7800D02*
X7860D01*
X5250Y29150D02*
X5310D01*
X5430D02*
X5610D01*
X5880D02*
X5970D01*
X7050D02*
X7110D01*
X7260D02*
X7380D01*
X7770D02*
X7830D01*
X5250Y29120D02*
X5310D01*
X5400D02*
X5670D01*
X5880D02*
X5970D01*
X7080D02*
X7140D01*
X7230D02*
X7320D01*
X7710D02*
X7830D01*
X5250Y29090D02*
X5310D01*
X5370D02*
X5430D01*
X5610D02*
X5730D01*
X5880D02*
X5970D01*
X7080D02*
X7140D01*
X7200D02*
X7290D01*
X7650D02*
X7770D01*
X5280Y29060D02*
X5400D01*
X5700D02*
X5760D01*
X5910D02*
X5940D01*
X7080D02*
X7140D01*
X7200D02*
X7260D01*
X7560D02*
X7770D01*
X5280Y29030D02*
X5400D01*
X5730D02*
X5760D01*
X5910D02*
X5970D01*
X7110D02*
X7230D01*
X7530D02*
X7620D01*
X7710D02*
X7770D01*
X5310Y29000D02*
X5400D01*
X5730D02*
X5790D01*
X5910D02*
X5970D01*
X7110D02*
X7230D01*
X7500D02*
X7590D01*
X7710D02*
X7770D01*
X5310Y28970D02*
X5370D01*
X5550D02*
X5640D01*
X5730D02*
X5790D01*
X5910D02*
X5970D01*
X7140D02*
X7230D01*
X7470D02*
X7590D01*
X7710D02*
X7770D01*
X5310Y28940D02*
X5370D01*
X5520D02*
X5580D01*
X5610D02*
X5790D01*
X5910D02*
X5970D01*
X7170D02*
X7230D01*
X7440D02*
X7500D01*
X7530D02*
X7590D01*
X7710D02*
X7770D01*
X5280Y28910D02*
X5400D01*
X5520D02*
X5550D01*
X5670D02*
X5730D01*
X5760D02*
X5790D01*
X5910D02*
X5970D01*
X7170D02*
X7230D01*
X7440D02*
X7500D01*
X7530D02*
X7590D01*
X7680D02*
X7740D01*
X5280Y28880D02*
X5400D01*
X5490D02*
X5550D01*
X5730D02*
X5790D01*
X5910D02*
X5970D01*
X7200D02*
X7230D01*
X7410D02*
X7470D01*
X7530D02*
X7590D01*
X7680D02*
X7740D01*
X5280Y28850D02*
X5400D01*
X5490D02*
X5550D01*
X5700D02*
X5790D01*
X5880D02*
X5940D01*
X7200D02*
X7260D01*
X7410D02*
X7470D01*
X7530D02*
X7740D01*
X5280Y28820D02*
X5400D01*
X5490D02*
X5760D01*
X5880D02*
X5940D01*
X7230D02*
X7290D01*
X7380D02*
X7440D01*
X7560D02*
X7710D01*
X5280Y28790D02*
X5340D01*
X5370D02*
X5430D01*
X5490D02*
X5550D01*
X5580D02*
X5700D01*
X5850D02*
X5910D01*
X7260D02*
X7440D01*
X5280Y28760D02*
X5340D01*
X5370D02*
X5430D01*
X5490D02*
X5580D01*
X5790D02*
X5880D01*
X7290D02*
X7440D01*
X5280Y28730D02*
X5340D01*
X5400D02*
X5460D01*
X5490D02*
X5850D01*
X7380D02*
X7440D01*
X5280Y28700D02*
X5340D01*
X5400D02*
X5760D01*
X7380D02*
X7440D01*
X5310Y28670D02*
X5370D01*
X5400D02*
X5490D01*
X5520D02*
X5610D01*
X7380D02*
X7440D01*
X5310Y28640D02*
X5460D01*
X5520D02*
X5580D01*
X7380D02*
X7440D01*
X5340Y28610D02*
X5430D01*
X5490D02*
X5550D01*
X7380D02*
X7440D01*
X5490Y28580D02*
X5550D01*
X7410D02*
X7470D01*
X5490Y28550D02*
X5550D01*
X7410D02*
X7470D01*
X5490Y28520D02*
X5550D01*
X7410D02*
X7470D01*
X5460Y28490D02*
X5520D01*
X7410D02*
X7470D01*
X5460Y28460D02*
X5520D01*
X7440D02*
X7500D01*
X5460Y28430D02*
X5520D01*
X7440D02*
X7500D01*
X5460Y28400D02*
X5520D01*
X7440D02*
X7500D01*
X5460Y28370D02*
X5520D01*
X7410D02*
X7470D01*
X5460Y28340D02*
X5520D01*
X7410D02*
X7470D01*
X5430Y28310D02*
X5490D01*
X7410D02*
X7470D01*
X5430Y28280D02*
X5490D01*
X7380D02*
X7440D01*
X5430Y28250D02*
X5490D01*
X7380D02*
X7440D01*
X5430Y28220D02*
X5490D01*
X7380D02*
X7440D01*
X5430Y28190D02*
X5490D01*
X7380D02*
X7440D01*
X5400Y28160D02*
X5460D01*
X7410D02*
X7470D01*
X5400Y28130D02*
X5460D01*
X7440D02*
X7530D01*
X5400Y28100D02*
X5460D01*
X7470D02*
X7560D01*
X5370Y28070D02*
X5460D01*
X7500D02*
X7590D01*
X5370Y28040D02*
X5430D01*
X7530D02*
X7620D01*
X5370Y28010D02*
X5430D01*
X7560D02*
X7620D01*
X5370Y27980D02*
X5430D01*
X7560D02*
X7620D01*
X5400Y27950D02*
X5460D01*
X7530D02*
X7590D01*
X5400Y27920D02*
X5520D01*
X7470D02*
X7590D01*
X5430Y27890D02*
X5760D01*
X7350D02*
X7530D01*
X5430Y27860D02*
X7530D01*
X5520Y27830D02*
X5580D01*
X5610D02*
X5670D01*
X5700D02*
X7380D01*
X7410D02*
X7470D01*
M02*
