M48
;Layer_Color=9474304
;FILE_FORMAT=2:4
INCH,TZ
;TYPE=PLATED
T1F00S00C0.0260
T2F00S00C0.0276
T3F00S00C0.0300
T4F00S00C0.0354
T5F00S00C0.0394
T6F00S00C0.0409
T7F00S00C0.0433
T8F00S00C0.2600
;TYPE=NON_PLATED
T9F00S00C0.0902
%
T01
X32018Y13835
Y18934
T02
X23290Y25500
X24510
T03
X17650Y44550
X18650
X19650
X20650
Y47550
X19650
X18650
X17650
T04
X1400Y27750
Y28750
Y29750
Y30750
T05
X16300Y27750
X17300
X18300
X19300
X20300
X21300
X22300
X23300
X24300
X25300
X26300
X27300
X28300
Y30750
X27300
X26300
X25300
X24300
X23300
X22300
X21300
X20300
X19300
X18300
X17300
X16300
X15300
Y27750
T06
X11700Y40800
Y41800
X29850
Y40800
T07
X33050Y25400
Y26400
Y27400
Y28400
Y29400
Y30400
Y31400
Y32400
T08
X37150Y20100
X4350
Y38300
X37150
T09
X21739Y11942
X16471Y20800
X27050
M30
