G04*
G04 #@! TF.GenerationSoftware,Altium Limited,Altium Designer,20.0.12 (288)*
G04*
G04 Layer_Color=65535*
%FSLAX24Y24*%
%MOIN*%
G70*
G01*
G75*
%ADD10C,0.0098*%
%ADD11C,0.0079*%
%ADD12C,0.0020*%
%ADD13C,0.0050*%
%ADD14C,0.0100*%
%ADD15C,0.0060*%
%ADD16C,0.0078*%
D10*
X23106Y32507D02*
G03*
X23106Y32507I-49J0D01*
G01*
X18898Y33476D02*
G03*
X18898Y33476I-49J0D01*
G01*
X15300Y24448D02*
G03*
X15300Y24448I-49J0D01*
G01*
D11*
X15146Y27104D02*
G03*
X15146Y27104I-39J0D01*
G01*
X23445Y25098D02*
G03*
X24368Y25104I459J402D01*
G01*
X24364Y25896D02*
G03*
X23441Y25902I-464J-396D01*
G01*
X32520Y32959D02*
X33580D01*
X32520Y24841D02*
Y32959D01*
Y24841D02*
X33580D01*
Y32959D01*
X24007Y31735D02*
Y32365D01*
X23393Y31735D02*
X24007D01*
X23393Y32365D02*
X24007D01*
X23393Y31735D02*
Y32365D01*
X30324Y40200D02*
Y42400D01*
X29376D02*
X30324D01*
X29376Y40200D02*
Y42400D01*
Y40200D02*
X30324D01*
X12174D02*
Y42400D01*
X11226D02*
X12174D01*
X11226Y40200D02*
Y42400D01*
Y40200D02*
X12174D01*
X19521Y33412D02*
X19679D01*
X19521Y33688D02*
X19679D01*
X17540Y33053D02*
X18760D01*
X17540Y32147D02*
X18760D01*
Y33053D01*
X17540Y32147D02*
Y33053D01*
X15340Y24753D02*
Y25147D01*
X16560Y24753D02*
Y25147D01*
X15340Y24753D02*
X16560D01*
X15340Y25147D02*
X16560D01*
X900Y27250D02*
X1900D01*
X900D02*
Y31250D01*
X1900Y27250D02*
Y31250D01*
X900D02*
X1900D01*
D12*
X40060Y49490D02*
X40100D01*
X40120D02*
X40260D01*
X40280D02*
X40300D01*
X40000Y49470D02*
X40060D01*
X40320D02*
X40340D01*
X39940Y49450D02*
X40000D01*
X40060D02*
X40300D01*
X40380D02*
X40400D01*
X39840Y49430D02*
X39940D01*
X40000D02*
X40040D01*
X40140D02*
X40240D01*
X40320D02*
X40360D01*
X40400D02*
X40420D01*
X39760Y49410D02*
X39820D01*
X39900D02*
X40000D01*
X40060D02*
X40160D01*
X40220D02*
X40300D01*
X40340D02*
X40400D01*
X40420D02*
X40440D01*
X39700Y49390D02*
X39760D01*
X39840D02*
X39900D01*
X40000D02*
X40040D01*
X40300D02*
X40340D01*
X40360D02*
X40420D01*
X40440D02*
X40460D01*
X39600Y49370D02*
X39700D01*
X39780D02*
X39820D01*
X39900D02*
X40000D01*
X40340D02*
X40360D01*
X40380D02*
X40440D01*
X40460D02*
X40480D01*
X39520Y49350D02*
X39580D01*
X39660D02*
X39760D01*
X39820D02*
X39860D01*
X40360D02*
X40380D01*
X40400D02*
X40440D01*
X40460D02*
X40480D01*
X39440Y49330D02*
X39520D01*
X39600D02*
X39680D01*
X39760D02*
X39820D01*
X40380D02*
X40400D01*
X40420D02*
X40460D01*
X40480D02*
X40500D01*
X39360Y49310D02*
X39380D01*
X39400D02*
X39460D01*
X39520D02*
X39580D01*
X39640D02*
X39740D01*
X40400D02*
X40420D01*
X40440D02*
X40460D01*
X40480D02*
X40500D01*
X39280Y49290D02*
X39340D01*
X39420D02*
X39500D01*
X39580D02*
X39660D01*
X40400D02*
X40420D01*
X40460D02*
X40480D01*
X40500D02*
X40520D01*
X39200Y49270D02*
X39280D01*
X39360D02*
X39440D01*
X39520D02*
X39580D01*
X40420D02*
X40440D01*
X40460D02*
X40480D01*
X40500D02*
X40520D01*
X39100Y49250D02*
X39200D01*
X39280D02*
X39320D01*
X39400D02*
X39500D01*
X40420D02*
X40440D01*
X40460D02*
X40480D01*
X40500D02*
X40520D01*
X39040Y49230D02*
X39100D01*
X39180D02*
X39260D01*
X39340D02*
X39420D01*
X40440D02*
X40520D01*
X38960Y49210D02*
X39040D01*
X39100D02*
X39200D01*
X39260D02*
X39340D01*
X40440D02*
X40460D01*
X40480D02*
X40540D01*
X38860Y49190D02*
X38940D01*
X39040D02*
X39080D01*
X39160D02*
X39260D01*
X39960D02*
X40080D01*
X40440D02*
X40460D01*
X40480D02*
X40500D01*
X40520D02*
X40540D01*
X38800Y49170D02*
X38840D01*
X38940D02*
X39020D01*
X39100D02*
X39160D01*
X39880D02*
X39960D01*
X40080D02*
X40120D01*
X40480D02*
X40500D01*
X40520D02*
X40540D01*
X38720Y49150D02*
X38800D01*
X38860D02*
X38940D01*
X39020D02*
X39100D01*
X39780D02*
X39880D01*
X40040D02*
X40080D01*
X40140D02*
X40160D01*
X40440D02*
X40460D01*
X40480D02*
X40500D01*
X40520D02*
X40540D01*
X38620Y49130D02*
X38720D01*
X38800D02*
X38840D01*
X38920D02*
X39000D01*
X39700D02*
X39800D01*
X39940D02*
X39960D01*
X39980D02*
X40000D01*
X40020D02*
X40060D01*
X40080D02*
X40120D01*
X40140D02*
X40180D01*
X40440D02*
X40460D01*
X40480D02*
X40500D01*
X40520D02*
X40540D01*
X38560Y49110D02*
X38620D01*
X38700D02*
X38760D01*
X38860D02*
X38920D01*
X39620D02*
X39680D01*
X39760D02*
X39780D01*
X39860D02*
X39940D01*
X40060D02*
X40080D01*
X40120D02*
X40140D01*
X40160D02*
X40180D01*
X40440D02*
X40460D01*
X40520D02*
X40540D01*
X38480Y49090D02*
X38540D01*
X38620D02*
X38700D01*
X38780D02*
X38840D01*
X39540D02*
X39580D01*
X39600D02*
X39620D01*
X39700D02*
X39720D01*
X39800D02*
X39860D01*
X40080D02*
X40100D01*
X40120D02*
X40160D01*
X40180D02*
X40200D01*
X40440D02*
X40460D01*
X40480D02*
X40500D01*
X40520D02*
X40540D01*
X38380Y49070D02*
X38480D01*
X38560D02*
X38600D01*
X38680D02*
X38740D01*
X38760D02*
X38780D01*
X39440D02*
X39460D01*
X39480D02*
X39560D01*
X39680D02*
X39780D01*
X40100D02*
X40120D01*
X40140D02*
X40180D01*
X40200D02*
X40220D01*
X40460D02*
X40480D01*
X40520D02*
X40540D01*
X38300Y49050D02*
X38380D01*
X38440D02*
X38540D01*
X38600D02*
X38680D01*
X39360D02*
X39440D01*
X39520D02*
X39560D01*
X39620D02*
X39700D01*
X40120D02*
X40140D01*
X40160D02*
X40180D01*
X40200D02*
X40220D01*
X40460D02*
X40480D01*
X40520D02*
X40540D01*
X38220Y49030D02*
X38300D01*
X38380D02*
X38460D01*
X38540D02*
X38600D01*
X39280D02*
X39360D01*
X39440D02*
X39480D01*
X39560D02*
X39620D01*
X40120D02*
X40220D01*
X40460D02*
X40480D01*
X40520D02*
X40540D01*
X38140Y49010D02*
X38180D01*
X38200D02*
X38240D01*
X38320D02*
X38360D01*
X38440D02*
X38520D01*
X39200D02*
X39300D01*
X39440D02*
X39540D01*
X40140D02*
X40240D01*
X40460D02*
X40480D01*
X40520D02*
X40540D01*
X38060Y48990D02*
X38120D01*
X38200D02*
X38280D01*
X38360D02*
X38440D01*
X39120D02*
X39180D01*
X39260D02*
X39300D01*
X39380D02*
X39460D01*
X40140D02*
X40160D01*
X40180D02*
X40200D01*
X40220D02*
X40240D01*
X40460D02*
X40480D01*
X40520D02*
X40540D01*
X37980Y48970D02*
X38060D01*
X38140D02*
X38220D01*
X38300D02*
X38360D01*
X39040D02*
X39120D01*
X39180D02*
X39260D01*
X39300D02*
X39380D01*
X40140D02*
X40160D01*
X40180D02*
X40200D01*
X40220D02*
X40240D01*
X40460D02*
X40480D01*
X40520D02*
X40540D01*
X37900Y48950D02*
X37920D01*
X37940D02*
X38000D01*
X38060D02*
X38120D01*
X38180D02*
X38280D01*
X38940D02*
X38960D01*
X38980D02*
X39040D01*
X39200D02*
X39260D01*
X39280D02*
X39300D01*
X40180D02*
X40200D01*
X40220D02*
X40240D01*
X40460D02*
X40480D01*
X40520D02*
X40540D01*
X37820Y48930D02*
X37840D01*
X37860D02*
X37880D01*
X37960D02*
X38040D01*
X38120D02*
X38140D01*
X38160D02*
X38200D01*
X38860D02*
X38940D01*
X39020D02*
X39060D01*
X39140D02*
X39200D01*
X40140D02*
X40160D01*
X40180D02*
X40200D01*
X40220D02*
X40240D01*
X40460D02*
X40480D01*
X40520D02*
X40540D01*
X37740Y48910D02*
X37800D01*
X37900D02*
X37980D01*
X38060D02*
X38120D01*
X38800D02*
X38820D01*
X38840D02*
X38860D01*
X38940D02*
X38980D01*
X39060D02*
X39120D01*
X40140D02*
X40160D01*
X40180D02*
X40200D01*
X40220D02*
X40240D01*
X40460D02*
X40480D01*
X40520D02*
X40540D01*
X37660Y48890D02*
X37740D01*
X37820D02*
X37860D01*
X37940D02*
X37960D01*
X37980D02*
X38040D01*
X38700D02*
X38800D01*
X38960D02*
X39060D01*
X40140D02*
X40160D01*
X40180D02*
X40200D01*
X40220D02*
X40240D01*
X40460D02*
X40480D01*
X40520D02*
X40540D01*
X37580Y48870D02*
X37640D01*
X37720D02*
X37800D01*
X37880D02*
X37960D01*
X38620D02*
X38680D01*
X38760D02*
X38800D01*
X38880D02*
X38960D01*
X40140D02*
X40160D01*
X40180D02*
X40200D01*
X40220D02*
X40240D01*
X40460D02*
X40480D01*
X40520D02*
X40540D01*
X37500Y48850D02*
X37580D01*
X37640D02*
X37740D01*
X37800D02*
X37880D01*
X38540D02*
X38620D01*
X38720D02*
X38740D01*
X38820D02*
X38880D01*
X40140D02*
X40160D01*
X40180D02*
X40200D01*
X40220D02*
X40240D01*
X40460D02*
X40480D01*
X40520D02*
X40540D01*
X37400Y48830D02*
X37500D01*
X37580D02*
X37620D01*
X37720D02*
X37760D01*
X37780D02*
X37800D01*
X38440D02*
X38500D01*
X38720D02*
X38800D01*
X40140D02*
X40160D01*
X40180D02*
X40200D01*
X40220D02*
X40240D01*
X40460D02*
X40480D01*
X40520D02*
X40540D01*
X37340Y48810D02*
X37400D01*
X37480D02*
X37560D01*
X37640D02*
X37700D01*
X38380D02*
X38440D01*
X38520D02*
X38560D01*
X38640D02*
X38720D01*
X40140D02*
X40160D01*
X40180D02*
X40200D01*
X40220D02*
X40240D01*
X40460D02*
X40480D01*
X40520D02*
X40540D01*
X37260Y48790D02*
X37320D01*
X37400D02*
X37500D01*
X37560D02*
X37620D01*
X38300D02*
X38360D01*
X38440D02*
X38500D01*
X38580D02*
X38640D01*
X40140D02*
X40160D01*
X40180D02*
X40200D01*
X40220D02*
X40240D01*
X40460D02*
X40480D01*
X40520D02*
X40540D01*
X37160Y48770D02*
X37180D01*
X37200D02*
X37260D01*
X37340D02*
X37380D01*
X37460D02*
X37520D01*
X37540D02*
X37560D01*
X38200D02*
X38300D01*
X38460D02*
X38560D01*
X40140D02*
X40160D01*
X40180D02*
X40200D01*
X40220D02*
X40240D01*
X40460D02*
X40480D01*
X40520D02*
X40540D01*
X37100Y48750D02*
X37160D01*
X37240D02*
X37320D01*
X37380D02*
X37460D01*
X38120D02*
X38200D01*
X38260D02*
X38320D01*
X38400D02*
X38480D01*
X40140D02*
X40160D01*
X40180D02*
X40200D01*
X40220D02*
X40240D01*
X40460D02*
X40480D01*
X40520D02*
X40540D01*
X37020Y48730D02*
X37080D01*
X37160D02*
X37180D01*
X37200D02*
X37220D01*
X37320D02*
X37380D01*
X38040D02*
X38080D01*
X38100D02*
X38120D01*
X38200D02*
X38260D01*
X38320D02*
X38400D01*
X40140D02*
X40160D01*
X40180D02*
X40200D01*
X40220D02*
X40240D01*
X40460D02*
X40480D01*
X40520D02*
X40540D01*
X36920Y48710D02*
X36940D01*
X36960D02*
X37020D01*
X37100D02*
X37140D01*
X37220D02*
X37320D01*
X37980D02*
X38060D01*
X38220D02*
X38320D01*
X40140D02*
X40160D01*
X40180D02*
X40200D01*
X40220D02*
X40240D01*
X40460D02*
X40480D01*
X40520D02*
X40540D01*
X36840Y48690D02*
X36920D01*
X36980D02*
X37080D01*
X37140D02*
X37220D01*
X37880D02*
X37940D01*
X38000D02*
X38080D01*
X38160D02*
X38220D01*
X40140D02*
X40160D01*
X40180D02*
X40200D01*
X40220D02*
X40240D01*
X40460D02*
X40480D01*
X40520D02*
X40540D01*
X36760Y48670D02*
X36840D01*
X36920D02*
X37000D01*
X37080D02*
X37140D01*
X37820D02*
X37860D01*
X37960D02*
X38000D01*
X38080D02*
X38140D01*
X40140D02*
X40160D01*
X40180D02*
X40200D01*
X40220D02*
X40240D01*
X40460D02*
X40480D01*
X40520D02*
X40540D01*
X36680Y48650D02*
X36780D01*
X36860D02*
X36900D01*
X36980D02*
X37060D01*
X37700D02*
X37720D01*
X37740D02*
X37800D01*
X37880D02*
X37900D01*
X37980D02*
X38080D01*
X40140D02*
X40160D01*
X40180D02*
X40200D01*
X40220D02*
X40240D01*
X40460D02*
X40480D01*
X40520D02*
X40540D01*
X36600Y48630D02*
X36660D01*
X36740D02*
X36840D01*
X36900D02*
X36980D01*
X37620D02*
X37700D01*
X37780D02*
X37820D01*
X37900D02*
X37960D01*
X40140D02*
X40160D01*
X40180D02*
X40200D01*
X40220D02*
X40240D01*
X40460D02*
X40480D01*
X40520D02*
X40540D01*
X36520Y48610D02*
X36600D01*
X36680D02*
X36780D01*
X36840D02*
X36860D01*
X36880D02*
X36900D01*
X37540D02*
X37620D01*
X37700D02*
X37760D01*
X37840D02*
X37900D01*
X40140D02*
X40160D01*
X40180D02*
X40200D01*
X40220D02*
X40240D01*
X40460D02*
X40480D01*
X40520D02*
X40540D01*
X36440Y48590D02*
X36540D01*
X36600D02*
X36660D01*
X36720D02*
X36820D01*
X37460D02*
X37560D01*
X37640D02*
X37660D01*
X37740D02*
X37840D01*
X40140D02*
X40160D01*
X40180D02*
X40200D01*
X40220D02*
X40240D01*
X40460D02*
X40480D01*
X40520D02*
X40540D01*
X36360Y48570D02*
X36420D01*
X36500D02*
X36580D01*
X36660D02*
X36740D01*
X37380D02*
X37440D01*
X37520D02*
X37580D01*
X37660D02*
X37740D01*
X40140D02*
X40160D01*
X40180D02*
X40200D01*
X40220D02*
X40240D01*
X40460D02*
X40480D01*
X40520D02*
X40540D01*
X36280Y48550D02*
X36360D01*
X36440D02*
X36520D01*
X36600D02*
X36660D01*
X37300D02*
X37380D01*
X37460D02*
X37480D01*
X37500D02*
X37520D01*
X37600D02*
X37660D01*
X40140D02*
X40160D01*
X40180D02*
X40200D01*
X40220D02*
X40240D01*
X40460D02*
X40480D01*
X40520D02*
X40540D01*
X36180Y48530D02*
X36240D01*
X36260D02*
X36280D01*
X36360D02*
X36400D01*
X36480D02*
X36540D01*
X36560D02*
X36580D01*
X37200D02*
X37240D01*
X37260D02*
X37300D01*
X37380D02*
X37400D01*
X37480D02*
X37580D01*
X40140D02*
X40160D01*
X40180D02*
X40200D01*
X40220D02*
X40240D01*
X40460D02*
X40480D01*
X40520D02*
X40540D01*
X36120Y48510D02*
X36180D01*
X36260D02*
X36360D01*
X36420D02*
X36500D01*
X37120D02*
X37200D01*
X37280D02*
X37340D01*
X37420D02*
X37500D01*
X38960D02*
X39020D01*
X39040D02*
X39060D01*
X40140D02*
X40160D01*
X40180D02*
X40200D01*
X40220D02*
X40240D01*
X40460D02*
X40480D01*
X40520D02*
X40540D01*
X36060Y48490D02*
X36120D01*
X36180D02*
X36280D01*
X36340D02*
X36420D01*
X37060D02*
X37120D01*
X37200D02*
X37280D01*
X37340D02*
X37420D01*
X38880D02*
X38960D01*
X39040D02*
X39060D01*
X40140D02*
X40160D01*
X40180D02*
X40200D01*
X40220D02*
X40240D01*
X40460D02*
X40480D01*
X40520D02*
X40540D01*
X35940Y48470D02*
X35960D01*
X35980D02*
X36040D01*
X36120D02*
X36160D01*
X36240D02*
X36340D01*
X36960D02*
X37060D01*
X37140D02*
X37160D01*
X37240D02*
X37340D01*
X38800D02*
X38900D01*
X38960D02*
X39020D01*
X39040D02*
X39060D01*
X40140D02*
X40160D01*
X40180D02*
X40200D01*
X40220D02*
X40240D01*
X40460D02*
X40480D01*
X40520D02*
X40540D01*
X35880Y48450D02*
X35940D01*
X36020D02*
X36100D01*
X36200D02*
X36240D01*
X36880D02*
X36920D01*
X37020D02*
X37100D01*
X37180D02*
X37240D01*
X38740D02*
X38780D01*
X38860D02*
X39020D01*
X39040D02*
X39060D01*
X40140D02*
X40160D01*
X40180D02*
X40200D01*
X40220D02*
X40240D01*
X40460D02*
X40480D01*
X40520D02*
X40540D01*
X35800Y48430D02*
X35860D01*
X35940D02*
X36020D01*
X36100D02*
X36160D01*
X36800D02*
X36880D01*
X36960D02*
X37020D01*
X37100D02*
X37160D01*
X38660D02*
X38720D01*
X38800D02*
X39020D01*
X39040D02*
X39060D01*
X40140D02*
X40160D01*
X40180D02*
X40200D01*
X40220D02*
X40240D01*
X40460D02*
X40480D01*
X40520D02*
X40540D01*
X35700Y48410D02*
X35760D01*
X35780D02*
X35800D01*
X35880D02*
X35920D01*
X36000D02*
X36100D01*
X36700D02*
X36800D01*
X36880D02*
X36940D01*
X37000D02*
X37040D01*
X37080D02*
X37100D01*
X38560D02*
X38660D01*
X38740D02*
X39020D01*
X39040D02*
X39060D01*
X40140D02*
X40160D01*
X40180D02*
X40200D01*
X40220D02*
X40240D01*
X40460D02*
X40480D01*
X40520D02*
X40540D01*
X35620Y48390D02*
X35700D01*
X35760D02*
X35860D01*
X35940D02*
X36000D01*
X36660D02*
X36700D01*
X36780D02*
X36860D01*
X36940D02*
X37000D01*
X38480D02*
X38560D01*
X38620D02*
X39020D01*
X39040D02*
X39060D01*
X40140D02*
X40160D01*
X40180D02*
X40200D01*
X40220D02*
X40240D01*
X40460D02*
X40480D01*
X40520D02*
X40540D01*
X35560Y48370D02*
X35620D01*
X35700D02*
X35780D01*
X35860D02*
X35920D01*
X36560D02*
X36620D01*
X36700D02*
X36780D01*
X36860D02*
X36920D01*
X38420D02*
X38480D01*
X38560D02*
X38840D01*
X38860D02*
X39020D01*
X39040D02*
X39060D01*
X40140D02*
X40160D01*
X40180D02*
X40200D01*
X40220D02*
X40240D01*
X40460D02*
X40480D01*
X40520D02*
X40540D01*
X35460Y48350D02*
X35540D01*
X35640D02*
X35680D01*
X35760D02*
X35860D01*
X36480D02*
X36560D01*
X36660D02*
X36680D01*
X36760D02*
X36860D01*
X38360D02*
X38380D01*
X38400D02*
X38420D01*
X38500D02*
X39020D01*
X39040D02*
X39060D01*
X40140D02*
X40160D01*
X40180D02*
X40200D01*
X40220D02*
X40240D01*
X40460D02*
X40480D01*
X40520D02*
X40540D01*
X35380Y48330D02*
X35460D01*
X35520D02*
X35620D01*
X35680D02*
X35760D01*
X36380D02*
X36400D01*
X36420D02*
X36460D01*
X36520D02*
X36600D01*
X36680D02*
X36760D01*
X38320D02*
X38360D01*
X38400D02*
X38460D01*
X38480D02*
X39020D01*
X39040D02*
X39060D01*
X40140D02*
X40160D01*
X40180D02*
X40200D01*
X40220D02*
X40240D01*
X40460D02*
X40480D01*
X40520D02*
X40540D01*
X35300Y48310D02*
X35380D01*
X35460D02*
X35540D01*
X35620D02*
X35680D01*
X36300D02*
X36380D01*
X36460D02*
X36540D01*
X36620D02*
X36680D01*
X38280D02*
X38320D01*
X38360D02*
X39020D01*
X39040D02*
X39060D01*
X40140D02*
X40160D01*
X40180D02*
X40200D01*
X40220D02*
X40240D01*
X40460D02*
X40480D01*
X40520D02*
X40540D01*
X35220Y48290D02*
X35320D01*
X35400D02*
X35440D01*
X35520D02*
X35620D01*
X36200D02*
X36240D01*
X36260D02*
X36300D01*
X36380D02*
X36400D01*
X36420D02*
X36440D01*
X36500D02*
X36600D01*
X38260D02*
X38300D01*
X38340D02*
X39020D01*
X40140D02*
X40160D01*
X40180D02*
X40200D01*
X40220D02*
X40240D01*
X40460D02*
X40480D01*
X40520D02*
X40540D01*
X35140Y48270D02*
X35200D01*
X35280D02*
X35360D01*
X35440D02*
X35520D01*
X36140D02*
X36200D01*
X36280D02*
X36360D01*
X36440D02*
X36520D01*
X37960D02*
X38000D01*
X38020D02*
X38040D01*
X38240D02*
X38260D01*
X38280D02*
X39020D01*
X39040D02*
X39060D01*
X40140D02*
X40160D01*
X40180D02*
X40200D01*
X40220D02*
X40240D01*
X40460D02*
X40480D01*
X40520D02*
X40540D01*
X35060Y48250D02*
X35140D01*
X35220D02*
X35300D01*
X35380D02*
X35440D01*
X36060D02*
X36120D01*
X36200D02*
X36300D01*
X36380D02*
X36420D01*
X37860D02*
X37940D01*
X38020D02*
X38040D01*
X38220D02*
X38240D01*
X38260D02*
X39020D01*
X39040D02*
X39060D01*
X40140D02*
X40160D01*
X40180D02*
X40200D01*
X40220D02*
X40240D01*
X40460D02*
X40480D01*
X40520D02*
X40540D01*
X34960Y48230D02*
X34980D01*
X35000D02*
X35080D01*
X35140D02*
X35200D01*
X35260D02*
X35360D01*
X35960D02*
X35980D01*
X36000D02*
X36060D01*
X36140D02*
X36180D01*
X36260D02*
X36320D01*
X37760D02*
X37880D01*
X37960D02*
X38000D01*
X38020D02*
X38040D01*
X38200D02*
X38220D01*
X38260D02*
X38960D01*
X38980D02*
X39000D01*
X39040D02*
X39060D01*
X40140D02*
X40160D01*
X40180D02*
X40200D01*
X40220D02*
X40240D01*
X40460D02*
X40480D01*
X40520D02*
X40540D01*
X34960Y48210D02*
X34980D01*
X35040D02*
X35140D01*
X35200D02*
X35240D01*
X35260D02*
X35280D01*
X35880D02*
X35960D01*
X36020D02*
X36120D01*
X36200D02*
X36260D01*
X37720D02*
X37760D01*
X37820D02*
X38000D01*
X38020D02*
X38040D01*
X38200D02*
X38220D01*
X38240D02*
X38940D01*
X39040D02*
X39060D01*
X40140D02*
X40160D01*
X40180D02*
X40200D01*
X40220D02*
X40240D01*
X40460D02*
X40480D01*
X40520D02*
X40540D01*
X34800Y48190D02*
X34820D01*
X34840D02*
X34860D01*
X34960D02*
X34980D01*
X35000D02*
X35060D01*
X35140D02*
X35160D01*
X35180D02*
X35200D01*
X35800D02*
X35880D01*
X35960D02*
X36040D01*
X36060D02*
X36080D01*
X36140D02*
X36160D01*
X37620D02*
X37640D01*
X37660D02*
X37680D01*
X37760D02*
X38000D01*
X38020D02*
X38040D01*
X38180D02*
X38200D01*
X38220D02*
X38760D01*
X38780D02*
X38880D01*
X38960D02*
X39020D01*
X40140D02*
X40160D01*
X40180D02*
X40200D01*
X40220D02*
X40240D01*
X40460D02*
X40480D01*
X40520D02*
X40540D01*
X34720Y48170D02*
X34820D01*
X34840D02*
X34860D01*
X34960D02*
X34980D01*
X35020D02*
X35120D01*
X35720D02*
X35820D01*
X35900D02*
X35940D01*
X36020D02*
X36080D01*
X36100D02*
X36120D01*
X37700D02*
X38000D01*
X38020D02*
X38040D01*
X38180D02*
X38200D01*
X38220D02*
X38780D01*
X38840D02*
X38900D01*
X38920D02*
X38940D01*
X40140D02*
X40160D01*
X40180D02*
X40200D01*
X40220D02*
X40240D01*
X40460D02*
X40480D01*
X40520D02*
X40540D01*
X34640Y48150D02*
X34700D01*
X34780D02*
X34820D01*
X34840D02*
X34860D01*
X34960D02*
X34980D01*
X35000D02*
X35020D01*
X35640D02*
X35700D01*
X35780D02*
X35880D01*
X35960D02*
X36020D01*
X37620D02*
X37640D01*
X37660D02*
X38000D01*
X38020D02*
X38040D01*
X38160D02*
X38180D01*
X38200D02*
X38720D01*
X38780D02*
X38800D01*
X38820D02*
X38860D01*
X40140D02*
X40160D01*
X40180D02*
X40200D01*
X40220D02*
X40240D01*
X40460D02*
X40480D01*
X40520D02*
X40540D01*
X34580Y48130D02*
X34600D01*
X34720D02*
X34760D01*
X34840D02*
X34860D01*
X35560D02*
X35640D01*
X35720D02*
X35800D01*
X35880D02*
X35920D01*
X37620D02*
X37640D01*
X37660D02*
X38000D01*
X38020D02*
X38040D01*
X38160D02*
X38180D01*
X38200D02*
X38280D01*
X38300D02*
X38700D01*
X38740D02*
X38780D01*
X40140D02*
X40160D01*
X40180D02*
X40200D01*
X40220D02*
X40240D01*
X40460D02*
X40480D01*
X40520D02*
X40540D01*
X34500Y48110D02*
X34520D01*
X34580D02*
X34600D01*
X34640D02*
X34680D01*
X34720D02*
X34820D01*
X35460D02*
X35560D01*
X35640D02*
X35700D01*
X35780D02*
X35880D01*
X37620D02*
X37640D01*
X37660D02*
X38000D01*
X38020D02*
X38040D01*
X38160D02*
X38180D01*
X38200D02*
X38220D01*
X38240D02*
X38680D01*
X38700D02*
X38720D01*
X40140D02*
X40160D01*
X40180D02*
X40200D01*
X40220D02*
X40240D01*
X40460D02*
X40480D01*
X40520D02*
X40540D01*
X34400Y48090D02*
X34420D01*
X34440D02*
X34480D01*
X34500D02*
X34520D01*
X34580D02*
X34600D01*
X34620D02*
X34740D01*
X35380D02*
X35460D01*
X35540D02*
X35620D01*
X35700D02*
X35780D01*
X37620D02*
X37640D01*
X37660D02*
X38000D01*
X38020D02*
X38040D01*
X38160D02*
X38180D01*
X38200D02*
X38660D01*
X38680D02*
X38700D01*
X40140D02*
X40160D01*
X40180D02*
X40200D01*
X40220D02*
X40240D01*
X40460D02*
X40480D01*
X40520D02*
X40540D01*
X34480Y48070D02*
X34500D01*
X34580D02*
X34600D01*
X34620D02*
X34680D01*
X35300D02*
X35380D01*
X35480D02*
X35560D01*
X35640D02*
X35660D01*
X35680D02*
X35700D01*
X37620D02*
X37640D01*
X37660D02*
X38000D01*
X38020D02*
X38040D01*
X38160D02*
X38180D01*
X38200D02*
X38640D01*
X38660D02*
X38680D01*
X40140D02*
X40160D01*
X40180D02*
X40200D01*
X40220D02*
X40240D01*
X40460D02*
X40480D01*
X40520D02*
X40540D01*
X34380Y48050D02*
X34400D01*
X34420D02*
X34460D01*
X34480D02*
X34500D01*
X34580D02*
X34600D01*
X34640D02*
X34660D01*
X35220D02*
X35320D01*
X35400D02*
X35460D01*
X35520D02*
X35620D01*
X37620D02*
X37640D01*
X37660D02*
X38000D01*
X38020D02*
X38040D01*
X38160D02*
X38180D01*
X38200D02*
X38640D01*
X38660D02*
X38700D01*
X40140D02*
X40160D01*
X40180D02*
X40200D01*
X40220D02*
X40240D01*
X40460D02*
X40480D01*
X40520D02*
X40540D01*
X34160Y48030D02*
X34180D01*
X34200D02*
X34220D01*
X34380D02*
X34400D01*
X34420D02*
X34440D01*
X34460D02*
X34480D01*
X34580D02*
X34600D01*
X34620D02*
X34660D01*
X34720D02*
X34740D01*
X34760D02*
X34780D01*
X35140D02*
X35200D01*
X35280D02*
X35380D01*
X35480D02*
X35500D01*
X35520D02*
X35540D01*
X36940D02*
X36960D01*
X36980D02*
X37000D01*
X37620D02*
X37640D01*
X37660D02*
X38000D01*
X38020D02*
X38040D01*
X38160D02*
X38180D01*
X38200D02*
X38660D01*
X38680D02*
X38700D01*
X40140D02*
X40160D01*
X40180D02*
X40200D01*
X40220D02*
X40240D01*
X40460D02*
X40480D01*
X40520D02*
X40540D01*
X34100Y48010D02*
X34120D01*
X34220D02*
X34240D01*
X34380D02*
X34440D01*
X34460D02*
X34480D01*
X34560D02*
X34580D01*
X34620D02*
X34700D01*
X34760D02*
X34780D01*
X35080D02*
X35140D01*
X35220D02*
X35320D01*
X35380D02*
X35460D01*
X36860D02*
X36940D01*
X37620D02*
X37640D01*
X37660D02*
X38000D01*
X38020D02*
X38040D01*
X38180D02*
X38200D01*
X38220D02*
X38680D01*
X38700D02*
X38720D01*
X40140D02*
X40160D01*
X40180D02*
X40200D01*
X40220D02*
X40240D01*
X40460D02*
X40480D01*
X40520D02*
X40540D01*
X33960Y47990D02*
X34000D01*
X34120D02*
X34140D01*
X34160D02*
X34200D01*
X34220D02*
X34240D01*
X34360D02*
X34440D01*
X34460D02*
X34480D01*
X34560D02*
X34580D01*
X34620D02*
X34740D01*
X34960D02*
X35060D01*
X35140D02*
X35200D01*
X35280D02*
X35320D01*
X35340D02*
X35380D01*
X36760D02*
X36860D01*
X36940D02*
X36960D01*
X36980D02*
X37000D01*
X37620D02*
X37640D01*
X37660D02*
X38000D01*
X38020D02*
X38040D01*
X38180D02*
X38200D01*
X38220D02*
X38700D01*
X40140D02*
X40160D01*
X40180D02*
X40200D01*
X40220D02*
X40240D01*
X40460D02*
X40480D01*
X40520D02*
X40540D01*
X33880Y47970D02*
X33960D01*
X33980D02*
X34000D01*
X34120D02*
X34140D01*
X34160D02*
X34200D01*
X34220D02*
X34240D01*
X34360D02*
X34380D01*
X34400D02*
X34460D01*
X34560D02*
X34580D01*
X34620D02*
X34660D01*
X34900D02*
X34960D01*
X35040D02*
X35140D01*
X35220D02*
X35280D01*
X36700D02*
X36740D01*
X36840D02*
X36960D01*
X36980D02*
X37000D01*
X37620D02*
X37640D01*
X37660D02*
X37980D01*
X38020D02*
X38040D01*
X38180D02*
X38200D01*
X38240D02*
X38720D01*
X38740D02*
X38760D01*
X40140D02*
X40160D01*
X40180D02*
X40200D01*
X40220D02*
X40240D01*
X40460D02*
X40480D01*
X40520D02*
X40540D01*
X33840Y47950D02*
X33880D01*
X34000D02*
X34020D01*
X34140D02*
X34200D01*
X34240D02*
X34260D01*
X34360D02*
X34380D01*
X34400D02*
X34420D01*
X34440D02*
X34460D01*
X34560D02*
X34580D01*
X34600D02*
X34620D01*
X34640D02*
X34660D01*
X34800D02*
X34880D01*
X34960D02*
X35060D01*
X35140D02*
X35200D01*
X36620D02*
X36700D01*
X36760D02*
X36960D01*
X36980D02*
X37000D01*
X37620D02*
X37640D01*
X37660D02*
X38000D01*
X38020D02*
X38040D01*
X38200D02*
X38220D01*
X38240D02*
X38280D01*
X38300D02*
X38740D01*
X38780D02*
X38800D01*
X40140D02*
X40160D01*
X40180D02*
X40200D01*
X40220D02*
X40240D01*
X40460D02*
X40480D01*
X40520D02*
X40540D01*
X33820Y47930D02*
X33840D01*
X33920D02*
X33980D01*
X34000D02*
X34020D01*
X34140D02*
X34160D01*
X34180D02*
X34220D01*
X34240D02*
X34260D01*
X34340D02*
X34360D01*
X34400D02*
X34420D01*
X34440D02*
X34460D01*
X34560D02*
X34580D01*
X34620D02*
X34660D01*
X34720D02*
X34820D01*
X34900D02*
X34960D01*
X35040D02*
X35140D01*
X36540D02*
X36580D01*
X36600D02*
X36620D01*
X36700D02*
X36960D01*
X36980D02*
X37000D01*
X37620D02*
X37640D01*
X37660D02*
X38000D01*
X38020D02*
X38040D01*
X38220D02*
X38240D01*
X38260D02*
X38760D01*
X38800D02*
X38820D01*
X40140D02*
X40160D01*
X40180D02*
X40200D01*
X40220D02*
X40240D01*
X40460D02*
X40480D01*
X40520D02*
X40540D01*
X33640Y47910D02*
X33660D01*
X33680D02*
X33700D01*
X33820D02*
X33840D01*
X33860D02*
X33940D01*
X33960D02*
X33980D01*
X34140D02*
X34160D01*
X34180D02*
X34220D01*
X34240D02*
X34260D01*
X34340D02*
X34360D01*
X34420D02*
X34440D01*
X34560D02*
X34580D01*
X34600D02*
X34700D01*
X34780D02*
X34900D01*
X34980D02*
X35040D01*
X36460D02*
X36520D01*
X36600D02*
X36720D01*
X36740D02*
X36940D01*
X36980D02*
X37000D01*
X37620D02*
X37640D01*
X37660D02*
X38000D01*
X38020D02*
X38040D01*
X38280D02*
X38800D01*
X38820D02*
X38840D01*
X40140D02*
X40160D01*
X40180D02*
X40200D01*
X40220D02*
X40240D01*
X40460D02*
X40480D01*
X40520D02*
X40540D01*
X33600Y47890D02*
X33620D01*
X33680D02*
X33700D01*
X33800D02*
X33820D01*
X33860D02*
X33880D01*
X33940D02*
X34000D01*
X34020D02*
X34040D01*
X34140D02*
X34160D01*
X34180D02*
X34220D01*
X34260D02*
X34280D01*
X34340D02*
X34360D01*
X34380D02*
X34400D01*
X34420D02*
X34440D01*
X34560D02*
X34580D01*
X34600D02*
X34680D01*
X34720D02*
X34780D01*
X34800D02*
X34820D01*
X34900D02*
X34960D01*
X36400D02*
X36460D01*
X36540D02*
X36780D01*
X36800D02*
X36940D01*
X36980D02*
X37000D01*
X37620D02*
X37640D01*
X37660D02*
X38000D01*
X38020D02*
X38040D01*
X38240D02*
X38260D01*
X38300D02*
X38820D01*
X40140D02*
X40160D01*
X40180D02*
X40200D01*
X40220D02*
X40240D01*
X40460D02*
X40480D01*
X40520D02*
X40540D01*
X33460Y47870D02*
X33480D01*
X33600D02*
X33620D01*
X33640D02*
X33660D01*
X33680D02*
X33700D01*
X33800D02*
X33820D01*
X33860D02*
X33880D01*
X33940D02*
X33960D01*
X33980D02*
X34000D01*
X34020D02*
X34040D01*
X34160D02*
X34180D01*
X34200D02*
X34240D01*
X34260D02*
X34280D01*
X34320D02*
X34340D01*
X34360D02*
X34380D01*
X34400D02*
X34420D01*
X34560D02*
X34580D01*
X34600D02*
X34700D01*
X34800D02*
X34900D01*
X36360D02*
X36380D01*
X36460D02*
X36960D01*
X36980D02*
X37000D01*
X37620D02*
X37640D01*
X37660D02*
X38000D01*
X38020D02*
X38040D01*
X38260D02*
X38300D01*
X38320D02*
X38840D01*
X38880D02*
X38900D01*
X40140D02*
X40160D01*
X40180D02*
X40200D01*
X40220D02*
X40240D01*
X40460D02*
X40480D01*
X40520D02*
X40540D01*
X33380Y47850D02*
X33400D01*
X33420D02*
X33440D01*
X33460D02*
X33480D01*
X33600D02*
X33620D01*
X33640D02*
X33700D01*
X33800D02*
X33820D01*
X33940D02*
X33960D01*
X33980D02*
X34040D01*
X34160D02*
X34180D01*
X34200D02*
X34240D01*
X34260D02*
X34280D01*
X34320D02*
X34340D01*
X34360D02*
X34380D01*
X34400D02*
X34420D01*
X34560D02*
X34580D01*
X34600D02*
X34640D01*
X34720D02*
X34760D01*
X34780D02*
X34800D01*
X36300D02*
X36320D01*
X36360D02*
X36960D01*
X36980D02*
X37000D01*
X37620D02*
X37640D01*
X37660D02*
X38000D01*
X38020D02*
X38040D01*
X38300D02*
X38320D01*
X38340D02*
X38860D01*
X40140D02*
X40160D01*
X40180D02*
X40200D01*
X40220D02*
X40240D01*
X40460D02*
X40480D01*
X40520D02*
X40540D01*
X33380Y47830D02*
X33400D01*
X33460D02*
X33480D01*
X33600D02*
X33620D01*
X33640D02*
X33700D01*
X33780D02*
X33800D01*
X33820D02*
X33880D01*
X33940D02*
X34060D01*
X34180D02*
X34200D01*
X34220D02*
X34280D01*
X34320D02*
X34340D01*
X34360D02*
X34380D01*
X34400D02*
X34420D01*
X34560D02*
X34580D01*
X34640D02*
X34720D01*
X36240D02*
X36260D01*
X36320D02*
X36340D01*
X36360D02*
X36960D01*
X36980D02*
X37000D01*
X37620D02*
X37640D01*
X37660D02*
X38000D01*
X38020D02*
X38040D01*
X38380D02*
X38860D01*
X38880D02*
X38900D01*
X38920D02*
X38940D01*
X40140D02*
X40160D01*
X40180D02*
X40200D01*
X40220D02*
X40240D01*
X40460D02*
X40480D01*
X40520D02*
X40540D01*
X33380Y47810D02*
X33400D01*
X33420D02*
X33440D01*
X33460D02*
X33480D01*
X33600D02*
X33620D01*
X33640D02*
X33700D01*
X33820D02*
X33860D01*
X33960D02*
X34020D01*
X34040D02*
X34060D01*
X34180D02*
X34200D01*
X34220D02*
X34400D01*
X34560D02*
X34580D01*
X34600D02*
X34640D01*
X36220D02*
X36240D01*
X36280D02*
X36960D01*
X36980D02*
X37000D01*
X37620D02*
X37640D01*
X37660D02*
X38000D01*
X38020D02*
X38040D01*
X38340D02*
X38360D01*
X38400D02*
X38440D01*
X38460D02*
X38920D01*
X38940D02*
X38980D01*
X40140D02*
X40160D01*
X40180D02*
X40200D01*
X40220D02*
X40240D01*
X40460D02*
X40480D01*
X40520D02*
X40540D01*
X33100Y47790D02*
X33120D01*
X33380D02*
X33400D01*
X33420D02*
X33440D01*
X33460D02*
X33480D01*
X33600D02*
X33640D01*
X33660D02*
X33680D01*
X33780D02*
X33800D01*
X33840D02*
X33860D01*
X33960D02*
X33980D01*
X34000D02*
X34020D01*
X34040D02*
X34060D01*
X34180D02*
X34200D01*
X34220D02*
X34300D01*
X34320D02*
X34360D01*
X34380D02*
X34400D01*
X35920D02*
X35960D01*
X35980D02*
X36000D01*
X36200D02*
X36220D01*
X36240D02*
X36960D01*
X36980D02*
X37000D01*
X37620D02*
X37640D01*
X37660D02*
X38000D01*
X38020D02*
X38040D01*
X38380D02*
X38400D01*
X38440D02*
X38940D01*
X38960D02*
X38980D01*
X40140D02*
X40160D01*
X40180D02*
X40200D01*
X40220D02*
X40240D01*
X40460D02*
X40480D01*
X40520D02*
X40540D01*
X33020Y47770D02*
X33040D01*
X33060D02*
X33080D01*
X33100D02*
X33120D01*
X33380D02*
X33400D01*
X33420D02*
X33440D01*
X33460D02*
X33480D01*
X33560D02*
X33660D01*
X33760D02*
X33820D01*
X33840D02*
X33860D01*
X33960D02*
X34040D01*
X34060D02*
X34080D01*
X34220D02*
X34280D01*
X34380D02*
X34400D01*
X35840D02*
X35920D01*
X35980D02*
X36000D01*
X36180D02*
X36200D01*
X36220D02*
X36960D01*
X36980D02*
X37000D01*
X37620D02*
X37640D01*
X37660D02*
X38000D01*
X38020D02*
X38040D01*
X38400D02*
X38420D01*
X38480D02*
X38960D01*
X38980D02*
X39000D01*
X40140D02*
X40160D01*
X40180D02*
X40200D01*
X40220D02*
X40240D01*
X40460D02*
X40480D01*
X40520D02*
X40540D01*
X33020Y47750D02*
X33040D01*
X33100D02*
X33120D01*
X33380D02*
X33400D01*
X33420D02*
X33540D01*
X33580D02*
X33680D01*
X33760D02*
X33780D01*
X33800D02*
X33840D01*
X33880D02*
X33940D01*
X33960D02*
X34000D01*
X34020D02*
X34040D01*
X34060D02*
X34080D01*
X34200D02*
X34220D01*
X34260D02*
X34360D01*
X35740D02*
X35860D01*
X35940D02*
X35960D01*
X35980D02*
X36000D01*
X36160D02*
X36180D01*
X36200D02*
X36960D01*
X36980D02*
X37000D01*
X37620D02*
X37640D01*
X37660D02*
X38000D01*
X38020D02*
X38040D01*
X38420D02*
X38440D01*
X38480D02*
X38520D01*
X38540D02*
X38840D01*
X38860D02*
X38980D01*
X39000D02*
X39020D01*
X40140D02*
X40160D01*
X40180D02*
X40200D01*
X40220D02*
X40240D01*
X40460D02*
X40480D01*
X40520D02*
X40540D01*
X33020Y47730D02*
X33040D01*
X33060D02*
X33080D01*
X33100D02*
X33120D01*
X33380D02*
X33400D01*
X33420D02*
X33480D01*
X33540D02*
X33680D01*
X33760D02*
X33780D01*
X33800D02*
X33860D01*
X33920D02*
X34040D01*
X34060D02*
X34080D01*
X34200D02*
X34220D01*
X34240D02*
X34260D01*
X35680D02*
X35740D01*
X35820D02*
X35840D01*
X35860D02*
X35960D01*
X35980D02*
X36000D01*
X36140D02*
X36160D01*
X36180D02*
X36920D01*
X36980D02*
X37000D01*
X37620D02*
X37640D01*
X37660D02*
X38000D01*
X38020D02*
X38040D01*
X38460D02*
X38480D01*
X38500D02*
X38540D01*
X38560D02*
X38580D01*
X38600D02*
X38980D01*
X39000D02*
X39020D01*
X40140D02*
X40160D01*
X40180D02*
X40200D01*
X40220D02*
X40240D01*
X40460D02*
X40480D01*
X40520D02*
X40540D01*
X33020Y47710D02*
X33040D01*
X33060D02*
X33080D01*
X33100D02*
X33120D01*
X33380D02*
X33400D01*
X33420D02*
X33500D01*
X33580D02*
X33680D01*
X33740D02*
X33760D01*
X33800D02*
X33920D01*
X33960D02*
X33980D01*
X34000D02*
X34040D01*
X34080D02*
X34100D01*
X35580D02*
X35600D01*
X35620D02*
X35660D01*
X35740D02*
X35960D01*
X35980D02*
X36000D01*
X36140D02*
X36160D01*
X36180D02*
X36720D01*
X36740D02*
X36840D01*
X36860D02*
X36880D01*
X36920D02*
X36960D01*
X36980D02*
X37000D01*
X37620D02*
X37640D01*
X37660D02*
X38000D01*
X38020D02*
X38040D01*
X38480D02*
X38500D01*
X38520D02*
X38960D01*
X38980D02*
X39040D01*
X40140D02*
X40160D01*
X40180D02*
X40200D01*
X40220D02*
X40240D01*
X40460D02*
X40480D01*
X40520D02*
X40540D01*
X33020Y47690D02*
X33040D01*
X33060D02*
X33080D01*
X33100D02*
X33120D01*
X33380D02*
X33400D01*
X33420D02*
X33460D01*
X33480D02*
X33600D01*
X33620D02*
X33680D01*
X33740D02*
X33760D01*
X33780D02*
X33800D01*
X33820D02*
X33840D01*
X33960D02*
X33980D01*
X34020D02*
X34060D01*
X34080D02*
X34100D01*
X35580D02*
X35600D01*
X35700D02*
X35960D01*
X35980D02*
X36000D01*
X36120D02*
X36140D01*
X36160D02*
X36740D01*
X36820D02*
X36860D01*
X36900D02*
X36920D01*
X37620D02*
X37640D01*
X37660D02*
X38000D01*
X38020D02*
X38040D01*
X38500D02*
X38520D01*
X38560D02*
X38580D01*
X38600D02*
X39000D01*
X39020D02*
X39040D01*
X40140D02*
X40160D01*
X40180D02*
X40200D01*
X40220D02*
X40240D01*
X40460D02*
X40480D01*
X40520D02*
X40540D01*
X32820Y47670D02*
X32840D01*
X32860D02*
X32880D01*
X33020D02*
X33040D01*
X33060D02*
X33080D01*
X33100D02*
X33120D01*
X33380D02*
X33400D01*
X33420D02*
X33480D01*
X33600D02*
X33680D01*
X33740D02*
X33760D01*
X33780D02*
X33800D01*
X33820D02*
X33840D01*
X33980D02*
X34000D01*
X35580D02*
X35600D01*
X35620D02*
X35960D01*
X36120D02*
X36140D01*
X36160D02*
X36680D01*
X36760D02*
X36800D01*
X37620D02*
X37640D01*
X37660D02*
X38000D01*
X38020D02*
X38040D01*
X38580D02*
X38940D01*
X38960D02*
X39000D01*
X39020D02*
X39040D01*
X40140D02*
X40160D01*
X40180D02*
X40200D01*
X40220D02*
X40240D01*
X40460D02*
X40480D01*
X40520D02*
X40540D01*
X32740Y47650D02*
X32820D01*
X32860D02*
X32880D01*
X33020D02*
X33040D01*
X33100D02*
X33120D01*
X33380D02*
X33400D01*
X33420D02*
X33440D01*
X33460D02*
X33480D01*
X33600D02*
X33680D01*
X33720D02*
X33740D01*
X33760D02*
X33780D01*
X33800D02*
X33820D01*
X35440D02*
X35480D01*
X35580D02*
X35600D01*
X35620D02*
X35960D01*
X35980D02*
X36000D01*
X36120D02*
X36660D01*
X36720D02*
X36740D01*
X37620D02*
X37640D01*
X37660D02*
X38000D01*
X38020D02*
X38040D01*
X38560D02*
X38580D01*
X38600D02*
X39000D01*
X39020D02*
X39040D01*
X40140D02*
X40160D01*
X40180D02*
X40200D01*
X40220D02*
X40240D01*
X40460D02*
X40480D01*
X40520D02*
X40540D01*
X32640Y47630D02*
X32760D01*
X32860D02*
X32880D01*
X33020D02*
X33040D01*
X33100D02*
X33120D01*
X33380D02*
X33400D01*
X33420D02*
X33440D01*
X33460D02*
X33480D01*
X33580D02*
X33680D01*
X33720D02*
X33740D01*
X33760D02*
X33780D01*
X33800D02*
X33820D01*
X35340D02*
X35440D01*
X35460D02*
X35480D01*
X35580D02*
X35600D01*
X35620D02*
X35960D01*
X35980D02*
X36000D01*
X36120D02*
X36640D01*
X36660D02*
X36680D01*
X37620D02*
X37640D01*
X37660D02*
X38000D01*
X38020D02*
X38040D01*
X38560D02*
X38580D01*
X38600D02*
X39020D01*
X39040D02*
X39060D01*
X40140D02*
X40160D01*
X40180D02*
X40200D01*
X40220D02*
X40240D01*
X40460D02*
X40480D01*
X40520D02*
X40540D01*
X32600Y47610D02*
X32640D01*
X32740D02*
X32800D01*
X32860D02*
X32880D01*
X33100D02*
X33120D01*
X33380D02*
X33400D01*
X33420D02*
X33440D01*
X33460D02*
X33480D01*
X33580D02*
X33600D01*
X33720D02*
X33760D01*
X35260D02*
X35340D01*
X35460D02*
X35480D01*
X35580D02*
X35600D01*
X35620D02*
X35960D01*
X35980D02*
X36000D01*
X36100D02*
X36120D01*
X36140D02*
X36600D01*
X36620D02*
X36640D01*
X37620D02*
X37640D01*
X37660D02*
X38000D01*
X38020D02*
X38040D01*
X38580D02*
X39020D01*
X39040D02*
X39060D01*
X40140D02*
X40160D01*
X40180D02*
X40200D01*
X40220D02*
X40240D01*
X40460D02*
X40480D01*
X40520D02*
X40540D01*
X32540Y47590D02*
X32580D01*
X32640D02*
X32720D01*
X32800D02*
X32820D01*
X32860D02*
X32880D01*
X33000D02*
X33020D01*
X33080D02*
X33120D01*
X33380D02*
X33400D01*
X33420D02*
X33440D01*
X33460D02*
X33480D01*
X33600D02*
X33680D01*
X35180D02*
X35260D01*
X35340D02*
X35440D01*
X35460D02*
X35480D01*
X35620D02*
X35960D01*
X35980D02*
X36000D01*
X36100D02*
X36120D01*
X36140D02*
X36160D01*
X36180D02*
X36600D01*
X37620D02*
X37640D01*
X37660D02*
X38000D01*
X38020D02*
X38040D01*
X38580D02*
X38600D01*
X38620D02*
X39020D01*
X39040D02*
X39060D01*
X40140D02*
X40160D01*
X40180D02*
X40200D01*
X40220D02*
X40240D01*
X40460D02*
X40480D01*
X40520D02*
X40540D01*
X32500Y47570D02*
X32520D01*
X32600D02*
X32620D01*
X32700D02*
X32800D01*
X33000D02*
X33020D01*
X33040D02*
X33060D01*
X33080D02*
X33100D01*
X33380D02*
X33400D01*
X33460D02*
X33480D01*
X33580D02*
X33600D01*
X35120D02*
X35140D01*
X35160D02*
X35180D01*
X35260D02*
X35440D01*
X35460D02*
X35480D01*
X35580D02*
X35600D01*
X35620D02*
X35960D01*
X36120D02*
X36640D01*
X37620D02*
X37640D01*
X37660D02*
X38000D01*
X38020D02*
X38040D01*
X38580D02*
X39020D01*
X39040D02*
X39060D01*
X40140D02*
X40160D01*
X40180D02*
X40200D01*
X40220D02*
X40240D01*
X40460D02*
X40480D01*
X40520D02*
X40540D01*
X32460Y47550D02*
X32480D01*
X32520D02*
X32580D01*
X32640D02*
X32700D01*
X33000D02*
X33020D01*
X33040D02*
X33060D01*
X33080D02*
X33100D01*
X33420D02*
X33440D01*
X33460D02*
X33480D01*
X35160D02*
X35440D01*
X35460D02*
X35480D01*
X35580D02*
X35600D01*
X35620D02*
X35900D01*
X35920D02*
X35960D01*
X35980D02*
X36000D01*
X36120D02*
X36600D01*
X36620D02*
X36640D01*
X37620D02*
X37640D01*
X37660D02*
X38000D01*
X38020D02*
X38040D01*
X38560D02*
X38580D01*
X38600D02*
X39020D01*
X39040D02*
X39060D01*
X40140D02*
X40160D01*
X40180D02*
X40200D01*
X40220D02*
X40240D01*
X40460D02*
X40480D01*
X40520D02*
X40540D01*
X32440Y47530D02*
X32460D01*
X32500D02*
X32540D01*
X32600D02*
X32620D01*
X32980D02*
X33000D01*
X33020D02*
X33060D01*
X33080D02*
X33100D01*
X33380D02*
X33400D01*
X35120D02*
X35140D01*
X35160D02*
X35440D01*
X35460D02*
X35480D01*
X35580D02*
X35600D01*
X35620D02*
X35960D01*
X35980D02*
X36000D01*
X36120D02*
X36140D01*
X36160D02*
X36620D01*
X36640D02*
X36660D01*
X37620D02*
X37640D01*
X37660D02*
X38000D01*
X38020D02*
X38040D01*
X38500D02*
X38580D01*
X38600D02*
X39020D01*
X39040D02*
X39060D01*
X40140D02*
X40160D01*
X40180D02*
X40200D01*
X40220D02*
X40240D01*
X40460D02*
X40480D01*
X40520D02*
X40540D01*
X32460Y47510D02*
X32500D01*
X32560D02*
X32580D01*
X32940D02*
X32960D01*
X33000D02*
X33060D01*
X33080D02*
X33100D01*
X35120D02*
X35140D01*
X35160D02*
X35440D01*
X35460D02*
X35480D01*
X35580D02*
X35600D01*
X35620D02*
X35960D01*
X35980D02*
X36000D01*
X36120D02*
X36140D01*
X36160D02*
X36640D01*
X36660D02*
X36680D01*
X37620D02*
X37640D01*
X37660D02*
X38000D01*
X38020D02*
X38040D01*
X38420D02*
X38440D01*
X38460D02*
X38520D01*
X38560D02*
X39020D01*
X39040D02*
X39060D01*
X40140D02*
X40160D01*
X40180D02*
X40200D01*
X40220D02*
X40240D01*
X40460D02*
X40480D01*
X40520D02*
X40540D01*
X32380Y47490D02*
X32400D01*
X32440D02*
X32480D01*
X32520D02*
X32540D01*
X32880D02*
X32940D01*
X32980D02*
X33060D01*
X33080D02*
X33100D01*
X34780D02*
X34800D01*
X35120D02*
X35140D01*
X35160D02*
X35440D01*
X35460D02*
X35480D01*
X35580D02*
X35600D01*
X35620D02*
X35960D01*
X35980D02*
X36000D01*
X36120D02*
X36140D01*
X36160D02*
X36660D01*
X36680D02*
X36700D01*
X37620D02*
X37640D01*
X37660D02*
X38000D01*
X38020D02*
X38040D01*
X38340D02*
X38400D01*
X38480D02*
X38940D01*
X38960D02*
X39000D01*
X39020D02*
X39040D01*
X40140D02*
X40160D01*
X40180D02*
X40200D01*
X40220D02*
X40240D01*
X40460D02*
X40480D01*
X40520D02*
X40540D01*
X32420Y47470D02*
X32460D01*
X32480D02*
X32500D01*
X32800D02*
X32880D01*
X32940D02*
X33000D01*
X33080D02*
X33100D01*
X34680D02*
X34760D01*
X34780D02*
X34800D01*
X35120D02*
X35140D01*
X35160D02*
X35440D01*
X35460D02*
X35480D01*
X35580D02*
X35600D01*
X35620D02*
X35960D01*
X35980D02*
X36000D01*
X36140D02*
X36160D01*
X36180D02*
X36680D01*
X36700D02*
X36720D01*
X37620D02*
X37640D01*
X37660D02*
X38000D01*
X38020D02*
X38040D01*
X38260D02*
X38340D01*
X38420D02*
X39000D01*
X39020D02*
X39040D01*
X40140D02*
X40160D01*
X40180D02*
X40200D01*
X40220D02*
X40240D01*
X40460D02*
X40480D01*
X40520D02*
X40540D01*
X32400Y47450D02*
X32440D01*
X32700D02*
X32800D01*
X32980D02*
X33060D01*
X33080D02*
X33100D01*
X34580D02*
X34600D01*
X34620D02*
X34700D01*
X34780D02*
X34800D01*
X35120D02*
X35140D01*
X35160D02*
X35440D01*
X35460D02*
X35480D01*
X35580D02*
X35600D01*
X35620D02*
X35960D01*
X35980D02*
X36000D01*
X36160D02*
X36180D01*
X36200D02*
X36580D01*
X36600D02*
X36700D01*
X36740D02*
X36760D01*
X37620D02*
X37640D01*
X37660D02*
X38000D01*
X38020D02*
X38040D01*
X38160D02*
X38260D01*
X38340D02*
X39000D01*
X40140D02*
X40160D01*
X40180D02*
X40200D01*
X40220D02*
X40240D01*
X40460D02*
X40480D01*
X40520D02*
X40540D01*
X32340Y47430D02*
X32360D01*
X32380D02*
X32420D01*
X32440D02*
X32460D01*
X32660D02*
X32680D01*
X32780D02*
X32820D01*
X32900D02*
X32980D01*
X34520D02*
X34580D01*
X34660D02*
X34680D01*
X34700D02*
X34760D01*
X34780D02*
X34800D01*
X35120D02*
X35140D01*
X35160D02*
X35440D01*
X35460D02*
X35480D01*
X35580D02*
X35600D01*
X35620D02*
X35960D01*
X35980D02*
X36000D01*
X36160D02*
X36180D01*
X36220D02*
X36580D01*
X36600D02*
X36720D01*
X36760D02*
X36780D01*
X37620D02*
X37640D01*
X37660D02*
X38000D01*
X38020D02*
X38040D01*
X38160D02*
X38180D01*
X38240D02*
X38460D01*
X38480D02*
X39020D01*
X40140D02*
X40160D01*
X40180D02*
X40200D01*
X40220D02*
X40240D01*
X40460D02*
X40480D01*
X40520D02*
X40540D01*
X32320Y47410D02*
X32340D01*
X32360D02*
X32400D01*
X32420D02*
X32440D01*
X32620D02*
X32640D01*
X32700D02*
X32760D01*
X32820D02*
X32860D01*
X34460D02*
X34500D01*
X34580D02*
X34660D01*
X34680D02*
X34740D01*
X34780D02*
X34800D01*
X35120D02*
X35140D01*
X35160D02*
X35440D01*
X35460D02*
X35480D01*
X35580D02*
X35600D01*
X35620D02*
X35960D01*
X35980D02*
X36000D01*
X36180D02*
X36200D01*
X36220D02*
X36740D01*
X36780D02*
X36800D01*
X37620D02*
X37640D01*
X37660D02*
X38000D01*
X38020D02*
X38040D01*
X38160D02*
X38380D01*
X38400D02*
X38980D01*
X39000D02*
X39020D01*
X40140D02*
X40160D01*
X40180D02*
X40200D01*
X40220D02*
X40240D01*
X40460D02*
X40480D01*
X40520D02*
X40540D01*
X32320Y47390D02*
X32340D01*
X32360D02*
X32380D01*
X32400D02*
X32420D01*
X32600D02*
X32620D01*
X32660D02*
X32720D01*
X32760D02*
X32820D01*
X34320D02*
X34360D01*
X34420D02*
X34440D01*
X34520D02*
X34600D01*
X34620D02*
X34760D01*
X34780D02*
X34800D01*
X35120D02*
X35140D01*
X35160D02*
X35440D01*
X35460D02*
X35480D01*
X35580D02*
X35600D01*
X35620D02*
X35960D01*
X35980D02*
X36000D01*
X36200D02*
X36220D01*
X36260D02*
X36780D01*
X36800D02*
X36820D01*
X37620D02*
X37640D01*
X37660D02*
X38000D01*
X38020D02*
X38040D01*
X38160D02*
X38180D01*
X38200D02*
X38960D01*
X38980D02*
X39000D01*
X40140D02*
X40160D01*
X40180D02*
X40200D01*
X40220D02*
X40240D01*
X40460D02*
X40480D01*
X40520D02*
X40540D01*
X32300Y47370D02*
X32320D01*
X32340D02*
X32380D01*
X32400D02*
X32420D01*
X32580D02*
X32600D01*
X32620D02*
X32700D01*
X32740D02*
X32760D01*
X34260D02*
X34320D01*
X34420D02*
X34440D01*
X34460D02*
X34760D01*
X34780D02*
X34800D01*
X35120D02*
X35140D01*
X35160D02*
X35440D01*
X35460D02*
X35480D01*
X35580D02*
X35600D01*
X35620D02*
X35960D01*
X35980D02*
X36000D01*
X36240D02*
X36260D01*
X36300D02*
X36780D01*
X36840D02*
X36860D01*
X37620D02*
X37640D01*
X37660D02*
X38000D01*
X38020D02*
X38040D01*
X38160D02*
X38180D01*
X38200D02*
X38500D01*
X38520D02*
X38660D01*
X38680D02*
X38860D01*
X38880D02*
X38940D01*
X38960D02*
X38980D01*
X40140D02*
X40160D01*
X40180D02*
X40200D01*
X40220D02*
X40240D01*
X40460D02*
X40480D01*
X40520D02*
X40540D01*
X32300Y47350D02*
X32320D01*
X32340D02*
X32360D01*
X32380D02*
X32400D01*
X32580D02*
X32680D01*
X32700D02*
X32720D01*
X34180D02*
X34260D01*
X34320D02*
X34360D01*
X34420D02*
X34440D01*
X34460D02*
X34760D01*
X34780D02*
X34800D01*
X35120D02*
X35140D01*
X35160D02*
X35440D01*
X35460D02*
X35480D01*
X35580D02*
X35600D01*
X35620D02*
X35960D01*
X35980D02*
X36000D01*
X36260D02*
X36280D01*
X36300D02*
X36700D01*
X36720D02*
X36820D01*
X37620D02*
X37640D01*
X37660D02*
X38000D01*
X38020D02*
X38040D01*
X38160D02*
X38180D01*
X38200D02*
X38900D01*
X38940D02*
X38960D01*
X40140D02*
X40160D01*
X40180D02*
X40200D01*
X40220D02*
X40240D01*
X40460D02*
X40480D01*
X40520D02*
X40540D01*
X32380Y47330D02*
X32400D01*
X32600D02*
X32660D01*
X32680D02*
X32700D01*
X34080D02*
X34100D01*
X34120D02*
X34180D01*
X34260D02*
X34360D01*
X34420D02*
X34440D01*
X34460D02*
X34760D01*
X34780D02*
X34800D01*
X35120D02*
X35140D01*
X35160D02*
X35440D01*
X35460D02*
X35480D01*
X35580D02*
X35600D01*
X35620D02*
X35960D01*
X35980D02*
X36000D01*
X36280D02*
X36300D01*
X36340D02*
X36840D01*
X36880D02*
X36900D01*
X37620D02*
X37640D01*
X37660D02*
X38000D01*
X38020D02*
X38040D01*
X38160D02*
X38180D01*
X38200D02*
X38800D01*
X38880D02*
X38900D01*
X38920D02*
X38940D01*
X40140D02*
X40160D01*
X40180D02*
X40200D01*
X40220D02*
X40240D01*
X40460D02*
X40480D01*
X40520D02*
X40540D01*
X32280Y47310D02*
X32300D01*
X32320D02*
X32340D01*
X32360D02*
X32380D01*
X32560D02*
X32580D01*
X32600D02*
X32640D01*
X32660D02*
X32680D01*
X34020D02*
X34080D01*
X34180D02*
X34220D01*
X34240D02*
X34360D01*
X34420D02*
X34440D01*
X34460D02*
X34760D01*
X34780D02*
X34800D01*
X35120D02*
X35140D01*
X35160D02*
X35440D01*
X35460D02*
X35480D01*
X35580D02*
X35600D01*
X35620D02*
X35960D01*
X35980D02*
X36000D01*
X36300D02*
X36320D01*
X36360D02*
X36880D01*
X36900D02*
X36920D01*
X37620D02*
X37640D01*
X37660D02*
X38000D01*
X38020D02*
X38040D01*
X38160D02*
X38180D01*
X38200D02*
X38720D01*
X38800D02*
X38880D01*
X40140D02*
X40160D01*
X40180D02*
X40200D01*
X40220D02*
X40240D01*
X40460D02*
X40480D01*
X40520D02*
X40540D01*
X32280Y47290D02*
X32300D01*
X32320D02*
X32340D01*
X32360D02*
X32380D01*
X32540D02*
X32560D01*
X32580D02*
X32640D01*
X32660D02*
X32680D01*
X33940D02*
X34000D01*
X34080D02*
X34360D01*
X34420D02*
X34440D01*
X34460D02*
X34760D01*
X34780D02*
X34800D01*
X35120D02*
X35140D01*
X35160D02*
X35440D01*
X35460D02*
X35480D01*
X35580D02*
X35600D01*
X35620D02*
X35960D01*
X35980D02*
X36000D01*
X36340D02*
X36360D01*
X36380D02*
X36720D01*
X36740D02*
X36860D01*
X36880D02*
X36900D01*
X36920D02*
X36940D01*
X37620D02*
X37640D01*
X37660D02*
X38000D01*
X38020D02*
X38040D01*
X38160D02*
X38180D01*
X38200D02*
X38580D01*
X38600D02*
X38680D01*
X38740D02*
X38800D01*
X40140D02*
X40160D01*
X40180D02*
X40200D01*
X40220D02*
X40240D01*
X40460D02*
X40480D01*
X40520D02*
X40540D01*
X32280Y47270D02*
X32300D01*
X32320D02*
X32360D01*
X32540D02*
X32560D01*
X32580D02*
X32660D01*
X33840D02*
X33940D01*
X34020D02*
X34360D01*
X34420D02*
X34440D01*
X34460D02*
X34760D01*
X34780D02*
X34800D01*
X35120D02*
X35140D01*
X35160D02*
X35440D01*
X35460D02*
X35480D01*
X35580D02*
X35600D01*
X35620D02*
X35960D01*
X35980D02*
X36000D01*
X36360D02*
X36380D01*
X36420D02*
X36720D01*
X36740D02*
X36900D01*
X36940D02*
X36960D01*
X37620D02*
X37640D01*
X37660D02*
X38000D01*
X38020D02*
X38040D01*
X38160D02*
X38180D01*
X38200D02*
X38560D01*
X38640D02*
X38740D01*
X40140D02*
X40160D01*
X40180D02*
X40200D01*
X40220D02*
X40240D01*
X40460D02*
X40480D01*
X40520D02*
X40540D01*
X32280Y47250D02*
X32360D01*
X32540D02*
X32560D01*
X32580D02*
X32620D01*
X32640D02*
X32660D01*
X33760D02*
X33820D01*
X33900D02*
X33940D01*
X33960D02*
X34140D01*
X34160D02*
X34360D01*
X34420D02*
X34440D01*
X34460D02*
X34760D01*
X34780D02*
X34800D01*
X35120D02*
X35140D01*
X35160D02*
X35440D01*
X35460D02*
X35480D01*
X35580D02*
X35600D01*
X35620D02*
X35960D01*
X35980D02*
X36000D01*
X36380D02*
X36400D01*
X36440D02*
X36920D01*
X36940D02*
X36960D01*
X37620D02*
X37640D01*
X37660D02*
X38000D01*
X38020D02*
X38040D01*
X38160D02*
X38180D01*
X38200D02*
X38480D01*
X38560D02*
X38640D01*
X40140D02*
X40160D01*
X40180D02*
X40200D01*
X40220D02*
X40240D01*
X40460D02*
X40480D01*
X40520D02*
X40540D01*
X32280Y47230D02*
X32320D01*
X32340D02*
X32360D01*
X32540D02*
X32560D01*
X32580D02*
X32620D01*
X32640D02*
X32660D01*
X33700D02*
X33760D01*
X33820D02*
X34360D01*
X34420D02*
X34440D01*
X34460D02*
X34760D01*
X34780D02*
X34800D01*
X35120D02*
X35140D01*
X35160D02*
X35220D01*
X35240D02*
X35440D01*
X35460D02*
X35480D01*
X35580D02*
X35600D01*
X35620D02*
X35960D01*
X35980D02*
X36000D01*
X36460D02*
X36620D01*
X36640D02*
X36940D01*
X36960D02*
X36980D01*
X37620D02*
X37640D01*
X37660D02*
X38000D01*
X38020D02*
X38040D01*
X38160D02*
X38180D01*
X38200D02*
X38420D01*
X38500D02*
X38560D01*
X40140D02*
X40160D01*
X40180D02*
X40200D01*
X40220D02*
X40240D01*
X40460D02*
X40480D01*
X40520D02*
X40540D01*
X32280Y47210D02*
X32320D01*
X32340D02*
X32360D01*
X32540D02*
X32560D01*
X32580D02*
X32620D01*
X32640D02*
X32660D01*
X33580D02*
X33640D01*
X33660D02*
X33680D01*
X33760D02*
X34360D01*
X34420D02*
X34440D01*
X34460D02*
X34760D01*
X34780D02*
X34800D01*
X35120D02*
X35140D01*
X35160D02*
X35440D01*
X35460D02*
X35480D01*
X35580D02*
X35600D01*
X35620D02*
X35960D01*
X35980D02*
X36000D01*
X36440D02*
X36460D01*
X36500D02*
X36940D01*
X36960D02*
X36980D01*
X37620D02*
X37640D01*
X37660D02*
X37840D01*
X37880D02*
X38000D01*
X38020D02*
X38040D01*
X38160D02*
X38180D01*
X38200D02*
X38220D01*
X38240D02*
X38280D01*
X38300D02*
X38320D01*
X38380D02*
X38480D01*
X39740D02*
X39760D01*
X40140D02*
X40160D01*
X40180D02*
X40200D01*
X40220D02*
X40240D01*
X40460D02*
X40480D01*
X40520D02*
X40540D01*
X32260Y47190D02*
X32300D01*
X32340D02*
X32360D01*
X32540D02*
X32560D01*
X32580D02*
X32620D01*
X32640D02*
X32660D01*
X33520D02*
X33580D01*
X33660D02*
X34360D01*
X34420D02*
X34440D01*
X34460D02*
X34760D01*
X34780D02*
X34800D01*
X35120D02*
X35140D01*
X35160D02*
X35440D01*
X35460D02*
X35480D01*
X35580D02*
X35600D01*
X35620D02*
X35960D01*
X35980D02*
X36000D01*
X36460D02*
X36480D01*
X36500D02*
X36980D01*
X37620D02*
X37640D01*
X37660D02*
X37960D01*
X37980D02*
X38000D01*
X38020D02*
X38040D01*
X38160D02*
X38180D01*
X38200D02*
X38240D01*
X38320D02*
X38400D01*
X39680D02*
X39720D01*
X39740D02*
X39760D01*
X40140D02*
X40160D01*
X40180D02*
X40200D01*
X40220D02*
X40240D01*
X40460D02*
X40480D01*
X40520D02*
X40540D01*
X32260Y47170D02*
X32320D01*
X32340D02*
X32360D01*
X32540D02*
X32560D01*
X32580D02*
X32620D01*
X32640D02*
X32660D01*
X33440D02*
X33460D01*
X33480D02*
X33520D01*
X33600D02*
X34360D01*
X34420D02*
X34440D01*
X34460D02*
X34760D01*
X34780D02*
X34800D01*
X35120D02*
X35140D01*
X35160D02*
X35220D01*
X35240D02*
X35440D01*
X35460D02*
X35480D01*
X35580D02*
X35600D01*
X35620D02*
X35960D01*
X35980D02*
X36000D01*
X36520D02*
X36980D01*
X37620D02*
X37640D01*
X37660D02*
X38000D01*
X38020D02*
X38040D01*
X38160D02*
X38180D01*
X38260D02*
X38320D01*
X39580D02*
X39620D01*
X39640D02*
X39660D01*
X40140D02*
X40160D01*
X40180D02*
X40200D01*
X40220D02*
X40240D01*
X40460D02*
X40480D01*
X40520D02*
X40540D01*
X32280Y47150D02*
X32320D01*
X32340D02*
X32360D01*
X32540D02*
X32560D01*
X32580D02*
X32600D01*
X32640D02*
X32660D01*
X33440D02*
X33460D01*
X33520D02*
X33560D01*
X33580D02*
X34360D01*
X34420D02*
X34440D01*
X34460D02*
X34760D01*
X34780D02*
X34800D01*
X35080D02*
X35200D01*
X35220D02*
X35440D01*
X35460D02*
X35480D01*
X35580D02*
X35600D01*
X35620D02*
X35960D01*
X35980D02*
X36000D01*
X36500D02*
X36520D01*
X36540D02*
X36960D01*
X36980D02*
X37000D01*
X37620D02*
X37640D01*
X37660D02*
X38000D01*
X38020D02*
X38040D01*
X38160D02*
X38180D01*
X38200D02*
X38240D01*
X39480D02*
X39500D01*
X39520D02*
X39600D01*
X39680D02*
X39700D01*
X39720D02*
X39740D01*
X40140D02*
X40160D01*
X40180D02*
X40200D01*
X40220D02*
X40240D01*
X40460D02*
X40480D01*
X40520D02*
X40540D01*
X32280Y47130D02*
X32320D01*
X32340D02*
X32360D01*
X32540D02*
X32560D01*
X32580D02*
X32620D01*
X32640D02*
X32660D01*
X33440D02*
X33460D01*
X33480D02*
X33800D01*
X33820D02*
X34360D01*
X34420D02*
X34440D01*
X34460D02*
X34760D01*
X34780D02*
X34800D01*
X35020D02*
X35080D01*
X35120D02*
X35440D01*
X35460D02*
X35480D01*
X35580D02*
X35600D01*
X35620D02*
X35960D01*
X35980D02*
X36000D01*
X36520D02*
X36540D01*
X36560D02*
X36960D01*
X36980D02*
X37000D01*
X37620D02*
X37640D01*
X37660D02*
X38000D01*
X38020D02*
X38040D01*
X39560D02*
X39700D01*
X39720D02*
X39740D01*
X40140D02*
X40160D01*
X40180D02*
X40200D01*
X40220D02*
X40240D01*
X40460D02*
X40480D01*
X40520D02*
X40540D01*
X32280Y47110D02*
X32320D01*
X32340D02*
X32360D01*
X32540D02*
X32560D01*
X32580D02*
X32620D01*
X32640D02*
X32660D01*
X33440D02*
X33460D01*
X33480D02*
X34360D01*
X34420D02*
X34440D01*
X34460D02*
X34760D01*
X34780D02*
X34800D01*
X34920D02*
X35000D01*
X35100D02*
X35440D01*
X35460D02*
X35480D01*
X35580D02*
X35600D01*
X35620D02*
X35960D01*
X35980D02*
X36000D01*
X36520D02*
X36540D01*
X36560D02*
X36960D01*
X36980D02*
X37000D01*
X37620D02*
X37640D01*
X37660D02*
X37940D01*
X38020D02*
X38040D01*
X39460D02*
X39480D01*
X39500D02*
X39680D01*
X39700D02*
X39720D01*
X40140D02*
X40160D01*
X40180D02*
X40200D01*
X40220D02*
X40240D01*
X40460D02*
X40480D01*
X40520D02*
X40540D01*
X32280Y47090D02*
X32320D01*
X32340D02*
X32360D01*
X32540D02*
X32560D01*
X32580D02*
X32620D01*
X32640D02*
X32660D01*
X33440D02*
X33460D01*
X33480D02*
X33600D01*
X33620D02*
X34360D01*
X34420D02*
X34440D01*
X34460D02*
X34800D01*
X34840D02*
X34940D01*
X35020D02*
X35040D01*
X35060D02*
X35440D01*
X35460D02*
X35480D01*
X35580D02*
X35600D01*
X35620D02*
X35960D01*
X35980D02*
X36000D01*
X36520D02*
X36540D01*
X36560D02*
X36960D01*
X36980D02*
X37000D01*
X37620D02*
X37640D01*
X37660D02*
X37820D01*
X37920D02*
X38000D01*
X39460D02*
X39480D01*
X39500D02*
X39660D01*
X39680D02*
X39700D01*
X40140D02*
X40160D01*
X40180D02*
X40200D01*
X40220D02*
X40240D01*
X40460D02*
X40480D01*
X40520D02*
X40540D01*
X32280Y47070D02*
X32320D01*
X32340D02*
X32360D01*
X32540D02*
X32560D01*
X32580D02*
X32620D01*
X32640D02*
X32660D01*
X33440D02*
X33460D01*
X33480D02*
X34060D01*
X34080D02*
X34200D01*
X34220D02*
X34260D01*
X34340D02*
X34360D01*
X34420D02*
X34440D01*
X34460D02*
X34820D01*
X34900D02*
X35440D01*
X35460D02*
X35480D01*
X35580D02*
X35600D01*
X35620D02*
X35960D01*
X35980D02*
X36000D01*
X36520D02*
X36960D01*
X37620D02*
X37640D01*
X37660D02*
X37760D01*
X37840D02*
X37900D01*
X39440D02*
X39460D01*
X39480D02*
X39660D01*
X39680D02*
X39700D01*
X40140D02*
X40160D01*
X40180D02*
X40200D01*
X40220D02*
X40240D01*
X40460D02*
X40480D01*
X40520D02*
X40540D01*
X32280Y47050D02*
X32320D01*
X32340D02*
X32360D01*
X32540D02*
X32560D01*
X32580D02*
X32620D01*
X32640D02*
X32660D01*
X33440D02*
X33460D01*
X33480D02*
X34200D01*
X34260D02*
X34300D01*
X34320D02*
X34340D01*
X34420D02*
X34440D01*
X34460D02*
X34800D01*
X34840D02*
X34880D01*
X34920D02*
X35440D01*
X35460D02*
X35480D01*
X35580D02*
X35600D01*
X35620D02*
X35960D01*
X35980D02*
X36000D01*
X36480D02*
X36960D01*
X36980D02*
X37000D01*
X37620D02*
X37640D01*
X37660D02*
X37700D01*
X37780D02*
X37840D01*
X39440D02*
X39460D01*
X39480D02*
X39700D01*
X40140D02*
X40160D01*
X40180D02*
X40200D01*
X40220D02*
X40240D01*
X40460D02*
X40480D01*
X40520D02*
X40540D01*
X32280Y47030D02*
X32320D01*
X32340D02*
X32360D01*
X32540D02*
X32560D01*
X32580D02*
X32620D01*
X32640D02*
X32660D01*
X33440D02*
X33460D01*
X33480D02*
X34100D01*
X34160D02*
X34220D01*
X34240D02*
X34260D01*
X34420D02*
X34440D01*
X34460D02*
X35440D01*
X35460D02*
X35480D01*
X35580D02*
X35600D01*
X35620D02*
X35960D01*
X35980D02*
X36000D01*
X36380D02*
X36400D01*
X36420D02*
X36480D01*
X36520D02*
X36960D01*
X36980D02*
X37000D01*
X37620D02*
X37640D01*
X37660D02*
X37760D01*
X39060D02*
X39080D01*
X39420D02*
X39440D01*
X39460D02*
X39640D01*
X39660D02*
X39680D01*
X40140D02*
X40160D01*
X40180D02*
X40200D01*
X40220D02*
X40240D01*
X40460D02*
X40480D01*
X40520D02*
X40540D01*
X32280Y47010D02*
X32320D01*
X32340D02*
X32360D01*
X32540D02*
X32560D01*
X32580D02*
X32620D01*
X32640D02*
X32660D01*
X33440D02*
X33460D01*
X33480D02*
X34160D01*
X34420D02*
X34440D01*
X34460D02*
X35440D01*
X35460D02*
X35480D01*
X35580D02*
X35600D01*
X35620D02*
X35960D01*
X35980D02*
X36000D01*
X36320D02*
X36340D01*
X36360D02*
X36380D01*
X36460D02*
X37000D01*
X37620D02*
X37640D01*
X38960D02*
X39020D01*
X39060D02*
X39080D01*
X39420D02*
X39460D01*
X39480D02*
X39640D01*
X39660D02*
X39680D01*
X40140D02*
X40160D01*
X40180D02*
X40200D01*
X40220D02*
X40240D01*
X40460D02*
X40480D01*
X40520D02*
X40540D01*
X32280Y46990D02*
X32320D01*
X32340D02*
X32360D01*
X32540D02*
X32560D01*
X32580D02*
X32620D01*
X32640D02*
X32660D01*
X33440D02*
X33460D01*
X33480D02*
X34060D01*
X34080D02*
X34100D01*
X34420D02*
X34440D01*
X34460D02*
X35440D01*
X35460D02*
X35480D01*
X35580D02*
X35600D01*
X35620D02*
X35960D01*
X35980D02*
X36000D01*
X36240D02*
X36320D01*
X36380D02*
X36440D01*
X36460D02*
X36980D01*
X38880D02*
X38940D01*
X39020D02*
X39060D01*
X39080D02*
X39100D01*
X39440D02*
X39620D01*
X39640D02*
X39660D01*
X40140D02*
X40160D01*
X40180D02*
X40200D01*
X40220D02*
X40240D01*
X40460D02*
X40480D01*
X40520D02*
X40540D01*
X32280Y46970D02*
X32320D01*
X32340D02*
X32360D01*
X32540D02*
X32560D01*
X32580D02*
X32620D01*
X32640D02*
X32660D01*
X33440D02*
X33460D01*
X33480D02*
X34060D01*
X34080D02*
X34100D01*
X34420D02*
X34440D01*
X34460D02*
X35440D01*
X35460D02*
X35480D01*
X35580D02*
X35600D01*
X35620D02*
X35960D01*
X35980D02*
X36000D01*
X36140D02*
X36240D01*
X36320D02*
X36940D01*
X36960D02*
X36980D01*
X38780D02*
X38800D01*
X38840D02*
X38880D01*
X38960D02*
X39080D01*
X39100D02*
X39120D01*
X39400D02*
X39420D01*
X39440D02*
X39600D01*
X39640D02*
X39660D01*
X40140D02*
X40160D01*
X40180D02*
X40200D01*
X40220D02*
X40240D01*
X40460D02*
X40480D01*
X40520D02*
X40540D01*
X32280Y46950D02*
X32320D01*
X32340D02*
X32360D01*
X32540D02*
X32560D01*
X32580D02*
X32620D01*
X32640D02*
X32660D01*
X33440D02*
X33460D01*
X33480D02*
X34060D01*
X34080D02*
X34100D01*
X34420D02*
X34440D01*
X34460D02*
X35440D01*
X35460D02*
X35480D01*
X35580D02*
X35600D01*
X35620D02*
X35960D01*
X35980D02*
X36000D01*
X36100D02*
X36120D01*
X36240D02*
X36940D01*
X36960D02*
X36980D01*
X38800D02*
X38820D01*
X38840D02*
X39080D01*
X39100D02*
X39120D01*
X39380D02*
X39400D01*
X39440D02*
X39600D01*
X39620D02*
X39640D01*
X40140D02*
X40160D01*
X40180D02*
X40200D01*
X40220D02*
X40240D01*
X40460D02*
X40480D01*
X40520D02*
X40540D01*
X32280Y46930D02*
X32320D01*
X32340D02*
X32360D01*
X32540D02*
X32560D01*
X32580D02*
X32620D01*
X32640D02*
X32660D01*
X33440D02*
X33460D01*
X33480D02*
X34060D01*
X34080D02*
X34100D01*
X34460D02*
X35440D01*
X35460D02*
X35480D01*
X35580D02*
X35600D01*
X35620D02*
X35960D01*
X35980D02*
X36000D01*
X36100D02*
X36120D01*
X36140D02*
X36920D01*
X36940D02*
X36960D01*
X38560D02*
X38580D01*
X38820D02*
X38840D01*
X38860D02*
X39100D01*
X39120D02*
X39140D01*
X39420D02*
X39620D01*
X40140D02*
X40160D01*
X40180D02*
X40200D01*
X40220D02*
X40240D01*
X40460D02*
X40480D01*
X40520D02*
X40540D01*
X32280Y46910D02*
X32320D01*
X32340D02*
X32360D01*
X32540D02*
X32560D01*
X32580D02*
X32620D01*
X32640D02*
X32660D01*
X33440D02*
X33460D01*
X33480D02*
X33520D01*
X33540D02*
X33580D01*
X33680D02*
X34060D01*
X34080D02*
X34100D01*
X34420D02*
X34440D01*
X34460D02*
X34800D01*
X34820D02*
X34980D01*
X35000D02*
X35140D01*
X35160D02*
X35440D01*
X35460D02*
X35480D01*
X35580D02*
X35600D01*
X35620D02*
X35960D01*
X35980D02*
X36000D01*
X36100D02*
X36120D01*
X36140D02*
X36880D01*
X36940D02*
X36960D01*
X38460D02*
X38560D01*
X38600D02*
X38620D01*
X38840D02*
X38860D01*
X38880D02*
X38900D01*
X38920D02*
X39120D01*
X39140D02*
X39160D01*
X39360D02*
X39380D01*
X39400D02*
X39580D01*
X39600D02*
X39620D01*
X40140D02*
X40160D01*
X40180D02*
X40200D01*
X40220D02*
X40240D01*
X40460D02*
X40480D01*
X40520D02*
X40540D01*
X32280Y46890D02*
X32320D01*
X32340D02*
X32360D01*
X32540D02*
X32560D01*
X32580D02*
X32620D01*
X32640D02*
X32660D01*
X33440D02*
X33460D01*
X33480D02*
X33520D01*
X33600D02*
X34060D01*
X34080D02*
X34100D01*
X34420D02*
X34440D01*
X34460D02*
X34960D01*
X34980D02*
X35020D01*
X35040D02*
X35440D01*
X35460D02*
X35480D01*
X35580D02*
X35600D01*
X35620D02*
X35960D01*
X35980D02*
X36000D01*
X36100D02*
X36120D01*
X36140D02*
X36640D01*
X36660D02*
X36880D01*
X36920D02*
X36940D01*
X38380D02*
X38460D01*
X38520D02*
X38580D01*
X38600D02*
X38620D01*
X38840D02*
X38860D01*
X38880D02*
X39120D01*
X39140D02*
X39160D01*
X39360D02*
X39380D01*
X39400D02*
X39580D01*
X39600D02*
X39620D01*
X40140D02*
X40160D01*
X40180D02*
X40200D01*
X40220D02*
X40240D01*
X40460D02*
X40480D01*
X40520D02*
X40540D01*
X32280Y46870D02*
X32320D01*
X32340D02*
X32360D01*
X32540D02*
X32560D01*
X32580D02*
X32620D01*
X32640D02*
X32660D01*
X33440D02*
X33460D01*
X33520D02*
X33580D01*
X33680D02*
X33720D01*
X33740D02*
X34060D01*
X34080D02*
X34100D01*
X34420D02*
X34440D01*
X34460D02*
X35440D01*
X35460D02*
X35480D01*
X35580D02*
X35600D01*
X35620D02*
X35960D01*
X35980D02*
X36000D01*
X36100D02*
X36120D01*
X36140D02*
X36480D01*
X36520D02*
X36860D01*
X36900D02*
X36920D01*
X38300D02*
X38380D01*
X38460D02*
X38600D01*
X38620D02*
X38640D01*
X38860D02*
X38880D01*
X38900D02*
X39140D01*
X39160D02*
X39180D01*
X39360D02*
X39560D01*
X39580D02*
X39600D01*
X40140D02*
X40160D01*
X40180D02*
X40200D01*
X40220D02*
X40240D01*
X40460D02*
X40480D01*
X40520D02*
X40540D01*
X32280Y46850D02*
X32320D01*
X32340D02*
X32360D01*
X32540D02*
X32560D01*
X32580D02*
X32620D01*
X32640D02*
X32660D01*
X33440D02*
X33460D01*
X33480D02*
X33520D01*
X33680D02*
X33720D01*
X33740D02*
X34060D01*
X34080D02*
X34100D01*
X34420D02*
X34440D01*
X34460D02*
X35000D01*
X35080D02*
X35440D01*
X35460D02*
X35480D01*
X35580D02*
X35600D01*
X35620D02*
X35960D01*
X35980D02*
X36000D01*
X36100D02*
X36120D01*
X36140D02*
X36760D01*
X36840D02*
X36880D01*
X38200D02*
X38320D01*
X38400D02*
X38600D01*
X38620D02*
X38640D01*
X38880D02*
X38900D01*
X38920D02*
X38940D01*
X38960D02*
X39160D01*
X39180D02*
X39200D01*
X39340D02*
X39360D01*
X39380D02*
X39560D01*
X40140D02*
X40160D01*
X40180D02*
X40200D01*
X40220D02*
X40240D01*
X40460D02*
X40480D01*
X40520D02*
X40540D01*
X32280Y46830D02*
X32320D01*
X32340D02*
X32360D01*
X32540D02*
X32560D01*
X32580D02*
X32620D01*
X32640D02*
X32660D01*
X33680D02*
X33700D01*
X33740D02*
X34060D01*
X34080D02*
X34100D01*
X34420D02*
X34440D01*
X34460D02*
X34920D01*
X35020D02*
X35060D01*
X35080D02*
X35440D01*
X35460D02*
X35480D01*
X35580D02*
X35600D01*
X35620D02*
X35960D01*
X35980D02*
X36000D01*
X36100D02*
X36120D01*
X36140D02*
X36720D01*
X36780D02*
X36860D01*
X38140D02*
X38200D01*
X38280D02*
X38460D01*
X38480D02*
X38600D01*
X38620D02*
X38640D01*
X38880D02*
X38900D01*
X38940D02*
X38960D01*
X38980D02*
X39160D01*
X39180D02*
X39200D01*
X39340D02*
X39360D01*
X39380D02*
X39540D01*
X39560D02*
X39580D01*
X40140D02*
X40160D01*
X40180D02*
X40200D01*
X40220D02*
X40240D01*
X40460D02*
X40480D01*
X40520D02*
X40540D01*
X32280Y46810D02*
X32320D01*
X32340D02*
X32360D01*
X32540D02*
X32560D01*
X32580D02*
X32620D01*
X32640D02*
X32660D01*
X33680D02*
X33700D01*
X33740D02*
X34060D01*
X34080D02*
X34100D01*
X34420D02*
X34440D01*
X34460D02*
X34860D01*
X34940D02*
X35020D01*
X35100D02*
X35120D01*
X35140D02*
X35440D01*
X35460D02*
X35480D01*
X35580D02*
X35600D01*
X35620D02*
X35960D01*
X35980D02*
X36000D01*
X36100D02*
X36120D01*
X36140D02*
X36580D01*
X36600D02*
X36640D01*
X36700D02*
X36780D01*
X38100D02*
X38120D01*
X38200D02*
X38620D01*
X38640D02*
X38660D01*
X38900D02*
X38920D01*
X38940D02*
X38980D01*
X39000D02*
X39180D01*
X39200D02*
X39220D01*
X39320D02*
X39340D01*
X39360D02*
X39400D01*
X39420D02*
X39540D01*
X39560D02*
X39580D01*
X40140D02*
X40160D01*
X40180D02*
X40200D01*
X40220D02*
X40240D01*
X40460D02*
X40480D01*
X40520D02*
X40540D01*
X32280Y46790D02*
X32320D01*
X32340D02*
X32360D01*
X32540D02*
X32560D01*
X32580D02*
X32620D01*
X32640D02*
X32660D01*
X33680D02*
X33700D01*
X33740D02*
X33800D01*
X33820D02*
X34060D01*
X34080D02*
X34100D01*
X34420D02*
X34440D01*
X34460D02*
X34780D01*
X34820D02*
X34920D01*
X35100D02*
X35120D01*
X35140D02*
X35440D01*
X35460D02*
X35480D01*
X35580D02*
X35600D01*
X35620D02*
X35960D01*
X35980D02*
X36000D01*
X36100D02*
X36120D01*
X36140D02*
X36520D01*
X36600D02*
X36700D01*
X38100D02*
X38120D01*
X38140D02*
X38240D01*
X38260D02*
X38620D01*
X38640D02*
X38660D01*
X38920D02*
X38940D01*
X38960D02*
X39180D01*
X39200D02*
X39220D01*
X39320D02*
X39340D01*
X39360D02*
X39560D01*
X40140D02*
X40160D01*
X40180D02*
X40200D01*
X40220D02*
X40240D01*
X40460D02*
X40480D01*
X40520D02*
X40540D01*
X32280Y46770D02*
X32320D01*
X32340D02*
X32360D01*
X32540D02*
X32560D01*
X32580D02*
X32620D01*
X32640D02*
X32660D01*
X33680D02*
X33700D01*
X33740D02*
X34060D01*
X34080D02*
X34100D01*
X34420D02*
X34440D01*
X34460D02*
X34840D01*
X35100D02*
X35120D01*
X35140D02*
X35440D01*
X35460D02*
X35480D01*
X35580D02*
X35600D01*
X35620D02*
X35960D01*
X35980D02*
X36000D01*
X36100D02*
X36120D01*
X36140D02*
X36460D01*
X36540D02*
X36600D01*
X38100D02*
X38620D01*
X38640D02*
X38660D01*
X38940D02*
X38960D01*
X39000D02*
X39200D01*
X39220D02*
X39240D01*
X39300D02*
X39320D01*
X39340D02*
X39520D01*
X39540D02*
X39560D01*
X40140D02*
X40160D01*
X40180D02*
X40200D01*
X40220D02*
X40240D01*
X40460D02*
X40480D01*
X40520D02*
X40540D01*
X32280Y46750D02*
X32320D01*
X32340D02*
X32360D01*
X32540D02*
X32560D01*
X32580D02*
X32620D01*
X32640D02*
X32660D01*
X33680D02*
X33700D01*
X33740D02*
X34060D01*
X34080D02*
X34100D01*
X34420D02*
X34440D01*
X34460D02*
X34740D01*
X34760D02*
X34780D01*
X35100D02*
X35120D01*
X35140D02*
X35440D01*
X35460D02*
X35480D01*
X35580D02*
X35600D01*
X35620D02*
X35960D01*
X35980D02*
X36000D01*
X36100D02*
X36120D01*
X36140D02*
X36400D01*
X36460D02*
X36540D01*
X38080D02*
X38100D01*
X38120D02*
X38620D01*
X38640D02*
X38660D01*
X38940D02*
X38960D01*
X38980D02*
X39160D01*
X39180D02*
X39220D01*
X39240D02*
X39260D01*
X39300D02*
X39320D01*
X39340D02*
X39500D01*
X39520D02*
X39540D01*
X40140D02*
X40160D01*
X40180D02*
X40200D01*
X40220D02*
X40240D01*
X40460D02*
X40480D01*
X40520D02*
X40540D01*
X32260Y46730D02*
X32320D01*
X32340D02*
X32360D01*
X32540D02*
X32560D01*
X32580D02*
X32620D01*
X32640D02*
X32660D01*
X33680D02*
X33700D01*
X33740D02*
X34060D01*
X34080D02*
X34100D01*
X34420D02*
X34440D01*
X34460D02*
X34740D01*
X34760D02*
X34780D01*
X35100D02*
X35120D01*
X35140D02*
X35440D01*
X35460D02*
X35480D01*
X35580D02*
X35600D01*
X35620D02*
X35960D01*
X35980D02*
X36000D01*
X36100D02*
X36120D01*
X36140D02*
X36280D01*
X36360D02*
X36380D01*
X36400D02*
X36460D01*
X38080D02*
X38100D01*
X38140D02*
X38680D01*
X38960D02*
X38980D01*
X39000D02*
X39180D01*
X39200D02*
X39220D01*
X39260D02*
X39500D01*
X40140D02*
X40160D01*
X40180D02*
X40200D01*
X40220D02*
X40240D01*
X40460D02*
X40480D01*
X40520D02*
X40540D01*
X32260Y46710D02*
X32320D01*
X32340D02*
X32360D01*
X32540D02*
X32560D01*
X32580D02*
X32620D01*
X32640D02*
X32660D01*
X33680D02*
X33700D01*
X33740D02*
X34060D01*
X34080D02*
X34100D01*
X34420D02*
X34440D01*
X34460D02*
X34740D01*
X34760D02*
X34780D01*
X35100D02*
X35120D01*
X35140D02*
X35440D01*
X35460D02*
X35480D01*
X35580D02*
X35600D01*
X35620D02*
X35960D01*
X35980D02*
X36000D01*
X36100D02*
X36120D01*
X36140D02*
X36220D01*
X36300D02*
X36320D01*
X38080D02*
X38100D01*
X38120D02*
X38640D01*
X38660D02*
X38680D01*
X38980D02*
X39000D01*
X39020D02*
X39260D01*
X39300D02*
X39480D01*
X39500D02*
X39520D01*
X40140D02*
X40160D01*
X40180D02*
X40200D01*
X40220D02*
X40240D01*
X40460D02*
X40480D01*
X40520D02*
X40540D01*
X32260Y46690D02*
X32320D01*
X32340D02*
X32360D01*
X32540D02*
X32560D01*
X32580D02*
X32620D01*
X32640D02*
X32660D01*
X33680D02*
X33700D01*
X33740D02*
X34060D01*
X34080D02*
X34100D01*
X34420D02*
X34440D01*
X34460D02*
X34740D01*
X34760D02*
X34780D01*
X35100D02*
X35120D01*
X35140D02*
X35440D01*
X35460D02*
X35480D01*
X35580D02*
X35600D01*
X35620D02*
X35960D01*
X35980D02*
X36000D01*
X36100D02*
X36120D01*
X36220D02*
X36280D01*
X37640D02*
X37660D01*
X38080D02*
X38100D01*
X38120D02*
X38640D01*
X38660D02*
X38680D01*
X38980D02*
X39480D01*
X39500D02*
X39520D01*
X40140D02*
X40160D01*
X40180D02*
X40200D01*
X40220D02*
X40240D01*
X40460D02*
X40480D01*
X40520D02*
X40540D01*
X32260Y46670D02*
X32320D01*
X32340D02*
X32360D01*
X32540D02*
X32560D01*
X32580D02*
X32620D01*
X32640D02*
X32660D01*
X33680D02*
X33700D01*
X33740D02*
X34060D01*
X34080D02*
X34100D01*
X34420D02*
X34440D01*
X34460D02*
X34740D01*
X34760D02*
X34780D01*
X35100D02*
X35120D01*
X35140D02*
X35440D01*
X35460D02*
X35480D01*
X35580D02*
X35600D01*
X35620D02*
X35960D01*
X35980D02*
X36000D01*
X36100D02*
X36120D01*
X36140D02*
X36160D01*
X36180D02*
X36220D01*
X37520D02*
X37620D01*
X37640D02*
X37660D01*
X38060D02*
X38080D01*
X38100D02*
X38120D01*
X38140D02*
X38640D01*
X38660D02*
X38700D01*
X39000D02*
X39020D01*
X39040D02*
X39500D01*
X40140D02*
X40160D01*
X40180D02*
X40200D01*
X40220D02*
X40240D01*
X40460D02*
X40480D01*
X40520D02*
X40540D01*
X32260Y46650D02*
X32320D01*
X32340D02*
X32360D01*
X32540D02*
X32560D01*
X32580D02*
X32620D01*
X32640D02*
X32660D01*
X33680D02*
X33700D01*
X33740D02*
X34060D01*
X34080D02*
X34100D01*
X34420D02*
X34440D01*
X34460D02*
X34740D01*
X34760D02*
X34780D01*
X35100D02*
X35120D01*
X35140D02*
X35440D01*
X35460D02*
X35480D01*
X35580D02*
X35600D01*
X35620D02*
X35960D01*
X35980D02*
X36000D01*
X36100D02*
X36120D01*
X37460D02*
X37520D01*
X37600D02*
X37620D01*
X37640D02*
X37660D01*
X38060D02*
X38080D01*
X38100D02*
X38660D01*
X38680D02*
X38700D01*
X39020D02*
X39040D01*
X39060D02*
X39160D01*
X39180D02*
X39460D01*
X39480D02*
X39500D01*
X40140D02*
X40160D01*
X40180D02*
X40200D01*
X40220D02*
X40240D01*
X40460D02*
X40480D01*
X40520D02*
X40540D01*
X32260Y46630D02*
X32320D01*
X32340D02*
X32360D01*
X32540D02*
X32560D01*
X32580D02*
X32620D01*
X32640D02*
X32660D01*
X33680D02*
X33700D01*
X33740D02*
X34060D01*
X34080D02*
X34100D01*
X34420D02*
X34440D01*
X34460D02*
X34740D01*
X34760D02*
X34780D01*
X35100D02*
X35120D01*
X35140D02*
X35440D01*
X35460D02*
X35480D01*
X35580D02*
X35600D01*
X35620D02*
X35940D01*
X35980D02*
X36000D01*
X37360D02*
X37440D01*
X37520D02*
X37620D01*
X38060D02*
X38080D01*
X38100D02*
X38660D01*
X38680D02*
X38700D01*
X39040D02*
X39060D01*
X39080D02*
X39160D01*
X39180D02*
X39440D01*
X39480D02*
X39500D01*
X40140D02*
X40160D01*
X40180D02*
X40200D01*
X40220D02*
X40240D01*
X40460D02*
X40480D01*
X40520D02*
X40540D01*
X32260Y46610D02*
X32320D01*
X32340D02*
X32360D01*
X32540D02*
X32560D01*
X32580D02*
X32620D01*
X32640D02*
X32660D01*
X33680D02*
X33700D01*
X33740D02*
X34060D01*
X34080D02*
X34100D01*
X34420D02*
X34440D01*
X34460D02*
X34740D01*
X34760D02*
X34780D01*
X35100D02*
X35120D01*
X35140D02*
X35440D01*
X35460D02*
X35480D01*
X35580D02*
X35600D01*
X35620D02*
X35840D01*
X35900D02*
X35960D01*
X35980D02*
X36000D01*
X37280D02*
X37380D01*
X37460D02*
X37500D01*
X37520D02*
X37620D01*
X37640D02*
X37660D01*
X38060D02*
X38080D01*
X38100D02*
X38120D01*
X38140D02*
X38660D01*
X38680D02*
X38700D01*
X39080D02*
X39160D01*
X39180D02*
X39440D01*
X39460D02*
X39480D01*
X40140D02*
X40160D01*
X40180D02*
X40200D01*
X40220D02*
X40240D01*
X40460D02*
X40480D01*
X40520D02*
X40540D01*
X32260Y46590D02*
X32320D01*
X32340D02*
X32360D01*
X32540D02*
X32560D01*
X32580D02*
X32620D01*
X32640D02*
X32660D01*
X33680D02*
X33700D01*
X33740D02*
X34060D01*
X34080D02*
X34100D01*
X34420D02*
X34440D01*
X34460D02*
X34740D01*
X34760D02*
X34780D01*
X35100D02*
X35120D01*
X35140D02*
X35440D01*
X35460D02*
X35480D01*
X35580D02*
X35600D01*
X35620D02*
X35760D01*
X35840D02*
X35920D01*
X37240D02*
X37260D01*
X37340D02*
X37620D01*
X37640D02*
X37660D01*
X38040D02*
X38060D01*
X38080D02*
X38680D01*
X38700D02*
X38720D01*
X39060D02*
X39080D01*
X39120D02*
X39160D01*
X39180D02*
X39420D01*
X39460D02*
X39480D01*
X40140D02*
X40160D01*
X40180D02*
X40200D01*
X40220D02*
X40240D01*
X40460D02*
X40480D01*
X40520D02*
X40540D01*
X32260Y46570D02*
X32320D01*
X32340D02*
X32360D01*
X32540D02*
X32560D01*
X32580D02*
X32620D01*
X32640D02*
X32660D01*
X33680D02*
X33700D01*
X33740D02*
X34060D01*
X34080D02*
X34100D01*
X34420D02*
X34440D01*
X34460D02*
X34740D01*
X34760D02*
X34780D01*
X35100D02*
X35120D01*
X35140D02*
X35440D01*
X35460D02*
X35480D01*
X35580D02*
X35600D01*
X35620D02*
X35700D01*
X35780D02*
X35800D01*
X35820D02*
X35840D01*
X37240D02*
X37260D01*
X37280D02*
X37620D01*
X37640D02*
X37660D01*
X38040D02*
X38060D01*
X38080D02*
X38680D01*
X38700D02*
X38720D01*
X39080D02*
X39100D01*
X39120D02*
X39420D01*
X39440D02*
X39480D01*
X40140D02*
X40160D01*
X40180D02*
X40200D01*
X40220D02*
X40240D01*
X40460D02*
X40480D01*
X40520D02*
X40540D01*
X32260Y46550D02*
X32320D01*
X32340D02*
X32360D01*
X32540D02*
X32560D01*
X32580D02*
X32620D01*
X32640D02*
X32660D01*
X33680D02*
X33700D01*
X33740D02*
X34060D01*
X34080D02*
X34100D01*
X34420D02*
X34440D01*
X34460D02*
X34740D01*
X34760D02*
X34780D01*
X35100D02*
X35120D01*
X35140D02*
X35420D01*
X35460D02*
X35480D01*
X35580D02*
X35600D01*
X35660D02*
X35720D01*
X35740D02*
X35760D01*
X37240D02*
X37260D01*
X37280D02*
X37620D01*
X37640D02*
X37660D01*
X38040D02*
X38060D01*
X38080D02*
X38680D01*
X38700D02*
X38720D01*
X39100D02*
X39120D01*
X39140D02*
X39420D01*
X39460D02*
X39480D01*
X40140D02*
X40160D01*
X40180D02*
X40200D01*
X40220D02*
X40240D01*
X40460D02*
X40480D01*
X40520D02*
X40540D01*
X32260Y46530D02*
X32320D01*
X32340D02*
X32360D01*
X32540D02*
X32560D01*
X32580D02*
X32620D01*
X32640D02*
X32660D01*
X33680D02*
X33700D01*
X33740D02*
X34060D01*
X34080D02*
X34100D01*
X34420D02*
X34440D01*
X34460D02*
X34740D01*
X34760D02*
X34780D01*
X35100D02*
X35120D01*
X35140D02*
X35420D01*
X35460D02*
X35480D01*
X35580D02*
X35600D01*
X35620D02*
X35680D01*
X37240D02*
X37260D01*
X37280D02*
X37620D01*
X37640D02*
X37660D01*
X38040D02*
X38360D01*
X38380D02*
X38620D01*
X38640D02*
X38720D01*
X39100D02*
X39120D01*
X39140D02*
X39420D01*
X39460D02*
X39480D01*
X40140D02*
X40160D01*
X40180D02*
X40200D01*
X40220D02*
X40240D01*
X40460D02*
X40480D01*
X40520D02*
X40540D01*
X32260Y46510D02*
X32320D01*
X32340D02*
X32360D01*
X32540D02*
X32560D01*
X32580D02*
X32620D01*
X32640D02*
X32660D01*
X33680D02*
X33700D01*
X33740D02*
X34060D01*
X34080D02*
X34100D01*
X34420D02*
X34440D01*
X34460D02*
X34740D01*
X34760D02*
X34780D01*
X35100D02*
X35120D01*
X35140D02*
X35340D01*
X35420D02*
X35440D01*
X35460D02*
X35480D01*
X35580D02*
X35600D01*
X37000D02*
X37020D01*
X37240D02*
X37260D01*
X37280D02*
X37620D01*
X37640D02*
X37660D01*
X38020D02*
X38620D01*
X38640D02*
X38700D01*
X38720D02*
X38740D01*
X39140D02*
X39420D01*
X39440D02*
X39480D01*
X40140D02*
X40160D01*
X40180D02*
X40200D01*
X40220D02*
X40240D01*
X40460D02*
X40480D01*
X40520D02*
X40540D01*
X32260Y46490D02*
X32320D01*
X32340D02*
X32360D01*
X32540D02*
X32560D01*
X32580D02*
X32620D01*
X32640D02*
X32660D01*
X33680D02*
X33700D01*
X33740D02*
X34060D01*
X34080D02*
X34100D01*
X34420D02*
X34440D01*
X34460D02*
X34740D01*
X34760D02*
X34780D01*
X35100D02*
X35120D01*
X35140D02*
X35180D01*
X35200D02*
X35240D01*
X35320D02*
X35420D01*
X36760D02*
X36780D01*
X37000D02*
X37040D01*
X37240D02*
X37260D01*
X37280D02*
X37620D01*
X37640D02*
X37660D01*
X38020D02*
X38040D01*
X38060D02*
X38100D01*
X38120D02*
X38700D01*
X38720D02*
X38740D01*
X39100D02*
X39120D01*
X39140D02*
X39420D01*
X39440D02*
X39480D01*
X40140D02*
X40160D01*
X40180D02*
X40200D01*
X40220D02*
X40240D01*
X40460D02*
X40480D01*
X40520D02*
X40540D01*
X32260Y46470D02*
X32320D01*
X32340D02*
X32360D01*
X32540D02*
X32560D01*
X32580D02*
X32620D01*
X32640D02*
X32660D01*
X33680D02*
X33700D01*
X33740D02*
X34060D01*
X34080D02*
X34100D01*
X34420D02*
X34440D01*
X34460D02*
X34740D01*
X34760D02*
X34780D01*
X35100D02*
X35120D01*
X35140D02*
X35180D01*
X35260D02*
X35320D01*
X36700D02*
X36720D01*
X36760D02*
X36780D01*
X36980D02*
X37000D01*
X37020D02*
X37040D01*
X37240D02*
X37260D01*
X37280D02*
X37620D01*
X37640D02*
X37660D01*
X38020D02*
X38040D01*
X38060D02*
X38360D01*
X38380D02*
X38700D01*
X38720D02*
X38740D01*
X39100D02*
X39120D01*
X39140D02*
X39420D01*
X39440D02*
X39480D01*
X40140D02*
X40160D01*
X40180D02*
X40200D01*
X40220D02*
X40240D01*
X40460D02*
X40480D01*
X40520D02*
X40540D01*
X32260Y46450D02*
X32320D01*
X32340D02*
X32360D01*
X32540D02*
X32560D01*
X32580D02*
X32620D01*
X32640D02*
X32660D01*
X33680D02*
X33700D01*
X33740D02*
X34060D01*
X34080D02*
X34100D01*
X34420D02*
X34440D01*
X34460D02*
X34740D01*
X34760D02*
X34780D01*
X35100D02*
X35120D01*
X35200D02*
X35260D01*
X36620D02*
X36640D01*
X36660D02*
X36700D01*
X36760D02*
X36780D01*
X36980D02*
X37000D01*
X37040D02*
X37060D01*
X37240D02*
X37260D01*
X37280D02*
X37620D01*
X37640D02*
X37660D01*
X38020D02*
X38040D01*
X38060D02*
X38340D01*
X38380D02*
X38420D01*
X38440D02*
X38720D01*
X38740D02*
X38760D01*
X39100D02*
X39120D01*
X39140D02*
X39480D01*
X40140D02*
X40160D01*
X40180D02*
X40200D01*
X40220D02*
X40240D01*
X40460D02*
X40480D01*
X40520D02*
X40540D01*
X32260Y46430D02*
X32320D01*
X32340D02*
X32360D01*
X32540D02*
X32560D01*
X32580D02*
X32620D01*
X32640D02*
X32660D01*
X33680D02*
X33700D01*
X33740D02*
X34060D01*
X34080D02*
X34100D01*
X34420D02*
X34440D01*
X34460D02*
X34740D01*
X34760D02*
X34780D01*
X35100D02*
X35120D01*
X35140D02*
X35180D01*
X36540D02*
X36620D01*
X36720D02*
X36740D01*
X36760D02*
X36780D01*
X36960D02*
X36980D01*
X37000D02*
X37020D01*
X37040D02*
X37060D01*
X37240D02*
X37260D01*
X37280D02*
X37620D01*
X37640D02*
X37660D01*
X38000D02*
X38020D01*
X38060D02*
X38380D01*
X38400D02*
X38640D01*
X38660D02*
X38720D01*
X38740D02*
X38760D01*
X39100D02*
X39120D01*
X39140D02*
X39420D01*
X39440D02*
X39480D01*
X40140D02*
X40160D01*
X40180D02*
X40200D01*
X40220D02*
X40240D01*
X40460D02*
X40480D01*
X40520D02*
X40540D01*
X32260Y46410D02*
X32320D01*
X32340D02*
X32360D01*
X32540D02*
X32560D01*
X32580D02*
X32620D01*
X32640D02*
X32660D01*
X33680D02*
X33700D01*
X33740D02*
X34060D01*
X34080D02*
X34100D01*
X34420D02*
X34440D01*
X34460D02*
X34720D01*
X34760D02*
X34780D01*
X35100D02*
X35120D01*
X36460D02*
X36520D01*
X36600D02*
X36740D01*
X36760D02*
X36780D01*
X36960D02*
X36980D01*
X37000D02*
X37040D01*
X37060D02*
X37080D01*
X37240D02*
X37260D01*
X37280D02*
X37620D01*
X37640D02*
X37660D01*
X38000D02*
X38020D01*
X38040D02*
X38300D01*
X38320D02*
X38340D01*
X38380D02*
X38720D01*
X38740D02*
X38760D01*
X39100D02*
X39120D01*
X39140D02*
X39420D01*
X39440D02*
X39480D01*
X40140D02*
X40160D01*
X40180D02*
X40200D01*
X40220D02*
X40240D01*
X40460D02*
X40480D01*
X40520D02*
X40540D01*
X32260Y46390D02*
X32320D01*
X32340D02*
X32360D01*
X32540D02*
X32560D01*
X32580D02*
X32620D01*
X32640D02*
X32660D01*
X33680D02*
X33700D01*
X33740D02*
X34060D01*
X34080D02*
X34100D01*
X34420D02*
X34440D01*
X34460D02*
X34740D01*
X34760D02*
X34780D01*
X36360D02*
X36380D01*
X36400D02*
X36460D01*
X36540D02*
X36740D01*
X36760D02*
X36780D01*
X36940D02*
X36960D01*
X36980D02*
X37040D01*
X37060D02*
X37080D01*
X37240D02*
X37260D01*
X37280D02*
X37620D01*
X37640D02*
X37660D01*
X38000D02*
X38020D01*
X38040D02*
X38280D01*
X38320D02*
X38340D01*
X38400D02*
X38740D01*
X38760D02*
X38780D01*
X39100D02*
X39120D01*
X39140D02*
X39420D01*
X39440D02*
X39480D01*
X40140D02*
X40160D01*
X40180D02*
X40200D01*
X40220D02*
X40240D01*
X40460D02*
X40480D01*
X40520D02*
X40540D01*
X32260Y46370D02*
X32320D01*
X32340D02*
X32360D01*
X32540D02*
X32560D01*
X32580D02*
X32620D01*
X32640D02*
X32660D01*
X33680D02*
X33700D01*
X33740D02*
X34060D01*
X34080D02*
X34100D01*
X34420D02*
X34440D01*
X34460D02*
X34740D01*
X34760D02*
X34780D01*
X36360D02*
X36380D01*
X36460D02*
X36740D01*
X36760D02*
X36780D01*
X36940D02*
X36960D01*
X36980D02*
X37060D01*
X37080D02*
X37100D01*
X37240D02*
X37260D01*
X37280D02*
X37620D01*
X37640D02*
X37660D01*
X38000D02*
X38020D01*
X38040D02*
X38280D01*
X38300D02*
X38320D01*
X38400D02*
X38420D01*
X38440D02*
X38720D01*
X38760D02*
X38780D01*
X39100D02*
X39120D01*
X39140D02*
X39420D01*
X39440D02*
X39480D01*
X40140D02*
X40160D01*
X40180D02*
X40200D01*
X40220D02*
X40240D01*
X40460D02*
X40480D01*
X40520D02*
X40540D01*
X32260Y46350D02*
X32320D01*
X32340D02*
X32360D01*
X32540D02*
X32560D01*
X32580D02*
X32620D01*
X32640D02*
X32660D01*
X33680D02*
X33700D01*
X33740D02*
X34060D01*
X34080D02*
X34100D01*
X34420D02*
X34440D01*
X34460D02*
X34720D01*
X34760D02*
X34780D01*
X36360D02*
X36380D01*
X36400D02*
X36440D01*
X36460D02*
X36540D01*
X36560D02*
X36740D01*
X36760D02*
X36780D01*
X36920D02*
X36940D01*
X36960D02*
X37120D01*
X37240D02*
X37260D01*
X37280D02*
X37620D01*
X37640D02*
X37660D01*
X37980D02*
X38000D01*
X38020D02*
X38060D01*
X38080D02*
X38120D01*
X38140D02*
X38280D01*
X38300D02*
X38320D01*
X38400D02*
X38420D01*
X38440D02*
X38740D01*
X38760D02*
X38780D01*
X39100D02*
X39120D01*
X39140D02*
X39420D01*
X39440D02*
X39480D01*
X40140D02*
X40160D01*
X40180D02*
X40200D01*
X40220D02*
X40240D01*
X40460D02*
X40480D01*
X40520D02*
X40540D01*
X32260Y46330D02*
X32320D01*
X32340D02*
X32360D01*
X32540D02*
X32560D01*
X32580D02*
X32620D01*
X32640D02*
X32660D01*
X33680D02*
X33700D01*
X33740D02*
X34060D01*
X34080D02*
X34100D01*
X34420D02*
X34440D01*
X34460D02*
X34660D01*
X34720D02*
X34740D01*
X34760D02*
X34780D01*
X36360D02*
X36380D01*
X36400D02*
X36740D01*
X36760D02*
X36780D01*
X36920D02*
X36940D01*
X36960D02*
X36980D01*
X37020D02*
X37080D01*
X37100D02*
X37120D01*
X37240D02*
X37260D01*
X37280D02*
X37320D01*
X37340D02*
X37620D01*
X37640D02*
X37660D01*
X37980D02*
X38000D01*
X38020D02*
X38280D01*
X38300D02*
X38320D01*
X38460D02*
X38780D01*
X39100D02*
X39120D01*
X39140D02*
X39420D01*
X39440D02*
X39480D01*
X40140D02*
X40160D01*
X40180D02*
X40200D01*
X40220D02*
X40240D01*
X40460D02*
X40480D01*
X40520D02*
X40540D01*
X32260Y46310D02*
X32320D01*
X32340D02*
X32360D01*
X32540D02*
X32560D01*
X32580D02*
X32620D01*
X32640D02*
X32660D01*
X33680D02*
X33700D01*
X33740D02*
X34060D01*
X34080D02*
X34100D01*
X34420D02*
X34440D01*
X34460D02*
X34560D01*
X34620D02*
X34720D01*
X36360D02*
X36380D01*
X36400D02*
X36740D01*
X36760D02*
X36780D01*
X36900D02*
X36920D01*
X36940D02*
X37100D01*
X37120D02*
X37140D01*
X37240D02*
X37260D01*
X37280D02*
X37620D01*
X37640D02*
X37660D01*
X37980D02*
X38000D01*
X38040D02*
X38300D01*
X38420D02*
X38440D01*
X38460D02*
X38700D01*
X38720D02*
X38800D01*
X39100D02*
X39120D01*
X39140D02*
X39420D01*
X39440D02*
X39480D01*
X40140D02*
X40160D01*
X40180D02*
X40200D01*
X40220D02*
X40240D01*
X40460D02*
X40480D01*
X40520D02*
X40540D01*
X32260Y46290D02*
X32320D01*
X32340D02*
X32360D01*
X32540D02*
X32560D01*
X32580D02*
X32620D01*
X32640D02*
X32660D01*
X33680D02*
X33700D01*
X33740D02*
X34060D01*
X34080D02*
X34100D01*
X34420D02*
X34440D01*
X34460D02*
X34480D01*
X34560D02*
X34640D01*
X36360D02*
X36380D01*
X36400D02*
X36680D01*
X36700D02*
X36740D01*
X36760D02*
X36780D01*
X36900D02*
X36920D01*
X36940D02*
X37100D01*
X37120D02*
X37140D01*
X37240D02*
X37260D01*
X37300D02*
X37620D01*
X37640D02*
X37660D01*
X37980D02*
X38000D01*
X38020D02*
X38120D01*
X38140D02*
X38300D01*
X38420D02*
X38440D01*
X38460D02*
X38760D01*
X38780D02*
X38800D01*
X39100D02*
X39120D01*
X39140D02*
X39420D01*
X39440D02*
X39480D01*
X40140D02*
X40160D01*
X40180D02*
X40200D01*
X40220D02*
X40240D01*
X40460D02*
X40480D01*
X40520D02*
X40540D01*
X32260Y46270D02*
X32320D01*
X32340D02*
X32360D01*
X32540D02*
X32560D01*
X32580D02*
X32620D01*
X32640D02*
X32660D01*
X33680D02*
X33700D01*
X33740D02*
X34060D01*
X34080D02*
X34100D01*
X34420D02*
X34440D01*
X34500D02*
X34560D01*
X35920D02*
X35940D01*
X36360D02*
X36380D01*
X36400D02*
X36740D01*
X36760D02*
X36780D01*
X36940D02*
X37120D01*
X37280D02*
X37620D01*
X37640D02*
X37660D01*
X37980D02*
X38140D01*
X38160D02*
X38260D01*
X38280D02*
X38300D01*
X38420D02*
X38460D01*
X38480D02*
X38740D01*
X38780D02*
X38800D01*
X39100D02*
X39120D01*
X39140D02*
X39420D01*
X39440D02*
X39480D01*
X40140D02*
X40160D01*
X40180D02*
X40200D01*
X40220D02*
X40240D01*
X40460D02*
X40480D01*
X40520D02*
X40540D01*
X32260Y46250D02*
X32320D01*
X32340D02*
X32360D01*
X32540D02*
X32560D01*
X32580D02*
X32620D01*
X32640D02*
X32660D01*
X33680D02*
X33700D01*
X33740D02*
X34060D01*
X34080D02*
X34100D01*
X34420D02*
X34440D01*
X34460D02*
X34480D01*
X35800D02*
X35900D01*
X35920D02*
X35940D01*
X36360D02*
X36380D01*
X36400D02*
X36740D01*
X36760D02*
X36780D01*
X36880D02*
X36900D01*
X36920D02*
X37160D01*
X37240D02*
X37260D01*
X37280D02*
X37620D01*
X37640D02*
X37660D01*
X37960D02*
X37980D01*
X38000D02*
X38260D01*
X38280D02*
X38300D01*
X38440D02*
X38460D01*
X38480D02*
X38760D01*
X38780D02*
X38800D01*
X39100D02*
X39120D01*
X39140D02*
X39420D01*
X39440D02*
X39480D01*
X40140D02*
X40160D01*
X40180D02*
X40200D01*
X40220D02*
X40240D01*
X40460D02*
X40480D01*
X40520D02*
X40540D01*
X32260Y46230D02*
X32320D01*
X32340D02*
X32360D01*
X32540D02*
X32560D01*
X32580D02*
X32620D01*
X32640D02*
X32660D01*
X33680D02*
X33700D01*
X33740D02*
X34060D01*
X34080D02*
X34100D01*
X35720D02*
X35740D01*
X35760D02*
X35780D01*
X35860D02*
X35900D01*
X35920D02*
X35940D01*
X36360D02*
X36380D01*
X36400D02*
X36740D01*
X36760D02*
X36780D01*
X36880D02*
X36900D01*
X36920D02*
X36980D01*
X37000D02*
X37140D01*
X37160D02*
X37180D01*
X37240D02*
X37260D01*
X37280D02*
X37620D01*
X37640D02*
X37660D01*
X37960D02*
X37980D01*
X38000D02*
X38240D01*
X38260D02*
X38280D01*
X38440D02*
X38460D01*
X38480D02*
X38780D01*
X38800D02*
X38820D01*
X39100D02*
X39120D01*
X39140D02*
X39420D01*
X39440D02*
X39480D01*
X40140D02*
X40160D01*
X40180D02*
X40200D01*
X40220D02*
X40240D01*
X40460D02*
X40480D01*
X40520D02*
X40540D01*
X32260Y46210D02*
X32320D01*
X32340D02*
X32360D01*
X32540D02*
X32560D01*
X32580D02*
X32620D01*
X32640D02*
X32660D01*
X33680D02*
X33700D01*
X33740D02*
X34060D01*
X34080D02*
X34100D01*
X35640D02*
X35720D01*
X35820D02*
X35900D01*
X35920D02*
X35940D01*
X36360D02*
X36380D01*
X36400D02*
X36740D01*
X36760D02*
X36780D01*
X36860D02*
X36880D01*
X36900D02*
X36920D01*
X36940D02*
X37140D01*
X37160D02*
X37180D01*
X37240D02*
X37260D01*
X37280D02*
X37620D01*
X37640D02*
X37660D01*
X37960D02*
X37980D01*
X38000D02*
X38240D01*
X38260D02*
X38280D01*
X38440D02*
X38460D01*
X38480D02*
X38780D01*
X38800D02*
X38820D01*
X39100D02*
X39120D01*
X39140D02*
X39420D01*
X39440D02*
X39480D01*
X40140D02*
X40160D01*
X40180D02*
X40200D01*
X40220D02*
X40240D01*
X40460D02*
X40480D01*
X40520D02*
X40540D01*
X32260Y46190D02*
X32320D01*
X32340D02*
X32360D01*
X32540D02*
X32560D01*
X32580D02*
X32620D01*
X32640D02*
X32660D01*
X33680D02*
X33700D01*
X33740D02*
X34060D01*
X34080D02*
X34100D01*
X35540D02*
X35560D01*
X35580D02*
X35640D01*
X35720D02*
X35900D01*
X35920D02*
X35940D01*
X36360D02*
X36380D01*
X36400D02*
X36740D01*
X36760D02*
X36780D01*
X36860D02*
X36880D01*
X36900D02*
X37100D01*
X37120D02*
X37160D01*
X37180D02*
X37200D01*
X37240D02*
X37620D01*
X37640D02*
X37660D01*
X37960D02*
X37980D01*
X38000D02*
X38240D01*
X38260D02*
X38280D01*
X38460D02*
X38780D01*
X38800D02*
X38820D01*
X39100D02*
X39120D01*
X39140D02*
X39420D01*
X39440D02*
X39480D01*
X40140D02*
X40160D01*
X40180D02*
X40200D01*
X40220D02*
X40240D01*
X40460D02*
X40480D01*
X40520D02*
X40540D01*
X32260Y46170D02*
X32320D01*
X32340D02*
X32360D01*
X32540D02*
X32560D01*
X32580D02*
X32620D01*
X32640D02*
X32660D01*
X33680D02*
X33700D01*
X33740D02*
X34060D01*
X34080D02*
X34100D01*
X35460D02*
X35540D01*
X35620D02*
X35900D01*
X35920D02*
X35940D01*
X36360D02*
X36380D01*
X36400D02*
X36740D01*
X36760D02*
X36780D01*
X36840D02*
X36860D01*
X36880D02*
X37200D01*
X37240D02*
X37320D01*
X37340D02*
X37620D01*
X37640D02*
X37660D01*
X37940D02*
X37960D01*
X37980D02*
X38220D01*
X38260D02*
X38280D01*
X38460D02*
X38480D01*
X38500D02*
X38800D01*
X38820D02*
X38840D01*
X39100D02*
X39120D01*
X39140D02*
X39420D01*
X39440D02*
X39480D01*
X40140D02*
X40160D01*
X40180D02*
X40200D01*
X40220D02*
X40240D01*
X40460D02*
X40480D01*
X40520D02*
X40540D01*
X32260Y46150D02*
X32320D01*
X32340D02*
X32360D01*
X32540D02*
X32560D01*
X32580D02*
X32620D01*
X32640D02*
X32660D01*
X33680D02*
X33700D01*
X33740D02*
X34020D01*
X34080D02*
X34100D01*
X35380D02*
X35460D01*
X35540D02*
X35900D01*
X35920D02*
X35940D01*
X36360D02*
X36380D01*
X36400D02*
X36720D01*
X36760D02*
X36780D01*
X36840D02*
X37200D01*
X37220D02*
X37620D01*
X37640D02*
X37660D01*
X37940D02*
X37960D01*
X37980D02*
X38140D01*
X38160D02*
X38220D01*
X38240D02*
X38260D01*
X38460D02*
X38480D01*
X38500D02*
X38800D01*
X38820D02*
X38840D01*
X39100D02*
X39120D01*
X39140D02*
X39420D01*
X39440D02*
X39480D01*
X40140D02*
X40160D01*
X40180D02*
X40200D01*
X40220D02*
X40240D01*
X40460D02*
X40480D01*
X40520D02*
X40540D01*
X32260Y46130D02*
X32320D01*
X32340D02*
X32360D01*
X32540D02*
X32560D01*
X32580D02*
X32620D01*
X32640D02*
X32660D01*
X33680D02*
X33700D01*
X33740D02*
X33900D01*
X33980D02*
X34060D01*
X34080D02*
X34100D01*
X35280D02*
X35380D01*
X35460D02*
X35600D01*
X35620D02*
X35900D01*
X35920D02*
X35940D01*
X36360D02*
X36380D01*
X36400D02*
X36740D01*
X36760D02*
X36780D01*
X36820D02*
X36840D01*
X36860D02*
X36940D01*
X36960D02*
X37620D01*
X37640D02*
X37660D01*
X37940D02*
X37960D01*
X37980D02*
X38220D01*
X38240D02*
X38260D01*
X38440D02*
X38520D01*
X38540D02*
X38800D01*
X38820D02*
X38840D01*
X39100D02*
X39120D01*
X39140D02*
X39420D01*
X39440D02*
X39480D01*
X40140D02*
X40160D01*
X40180D02*
X40200D01*
X40220D02*
X40240D01*
X40460D02*
X40480D01*
X40520D02*
X40540D01*
X32260Y46110D02*
X32320D01*
X32340D02*
X32360D01*
X32540D02*
X32560D01*
X32580D02*
X32620D01*
X32640D02*
X32660D01*
X33680D02*
X33700D01*
X33740D02*
X33860D01*
X33920D02*
X34000D01*
X35200D02*
X35280D01*
X35340D02*
X35900D01*
X35920D02*
X35940D01*
X36360D02*
X36380D01*
X36400D02*
X36700D01*
X36720D02*
X36740D01*
X36760D02*
X36780D01*
X36820D02*
X36840D01*
X36860D02*
X37620D01*
X37640D02*
X37660D01*
X37920D02*
X37940D01*
X37980D02*
X38220D01*
X38240D02*
X38260D01*
X38360D02*
X38420D01*
X38460D02*
X38840D01*
X39100D02*
X39120D01*
X39140D02*
X39420D01*
X39440D02*
X39480D01*
X40140D02*
X40160D01*
X40180D02*
X40200D01*
X40220D02*
X40240D01*
X40460D02*
X40480D01*
X40520D02*
X40540D01*
X32260Y46090D02*
X32320D01*
X32340D02*
X32360D01*
X32540D02*
X32560D01*
X32580D02*
X32620D01*
X32640D02*
X32660D01*
X33680D02*
X33700D01*
X33720D02*
X33780D01*
X33860D02*
X33920D01*
X35140D02*
X35160D01*
X35180D02*
X35200D01*
X35280D02*
X35900D01*
X35920D02*
X35940D01*
X36360D02*
X36380D01*
X36400D02*
X36760D01*
X36820D02*
X36840D01*
X36860D02*
X37620D01*
X37640D02*
X37660D01*
X37920D02*
X37940D01*
X37960D02*
X38200D01*
X38220D02*
X38260D01*
X38280D02*
X38340D01*
X38440D02*
X38820D01*
X38840D02*
X38860D01*
X39100D02*
X39120D01*
X39140D02*
X39420D01*
X39440D02*
X39480D01*
X40140D02*
X40160D01*
X40180D02*
X40200D01*
X40220D02*
X40240D01*
X40460D02*
X40480D01*
X40520D02*
X40540D01*
X32260Y46070D02*
X32320D01*
X32340D02*
X32360D01*
X32540D02*
X32560D01*
X32580D02*
X32620D01*
X32640D02*
X32660D01*
X33680D02*
X33700D01*
X33760D02*
X33820D01*
X33840D02*
X33860D01*
X35140D02*
X35160D01*
X35220D02*
X35900D01*
X36360D02*
X36380D01*
X36400D02*
X36760D01*
X36820D02*
X37620D01*
X37640D02*
X37660D01*
X37920D02*
X37940D01*
X37960D02*
X38280D01*
X38360D02*
X38820D01*
X38840D02*
X38860D01*
X39100D02*
X39120D01*
X39140D02*
X39420D01*
X39440D02*
X39480D01*
X40140D02*
X40160D01*
X40180D02*
X40200D01*
X40220D02*
X40240D01*
X40460D02*
X40480D01*
X40520D02*
X40540D01*
X32260Y46050D02*
X32320D01*
X32340D02*
X32360D01*
X32540D02*
X32560D01*
X32580D02*
X32620D01*
X32640D02*
X32660D01*
X33740D02*
X33760D01*
X35000D02*
X35020D01*
X35140D02*
X35160D01*
X35180D02*
X35900D01*
X35920D02*
X35940D01*
X36360D02*
X36380D01*
X36400D02*
X37620D01*
X37640D02*
X37660D01*
X37920D02*
X37940D01*
X37960D02*
X38420D01*
X38440D02*
X38820D01*
X38840D02*
X38860D01*
X39100D02*
X39120D01*
X39140D02*
X39420D01*
X39440D02*
X39480D01*
X40140D02*
X40160D01*
X40220D02*
X40240D01*
X40460D02*
X40480D01*
X40520D02*
X40540D01*
X32260Y46030D02*
X32320D01*
X32340D02*
X32360D01*
X32540D02*
X32560D01*
X32580D02*
X32620D01*
X32640D02*
X32660D01*
X34920D02*
X34980D01*
X35000D02*
X35020D01*
X35180D02*
X35900D01*
X35920D02*
X35940D01*
X36360D02*
X36380D01*
X36400D02*
X37620D01*
X37640D02*
X37660D01*
X37920D02*
X38420D01*
X38440D02*
X38820D01*
X38860D02*
X38880D01*
X39100D02*
X39120D01*
X39140D02*
X39420D01*
X39440D02*
X39480D01*
X40140D02*
X40160D01*
X40220D02*
X40240D01*
X40460D02*
X40480D01*
X40520D02*
X40540D01*
X32260Y46010D02*
X32320D01*
X32340D02*
X32360D01*
X32540D02*
X32560D01*
X32580D02*
X32620D01*
X32640D02*
X32660D01*
X34820D02*
X34840D01*
X34860D02*
X34920D01*
X35000D02*
X35020D01*
X35140D02*
X35160D01*
X35180D02*
X35900D01*
X35920D02*
X35940D01*
X36360D02*
X36380D01*
X36400D02*
X37620D01*
X37640D02*
X37660D01*
X37900D02*
X38840D01*
X38860D02*
X38880D01*
X39100D02*
X39120D01*
X39140D02*
X39420D01*
X39460D02*
X39480D01*
X40140D02*
X40160D01*
X40180D02*
X40200D01*
X40220D02*
X40240D01*
X40460D02*
X40480D01*
X40520D02*
X40540D01*
X32260Y45990D02*
X32320D01*
X32340D02*
X32360D01*
X32540D02*
X32560D01*
X32580D02*
X32620D01*
X32640D02*
X32660D01*
X34760D02*
X34820D01*
X34900D02*
X34980D01*
X35000D02*
X35020D01*
X35140D02*
X35160D01*
X35180D02*
X35900D01*
X35920D02*
X35940D01*
X36360D02*
X36380D01*
X36400D02*
X37620D01*
X37640D02*
X37660D01*
X37900D02*
X37920D01*
X37940D02*
X38180D01*
X38200D02*
X38400D01*
X38440D02*
X38840D01*
X38860D02*
X38880D01*
X39080D02*
X39120D01*
X39140D02*
X39400D01*
X39460D02*
X39480D01*
X40140D02*
X40160D01*
X40180D02*
X40200D01*
X40220D02*
X40240D01*
X40460D02*
X40480D01*
X40520D02*
X40540D01*
X32260Y45970D02*
X32320D01*
X32340D02*
X32360D01*
X32540D02*
X32560D01*
X32580D02*
X32620D01*
X32640D02*
X32660D01*
X34660D02*
X34740D01*
X34820D02*
X34980D01*
X35140D02*
X35160D01*
X35180D02*
X35740D01*
X35760D02*
X35840D01*
X35920D02*
X35940D01*
X36360D02*
X36380D01*
X36400D02*
X37620D01*
X37640D02*
X37660D01*
X37900D02*
X37920D01*
X37940D02*
X38200D01*
X38220D02*
X38840D01*
X38880D02*
X38900D01*
X39080D02*
X39120D01*
X39140D02*
X39340D01*
X39400D02*
X39420D01*
X39440D02*
X39460D01*
X40140D02*
X40200D01*
X40220D02*
X40240D01*
X40460D02*
X40480D01*
X40520D02*
X40540D01*
X32260Y45950D02*
X32320D01*
X32340D02*
X32360D01*
X32540D02*
X32560D01*
X32580D02*
X32620D01*
X32640D02*
X32660D01*
X34660D02*
X34680D01*
X34760D02*
X34980D01*
X35000D02*
X35020D01*
X35140D02*
X35160D01*
X35180D02*
X35740D01*
X35840D02*
X35900D01*
X36360D02*
X36380D01*
X36400D02*
X37620D01*
X37640D02*
X37660D01*
X37900D02*
X37920D01*
X37940D02*
X38400D01*
X38480D02*
X38860D01*
X38880D02*
X38900D01*
X39080D02*
X39120D01*
X39140D02*
X39220D01*
X39300D02*
X39400D01*
X40140D02*
X40200D01*
X40220D02*
X40240D01*
X40460D02*
X40480D01*
X40520D02*
X40540D01*
X32260Y45930D02*
X32320D01*
X32340D02*
X32360D01*
X32540D02*
X32560D01*
X32580D02*
X32620D01*
X32640D02*
X32660D01*
X34660D02*
X34680D01*
X34700D02*
X34980D01*
X35000D02*
X35020D01*
X35140D02*
X35160D01*
X35180D02*
X35660D01*
X35740D02*
X35820D01*
X36360D02*
X36380D01*
X36400D02*
X36920D01*
X36940D02*
X37620D01*
X37640D02*
X37660D01*
X37880D02*
X37900D01*
X37940D02*
X38320D01*
X38400D02*
X38480D01*
X38520D02*
X38580D01*
X38600D02*
X38780D01*
X38800D02*
X38820D01*
X38840D02*
X38860D01*
X38880D02*
X38900D01*
X39080D02*
X39120D01*
X39220D02*
X39300D01*
X40140D02*
X40200D01*
X40220D02*
X40240D01*
X40460D02*
X40480D01*
X40520D02*
X40540D01*
X32260Y45910D02*
X32320D01*
X32340D02*
X32360D01*
X32540D02*
X32560D01*
X32580D02*
X32620D01*
X32640D02*
X32660D01*
X34660D02*
X34680D01*
X34700D02*
X34980D01*
X35000D02*
X35020D01*
X35140D02*
X35160D01*
X35180D02*
X35600D01*
X35660D02*
X35740D01*
X36360D02*
X36380D01*
X36400D02*
X37000D01*
X37020D02*
X37620D01*
X37640D02*
X37660D01*
X37880D02*
X37900D01*
X37920D02*
X38260D01*
X38340D02*
X38400D01*
X38540D02*
X38560D01*
X38580D02*
X38900D01*
X39080D02*
X39100D01*
X39160D02*
X39220D01*
X40140D02*
X40200D01*
X40220D02*
X40240D01*
X40460D02*
X40480D01*
X40520D02*
X40540D01*
X32260Y45890D02*
X32320D01*
X32340D02*
X32360D01*
X32540D02*
X32560D01*
X32580D02*
X32620D01*
X32640D02*
X32660D01*
X34280D02*
X34300D01*
X34320D02*
X34340D01*
X34660D02*
X34680D01*
X34700D02*
X34980D01*
X35000D02*
X35020D01*
X35140D02*
X35160D01*
X35180D02*
X35520D01*
X35560D02*
X35660D01*
X36360D02*
X36380D01*
X36400D02*
X37620D01*
X37640D02*
X37660D01*
X37920D02*
X38200D01*
X38220D02*
X38320D01*
X38540D02*
X38560D01*
X38580D02*
X38920D01*
X39080D02*
X39100D01*
X39140D02*
X39160D01*
X40120D02*
X40140D01*
X40180D02*
X40200D01*
X40220D02*
X40240D01*
X40460D02*
X40480D01*
X40520D02*
X40540D01*
X32260Y45870D02*
X32320D01*
X32340D02*
X32360D01*
X32540D02*
X32560D01*
X32580D02*
X32620D01*
X32640D02*
X32660D01*
X34200D02*
X34260D01*
X34320D02*
X34340D01*
X34660D02*
X34680D01*
X34700D02*
X34980D01*
X35000D02*
X35020D01*
X35140D02*
X35160D01*
X35180D02*
X35560D01*
X36360D02*
X36380D01*
X36400D02*
X36980D01*
X37000D02*
X37120D01*
X37140D02*
X37620D01*
X37640D02*
X37660D01*
X37920D02*
X38220D01*
X38540D02*
X38560D01*
X38600D02*
X38880D01*
X40120D02*
X40140D01*
X40160D02*
X40200D01*
X40220D02*
X40240D01*
X40460D02*
X40480D01*
X40520D02*
X40540D01*
X32260Y45850D02*
X32320D01*
X32340D02*
X32360D01*
X32540D02*
X32560D01*
X32580D02*
X32620D01*
X32640D02*
X32660D01*
X34120D02*
X34160D01*
X34180D02*
X34200D01*
X34280D02*
X34300D01*
X34660D02*
X34680D01*
X34700D02*
X34980D01*
X35000D02*
X35020D01*
X35140D02*
X35160D01*
X35180D02*
X35480D01*
X35500D02*
X35520D01*
X36360D02*
X36380D01*
X36400D02*
X36940D01*
X36960D02*
X37620D01*
X37640D02*
X37660D01*
X37860D02*
X37880D01*
X37900D02*
X38200D01*
X38560D02*
X38580D01*
X38600D02*
X38820D01*
X38900D02*
X38920D01*
X40100D02*
X40120D01*
X40160D02*
X40200D01*
X40520D02*
X40540D01*
X32260Y45830D02*
X32280D01*
X32300D02*
X32320D01*
X32340D02*
X32360D01*
X32540D02*
X32560D01*
X32580D02*
X32620D01*
X32640D02*
X32660D01*
X34020D02*
X34120D01*
X34200D02*
X34300D01*
X34320D02*
X34340D01*
X34660D02*
X34680D01*
X34700D02*
X34760D01*
X34780D02*
X34980D01*
X35000D02*
X35020D01*
X35140D02*
X35160D01*
X35180D02*
X35420D01*
X35440D02*
X35480D01*
X35500D02*
X35520D01*
X36360D02*
X36380D01*
X36400D02*
X36980D01*
X37020D02*
X37040D01*
X37060D02*
X37620D01*
X37640D02*
X37660D01*
X37860D02*
X37880D01*
X37900D02*
X38180D01*
X38560D02*
X38580D01*
X38600D02*
X38720D01*
X38780D02*
X38840D01*
X38860D02*
X38880D01*
X40100D02*
X40120D01*
X40140D02*
X40200D01*
X40220D02*
X40240D01*
X40440D02*
X40460D01*
X40480D02*
X40500D01*
X40520D02*
X40540D01*
X32260Y45810D02*
X32280D01*
X32300D02*
X32320D01*
X32340D02*
X32360D01*
X32540D02*
X32560D01*
X32580D02*
X32620D01*
X32640D02*
X32660D01*
X33960D02*
X33980D01*
X34080D02*
X34300D01*
X34320D02*
X34340D01*
X34660D02*
X34680D01*
X34700D02*
X34980D01*
X35000D02*
X35020D01*
X35140D02*
X35160D01*
X35180D02*
X35480D01*
X35500D02*
X35520D01*
X35920D02*
X35940D01*
X36360D02*
X36380D01*
X36400D02*
X36940D01*
X36960D02*
X36980D01*
X37020D02*
X37040D01*
X37060D02*
X37100D01*
X37120D02*
X37620D01*
X37640D02*
X37660D01*
X37860D02*
X37880D01*
X37900D02*
X38140D01*
X38160D02*
X38180D01*
X38560D02*
X38580D01*
X38600D02*
X38640D01*
X38720D02*
X38800D01*
X40080D02*
X40100D01*
X40120D02*
X40240D01*
X40440D02*
X40460D01*
X40480D02*
X40500D01*
X40520D02*
X40540D01*
X32260Y45790D02*
X32280D01*
X32300D02*
X32320D01*
X32340D02*
X32360D01*
X32540D02*
X32560D01*
X32580D02*
X32620D01*
X32640D02*
X32660D01*
X33860D02*
X33880D01*
X33960D02*
X33980D01*
X34020D02*
X34300D01*
X34320D02*
X34340D01*
X34660D02*
X34680D01*
X34700D02*
X34980D01*
X35000D02*
X35020D01*
X35140D02*
X35160D01*
X35180D02*
X35480D01*
X35500D02*
X35520D01*
X35840D02*
X35900D01*
X35920D02*
X35940D01*
X36360D02*
X36380D01*
X36400D02*
X36940D01*
X36960D02*
X36980D01*
X37040D02*
X37060D01*
X37080D02*
X37620D01*
X37640D02*
X37660D01*
X37860D02*
X37880D01*
X37900D02*
X38140D01*
X38160D02*
X38180D01*
X38580D02*
X38600D01*
X38660D02*
X38720D01*
X40040D02*
X40060D01*
X40100D02*
X40140D01*
X40160D02*
X40180D01*
X40200D02*
X40220D01*
X40440D02*
X40460D01*
X40480D02*
X40500D01*
X40520D02*
X40540D01*
X32260Y45770D02*
X32280D01*
X32300D02*
X32320D01*
X32340D02*
X32360D01*
X32540D02*
X32560D01*
X32580D02*
X32620D01*
X32640D02*
X32660D01*
X33780D02*
X33820D01*
X33860D02*
X33880D01*
X33960D02*
X33980D01*
X34000D02*
X34080D01*
X34100D02*
X34300D01*
X34320D02*
X34340D01*
X34660D02*
X34680D01*
X34700D02*
X34980D01*
X35000D02*
X35020D01*
X35140D02*
X35160D01*
X35180D02*
X35480D01*
X35500D02*
X35520D01*
X35760D02*
X35860D01*
X35920D02*
X35940D01*
X36360D02*
X36380D01*
X36400D02*
X36920D01*
X36940D02*
X36960D01*
X37040D02*
X37060D01*
X37080D02*
X37620D01*
X37640D02*
X37660D01*
X37860D02*
X38140D01*
X38160D02*
X38180D01*
X38580D02*
X38600D01*
X39940D02*
X40020D01*
X40080D02*
X40160D01*
X40200D02*
X40220D01*
X40440D02*
X40460D01*
X40480D02*
X40540D01*
X32260Y45750D02*
X32280D01*
X32300D02*
X32320D01*
X32340D02*
X32360D01*
X32540D02*
X32560D01*
X32580D02*
X32620D01*
X32640D02*
X32660D01*
X33700D02*
X33780D01*
X33860D02*
X33880D01*
X33960D02*
X33980D01*
X34000D02*
X34300D01*
X34320D02*
X34340D01*
X34660D02*
X34680D01*
X34700D02*
X34980D01*
X35000D02*
X35020D01*
X35140D02*
X35160D01*
X35180D02*
X35480D01*
X35500D02*
X35520D01*
X35680D02*
X35740D01*
X35820D02*
X35840D01*
X35860D02*
X35900D01*
X35920D02*
X35940D01*
X36360D02*
X36380D01*
X36400D02*
X36920D01*
X36940D02*
X36960D01*
X37060D02*
X37080D01*
X37100D02*
X37620D01*
X37640D02*
X37660D01*
X37880D02*
X38120D01*
X38160D02*
X38180D01*
X39880D02*
X39940D01*
X40020D02*
X40140D01*
X40180D02*
X40200D01*
X40440D02*
X40520D01*
X32260Y45730D02*
X32280D01*
X32300D02*
X32320D01*
X32340D02*
X32360D01*
X32540D02*
X32560D01*
X32580D02*
X32620D01*
X32640D02*
X32660D01*
X33620D02*
X33700D01*
X33780D02*
X33840D01*
X33860D02*
X33880D01*
X33960D02*
X33980D01*
X34000D02*
X34300D01*
X34320D02*
X34340D01*
X34660D02*
X34680D01*
X34700D02*
X34980D01*
X35000D02*
X35020D01*
X35140D02*
X35160D01*
X35180D02*
X35480D01*
X35500D02*
X35520D01*
X35600D02*
X35620D01*
X35640D02*
X35680D01*
X35760D02*
X35900D01*
X35920D02*
X35940D01*
X36360D02*
X36380D01*
X36400D02*
X36880D01*
X36920D02*
X36940D01*
X37060D02*
X37080D01*
X37100D02*
X37120D01*
X37140D02*
X37620D01*
X37640D02*
X37660D01*
X37840D02*
X37860D01*
X37880D02*
X38000D01*
X38020D02*
X38120D01*
X38140D02*
X38160D01*
X39800D02*
X39820D01*
X39840D02*
X39860D01*
X39960D02*
X40120D01*
X40160D02*
X40180D01*
X40420D02*
X40440D01*
X40460D02*
X40480D01*
X32260Y45710D02*
X32280D01*
X32300D02*
X32320D01*
X32340D02*
X32360D01*
X32540D02*
X32560D01*
X32580D02*
X32620D01*
X32640D02*
X32660D01*
X33540D02*
X33640D01*
X33720D02*
X33840D01*
X33860D02*
X33880D01*
X33960D02*
X33980D01*
X34000D02*
X34300D01*
X34320D02*
X34340D01*
X34660D02*
X34680D01*
X34700D02*
X34980D01*
X35000D02*
X35020D01*
X35140D02*
X35160D01*
X35180D02*
X35600D01*
X35680D02*
X35900D01*
X35920D02*
X35940D01*
X36360D02*
X36380D01*
X36400D02*
X36900D01*
X36920D02*
X36940D01*
X37080D02*
X37100D01*
X37140D02*
X37620D01*
X37640D02*
X37660D01*
X37840D02*
X37860D01*
X37880D02*
X38120D01*
X38140D02*
X38160D01*
X39700D02*
X39800D01*
X39880D02*
X40040D01*
X40120D02*
X40140D01*
X40420D02*
X40440D01*
X40460D02*
X40480D01*
X40500D02*
X40520D01*
X32260Y45690D02*
X32280D01*
X32300D02*
X32320D01*
X32340D02*
X32360D01*
X32540D02*
X32560D01*
X32580D02*
X32620D01*
X32640D02*
X32660D01*
X33460D02*
X33520D01*
X33600D02*
X33740D01*
X33760D02*
X33840D01*
X33860D02*
X33880D01*
X33960D02*
X33980D01*
X34000D02*
X34300D01*
X34320D02*
X34340D01*
X34660D02*
X34680D01*
X34700D02*
X34980D01*
X35000D02*
X35020D01*
X35140D02*
X35160D01*
X35180D02*
X35440D01*
X35460D02*
X35520D01*
X35560D02*
X35780D01*
X35800D02*
X35900D01*
X35920D02*
X35940D01*
X36360D02*
X36380D01*
X36400D02*
X36900D01*
X37120D02*
X37620D01*
X37640D02*
X37660D01*
X37840D02*
X37860D01*
X37880D02*
X38020D01*
X38040D02*
X38120D01*
X38140D02*
X38160D01*
X39620D02*
X39700D01*
X39760D02*
X39980D01*
X40060D02*
X40100D01*
X40400D02*
X40420D01*
X40440D02*
X40460D01*
X32260Y45670D02*
X32280D01*
X32300D02*
X32320D01*
X32340D02*
X32360D01*
X32540D02*
X32560D01*
X32580D02*
X32620D01*
X32640D02*
X32660D01*
X33380D02*
X33440D01*
X33540D02*
X33840D01*
X33860D02*
X33880D01*
X33960D02*
X33980D01*
X34000D02*
X34300D01*
X34320D02*
X34340D01*
X34660D02*
X34680D01*
X34700D02*
X34720D01*
X34740D02*
X34980D01*
X35000D02*
X35020D01*
X35140D02*
X35160D01*
X35180D02*
X35900D01*
X35920D02*
X35940D01*
X36360D02*
X36380D01*
X36400D02*
X36900D01*
X37100D02*
X37120D01*
X37140D02*
X37620D01*
X37640D02*
X37660D01*
X37820D02*
X37840D01*
X37860D02*
X37880D01*
X37900D02*
X38080D01*
X38120D02*
X38140D01*
X39540D02*
X39620D01*
X39700D02*
X39800D01*
X39820D02*
X39920D01*
X40000D02*
X40040D01*
X40380D02*
X40400D01*
X40420D02*
X40460D01*
X40480D02*
X40500D01*
X32260Y45650D02*
X32280D01*
X32300D02*
X32320D01*
X32340D02*
X32360D01*
X32540D02*
X32560D01*
X32580D02*
X32620D01*
X32640D02*
X32660D01*
X33280D02*
X33380D01*
X33460D02*
X33840D01*
X33860D02*
X33880D01*
X33960D02*
X33980D01*
X34000D02*
X34300D01*
X34320D02*
X34340D01*
X34660D02*
X34680D01*
X34700D02*
X34980D01*
X35000D02*
X35020D01*
X35140D02*
X35160D01*
X35180D02*
X35680D01*
X35700D02*
X35820D01*
X35840D02*
X35900D01*
X35920D02*
X35940D01*
X36360D02*
X36380D01*
X36400D02*
X36880D01*
X36900D02*
X36920D01*
X37100D02*
X37120D01*
X37160D02*
X37620D01*
X37640D02*
X37660D01*
X37820D02*
X37840D01*
X37860D02*
X37960D01*
X38040D02*
X38100D01*
X38120D02*
X38140D01*
X39460D02*
X39560D01*
X39620D02*
X39800D01*
X39880D02*
X39980D01*
X40360D02*
X40440D01*
X40460D02*
X40480D01*
X32260Y45630D02*
X32280D01*
X32300D02*
X32320D01*
X32340D02*
X32360D01*
X32540D02*
X32560D01*
X32580D02*
X32620D01*
X32640D02*
X32660D01*
X33220D02*
X33280D01*
X33340D02*
X33840D01*
X33860D02*
X33880D01*
X33960D02*
X33980D01*
X34000D02*
X34300D01*
X34320D02*
X34340D01*
X34660D02*
X34680D01*
X34700D02*
X34980D01*
X35000D02*
X35020D01*
X35140D02*
X35160D01*
X35180D02*
X35900D01*
X35920D02*
X35940D01*
X36360D02*
X36380D01*
X36400D02*
X36880D01*
X36900D02*
X36920D01*
X37120D02*
X37140D01*
X37160D02*
X37620D01*
X37640D02*
X37660D01*
X37820D02*
X37840D01*
X37860D02*
X37900D01*
X37980D02*
X38060D01*
X39380D02*
X39440D01*
X39500D02*
X39740D01*
X39820D02*
X39880D01*
X40360D02*
X40380D01*
X40400D02*
X40440D01*
X40460D02*
X40480D01*
X32260Y45610D02*
X32280D01*
X32300D02*
X32320D01*
X32340D02*
X32360D01*
X32540D02*
X32560D01*
X32580D02*
X32620D01*
X32640D02*
X32660D01*
X33140D02*
X33200D01*
X33280D02*
X33840D01*
X33860D02*
X33880D01*
X33960D02*
X33980D01*
X34000D02*
X34300D01*
X34320D02*
X34340D01*
X34660D02*
X34680D01*
X34700D02*
X34980D01*
X35000D02*
X35020D01*
X35140D02*
X35160D01*
X35180D02*
X35860D01*
X35920D02*
X35940D01*
X36360D02*
X36380D01*
X36400D02*
X36860D01*
X36880D02*
X36900D01*
X37120D02*
X37520D01*
X37540D02*
X37620D01*
X37640D02*
X37660D01*
X37800D02*
X37820D01*
X37900D02*
X37980D01*
X39300D02*
X39360D01*
X39440D02*
X39580D01*
X39620D02*
X39680D01*
X39760D02*
X39820D01*
X40320D02*
X40340D01*
X40380D02*
X40420D01*
X40440D02*
X40460D01*
X32260Y45590D02*
X32280D01*
X32300D02*
X32320D01*
X32340D02*
X32360D01*
X32540D02*
X32560D01*
X32580D02*
X32620D01*
X32640D02*
X32660D01*
X33040D02*
X33060D01*
X33080D02*
X33140D01*
X33220D02*
X33240D01*
X33260D02*
X33840D01*
X33860D02*
X33880D01*
X33960D02*
X33980D01*
X34000D02*
X34300D01*
X34320D02*
X34340D01*
X34660D02*
X34680D01*
X34700D02*
X34980D01*
X35000D02*
X35020D01*
X35140D02*
X35160D01*
X35180D02*
X35640D01*
X35660D02*
X35740D01*
X35820D02*
X35840D01*
X35860D02*
X35880D01*
X35920D02*
X35940D01*
X36360D02*
X36380D01*
X36400D02*
X36860D01*
X36880D02*
X36900D01*
X37140D02*
X37160D01*
X37180D02*
X37200D01*
X37220D02*
X37620D01*
X37640D02*
X37660D01*
X37860D02*
X37900D01*
X39200D02*
X39300D01*
X39360D02*
X39560D01*
X39640D02*
X39740D01*
X40300D02*
X40320D01*
X40360D02*
X40400D01*
X40420D02*
X40440D01*
X32260Y45570D02*
X32280D01*
X32300D02*
X32320D01*
X32340D02*
X32360D01*
X32540D02*
X32560D01*
X32580D02*
X32620D01*
X32640D02*
X32660D01*
X32960D02*
X32980D01*
X33000D02*
X33020D01*
X33100D02*
X33840D01*
X33860D02*
X33880D01*
X33960D02*
X33980D01*
X34000D02*
X34300D01*
X34320D02*
X34340D01*
X34660D02*
X34680D01*
X34700D02*
X34980D01*
X35000D02*
X35020D01*
X35140D02*
X35160D01*
X35180D02*
X35480D01*
X35500D02*
X35680D01*
X35760D02*
X35820D01*
X36360D02*
X36380D01*
X36400D02*
X36840D01*
X36860D02*
X36880D01*
X37140D02*
X37160D01*
X37180D02*
X37380D01*
X37400D02*
X37620D01*
X37640D02*
X37660D01*
X37800D02*
X37820D01*
X39120D02*
X39140D01*
X39160D02*
X39180D01*
X39280D02*
X39500D01*
X39580D02*
X39640D01*
X40280D02*
X40300D01*
X40320D02*
X40380D01*
X40400D02*
X40420D01*
X32260Y45550D02*
X32280D01*
X32300D02*
X32320D01*
X32340D02*
X32360D01*
X32540D02*
X32560D01*
X32580D02*
X32620D01*
X32640D02*
X32660D01*
X32960D02*
X32980D01*
X33040D02*
X33140D01*
X33160D02*
X33840D01*
X33860D02*
X33880D01*
X33960D02*
X33980D01*
X34000D02*
X34300D01*
X34320D02*
X34340D01*
X34660D02*
X34980D01*
X35000D02*
X35020D01*
X35140D02*
X35160D01*
X35180D02*
X35600D01*
X35680D02*
X35700D01*
X35720D02*
X35740D01*
X36360D02*
X36380D01*
X36400D02*
X36840D01*
X36860D02*
X36880D01*
X37160D02*
X37180D01*
X37200D02*
X37620D01*
X37640D02*
X37660D01*
X39200D02*
X39360D01*
X39380D02*
X39440D01*
X39500D02*
X39580D01*
X40240D02*
X40260D01*
X40300D02*
X40360D01*
X40380D02*
X40400D01*
X32260Y45530D02*
X32280D01*
X32300D02*
X32320D01*
X32340D02*
X32360D01*
X32540D02*
X32560D01*
X32580D02*
X32620D01*
X32640D02*
X32660D01*
X32960D02*
X32980D01*
X33000D02*
X33840D01*
X33860D02*
X33880D01*
X33960D02*
X33980D01*
X34000D02*
X34300D01*
X34320D02*
X34340D01*
X34580D02*
X34980D01*
X35000D02*
X35020D01*
X35140D02*
X35160D01*
X35180D02*
X35460D01*
X35480D02*
X35520D01*
X35580D02*
X35680D01*
X36400D02*
X36840D01*
X36860D02*
X36880D01*
X37180D02*
X37200D01*
X37220D02*
X37520D01*
X37600D02*
X37620D01*
X39120D02*
X39340D01*
X39420D02*
X39500D01*
X40200D02*
X40240D01*
X40280D02*
X40320D01*
X40360D02*
X40380D01*
X32260Y45510D02*
X32280D01*
X32300D02*
X32320D01*
X32340D02*
X32360D01*
X32540D02*
X32560D01*
X32580D02*
X32620D01*
X32640D02*
X32660D01*
X32960D02*
X32980D01*
X33000D02*
X33840D01*
X33860D02*
X33880D01*
X33960D02*
X33980D01*
X34000D02*
X34300D01*
X34320D02*
X34340D01*
X34480D02*
X34560D01*
X34640D02*
X34720D01*
X34740D02*
X34980D01*
X35000D02*
X35020D01*
X35140D02*
X35160D01*
X35180D02*
X35580D01*
X36360D02*
X36380D01*
X36400D02*
X36860D01*
X37180D02*
X37200D01*
X37220D02*
X37440D01*
X37520D02*
X37600D01*
X38860D02*
X38920D01*
X38940D02*
X38960D01*
X39120D02*
X39280D01*
X39340D02*
X39400D01*
X40120D02*
X40180D01*
X40220D02*
X40280D01*
X40340D02*
X40360D01*
X32260Y45490D02*
X32280D01*
X32300D02*
X32320D01*
X32340D02*
X32360D01*
X32540D02*
X32560D01*
X32580D02*
X32620D01*
X32640D02*
X32660D01*
X33000D02*
X33840D01*
X33860D02*
X33880D01*
X33960D02*
X33980D01*
X34000D02*
X34340D01*
X34400D02*
X34480D01*
X34580D02*
X34980D01*
X35000D02*
X35020D01*
X35140D02*
X35160D01*
X35180D02*
X35460D01*
X35500D02*
X35520D01*
X36360D02*
X36380D01*
X36400D02*
X36800D01*
X36840D02*
X36860D01*
X37220D02*
X37340D01*
X37460D02*
X37500D01*
X38800D02*
X38820D01*
X38960D02*
X38980D01*
X39120D02*
X39260D01*
X40040D02*
X40100D01*
X40180D02*
X40240D01*
X40300D02*
X40320D01*
X32260Y45470D02*
X32280D01*
X32300D02*
X32320D01*
X32340D02*
X32360D01*
X32540D02*
X32560D01*
X32580D02*
X32620D01*
X32640D02*
X32660D01*
X32960D02*
X32980D01*
X33000D02*
X33780D01*
X33860D02*
X33880D01*
X33960D02*
X33980D01*
X34000D02*
X34300D01*
X34320D02*
X34400D01*
X34500D02*
X34980D01*
X35000D02*
X35020D01*
X35140D02*
X35160D01*
X35180D02*
X35480D01*
X35500D02*
X35520D01*
X36360D02*
X36820D01*
X36840D02*
X36860D01*
X37200D02*
X37220D01*
X37240D02*
X37260D01*
X37340D02*
X37440D01*
X38720D02*
X38740D01*
X38800D02*
X38820D01*
X38880D02*
X38960D01*
X39120D02*
X39280D01*
X39940D02*
X40040D01*
X40120D02*
X40160D01*
X40220D02*
X40280D01*
X32260Y45450D02*
X32280D01*
X32300D02*
X32320D01*
X32340D02*
X32360D01*
X32540D02*
X32560D01*
X32580D02*
X32620D01*
X32640D02*
X32660D01*
X32960D02*
X32980D01*
X33000D02*
X33560D01*
X33580D02*
X33700D01*
X33800D02*
X33840D01*
X33860D02*
X33880D01*
X33960D02*
X33980D01*
X34000D02*
X34460D01*
X34480D02*
X34980D01*
X35000D02*
X35020D01*
X35140D02*
X35160D01*
X35180D02*
X35480D01*
X35500D02*
X35520D01*
X36360D02*
X36800D01*
X36820D02*
X36840D01*
X37260D02*
X37340D01*
X38620D02*
X38680D01*
X38720D02*
X38740D01*
X38800D02*
X38820D01*
X38840D02*
X38860D01*
X38880D02*
X38960D01*
X38980D02*
X39000D01*
X39120D02*
X39220D01*
X39240D02*
X39260D01*
X39880D02*
X39940D01*
X40020D02*
X40100D01*
X40160D02*
X40220D01*
X32260Y45430D02*
X32280D01*
X32300D02*
X32320D01*
X32340D02*
X32360D01*
X32540D02*
X32560D01*
X32580D02*
X32620D01*
X32640D02*
X32660D01*
X32960D02*
X32980D01*
X33000D02*
X33620D01*
X33720D02*
X33740D01*
X33960D02*
X33980D01*
X34000D02*
X34980D01*
X35000D02*
X35020D01*
X35140D02*
X35160D01*
X35180D02*
X35480D01*
X35500D02*
X35520D01*
X36360D02*
X36740D01*
X36760D02*
X36780D01*
X36820D02*
X36840D01*
X37220D02*
X37240D01*
X38540D02*
X38620D01*
X38720D02*
X38740D01*
X38800D02*
X38820D01*
X38860D02*
X38940D01*
X38960D02*
X38980D01*
X39000D02*
X39020D01*
X39120D02*
X39220D01*
X39240D02*
X39260D01*
X39800D02*
X39860D01*
X39940D02*
X40020D01*
X40100D02*
X40160D01*
X32260Y45410D02*
X32280D01*
X32300D02*
X32320D01*
X32340D02*
X32360D01*
X32540D02*
X32560D01*
X32580D02*
X32620D01*
X32640D02*
X32660D01*
X32960D02*
X32980D01*
X33000D02*
X33700D01*
X33960D02*
X33980D01*
X34000D02*
X34980D01*
X35000D02*
X35020D01*
X35140D02*
X35160D01*
X35180D02*
X35480D01*
X35500D02*
X35520D01*
X35920D02*
X35940D01*
X36360D02*
X36780D01*
X38460D02*
X38480D01*
X38500D02*
X38540D01*
X38620D02*
X38700D01*
X38720D02*
X38740D01*
X38800D02*
X38820D01*
X38840D02*
X38880D01*
X38900D02*
X39000D01*
X39020D02*
X39040D01*
X39120D02*
X39220D01*
X39240D02*
X39260D01*
X39700D02*
X39800D01*
X39880D02*
X39920D01*
X40000D02*
X40040D01*
X40060D02*
X40100D01*
X32260Y45390D02*
X32280D01*
X32300D02*
X32320D01*
X32340D02*
X32360D01*
X32540D02*
X32560D01*
X32580D02*
X32620D01*
X32640D02*
X32660D01*
X32960D02*
X32980D01*
X33000D02*
X33640D01*
X33960D02*
X33980D01*
X34000D02*
X34980D01*
X35000D02*
X35020D01*
X35140D02*
X35160D01*
X35180D02*
X35480D01*
X35500D02*
X35520D01*
X35860D02*
X35880D01*
X35920D02*
X35940D01*
X36360D02*
X36780D01*
X36800D02*
X36820D01*
X38360D02*
X38400D01*
X38520D02*
X38560D01*
X38580D02*
X38640D01*
X38720D02*
X38740D01*
X38800D02*
X38820D01*
X38840D02*
X38940D01*
X38960D02*
X39020D01*
X39040D02*
X39060D01*
X39120D02*
X39180D01*
X39200D02*
X39220D01*
X39240D02*
X39260D01*
X39640D02*
X39700D01*
X39780D02*
X39860D01*
X39920D02*
X39940D01*
X39960D02*
X40000D01*
X32260Y45370D02*
X32280D01*
X32300D02*
X32320D01*
X32340D02*
X32360D01*
X32540D02*
X32560D01*
X32580D02*
X32620D01*
X32640D02*
X32660D01*
X32960D02*
X32980D01*
X33000D02*
X33580D01*
X33600D02*
X33620D01*
X33960D02*
X33980D01*
X34000D02*
X34980D01*
X35000D02*
X35020D01*
X35140D02*
X35160D01*
X35180D02*
X35480D01*
X35500D02*
X35520D01*
X35740D02*
X35760D01*
X35780D02*
X35820D01*
X36360D02*
X36760D01*
X36800D02*
X36820D01*
X38280D02*
X38300D01*
X38320D02*
X38360D01*
X38380D02*
X38400D01*
X38460D02*
X38480D01*
X38500D02*
X38600D01*
X38640D02*
X38700D01*
X38800D02*
X38820D01*
X38840D02*
X38940D01*
X38980D02*
X39020D01*
X39120D02*
X39220D01*
X39240D02*
X39260D01*
X39560D02*
X39600D01*
X39620D02*
X39640D01*
X39700D02*
X39780D01*
X39860D02*
X39920D01*
X32260Y45350D02*
X32280D01*
X32300D02*
X32320D01*
X32340D02*
X32360D01*
X32540D02*
X32560D01*
X32580D02*
X32620D01*
X32640D02*
X32660D01*
X32960D02*
X32980D01*
X33000D02*
X33580D01*
X33600D02*
X33620D01*
X33960D02*
X33980D01*
X34000D02*
X34980D01*
X35000D02*
X35020D01*
X35140D02*
X35160D01*
X35180D02*
X35480D01*
X35500D02*
X35520D01*
X35640D02*
X35740D01*
X35820D02*
X35900D01*
X35920D02*
X35940D01*
X36360D02*
X36800D01*
X38280D02*
X38300D01*
X38360D02*
X38380D01*
X38460D02*
X38480D01*
X38500D02*
X38600D01*
X38620D02*
X38640D01*
X38800D02*
X38820D01*
X38840D02*
X38920D01*
X38960D02*
X38980D01*
X39000D02*
X39040D01*
X39060D02*
X39080D01*
X39120D02*
X39220D01*
X39240D02*
X39260D01*
X39460D02*
X39560D01*
X39640D02*
X39680D01*
X39740D02*
X39860D01*
X32260Y45330D02*
X32280D01*
X32300D02*
X32320D01*
X32340D02*
X32360D01*
X32540D02*
X32560D01*
X32580D02*
X32620D01*
X32640D02*
X32660D01*
X32960D02*
X32980D01*
X33000D02*
X33580D01*
X33600D02*
X33620D01*
X33960D02*
X33980D01*
X34000D02*
X34980D01*
X35000D02*
X35020D01*
X35140D02*
X35160D01*
X35180D02*
X35480D01*
X35500D02*
X35520D01*
X35580D02*
X35640D01*
X35720D02*
X35840D01*
X35860D02*
X35900D01*
X35920D02*
X35940D01*
X36360D02*
X36720D01*
X36780D02*
X36800D01*
X38120D02*
X38140D01*
X38160D02*
X38180D01*
X38260D02*
X38340D01*
X38360D02*
X38380D01*
X38460D02*
X38480D01*
X38500D02*
X38560D01*
X38580D02*
X38600D01*
X38800D02*
X38820D01*
X38840D02*
X38880D01*
X38900D02*
X38940D01*
X38980D02*
X39000D01*
X39020D02*
X39220D01*
X39240D02*
X39260D01*
X39400D02*
X39460D01*
X39540D02*
X39620D01*
X39700D02*
X39760D01*
X32260Y45310D02*
X32280D01*
X32300D02*
X32320D01*
X32340D02*
X32360D01*
X32540D02*
X32560D01*
X32580D02*
X32620D01*
X32640D02*
X32660D01*
X32960D02*
X32980D01*
X33000D02*
X33140D01*
X33220D02*
X33580D01*
X33600D02*
X33620D01*
X33960D02*
X33980D01*
X34000D02*
X34320D01*
X34340D02*
X34600D01*
X34620D02*
X34700D01*
X34720D02*
X34980D01*
X35000D02*
X35020D01*
X35140D02*
X35160D01*
X35180D02*
X35560D01*
X35660D02*
X35900D01*
X35920D02*
X35940D01*
X36360D02*
X36640D01*
X36720D02*
X36760D01*
X36780D02*
X36800D01*
X38080D02*
X38100D01*
X38160D02*
X38180D01*
X38260D02*
X38280D01*
X38300D02*
X38360D01*
X38460D02*
X38480D01*
X38500D02*
X38560D01*
X38580D02*
X38600D01*
X38720D02*
X38740D01*
X38800D02*
X38820D01*
X38840D02*
X38880D01*
X38920D02*
X38940D01*
X38980D02*
X39000D01*
X39020D02*
X39080D01*
X39100D02*
X39180D01*
X39200D02*
X39220D01*
X39240D02*
X39260D01*
X39360D02*
X39380D01*
X39460D02*
X39500D01*
X39520D02*
X39560D01*
X39620D02*
X39680D01*
X32260Y45290D02*
X32280D01*
X32300D02*
X32320D01*
X32340D02*
X32360D01*
X32540D02*
X32560D01*
X32580D02*
X32620D01*
X32640D02*
X32660D01*
X32960D02*
X32980D01*
X33020D02*
X33040D01*
X33100D02*
X33260D01*
X33280D02*
X33580D01*
X33600D02*
X33620D01*
X33960D02*
X33980D01*
X34000D02*
X34500D01*
X34520D02*
X34980D01*
X35000D02*
X35020D01*
X35140D02*
X35160D01*
X35180D02*
X35500D01*
X35580D02*
X35900D01*
X35920D02*
X35940D01*
X36360D02*
X36520D01*
X36600D02*
X36680D01*
X36700D02*
X36720D01*
X38080D02*
X38100D01*
X38120D02*
X38140D01*
X38160D02*
X38180D01*
X38240D02*
X38260D01*
X38300D02*
X38320D01*
X38340D02*
X38360D01*
X38460D02*
X38480D01*
X38500D02*
X38560D01*
X38580D02*
X38600D01*
X38660D02*
X38700D01*
X38720D02*
X38740D01*
X38800D02*
X38820D01*
X38840D02*
X38880D01*
X38920D02*
X38940D01*
X39000D02*
X39020D01*
X39040D02*
X39180D01*
X39200D02*
X39220D01*
X39240D02*
X39260D01*
X39360D02*
X39380D01*
X39400D02*
X39440D01*
X39540D02*
X39580D01*
X39600D02*
X39620D01*
X32260Y45270D02*
X32280D01*
X32300D02*
X32320D01*
X32340D02*
X32360D01*
X32540D02*
X32560D01*
X32580D02*
X32620D01*
X32640D02*
X32660D01*
X32960D02*
X32980D01*
X33040D02*
X33080D01*
X33100D02*
X33120D01*
X33220D02*
X33240D01*
X33260D02*
X33580D01*
X33600D02*
X33620D01*
X33960D02*
X33980D01*
X34000D02*
X34340D01*
X34360D02*
X34460D01*
X34480D02*
X34980D01*
X35000D02*
X35020D01*
X35140D02*
X35160D01*
X35180D02*
X35900D01*
X35920D02*
X35940D01*
X36360D02*
X36440D01*
X36520D02*
X36620D01*
X38080D02*
X38100D01*
X38120D02*
X38140D01*
X38160D02*
X38180D01*
X38240D02*
X38260D01*
X38280D02*
X38320D01*
X38340D02*
X38360D01*
X38460D02*
X38480D01*
X38500D02*
X38640D01*
X38720D02*
X38740D01*
X38800D02*
X38820D01*
X38840D02*
X38880D01*
X38920D02*
X38940D01*
X39020D02*
X39040D01*
X39060D02*
X39220D01*
X39240D02*
X39260D01*
X39360D02*
X39380D01*
X39460D02*
X39520D01*
X32260Y45250D02*
X32280D01*
X32300D02*
X32320D01*
X32340D02*
X32360D01*
X32540D02*
X32560D01*
X32580D02*
X32620D01*
X32640D02*
X32660D01*
X32960D02*
X32980D01*
X33000D02*
X33040D01*
X33220D02*
X33240D01*
X33260D02*
X33580D01*
X33600D02*
X33620D01*
X33960D02*
X33980D01*
X34000D02*
X34600D01*
X34620D02*
X34980D01*
X35000D02*
X35020D01*
X35140D02*
X35160D01*
X35180D02*
X35900D01*
X35920D02*
X35940D01*
X36360D02*
X36380D01*
X36460D02*
X36520D01*
X38080D02*
X38100D01*
X38120D02*
X38140D01*
X38160D02*
X38180D01*
X38220D02*
X38240D01*
X38260D02*
X38300D01*
X38320D02*
X38340D01*
X38460D02*
X38480D01*
X38500D02*
X38580D01*
X38680D02*
X38700D01*
X38720D02*
X38740D01*
X38800D02*
X38820D01*
X38840D02*
X38880D01*
X38920D02*
X38940D01*
X39040D02*
X39060D01*
X39080D02*
X39220D01*
X39240D02*
X39260D01*
X39360D02*
X39380D01*
X39400D02*
X39460D01*
X32260Y45230D02*
X32280D01*
X32300D02*
X32320D01*
X32340D02*
X32360D01*
X32540D02*
X32560D01*
X32580D02*
X32620D01*
X32640D02*
X32660D01*
X32960D02*
X32980D01*
X33220D02*
X33240D01*
X33260D02*
X33580D01*
X33600D02*
X33620D01*
X33960D02*
X33980D01*
X34000D02*
X34400D01*
X34420D02*
X34500D01*
X34580D02*
X34980D01*
X35000D02*
X35020D01*
X35140D02*
X35160D01*
X35180D02*
X35560D01*
X35580D02*
X35900D01*
X35920D02*
X35940D01*
X36360D02*
X36440D01*
X37700D02*
X37720D01*
X37740D02*
X37800D01*
X37820D02*
X37880D01*
X37900D02*
X37920D01*
X38080D02*
X38100D01*
X38120D02*
X38140D01*
X38160D02*
X38180D01*
X38260D02*
X38280D01*
X38320D02*
X38340D01*
X38460D02*
X38480D01*
X38500D02*
X38520D01*
X38540D02*
X38680D01*
X38800D02*
X38820D01*
X38840D02*
X38880D01*
X38920D02*
X38940D01*
X39040D02*
X39060D01*
X39080D02*
X39100D01*
X39120D02*
X39220D01*
X39240D02*
X39260D01*
X39360D02*
X39400D01*
X32260Y45210D02*
X32280D01*
X32300D02*
X32320D01*
X32340D02*
X32360D01*
X32540D02*
X32560D01*
X32580D02*
X32620D01*
X32640D02*
X32660D01*
X33220D02*
X33240D01*
X33260D02*
X33320D01*
X33340D02*
X33580D01*
X33600D02*
X33620D01*
X33960D02*
X33980D01*
X34000D02*
X34340D01*
X34360D02*
X34420D01*
X34500D02*
X34580D01*
X34660D02*
X34980D01*
X35000D02*
X35020D01*
X35140D02*
X35160D01*
X35180D02*
X35580D01*
X35600D02*
X35900D01*
X35920D02*
X35940D01*
X37660D02*
X37700D01*
X37940D02*
X37960D01*
X38120D02*
X38180D01*
X38220D02*
X38280D01*
X38300D02*
X38320D01*
X38460D02*
X38480D01*
X38500D02*
X38600D01*
X38800D02*
X38820D01*
X38840D02*
X38880D01*
X38920D02*
X38940D01*
X39060D02*
X39080D01*
X39100D02*
X39160D01*
X39240D02*
X39260D01*
X32260Y45190D02*
X32280D01*
X32300D02*
X32320D01*
X32340D02*
X32360D01*
X32540D02*
X32560D01*
X32580D02*
X32620D01*
X32640D02*
X32660D01*
X33220D02*
X33240D01*
X33260D02*
X33580D01*
X33600D02*
X33620D01*
X33960D02*
X33980D01*
X34000D02*
X34360D01*
X34440D02*
X34460D01*
X34480D02*
X34500D01*
X34640D02*
X34680D01*
X34700D02*
X34980D01*
X35000D02*
X35020D01*
X35140D02*
X35160D01*
X35180D02*
X35900D01*
X35920D02*
X35940D01*
X37640D02*
X37660D01*
X37700D02*
X37800D01*
X37840D02*
X37920D01*
X37960D02*
X37980D01*
X38080D02*
X38100D01*
X38120D02*
X38200D01*
X38220D02*
X38320D01*
X38460D02*
X38480D01*
X38500D02*
X38560D01*
X38580D02*
X38600D01*
X38800D02*
X38820D01*
X38840D02*
X38880D01*
X38920D02*
X38940D01*
X39080D02*
X39100D01*
X39180D02*
X39200D01*
X39240D02*
X39260D01*
X32260Y45170D02*
X32280D01*
X32300D02*
X32320D01*
X32340D02*
X32360D01*
X32540D02*
X32560D01*
X32580D02*
X32620D01*
X32640D02*
X32660D01*
X33220D02*
X33240D01*
X33260D02*
X33580D01*
X33600D02*
X33620D01*
X33960D02*
X33980D01*
X34000D02*
X34420D01*
X34640D02*
X34680D01*
X34720D02*
X34980D01*
X35000D02*
X35020D01*
X35140D02*
X35160D01*
X35180D02*
X35900D01*
X35920D02*
X35940D01*
X37620D02*
X37640D01*
X37660D02*
X37740D01*
X37780D02*
X37820D01*
X37880D02*
X37900D01*
X37920D02*
X37940D01*
X37980D02*
X38000D01*
X38080D02*
X38100D01*
X38120D02*
X38140D01*
X38160D02*
X38260D01*
X38460D02*
X38480D01*
X38500D02*
X38540D01*
X38580D02*
X38600D01*
X38800D02*
X38820D01*
X38840D02*
X38880D01*
X38920D02*
X38940D01*
X39080D02*
X39120D01*
X39140D02*
X39160D01*
X32260Y45150D02*
X32280D01*
X32300D02*
X32320D01*
X32340D02*
X32360D01*
X32540D02*
X32560D01*
X32580D02*
X32620D01*
X32640D02*
X32660D01*
X33220D02*
X33240D01*
X33260D02*
X33580D01*
X33600D02*
X33620D01*
X33960D02*
X33980D01*
X34000D02*
X34340D01*
X34640D02*
X34680D01*
X34700D02*
X34980D01*
X35000D02*
X35020D01*
X35140D02*
X35160D01*
X35180D02*
X35680D01*
X35700D02*
X35900D01*
X35920D02*
X35940D01*
X37400D02*
X37440D01*
X37600D02*
X37620D01*
X37640D02*
X37720D01*
X37760D02*
X37780D01*
X37800D02*
X37840D01*
X37880D02*
X37940D01*
X37960D02*
X38000D01*
X38080D02*
X38100D01*
X38120D02*
X38260D01*
X38280D02*
X38300D01*
X38460D02*
X38480D01*
X38500D02*
X38560D01*
X38580D02*
X38600D01*
X38680D02*
X38700D01*
X38720D02*
X38740D01*
X38800D02*
X38820D01*
X38840D02*
X38880D01*
X38920D02*
X38940D01*
X32260Y45130D02*
X32280D01*
X32300D02*
X32320D01*
X32340D02*
X32360D01*
X32540D02*
X32560D01*
X32580D02*
X32620D01*
X32640D02*
X32660D01*
X33220D02*
X33240D01*
X33260D02*
X33580D01*
X33600D02*
X33620D01*
X33960D02*
X33980D01*
X34000D02*
X34300D01*
X34320D02*
X34340D01*
X34640D02*
X34680D01*
X34700D02*
X34980D01*
X35000D02*
X35020D01*
X35140D02*
X35160D01*
X35180D02*
X35420D01*
X35440D02*
X35860D01*
X35920D02*
X35940D01*
X37300D02*
X37380D01*
X37480D02*
X37500D01*
X37580D02*
X37600D01*
X37620D02*
X37680D01*
X37720D02*
X37740D01*
X37860D02*
X37880D01*
X37900D02*
X37980D01*
X38000D02*
X38020D01*
X38080D02*
X38100D01*
X38120D02*
X38260D01*
X38280D02*
X38300D01*
X38460D02*
X38480D01*
X38500D02*
X38680D01*
X38720D02*
X38740D01*
X38800D02*
X38820D01*
X38840D02*
X38860D01*
X38920D02*
X38940D01*
X32260Y45110D02*
X32280D01*
X32300D02*
X32320D01*
X32340D02*
X32360D01*
X32540D02*
X32560D01*
X32580D02*
X32620D01*
X32640D02*
X32660D01*
X33220D02*
X33240D01*
X33260D02*
X33580D01*
X33600D02*
X33620D01*
X33960D02*
X33980D01*
X34000D02*
X34300D01*
X34320D02*
X34340D01*
X34640D02*
X34680D01*
X34700D02*
X34980D01*
X35000D02*
X35020D01*
X35140D02*
X35160D01*
X35180D02*
X35720D01*
X35800D02*
X35900D01*
X37220D02*
X37320D01*
X37400D02*
X37440D01*
X37500D02*
X37520D01*
X37580D02*
X37600D01*
X37620D02*
X37680D01*
X37700D02*
X37720D01*
X37880D02*
X37900D01*
X37920D02*
X37980D01*
X38000D02*
X38020D01*
X38080D02*
X38100D01*
X38120D02*
X38320D01*
X38460D02*
X38480D01*
X38500D02*
X38580D01*
X38680D02*
X38700D01*
X38720D02*
X38740D01*
X38800D02*
X38820D01*
X38840D02*
X38880D01*
X38900D02*
X38920D01*
X32260Y45090D02*
X32280D01*
X32300D02*
X32320D01*
X32340D02*
X32360D01*
X32540D02*
X32560D01*
X32580D02*
X32620D01*
X32640D02*
X32660D01*
X33220D02*
X33240D01*
X33260D02*
X33580D01*
X33600D02*
X33620D01*
X33960D02*
X33980D01*
X34000D02*
X34300D01*
X34320D02*
X34340D01*
X34640D02*
X34680D01*
X34700D02*
X34980D01*
X35000D02*
X35020D01*
X35140D02*
X35160D01*
X35180D02*
X35660D01*
X35740D02*
X35820D01*
X37280D02*
X37380D01*
X37400D02*
X37520D01*
X37580D02*
X37600D01*
X37620D02*
X37720D01*
X37880D02*
X37900D01*
X37940D02*
X37960D01*
X38000D02*
X38020D01*
X38080D02*
X38100D01*
X38120D02*
X38200D01*
X38220D02*
X38280D01*
X38400D02*
X38420D01*
X38460D02*
X38480D01*
X38500D02*
X38660D01*
X38720D02*
X38740D01*
X38800D02*
X38820D01*
X32260Y45070D02*
X32280D01*
X32300D02*
X32320D01*
X32340D02*
X32360D01*
X32540D02*
X32560D01*
X32580D02*
X32620D01*
X32640D02*
X32660D01*
X33220D02*
X33240D01*
X33260D02*
X33580D01*
X33600D02*
X33620D01*
X33960D02*
X33980D01*
X34000D02*
X34300D01*
X34320D02*
X34340D01*
X34640D02*
X34680D01*
X34700D02*
X34980D01*
X35000D02*
X35020D01*
X35140D02*
X35160D01*
X35180D02*
X35600D01*
X35660D02*
X35740D01*
X37060D02*
X37080D01*
X37140D02*
X37160D01*
X37220D02*
X37320D01*
X37400D02*
X37520D01*
X37580D02*
X37600D01*
X37620D02*
X37660D01*
X37680D02*
X37700D01*
X37900D02*
X37920D01*
X37940D02*
X37980D01*
X38000D02*
X38020D01*
X38080D02*
X38100D01*
X38120D02*
X38200D01*
X38220D02*
X38280D01*
X38340D02*
X38420D01*
X38460D02*
X38480D01*
X38520D02*
X38580D01*
X38660D02*
X38700D01*
X38720D02*
X38740D01*
X32260Y45050D02*
X32280D01*
X32300D02*
X32320D01*
X32340D02*
X32360D01*
X32540D02*
X32560D01*
X32580D02*
X32620D01*
X32640D02*
X32660D01*
X33220D02*
X33240D01*
X33260D02*
X33580D01*
X33600D02*
X33620D01*
X33960D02*
X33980D01*
X34000D02*
X34300D01*
X34320D02*
X34340D01*
X34640D02*
X34680D01*
X34700D02*
X34980D01*
X35000D02*
X35020D01*
X35140D02*
X35160D01*
X35180D02*
X35480D01*
X35560D02*
X35660D01*
X36960D02*
X37040D01*
X37060D02*
X37080D01*
X37140D02*
X37160D01*
X37180D02*
X37540D01*
X37580D02*
X37600D01*
X37620D02*
X37660D01*
X37680D02*
X37700D01*
X37900D02*
X37920D01*
X37940D02*
X37980D01*
X38000D02*
X38020D01*
X38080D02*
X38100D01*
X38120D02*
X38180D01*
X38200D02*
X38220D01*
X38260D02*
X38320D01*
X38400D02*
X38420D01*
X38460D02*
X38480D01*
X38560D02*
X38620D01*
X38640D02*
X38660D01*
X32260Y45030D02*
X32280D01*
X32300D02*
X32320D01*
X32340D02*
X32360D01*
X32540D02*
X32560D01*
X32580D02*
X32620D01*
X32640D02*
X32660D01*
X33220D02*
X33240D01*
X33260D02*
X33580D01*
X33600D02*
X33620D01*
X33960D02*
X33980D01*
X34000D02*
X34300D01*
X34320D02*
X34340D01*
X34640D02*
X34680D01*
X34700D02*
X34980D01*
X35000D02*
X35020D01*
X35140D02*
X35160D01*
X35180D02*
X35420D01*
X35500D02*
X35560D01*
X36900D02*
X36960D01*
X37060D02*
X37080D01*
X37140D02*
X37160D01*
X37180D02*
X37280D01*
X37440D02*
X37540D01*
X37580D02*
X37600D01*
X37620D02*
X37660D01*
X37680D02*
X37700D01*
X37900D02*
X37920D01*
X37960D02*
X37980D01*
X38000D02*
X38020D01*
X38080D02*
X38100D01*
X38120D02*
X38140D01*
X38160D02*
X38180D01*
X38220D02*
X38240D01*
X38280D02*
X38340D01*
X38360D02*
X38380D01*
X38400D02*
X38420D01*
X38460D02*
X38480D01*
X38500D02*
X38560D01*
X32260Y45010D02*
X32280D01*
X32300D02*
X32320D01*
X32340D02*
X32360D01*
X32540D02*
X32560D01*
X32580D02*
X32620D01*
X32640D02*
X32660D01*
X33220D02*
X33240D01*
X33260D02*
X33580D01*
X33600D02*
X33620D01*
X33960D02*
X33980D01*
X34000D02*
X34300D01*
X34320D02*
X34340D01*
X34640D02*
X34680D01*
X34700D02*
X34980D01*
X35000D02*
X35020D01*
X35140D02*
X35160D01*
X35180D02*
X35340D01*
X35420D02*
X35480D01*
X36840D02*
X36900D01*
X36960D02*
X37040D01*
X37060D02*
X37080D01*
X37140D02*
X37160D01*
X37180D02*
X37240D01*
X37260D02*
X37280D01*
X37420D02*
X37440D01*
X37460D02*
X37500D01*
X37580D02*
X37600D01*
X37620D02*
X37700D01*
X37900D02*
X37920D01*
X37940D02*
X37980D01*
X38000D02*
X38020D01*
X38080D02*
X38100D01*
X38120D02*
X38140D01*
X38160D02*
X38180D01*
X38260D02*
X38280D01*
X38400D02*
X38420D01*
X38460D02*
X38480D01*
X32260Y44990D02*
X32280D01*
X32300D02*
X32320D01*
X32340D02*
X32360D01*
X32540D02*
X32560D01*
X32580D02*
X32620D01*
X32640D02*
X32660D01*
X33220D02*
X33240D01*
X33260D02*
X33580D01*
X33600D02*
X33620D01*
X33960D02*
X33980D01*
X34000D02*
X34300D01*
X34320D02*
X34340D01*
X34640D02*
X34680D01*
X34700D02*
X34980D01*
X35000D02*
X35020D01*
X35140D02*
X35240D01*
X35320D02*
X35380D01*
X36800D02*
X36820D01*
X36900D02*
X37000D01*
X37060D02*
X37080D01*
X37140D02*
X37160D01*
X37180D02*
X37220D01*
X37260D02*
X37280D01*
X37400D02*
X37500D01*
X37520D02*
X37540D01*
X37580D02*
X37600D01*
X37620D02*
X37680D01*
X37700D02*
X37720D01*
X37900D02*
X37920D01*
X37940D02*
X37960D01*
X38000D02*
X38020D01*
X38080D02*
X38100D01*
X38120D02*
X38140D01*
X38160D02*
X38180D01*
X38280D02*
X38300D01*
X38320D02*
X38380D01*
X32260Y44970D02*
X32280D01*
X32300D02*
X32320D01*
X32340D02*
X32360D01*
X32540D02*
X32560D01*
X32580D02*
X32620D01*
X32640D02*
X32660D01*
X33220D02*
X33240D01*
X33260D02*
X33580D01*
X33600D02*
X33620D01*
X33960D02*
X33980D01*
X34000D02*
X34300D01*
X34320D02*
X34340D01*
X34640D02*
X34680D01*
X34700D02*
X34980D01*
X35000D02*
X35020D01*
X35140D02*
X35160D01*
X35240D02*
X35320D01*
X36780D02*
X36800D01*
X36840D02*
X36920D01*
X36940D02*
X36960D01*
X37000D02*
X37040D01*
X37060D02*
X37080D01*
X37140D02*
X37160D01*
X37180D02*
X37200D01*
X37220D02*
X37240D01*
X37260D02*
X37280D01*
X37380D02*
X37500D01*
X37520D02*
X37540D01*
X37580D02*
X37600D01*
X37620D02*
X37680D01*
X37700D02*
X37720D01*
X37880D02*
X37900D01*
X37920D02*
X37980D01*
X38000D02*
X38020D01*
X38080D02*
X38100D01*
X32260Y44950D02*
X32280D01*
X32300D02*
X32320D01*
X32340D02*
X32360D01*
X32540D02*
X32560D01*
X32580D02*
X32620D01*
X32640D02*
X32660D01*
X33220D02*
X33240D01*
X33260D02*
X33580D01*
X33600D02*
X33620D01*
X33960D02*
X33980D01*
X34000D02*
X34300D01*
X34320D02*
X34340D01*
X34640D02*
X34680D01*
X34700D02*
X34980D01*
X35000D02*
X35020D01*
X35140D02*
X35160D01*
X35180D02*
X35240D01*
X36700D02*
X36720D01*
X36780D02*
X36800D01*
X36820D02*
X36960D01*
X36980D02*
X37000D01*
X37140D02*
X37160D01*
X37180D02*
X37380D01*
X37400D02*
X37480D01*
X37500D02*
X37520D01*
X37600D02*
X37620D01*
X37640D02*
X37680D01*
X37860D02*
X37880D01*
X37900D02*
X37980D01*
X38000D02*
X38020D01*
X38080D02*
X38100D01*
X38140D02*
X38180D01*
X32260Y44930D02*
X32280D01*
X32300D02*
X32320D01*
X32340D02*
X32360D01*
X32540D02*
X32560D01*
X32580D02*
X32620D01*
X32640D02*
X32660D01*
X33220D02*
X33240D01*
X33260D02*
X33580D01*
X33600D02*
X33620D01*
X33960D02*
X33980D01*
X34000D02*
X34300D01*
X34320D02*
X34340D01*
X34640D02*
X34680D01*
X34700D02*
X34980D01*
X35000D02*
X35020D01*
X35140D02*
X35160D01*
X36560D02*
X36580D01*
X36600D02*
X36660D01*
X36700D02*
X36720D01*
X36780D02*
X36900D01*
X36940D02*
X36960D01*
X37140D02*
X37160D01*
X37180D02*
X37320D01*
X37380D02*
X37460D01*
X37500D02*
X37520D01*
X37600D02*
X37620D01*
X37640D02*
X37860D01*
X37880D02*
X37960D01*
X37980D02*
X38000D01*
X38080D02*
X38100D01*
X32260Y44910D02*
X32280D01*
X32300D02*
X32320D01*
X32340D02*
X32360D01*
X32540D02*
X32560D01*
X32580D02*
X32620D01*
X32640D02*
X32660D01*
X33220D02*
X33240D01*
X33260D02*
X33580D01*
X33600D02*
X33620D01*
X33960D02*
X33980D01*
X34000D02*
X34300D01*
X34320D02*
X34340D01*
X34640D02*
X34680D01*
X34700D02*
X34920D01*
X35000D02*
X35020D01*
X36480D02*
X36560D01*
X36620D02*
X36660D01*
X36680D02*
X36720D01*
X36780D02*
X36920D01*
X36940D02*
X36960D01*
X37140D02*
X37160D01*
X37180D02*
X37400D01*
X37480D02*
X37500D01*
X37660D02*
X37760D01*
X37860D02*
X37920D01*
X32260Y44890D02*
X32280D01*
X32300D02*
X32320D01*
X32340D02*
X32360D01*
X32540D02*
X32560D01*
X32580D02*
X32620D01*
X32640D02*
X32660D01*
X33220D02*
X33240D01*
X33260D02*
X33580D01*
X33600D02*
X33620D01*
X33960D02*
X33980D01*
X34000D02*
X34300D01*
X34320D02*
X34340D01*
X34640D02*
X34680D01*
X34700D02*
X34860D01*
X34940D02*
X34980D01*
X36400D02*
X36480D01*
X36560D02*
X36660D01*
X36780D02*
X36800D01*
X36840D02*
X36920D01*
X36940D02*
X36960D01*
X37140D02*
X37160D01*
X37180D02*
X37320D01*
X37400D02*
X37440D01*
X37680D02*
X37900D01*
X37940D02*
X37960D01*
X32260Y44870D02*
X32280D01*
X32300D02*
X32320D01*
X32340D02*
X32360D01*
X32540D02*
X32560D01*
X32580D02*
X32620D01*
X32640D02*
X32660D01*
X33220D02*
X33240D01*
X33260D02*
X33580D01*
X33600D02*
X33620D01*
X33960D02*
X33980D01*
X34000D02*
X34300D01*
X34320D02*
X34340D01*
X34640D02*
X34680D01*
X34700D02*
X34760D01*
X34820D02*
X34880D01*
X34900D02*
X34920D01*
X36320D02*
X36420D01*
X36500D02*
X36540D01*
X36620D02*
X36660D01*
X36680D02*
X36720D01*
X36840D02*
X37000D01*
X37140D02*
X37160D01*
X37180D02*
X37400D01*
X37660D02*
X37680D01*
X37700D02*
X37720D01*
X37860D02*
X37900D01*
X37920D02*
X37940D01*
X32260Y44850D02*
X32280D01*
X32300D02*
X32320D01*
X32340D02*
X32360D01*
X32540D02*
X32560D01*
X32580D02*
X32620D01*
X32640D02*
X32660D01*
X33220D02*
X33240D01*
X33260D02*
X33580D01*
X33600D02*
X33620D01*
X33960D02*
X33980D01*
X34000D02*
X34300D01*
X34320D02*
X34340D01*
X34640D02*
X34680D01*
X34760D02*
X34840D01*
X36240D02*
X36300D01*
X36380D02*
X36480D01*
X36560D02*
X36620D01*
X36800D02*
X36820D01*
X36860D02*
X36960D01*
X37000D02*
X37020D01*
X37140D02*
X37160D01*
X37180D02*
X37300D01*
X37720D02*
X37880D01*
X32260Y44830D02*
X32280D01*
X32300D02*
X32320D01*
X32340D02*
X32360D01*
X32540D02*
X32560D01*
X32580D02*
X32620D01*
X32640D02*
X32660D01*
X33220D02*
X33240D01*
X33260D02*
X33580D01*
X33600D02*
X33620D01*
X33960D02*
X33980D01*
X34000D02*
X34300D01*
X34320D02*
X34340D01*
X34700D02*
X34720D01*
X34740D02*
X34760D01*
X36160D02*
X36200D01*
X36220D02*
X36240D01*
X36320D02*
X36400D01*
X36480D02*
X36540D01*
X36840D02*
X36860D01*
X36900D02*
X36980D01*
X37020D02*
X37040D01*
X37140D02*
X37160D01*
X37180D02*
X37240D01*
X37260D02*
X37280D01*
X32260Y44810D02*
X32280D01*
X32300D02*
X32320D01*
X32340D02*
X32360D01*
X32540D02*
X32560D01*
X32580D02*
X32620D01*
X32640D02*
X32660D01*
X33220D02*
X33240D01*
X33260D02*
X33580D01*
X33600D02*
X33620D01*
X33960D02*
X33980D01*
X34000D02*
X34300D01*
X34320D02*
X34340D01*
X34640D02*
X34680D01*
X36080D02*
X36180D01*
X36240D02*
X36300D01*
X36380D02*
X36440D01*
X36460D02*
X36480D01*
X36860D02*
X36880D01*
X36920D02*
X37020D01*
X37040D02*
X37060D01*
X37140D02*
X37160D01*
X37180D02*
X37240D01*
X37260D02*
X37280D01*
X32260Y44790D02*
X32280D01*
X32300D02*
X32320D01*
X32340D02*
X32360D01*
X32540D02*
X32560D01*
X32580D02*
X32620D01*
X32640D02*
X32660D01*
X33220D02*
X33240D01*
X33260D02*
X33580D01*
X33600D02*
X33620D01*
X33960D02*
X33980D01*
X34000D02*
X34300D01*
X34320D02*
X34340D01*
X36000D02*
X36060D01*
X36140D02*
X36240D01*
X36320D02*
X36380D01*
X36880D02*
X36900D01*
X36940D02*
X37040D01*
X37060D02*
X37080D01*
X37140D02*
X37160D01*
X37180D02*
X37240D01*
X37260D02*
X37280D01*
X32260Y44770D02*
X32280D01*
X32300D02*
X32320D01*
X32340D02*
X32360D01*
X32540D02*
X32560D01*
X32580D02*
X32620D01*
X32640D02*
X32660D01*
X33220D02*
X33240D01*
X33260D02*
X33580D01*
X33600D02*
X33620D01*
X33960D02*
X33980D01*
X34000D02*
X34300D01*
X34320D02*
X34340D01*
X35920D02*
X36000D01*
X36080D02*
X36160D01*
X36240D02*
X36300D01*
X36920D02*
X36940D01*
X36960D02*
X37040D01*
X37060D02*
X37080D01*
X37140D02*
X37160D01*
X37180D02*
X37240D01*
X37260D02*
X37280D01*
X32260Y44750D02*
X32280D01*
X32300D02*
X32320D01*
X32340D02*
X32360D01*
X32540D02*
X32560D01*
X32580D02*
X32620D01*
X32640D02*
X32660D01*
X33220D02*
X33240D01*
X33260D02*
X33580D01*
X33600D02*
X33620D01*
X33960D02*
X33980D01*
X34000D02*
X34280D01*
X34320D02*
X34340D01*
X35820D02*
X35840D01*
X35860D02*
X35920D01*
X36000D02*
X36060D01*
X36140D02*
X36240D01*
X36920D02*
X36940D01*
X36960D02*
X37040D01*
X37060D02*
X37080D01*
X37140D02*
X37160D01*
X37180D02*
X37240D01*
X37260D02*
X37280D01*
X32260Y44730D02*
X32280D01*
X32300D02*
X32320D01*
X32340D02*
X32360D01*
X32540D02*
X32560D01*
X32580D02*
X32620D01*
X32640D02*
X32660D01*
X33220D02*
X33240D01*
X33260D02*
X33580D01*
X33600D02*
X33620D01*
X33960D02*
X33980D01*
X34000D02*
X34220D01*
X34320D02*
X34340D01*
X35760D02*
X35820D01*
X35880D02*
X35980D01*
X36060D02*
X36140D01*
X36920D02*
X36940D01*
X36960D02*
X37040D01*
X37060D02*
X37080D01*
X37140D02*
X37160D01*
X37180D02*
X37220D01*
X37260D02*
X37280D01*
X32260Y44710D02*
X32280D01*
X32300D02*
X32320D01*
X32340D02*
X32360D01*
X32540D02*
X32560D01*
X32580D02*
X32620D01*
X32640D02*
X32660D01*
X33220D02*
X33240D01*
X33260D02*
X33580D01*
X33600D02*
X33620D01*
X33960D02*
X33980D01*
X34000D02*
X34160D01*
X34240D02*
X34300D01*
X35680D02*
X35740D01*
X35820D02*
X35840D01*
X35860D02*
X35920D01*
X36000D02*
X36020D01*
X36040D02*
X36060D01*
X36880D02*
X36920D01*
X36940D02*
X37040D01*
X37060D02*
X37080D01*
X37140D02*
X37160D01*
X37220D02*
X37240D01*
X37260D02*
X37280D01*
X32260Y44690D02*
X32280D01*
X32300D02*
X32320D01*
X32340D02*
X32360D01*
X32540D02*
X32560D01*
X32580D02*
X32620D01*
X32640D02*
X32660D01*
X33220D02*
X33240D01*
X33260D02*
X33580D01*
X33600D02*
X33620D01*
X33960D02*
X33980D01*
X34000D02*
X34040D01*
X34120D02*
X34220D01*
X35580D02*
X35680D01*
X35760D02*
X35820D01*
X35880D02*
X35980D01*
X36780D02*
X36880D01*
X36920D02*
X37020D01*
X37060D02*
X37080D01*
X37140D02*
X37160D01*
X37200D02*
X37220D01*
X32260Y44670D02*
X32280D01*
X32300D02*
X32320D01*
X32340D02*
X32360D01*
X32540D02*
X32560D01*
X32580D02*
X32620D01*
X32640D02*
X32660D01*
X33220D02*
X33240D01*
X33260D02*
X33580D01*
X33600D02*
X33620D01*
X33960D02*
X33980D01*
X34060D02*
X34120D01*
X35500D02*
X35580D01*
X35640D02*
X35740D01*
X35820D02*
X35900D01*
X36700D02*
X36760D01*
X36840D02*
X36960D01*
X37040D02*
X37060D01*
X32260Y44650D02*
X32280D01*
X32300D02*
X32320D01*
X32340D02*
X32360D01*
X32540D02*
X32560D01*
X32580D02*
X32620D01*
X32640D02*
X32660D01*
X33220D02*
X33240D01*
X33260D02*
X33540D01*
X33560D02*
X33580D01*
X33600D02*
X33620D01*
X33960D02*
X33980D01*
X34000D02*
X34060D01*
X35420D02*
X35500D01*
X35580D02*
X35680D01*
X35740D02*
X35820D01*
X36620D02*
X36700D01*
X36780D02*
X36880D01*
X36960D02*
X36980D01*
X37000D02*
X37020D01*
X32260Y44630D02*
X32280D01*
X32300D02*
X32320D01*
X32540D02*
X32560D01*
X32580D02*
X32620D01*
X32640D02*
X32660D01*
X33220D02*
X33240D01*
X33260D02*
X33580D01*
X33600D02*
X33620D01*
X33960D02*
X33980D01*
X35340D02*
X35440D01*
X35520D02*
X35560D01*
X35640D02*
X35740D01*
X36520D02*
X36620D01*
X36700D02*
X36760D01*
X36840D02*
X36960D01*
X32260Y44610D02*
X32280D01*
X32300D02*
X32320D01*
X32340D02*
X32360D01*
X32540D02*
X32560D01*
X32580D02*
X32620D01*
X32640D02*
X32660D01*
X33220D02*
X33240D01*
X33260D02*
X33580D01*
X33600D02*
X33620D01*
X35260D02*
X35320D01*
X35400D02*
X35440D01*
X35460D02*
X35500D01*
X35580D02*
X35640D01*
X36460D02*
X36520D01*
X36600D02*
X36700D01*
X36780D02*
X36860D01*
X32260Y44590D02*
X32280D01*
X32300D02*
X32320D01*
X32340D02*
X32360D01*
X32540D02*
X32560D01*
X32580D02*
X32620D01*
X32640D02*
X32660D01*
X33220D02*
X33240D01*
X33260D02*
X33580D01*
X33600D02*
X33620D01*
X35180D02*
X35260D01*
X35340D02*
X35420D01*
X35500D02*
X35560D01*
X36380D02*
X36440D01*
X36520D02*
X36620D01*
X36700D02*
X36780D01*
X32260Y44570D02*
X32280D01*
X32300D02*
X32320D01*
X32340D02*
X32360D01*
X32540D02*
X32560D01*
X32580D02*
X32620D01*
X32640D02*
X32660D01*
X33220D02*
X33240D01*
X33260D02*
X33580D01*
X33600D02*
X33620D01*
X35080D02*
X35200D01*
X35260D02*
X35320D01*
X35400D02*
X35500D01*
X36280D02*
X36380D01*
X36460D02*
X36500D01*
X36580D02*
X36700D01*
X32260Y44550D02*
X32280D01*
X32300D02*
X32320D01*
X32340D02*
X32360D01*
X32540D02*
X32560D01*
X32580D02*
X32620D01*
X32640D02*
X32660D01*
X33220D02*
X33240D01*
X33260D02*
X33540D01*
X33600D02*
X33620D01*
X35020D02*
X35080D01*
X35160D02*
X35260D01*
X35320D02*
X35400D01*
X36200D02*
X36280D01*
X36340D02*
X36440D01*
X36520D02*
X36600D01*
X32260Y44530D02*
X32280D01*
X32300D02*
X32320D01*
X32340D02*
X32360D01*
X32540D02*
X32560D01*
X32580D02*
X32620D01*
X32640D02*
X32660D01*
X33220D02*
X33240D01*
X33260D02*
X33500D01*
X33560D02*
X33580D01*
X33600D02*
X33620D01*
X34940D02*
X35020D01*
X35100D02*
X35180D01*
X35260D02*
X35320D01*
X36120D02*
X36200D01*
X36280D02*
X36300D01*
X36320D02*
X36360D01*
X36440D02*
X36520D01*
X32260Y44510D02*
X32280D01*
X32300D02*
X32320D01*
X32340D02*
X32360D01*
X32540D02*
X32560D01*
X32580D02*
X32620D01*
X32640D02*
X32660D01*
X33220D02*
X33240D01*
X33260D02*
X33360D01*
X33440D02*
X33460D01*
X33480D02*
X33500D01*
X33520D02*
X33540D01*
X34840D02*
X34880D01*
X34900D02*
X34940D01*
X35040D02*
X35080D01*
X35160D02*
X35220D01*
X35240D02*
X35260D01*
X36040D02*
X36120D01*
X36200D02*
X36260D01*
X36340D02*
X36440D01*
X32260Y44490D02*
X32280D01*
X32300D02*
X32320D01*
X32340D02*
X32360D01*
X32540D02*
X32560D01*
X32580D02*
X32620D01*
X32640D02*
X32660D01*
X33220D02*
X33240D01*
X33260D02*
X33300D01*
X33380D02*
X33460D01*
X34780D02*
X34840D01*
X34920D02*
X34980D01*
X35080D02*
X35160D01*
X35960D02*
X35980D01*
X36000D02*
X36020D01*
X36100D02*
X36180D01*
X36260D02*
X36320D01*
X32260Y44470D02*
X32280D01*
X32300D02*
X32320D01*
X32340D02*
X32360D01*
X32540D02*
X32560D01*
X32580D02*
X32620D01*
X32640D02*
X32660D01*
X33220D02*
X33240D01*
X33300D02*
X33380D01*
X34700D02*
X34760D01*
X34840D02*
X34880D01*
X34900D02*
X34940D01*
X35020D02*
X35080D01*
X35880D02*
X35900D01*
X35920D02*
X35960D01*
X36040D02*
X36120D01*
X36200D02*
X36260D01*
X32260Y44450D02*
X32280D01*
X32300D02*
X32320D01*
X32340D02*
X32360D01*
X32540D02*
X32560D01*
X32580D02*
X32620D01*
X32640D02*
X32660D01*
X33220D02*
X33240D01*
X33280D02*
X33300D01*
X34600D02*
X34700D01*
X34780D02*
X34840D01*
X34900D02*
X34940D01*
X34960D02*
X35020D01*
X35780D02*
X35840D01*
X35860D02*
X35880D01*
X35960D02*
X36000D01*
X36080D02*
X36140D01*
X36160D02*
X36180D01*
X32260Y44430D02*
X32280D01*
X32300D02*
X32320D01*
X32340D02*
X32360D01*
X32540D02*
X32560D01*
X32580D02*
X32620D01*
X32640D02*
X32660D01*
X34540D02*
X34580D01*
X34660D02*
X34740D01*
X34840D02*
X34920D01*
X35720D02*
X35780D01*
X35860D02*
X35880D01*
X35920D02*
X35940D01*
X36020D02*
X36100D01*
X32260Y44410D02*
X32280D01*
X32300D02*
X32320D01*
X32340D02*
X32360D01*
X32540D02*
X32560D01*
X32580D02*
X32620D01*
X32640D02*
X32660D01*
X34460D02*
X34520D01*
X34600D02*
X34700D01*
X34780D02*
X34840D01*
X35640D02*
X35700D01*
X35780D02*
X35860D01*
X35940D02*
X36000D01*
X32260Y44390D02*
X32280D01*
X32300D02*
X32320D01*
X32340D02*
X32360D01*
X32540D02*
X32560D01*
X32580D02*
X32620D01*
X32640D02*
X32660D01*
X34360D02*
X34460D01*
X34540D02*
X34580D01*
X34660D02*
X34760D01*
X35540D02*
X35560D01*
X35580D02*
X35640D01*
X35720D02*
X35760D01*
X35820D02*
X35900D01*
X35920D02*
X35940D01*
X32260Y44370D02*
X32280D01*
X32300D02*
X32320D01*
X32340D02*
X32360D01*
X32540D02*
X32560D01*
X32580D02*
X32620D01*
X32640D02*
X32660D01*
X34280D02*
X34340D01*
X34420D02*
X34440D01*
X34460D02*
X34520D01*
X34600D02*
X34660D01*
X35460D02*
X35540D01*
X35600D02*
X35680D01*
X35760D02*
X35840D01*
X32260Y44350D02*
X32280D01*
X32300D02*
X32320D01*
X32340D02*
X32360D01*
X32540D02*
X32560D01*
X32580D02*
X32620D01*
X32640D02*
X32660D01*
X34200D02*
X34280D01*
X34360D02*
X34460D01*
X34520D02*
X34600D01*
X35380D02*
X35440D01*
X35540D02*
X35620D01*
X35700D02*
X35760D01*
X32260Y44330D02*
X32280D01*
X32300D02*
X32320D01*
X32340D02*
X32360D01*
X32540D02*
X32560D01*
X32580D02*
X32620D01*
X32640D02*
X32660D01*
X34120D02*
X34220D01*
X34280D02*
X34340D01*
X34420D02*
X34520D01*
X35300D02*
X35400D01*
X35460D02*
X35520D01*
X35640D02*
X35680D01*
X32260Y44310D02*
X32280D01*
X32300D02*
X32320D01*
X32340D02*
X32360D01*
X32540D02*
X32560D01*
X32580D02*
X32620D01*
X32640D02*
X32660D01*
X34040D02*
X34060D01*
X34080D02*
X34100D01*
X34180D02*
X34280D01*
X34360D02*
X34420D01*
X35220D02*
X35280D01*
X35360D02*
X35440D01*
X35520D02*
X35600D01*
X32260Y44290D02*
X32280D01*
X32300D02*
X32320D01*
X32340D02*
X32360D01*
X32540D02*
X32560D01*
X32580D02*
X32620D01*
X32640D02*
X32660D01*
X33960D02*
X34040D01*
X34120D02*
X34200D01*
X34280D02*
X34300D01*
X34320D02*
X34340D01*
X35140D02*
X35220D01*
X35300D02*
X35320D01*
X35340D02*
X35380D01*
X35440D02*
X35520D01*
X32260Y44270D02*
X32280D01*
X32300D02*
X32320D01*
X32340D02*
X32360D01*
X32540D02*
X32560D01*
X32580D02*
X32620D01*
X32640D02*
X32660D01*
X33860D02*
X33960D01*
X34040D02*
X34100D01*
X34180D02*
X34240D01*
X35040D02*
X35080D01*
X35100D02*
X35140D01*
X35220D02*
X35260D01*
X35340D02*
X35440D01*
X32260Y44250D02*
X32280D01*
X32300D02*
X32320D01*
X32340D02*
X32360D01*
X32540D02*
X32560D01*
X32580D02*
X32620D01*
X32640D02*
X32660D01*
X33820D02*
X33860D01*
X33940D02*
X34020D01*
X34100D02*
X34180D01*
X34980D02*
X35040D01*
X35120D02*
X35180D01*
X35280D02*
X35340D01*
X32260Y44230D02*
X32280D01*
X32300D02*
X32320D01*
X32340D02*
X32360D01*
X32540D02*
X32560D01*
X32580D02*
X32620D01*
X32640D02*
X32660D01*
X33720D02*
X33780D01*
X33880D02*
X33960D01*
X34040D02*
X34100D01*
X34900D02*
X34960D01*
X35040D02*
X35120D01*
X35200D02*
X35260D01*
X32260Y44210D02*
X32280D01*
X32300D02*
X32320D01*
X32340D02*
X32360D01*
X32580D02*
X32620D01*
X32640D02*
X32660D01*
X33620D02*
X33640D01*
X33660D02*
X33700D01*
X33800D02*
X33860D01*
X33920D02*
X34020D01*
X34800D02*
X34900D01*
X34980D02*
X35020D01*
X35080D02*
X35180D01*
X32260Y44190D02*
X32280D01*
X32300D02*
X32320D01*
X32340D02*
X32360D01*
X32540D02*
X32560D01*
X32600D02*
X32620D01*
X32640D02*
X32660D01*
X33560D02*
X33620D01*
X33700D02*
X33760D01*
X33860D02*
X33940D01*
X34740D02*
X34800D01*
X34860D02*
X34960D01*
X35020D02*
X35100D01*
X32260Y44170D02*
X32280D01*
X32300D02*
X32320D01*
X32340D02*
X32360D01*
X32540D02*
X32560D01*
X32580D02*
X32620D01*
X32640D02*
X32660D01*
X33460D02*
X33540D01*
X33620D02*
X33720D01*
X33800D02*
X33860D01*
X34660D02*
X34700D01*
X34800D02*
X34880D01*
X34980D02*
X35020D01*
X32260Y44150D02*
X32280D01*
X32300D02*
X32320D01*
X32340D02*
X32360D01*
X32540D02*
X32560D01*
X32580D02*
X32600D01*
X32620D02*
X32660D01*
X33380D02*
X33400D01*
X33420D02*
X33480D01*
X33560D02*
X33600D01*
X33680D02*
X33780D01*
X34560D02*
X34660D01*
X34740D02*
X34800D01*
X34860D02*
X34960D01*
X32260Y44130D02*
X32280D01*
X32300D02*
X32320D01*
X32340D02*
X32360D01*
X32560D02*
X32580D01*
X32600D02*
X32640D01*
X32660D02*
X32680D01*
X33300D02*
X33360D01*
X33440D02*
X33540D01*
X33620D02*
X33700D01*
X34480D02*
X34540D01*
X34620D02*
X34700D01*
X34780D02*
X34860D01*
X32260Y44110D02*
X32280D01*
X32300D02*
X32320D01*
X32340D02*
X32360D01*
X32560D02*
X32580D01*
X32600D02*
X32640D01*
X32660D02*
X32680D01*
X33220D02*
X33300D01*
X33380D02*
X33420D01*
X33440D02*
X33480D01*
X33540D02*
X33560D01*
X33580D02*
X33600D01*
X34400D02*
X34480D01*
X34560D02*
X34640D01*
X34720D02*
X34780D01*
X32260Y44090D02*
X32280D01*
X32300D02*
X32320D01*
X32340D02*
X32360D01*
X32560D02*
X32580D01*
X32600D02*
X32660D01*
X32680D02*
X32700D01*
X33140D02*
X33240D01*
X33300D02*
X33360D01*
X33440D02*
X33500D01*
X33520D02*
X33540D01*
X34300D02*
X34400D01*
X34480D02*
X34520D01*
X34600D02*
X34700D01*
X32260Y44070D02*
X32280D01*
X32300D02*
X32320D01*
X32340D02*
X32360D01*
X32580D02*
X32680D01*
X33060D02*
X33120D01*
X33200D02*
X33300D01*
X33380D02*
X33440D01*
X34240D02*
X34300D01*
X34400D02*
X34460D01*
X34540D02*
X34600D01*
X32260Y44050D02*
X32280D01*
X32300D02*
X32320D01*
X32340D02*
X32360D01*
X32580D02*
X32600D01*
X32620D02*
X32740D01*
X32980D02*
X33060D01*
X33140D02*
X33220D01*
X33320D02*
X33360D01*
X34160D02*
X34240D01*
X34300D02*
X34380D01*
X34460D02*
X34540D01*
X32260Y44030D02*
X32280D01*
X32300D02*
X32320D01*
X32340D02*
X32360D01*
X32640D02*
X32720D01*
X32740D02*
X32980D01*
X33060D02*
X33120D01*
X33200D02*
X33260D01*
X33280D02*
X33300D01*
X34060D02*
X34160D01*
X34240D02*
X34280D01*
X34360D02*
X34460D01*
X32260Y44010D02*
X32280D01*
X32300D02*
X32320D01*
X32600D02*
X32620D01*
X32660D02*
X32760D01*
X32960D02*
X33020D01*
X33140D02*
X33200D01*
X34000D02*
X34020D01*
X34040D02*
X34060D01*
X34140D02*
X34220D01*
X34280D02*
X34360D01*
X32260Y43990D02*
X32280D01*
X32300D02*
X32320D01*
X32340D02*
X32360D01*
X32620D02*
X32640D01*
X32680D02*
X32940D01*
X32960D02*
X32980D01*
X33060D02*
X33080D01*
X33100D02*
X33120D01*
X33920D02*
X33980D01*
X34060D02*
X34140D01*
X34220D02*
X34280D01*
X32260Y43970D02*
X32280D01*
X32300D02*
X32320D01*
X32340D02*
X32360D01*
X32660D02*
X32700D01*
X32800D02*
X32840D01*
X32960D02*
X33040D01*
X33820D02*
X33920D01*
X34000D02*
X34040D01*
X34100D02*
X34220D01*
X32260Y43950D02*
X32280D01*
X32300D02*
X32320D01*
X32340D02*
X32360D01*
X32700D02*
X32780D01*
X32860D02*
X32960D01*
X33740D02*
X33820D01*
X33880D02*
X33960D01*
X34040D02*
X34120D01*
X32280Y43930D02*
X32320D01*
X32340D02*
X32360D01*
X32780D02*
X32860D01*
X33660D02*
X33740D01*
X33820D02*
X33840D01*
X33860D02*
X33900D01*
X33980D02*
X34040D01*
X32280Y43910D02*
X32320D01*
X33580D02*
X33660D01*
X33740D02*
X33780D01*
X33880D02*
X33960D01*
X32280Y43890D02*
X32320D01*
X32340D02*
X32360D01*
X33500D02*
X33560D01*
X33640D02*
X33660D01*
X33680D02*
X33720D01*
X33800D02*
X33880D01*
X32280Y43870D02*
X32300D01*
X32320D02*
X32360D01*
X33420D02*
X33480D01*
X33560D02*
X33620D01*
X33740D02*
X33780D01*
X32280Y43850D02*
X32300D01*
X32320D02*
X32340D01*
X32360D02*
X32380D01*
X33360D02*
X33420D01*
X33500D02*
X33540D01*
X33620D02*
X33680D01*
X33700D02*
X33720D01*
X32280Y43830D02*
X32300D01*
X32320D02*
X32340D01*
X32360D02*
X32380D01*
X33260D02*
X33320D01*
X33400D02*
X33480D01*
X33540D02*
X33620D01*
X32300Y43810D02*
X32320D01*
X32380D02*
X32400D01*
X33160D02*
X33240D01*
X33320D02*
X33400D01*
X33480D02*
X33540D01*
X32300Y43790D02*
X32320D01*
X32340D02*
X32360D01*
X32380D02*
X32400D01*
X33080D02*
X33180D01*
X33280D02*
X33300D01*
X33380D02*
X33480D01*
X32300Y43770D02*
X32320D01*
X32360D02*
X32380D01*
X32400D02*
X32420D01*
X33000D02*
X33060D01*
X33140D02*
X33160D01*
X33180D02*
X33220D01*
X33300D02*
X33380D01*
X32320Y43750D02*
X32340D01*
X32360D02*
X32400D01*
X32420D02*
X32440D01*
X32940D02*
X33000D01*
X33060D02*
X33160D01*
X33240D02*
X33300D01*
X32340Y43730D02*
X32380D01*
X32400D02*
X32420D01*
X32820D02*
X32940D01*
X33000D02*
X33060D01*
X33120D02*
X33220D01*
X32340Y43710D02*
X32360D01*
X32380D02*
X32420D01*
X32460D02*
X32480D01*
X32780D02*
X32820D01*
X32900D02*
X32980D01*
X33060D02*
X33120D01*
X32360Y43690D02*
X32380D01*
X32400D02*
X32460D01*
X32500D02*
X32540D01*
X32680D02*
X32760D01*
X32820D02*
X32900D01*
X32980D02*
X33040D01*
X32380Y43670D02*
X32400D01*
X32440D02*
X32480D01*
X32540D02*
X32700D01*
X32780D02*
X32800D01*
X32880D02*
X32980D01*
X32400Y43650D02*
X32420D01*
X32480D02*
X32540D01*
X32560D02*
X32580D01*
X32640D02*
X32660D01*
X32680D02*
X32740D01*
X32820D02*
X32880D01*
X32460Y43630D02*
X32480D01*
X32760D02*
X32800D01*
X32480Y43610D02*
X32520D01*
X32540D02*
X32740D01*
D13*
X28800Y27281D02*
Y31219D01*
X14800Y27281D02*
Y31219D01*
X10967Y10442D02*
Y22300D01*
Y10442D02*
X32668D01*
Y22300D01*
X10967D02*
X32668D01*
D14*
X28550Y40850D02*
X28950D01*
X28550Y41850D02*
X28950D01*
X28750Y42050D02*
Y41650D01*
X12550Y40750D02*
X12950D01*
X12550Y41850D02*
X12950D01*
X12750Y42050D02*
Y41650D01*
X32020Y33350D02*
Y33950D01*
X32320D01*
X32420Y33850D01*
Y33650D01*
X32320Y33550D01*
X32020D01*
X33020Y33350D02*
X32620D01*
X33020Y33750D01*
Y33850D01*
X32920Y33950D01*
X32720D01*
X32620Y33850D01*
X17463Y48990D02*
Y48490D01*
X17563Y48390D01*
X17763D01*
X17863Y48490D01*
Y48990D01*
X18463D02*
X18063D01*
Y48690D01*
X18263Y48790D01*
X18363D01*
X18463Y48690D01*
Y48490D01*
X18363Y48390D01*
X18163D01*
X18063Y48490D01*
X21490Y32770D02*
Y33370D01*
X21790D01*
X21890Y33270D01*
Y33070D01*
X21790Y32970D01*
X21490D01*
X21690D02*
X21890Y32770D01*
X22490Y33370D02*
X22090D01*
Y33070D01*
X22290Y33170D01*
X22390D01*
X22490Y33070D01*
Y32870D01*
X22390Y32770D01*
X22190D01*
X22090Y32870D01*
X22925Y33505D02*
Y32905D01*
X23225D01*
X23325Y33005D01*
Y33405D01*
X23225Y33505D01*
X22925D01*
X23525Y32905D02*
X23725D01*
X23625D01*
Y33505D01*
X23525Y33405D01*
X11630Y43400D02*
X11430D01*
X11530D01*
Y42900D01*
X11430Y42800D01*
X11330D01*
X11230Y42900D01*
X11830Y43300D02*
X11930Y43400D01*
X12130D01*
X12230Y43300D01*
Y43200D01*
X12130Y43100D01*
X12030D01*
X12130D01*
X12230Y43000D01*
Y42900D01*
X12130Y42800D01*
X11930D01*
X11830Y42900D01*
X29780Y43400D02*
X29580D01*
X29680D01*
Y42900D01*
X29580Y42800D01*
X29480D01*
X29380Y42900D01*
X30380Y42800D02*
X29980D01*
X30380Y43200D01*
Y43300D01*
X30280Y43400D01*
X30080D01*
X29980Y43300D01*
X1855Y22985D02*
Y23585D01*
X2155D01*
X2255Y23485D01*
Y23285D01*
X2155Y23185D01*
X1855D01*
X2855Y23585D02*
X2655Y23485D01*
X2455Y23285D01*
Y23085D01*
X2555Y22985D01*
X2755D01*
X2855Y23085D01*
Y23185D01*
X2755Y23285D01*
X2455D01*
X1855Y41185D02*
Y41785D01*
X2155D01*
X2255Y41685D01*
Y41485D01*
X2155Y41385D01*
X1855D01*
X2755Y41185D02*
Y41785D01*
X2455Y41485D01*
X2855D01*
X34655Y22985D02*
Y23585D01*
X34955D01*
X35055Y23485D01*
Y23285D01*
X34955Y23185D01*
X34655D01*
X35255Y23485D02*
X35355Y23585D01*
X35555D01*
X35655Y23485D01*
Y23385D01*
X35555Y23285D01*
X35455D01*
X35555D01*
X35655Y23185D01*
Y23085D01*
X35555Y22985D01*
X35355D01*
X35255Y23085D01*
X34655Y41185D02*
Y41785D01*
X34955D01*
X35055Y41685D01*
Y41485D01*
X34955Y41385D01*
X34655D01*
X35255Y41185D02*
X35455D01*
X35355D01*
Y41785D01*
X35255Y41685D01*
X19050Y34000D02*
Y34600D01*
X19350D01*
X19450Y34500D01*
Y34300D01*
X19350Y34200D01*
X19050D01*
X19250D02*
X19450Y34000D01*
X19650D02*
X19850D01*
X19750D01*
Y34600D01*
X19650Y34500D01*
X15190Y32230D02*
X14990D01*
X15090D01*
Y31730D01*
X14990Y31630D01*
X14890D01*
X14790Y31730D01*
X15390Y31630D02*
X15590D01*
X15490D01*
Y32230D01*
X15390Y32130D01*
X10569Y23312D02*
Y22712D01*
X10869D01*
X10969Y22812D01*
Y22912D01*
X10869Y23012D01*
X10569D01*
X10869D01*
X10969Y23112D01*
Y23212D01*
X10869Y23312D01*
X10569D01*
X11169D02*
X11569D01*
X11369D01*
Y22712D01*
X11769D02*
X11969D01*
X11869D01*
Y23312D01*
X11769Y23212D01*
X23500Y26950D02*
Y26850D01*
X23700Y26650D01*
X23900Y26850D01*
Y26950D01*
X23700Y26650D02*
Y26350D01*
X24100D02*
X24300D01*
X24200D01*
Y26950D01*
X24100Y26850D01*
X16250Y33000D02*
Y32500D01*
X16350Y32400D01*
X16550D01*
X16650Y32500D01*
Y33000D01*
X17250Y32400D02*
X16850D01*
X17250Y32800D01*
Y32900D01*
X17150Y33000D01*
X16950D01*
X16850Y32900D01*
X15600Y25800D02*
X16100D01*
X16200Y25900D01*
Y26100D01*
X16100Y26200D01*
X15600D01*
X16200Y26400D02*
Y26600D01*
Y26500D01*
X15600D01*
X15700Y26400D01*
X19980Y26480D02*
Y27080D01*
X20280D01*
X20380Y26980D01*
Y26780D01*
X20280Y26680D01*
X19980D01*
X20180D02*
X20380Y26480D01*
X20880D02*
Y27080D01*
X20580Y26780D01*
X20980D01*
X13145Y28405D02*
Y29005D01*
X13445D01*
X13545Y28905D01*
Y28705D01*
X13445Y28605D01*
X13145D01*
X13345D02*
X13545Y28405D01*
X13745Y28905D02*
X13845Y29005D01*
X14045D01*
X14145Y28905D01*
Y28805D01*
X14045Y28705D01*
X13945D01*
X14045D01*
X14145Y28605D01*
Y28505D01*
X14045Y28405D01*
X13845D01*
X13745Y28505D01*
X17650Y34800D02*
Y35400D01*
X17950D01*
X18050Y35300D01*
Y35100D01*
X17950Y35000D01*
X17650D01*
X17850D02*
X18050Y34800D01*
X18650D02*
X18250D01*
X18650Y35200D01*
Y35300D01*
X18550Y35400D01*
X18350D01*
X18250Y35300D01*
X960Y31590D02*
Y32190D01*
X1260D01*
X1360Y32090D01*
Y31890D01*
X1260Y31790D01*
X960D01*
X1560Y32190D02*
X1960D01*
Y32090D01*
X1560Y31690D01*
Y31590D01*
X25600Y24050D02*
X25700Y24150D01*
Y24350D01*
X25600Y24450D01*
X25200D01*
X25100Y24350D01*
Y24150D01*
X25200Y24050D01*
X25700Y23850D02*
Y23450D01*
X25600D01*
X25200Y23850D01*
X25100D01*
X22150Y24100D02*
X22050Y24000D01*
Y23800D01*
X22150Y23700D01*
X22550D01*
X22650Y23800D01*
Y24000D01*
X22550Y24100D01*
X22050Y24700D02*
X22150Y24500D01*
X22350Y24300D01*
X22550D01*
X22650Y24400D01*
Y24600D01*
X22550Y24700D01*
X22450D01*
X22350Y24600D01*
Y24300D01*
X20231Y24500D02*
X20131Y24600D01*
X19931D01*
X19831Y24500D01*
Y24100D01*
X19931Y24000D01*
X20131D01*
X20231Y24100D01*
X20830Y24600D02*
X20431D01*
Y24300D01*
X20630Y24400D01*
X20730D01*
X20830Y24300D01*
Y24100D01*
X20730Y24000D01*
X20530D01*
X20431Y24100D01*
X20650Y34600D02*
X20550Y34700D01*
X20350D01*
X20250Y34600D01*
Y34200D01*
X20350Y34100D01*
X20550D01*
X20650Y34200D01*
X21150Y34100D02*
Y34700D01*
X20850Y34400D01*
X21250D01*
X13850Y24850D02*
X13750Y24750D01*
Y24550D01*
X13850Y24450D01*
X14250D01*
X14350Y24550D01*
Y24750D01*
X14250Y24850D01*
X13850Y25050D02*
X13750Y25150D01*
Y25350D01*
X13850Y25450D01*
X13950D01*
X14050Y25350D01*
Y25250D01*
Y25350D01*
X14150Y25450D01*
X14250D01*
X14350Y25350D01*
Y25150D01*
X14250Y25050D01*
X17800Y24850D02*
X17700Y24750D01*
Y24550D01*
X17800Y24450D01*
X18200D01*
X18300Y24550D01*
Y24750D01*
X18200Y24850D01*
X18300Y25450D02*
Y25050D01*
X17900Y25450D01*
X17800D01*
X17700Y25350D01*
Y25150D01*
X17800Y25050D01*
X15100Y23600D02*
X15000Y23500D01*
Y23300D01*
X15100Y23200D01*
X15500D01*
X15600Y23300D01*
Y23500D01*
X15500Y23600D01*
X15600Y23800D02*
Y24000D01*
Y23900D01*
X15000D01*
X15100Y23800D01*
D15*
X33750Y32583D02*
X33817Y32650D01*
X33950D01*
X34017Y32583D01*
Y32517D01*
X33950Y32450D01*
X34017Y32383D01*
Y32317D01*
X33950Y32250D01*
X33817D01*
X33750Y32317D01*
Y32383D01*
X33817Y32450D01*
X33750Y32517D01*
Y32583D01*
X33817Y32450D02*
X33950D01*
X33800Y25200D02*
X33933D01*
X33867D01*
Y25600D01*
X33800Y25533D01*
D16*
X33366Y19334D02*
Y18702D01*
X33050Y19018D02*
X33683D01*
X33050Y14018D02*
X33683D01*
M02*
